<svg xmlns="http://www.w3.org/2000/svg" width="105.12" height="108.73" viewBox="0 0 105.12 108.73">
  <g id="rLtX6o" transform="translate(-184.584 -733.322)">
    <g id="Grupo_896428" data-name="Grupo 896428" transform="translate(184.584 733.322)">
      <path id="Trazado_617024" data-name="Trazado 617024" d="M288.312,771.4a6.461,6.461,0,0,1,1.388,4.574c-.049,3.132-.031,6.266-.009,9.4a5.672,5.672,0,0,1-3.07,5.394,1.529,1.529,0,0,0-.536,1.157c-.033,6.229-.02,12.457-.024,18.686,0,5.892-3.808,9.69-9.708,9.692q-13.476.005-26.953,0h-1.312v10.872h5.406c1.774,0,3.549-.019,5.323.005a5.431,5.431,0,0,1,5.495,5.441c.024,1.17.031,2.341,0,3.51a1.811,1.811,0,0,1-1.928,1.912c-.263.013-.528,0-.793,0H209.038c-2.226,0-2.707-.486-2.708-2.729,0-.868-.01-1.737,0-2.6a5.42,5.42,0,0,1,5.517-5.531c3.544-.028,7.088-.006,10.71-.006V820.3h-1.218q-13.533,0-27.066,0c-5.891,0-9.689-3.807-9.69-9.709q0-31.992,0-63.985c0-5.836,3.808-9.658,9.623-9.66q20.158-.007,40.316.011a1.5,1.5,0,0,0,1.575-.88,5.282,5.282,0,0,1,4.975-2.758q9.286.011,18.573,0,12,0,24.009,0c3.84,0,6.025,2.2,6.029,6.049,0,3.1-.035,6.191.015,9.286a6.49,6.49,0,0,1-1.408,4.6,6.691,6.691,0,0,1,1.409,4.87c-.054,2.981-.014,5.964-.015,8.946A5.971,5.971,0,0,1,288.312,771.4Zm-100.1,34.327h94.136V791.311H280.9q-19.87,0-39.74,0a5.457,5.457,0,0,1-5.831-5.79c-.01-3.057.036-6.115-.017-9.17-.031-1.815.124-3.54,1.412-4.965a6.365,6.365,0,0,1-1.411-4.5c.051-2.641.029-5.283.009-7.925-.016-2.04-.155-4.1,1.421-5.7a6.015,6.015,0,0,1-1.426-4.214c.04-2.415.01-4.831.01-7.246v-1.232h-1.3q-19.87,0-39.74,0c-3.907,0-6.073,2.182-6.074,6.113q0,28.928,0,57.855Zm.072,3.746c-.665,4.844,2.492,7.276,6.5,7.261,27.217-.1,54.435-.053,81.653-.056,4.19,0,6.661-3.025,5.861-7.2Zm74.185-58.029q10.532,0,21.064,0c1.951,0,2.528-.559,2.53-2.455q.006-4.87,0-9.739c0-1.684-.63-2.3-2.341-2.3q-21.234,0-42.468,0c-1.687,0-2.3.626-2.3,2.338q-.01,4.813,0,9.626c0,1.99.549,2.529,2.567,2.53Q251.991,751.446,262.466,751.445Zm.037,21.745q-10.646,0-21.291,0c-1.628,0-2.258.634-2.263,2.262q-.013,4.983,0,9.966c0,1.625.637,2.263,2.262,2.264q21.291.007,42.582,0c1.624,0,2.26-.64,2.265-2.264q.014-4.87,0-9.74c0-1.926-.565-2.49-2.493-2.49Q273.036,773.188,262.5,773.19Zm0-3.624q10.645,0,21.291,0c1.623,0,2.258-.641,2.263-2.266q.014-4.983,0-9.966c0-1.624-.639-2.259-2.266-2.26q-21.291-.007-42.582,0c-1.627,0-2.256.635-2.261,2.264q-.013,4.87,0,9.739c0,1.926.565,2.49,2.493,2.49Q251.973,769.568,262.505,769.566ZM226.317,831.1H244.3V820.36H226.317Zm-16.358,7.25H260.62c.272-3.073-.157-3.55-3.116-3.55H212.8c-.34,0-.68-.016-1.018.007a1.79,1.79,0,0,0-1.817,1.785C209.928,837.152,209.96,837.716,209.96,838.351Z" transform="translate(-184.584 -733.322)" fill="#12263f"/>
      <path id="Trazado_617025" data-name="Trazado 617025" d="M200.556,830.424v-1.187q0-28.927,0-57.855c0-3.932,2.167-6.113,6.074-6.113q19.87,0,39.74,0h1.3V766.5c0,2.415.029,4.831-.01,7.246a6.015,6.015,0,0,0,1.426,4.214c-1.576,1.6-1.437,3.658-1.421,5.7.021,2.641.042,5.284-.009,7.925a6.365,6.365,0,0,0,1.411,4.5c-1.287,1.424-1.443,3.15-1.412,4.965.053,3.056.007,6.114.017,9.171A5.457,5.457,0,0,0,253.5,816q19.87.01,39.74,0h1.449v14.417Zm18.121-36.162h-1.812q-5.322,0-10.645,0c-.93,0-1.747.345-1.886,1.266a2.623,2.623,0,0,0,.564,1.887,2.443,2.443,0,0,0,1.66.455c5.662.031,11.324.019,16.986.019,2.529,0,5.058.015,7.587-.007a1.84,1.84,0,0,0,2.021-2.031c-.133-1-.89-1.579-2.133-1.582C226.906,794.256,222.791,794.262,218.677,794.261Zm10.987,7.248h-1.812q-5.379,0-10.758,0c-.93,0-1.747.345-1.887,1.265a2.625,2.625,0,0,0,.563,1.887,2.442,2.442,0,0,0,1.66.455c5.586.031,11.173.019,16.76.019,2.6,0,5.209.014,7.814-.007a1.838,1.838,0,0,0,2.031-1.918c-.069-1.051-.852-1.692-2.141-1.7C237.817,801.5,233.74,801.51,229.664,801.51Zm-.228,18.121c4.152,0,8.3.007,12.457,0,1.4,0,2.289-.873,2.133-2.035-.138-1.027-.906-1.581-2.247-1.582q-8.267-.008-16.534,0c-2.718,0-5.436-.014-8.154.007a1.832,1.832,0,0,0-2.019,2.03c.131.995.891,1.58,2.133,1.583C221.282,819.636,225.359,819.63,229.436,819.63Zm-10.759,3.625h-1.812q-5.323,0-10.645,0c-.93,0-1.747.346-1.886,1.266a2.623,2.623,0,0,0,.565,1.887,2.445,2.445,0,0,0,1.66.454c5.662.031,11.324.019,16.986.019,2.529,0,5.058.015,7.587-.007a1.839,1.839,0,0,0,2.021-2.032c-.133-1-.89-1.578-2.133-1.581C226.905,823.249,222.791,823.255,218.676,823.255Zm10.987-36.242h-1.812q-5.379,0-10.758,0c-.93,0-1.747.344-1.887,1.265a2.623,2.623,0,0,0,.563,1.887,2.442,2.442,0,0,0,1.66.455c5.586.031,11.173.019,16.76.019,2.6,0,5.209.014,7.814-.007a1.838,1.838,0,0,0,2.031-1.918c-.068-1.051-.851-1.692-2.14-1.7C237.817,787.007,233.741,787.013,229.664,787.013Zm-12.324-3.646a5.74,5.74,0,0,0,1.283-1.252c2.322-3.962,4.583-7.961,6.85-11.955.71-1.251.52-2.272-.48-2.837s-1.958-.193-2.681,1.064c-1.483,2.578-2.951,5.164-4.426,7.747-.859,1.5-1.756,2.987-2.565,4.517C214.624,781.968,215.494,783.408,217.34,783.367Zm-4.1,25.391c-2.3,0-4.605-.009-6.907,0-1.342.007-2.144.7-2.147,1.8s.805,1.81,2.139,1.813q6.908.016,13.815,0c1.331,0,2.146-.71,2.148-1.8s-.81-1.8-2.14-1.811C217.849,808.749,215.546,808.758,213.244,808.758Zm-3.97-32.622c1.086-.729,2-1.325,2.9-1.949,1.106-.769,1.367-1.773.729-2.7a1.8,1.8,0,0,0-2.69-.336q-2.511,1.635-4.985,3.327c-1.411.967-1.423,2.33-.025,3.292q2.468,1.7,4.984,3.329a1.825,1.825,0,1,0,2.024-2.995C211.29,777.467,210.349,776.858,209.274,776.137Zm22.428,0c-.612.414-1.048.709-1.485,1-.47.315-.946.62-1.409.945-1.1.775-1.372,1.772-.737,2.7a1.809,1.809,0,0,0,2.692.34c1.676-1.089,3.346-2.188,4.989-3.326,1.406-.974,1.416-2.334.021-3.3-1.642-1.139-3.312-2.237-4.988-3.327a1.823,1.823,0,1,0-2,3C229.7,774.811,230.638,775.426,231.7,776.141Zm-23.938,14.487c.641,0,1.286.039,1.924-.009a1.793,1.793,0,0,0,1.732-1.755,1.769,1.769,0,0,0-1.764-1.833c-1.243-.05-2.492-.051-3.735,0a1.76,1.76,0,0,0-1.73,1.749,1.793,1.793,0,0,0,1.763,1.839C206.553,790.665,207.16,790.63,207.763,790.628Zm-.016,14.5c.642,0,1.286.038,1.924-.008a1.8,1.8,0,0,0,1.747-1.854,1.768,1.768,0,0,0-1.749-1.734c-1.243-.051-2.491-.051-3.735,0a1.764,1.764,0,0,0-1.746,1.735,1.794,1.794,0,0,0,1.747,1.853C206.537,805.162,207.144,805.126,207.748,805.126Zm21.73,7.249c.641,0,1.285.036,1.924-.008a1.8,1.8,0,0,0,1.763-1.84,1.764,1.764,0,0,0-1.733-1.748c-1.243-.053-2.491-.053-3.735,0a1.766,1.766,0,0,0-1.761,1.834,1.79,1.79,0,0,0,1.732,1.754C228.267,812.411,228.874,812.373,229.477,812.375Zm-21.637,7.249c.6,0,1.21.034,1.811-.008a1.8,1.8,0,0,0,1.768-1.835,1.763,1.763,0,0,0-1.728-1.753c-1.243-.054-2.491-.053-3.735,0a1.767,1.767,0,0,0-1.767,1.829,1.785,1.785,0,0,0,1.726,1.758C206.554,819.66,207.2,819.621,207.84,819.624Zm32.508,7.248c.641,0,1.285.036,1.924-.008a1.8,1.8,0,0,0,1.765-1.838,1.764,1.764,0,0,0-1.732-1.749c-1.243-.054-2.492-.053-3.735,0a1.766,1.766,0,0,0-1.763,1.832,1.789,1.789,0,0,0,1.73,1.755C239.137,826.907,239.744,826.87,240.348,826.872Z" transform="translate(-196.931 -758.017)" fill="#f6f6f6"/>
      <path id="Trazado_617026" data-name="Trazado 617026" d="M200.573,1068.862h94.011c.8,4.18-1.672,7.2-5.861,7.2-27.218,0-54.436-.048-81.653.056C203.065,1076.138,199.908,1073.706,200.573,1068.862Zm47.17,1.776v0c-.679,0-1.362-.042-2.037.01a1.775,1.775,0,0,0-1.706,1.775,1.752,1.752,0,0,0,1.675,1.8c1.28.064,2.567.061,3.847,0a1.758,1.758,0,0,0,1.707-1.773,1.794,1.794,0,0,0-1.789-1.814C248.877,1070.607,248.309,1070.638,247.743,1070.638Z" transform="translate(-196.876 -992.71)" fill="#fb8c00"/>
      <path id="Trazado_617027" data-name="Trazado 617027" d="M447.632,763.795q-10.475,0-20.951,0c-2.018,0-2.565-.54-2.567-2.53q0-4.813,0-9.626c0-1.712.614-2.338,2.3-2.338q21.234-.006,42.468,0c1.711,0,2.337.616,2.341,2.3q.012,4.87,0,9.739c0,1.9-.579,2.454-2.53,2.455Q458.164,763.8,447.632,763.795Zm-10.848-12.684c-2.3,0-4.605-.011-6.908,0-1.431.01-2.119.662-2.132,2.046q-.033,3.4,0,6.795a1.816,1.816,0,0,0,2.044,2.02q7.021.024,14.042,0a1.82,1.82,0,0,0,2.021-2.045c.022-2.227.019-4.454,0-6.681-.011-1.473-.674-2.125-2.162-2.134C441.389,751.1,439.086,751.111,436.783,751.111Zm30.809,5.455c0-.641.041-1.286-.009-1.924a1.782,1.782,0,0,0-1.773-1.711,1.748,1.748,0,0,0-1.8,1.671c-.063,1.28-.06,2.567,0,3.848a1.757,1.757,0,0,0,1.767,1.712,1.783,1.783,0,0,0,1.81-1.673C467.636,757.852,467.59,757.207,467.592,756.565Zm-7.245.049c0-.642.036-1.286-.008-1.924a1.791,1.791,0,0,0-1.841-1.76,1.763,1.763,0,0,0-1.746,1.734c-.053,1.243-.053,2.492,0,3.735a1.771,1.771,0,0,0,1.836,1.761,1.8,1.8,0,0,0,1.752-1.736C460.383,757.825,460.345,757.219,460.347,756.615Zm-7.243-.042c0-.566.019-1.133,0-1.7a1.825,1.825,0,0,0-1.78-1.944,1.8,1.8,0,0,0-1.828,1.889c-.035,1.131-.031,2.265,0,3.4a1.808,1.808,0,1,0,3.608.055C453.126,757.706,453.1,757.139,453.1,756.573Z" transform="translate(-369.749 -745.672)" fill="#fffae7"/>
      <path id="Trazado_617028" data-name="Trazado 617028" d="M447.663,908.986q10.532,0,21.064,0c1.927,0,2.491.564,2.493,2.49q0,4.87,0,9.74c0,1.624-.641,2.263-2.265,2.264q-21.291.007-42.582,0c-1.625,0-2.258-.638-2.262-2.264q-.013-4.983,0-9.966c0-1.628.635-2.26,2.263-2.262Q437.018,908.979,447.663,908.986ZM436.678,921.67c2.34,0,4.681.011,7.021,0,1.477-.01,2.137-.671,2.148-2.15q.024-3.284,0-6.568c-.011-1.479-.67-2.142-2.15-2.145q-6.908-.017-13.816,0c-1.482,0-2.136.665-2.146,2.148q-.023,3.284,0,6.568c.01,1.479.668,2.138,2.148,2.148C432.148,921.681,434.413,921.67,436.678,921.67Zm16.409-5.417h.011q0-.849,0-1.7a2.1,2.1,0,0,0-.009-.226,1.815,1.815,0,0,0-1.782-1.71,1.748,1.748,0,0,0-1.8,1.671c-.063,1.28-.06,2.567,0,3.848a1.757,1.757,0,0,0,1.767,1.712,1.783,1.783,0,0,0,1.81-1.673C453.133,917.539,453.087,916.894,453.087,916.253Zm7.254.024h.006q0-.849,0-1.7c0-.075,0-.151-.008-.226a1.82,1.82,0,0,0-1.76-1.733,1.767,1.767,0,0,0-1.835,1.76c-.051,1.243-.051,2.492,0,3.735a1.767,1.767,0,0,0,1.746,1.736,1.8,1.8,0,0,0,1.841-1.762C460.376,917.486,460.341,916.88,460.341,916.276Zm3.639-.112c0,.642-.036,1.286.008,1.924a1.792,1.792,0,0,0,1.841,1.76,1.77,1.77,0,0,0,1.746-1.737c.054-1.243.054-2.492,0-3.735a1.769,1.769,0,0,0-1.838-1.758,1.789,1.789,0,0,0-1.749,1.736C463.945,914.954,463.981,915.561,463.98,916.165Z" transform="translate(-369.743 -869.117)" fill="#fffae7"/>
      <path id="Trazado_617029" data-name="Trazado 617029" d="M447.669,843.639q-10.532,0-21.064,0c-1.928,0-2.491-.564-2.493-2.49q0-4.87,0-9.739c0-1.629.634-2.263,2.261-2.264q21.291-.006,42.582,0c1.627,0,2.262.636,2.266,2.26q.014,4.983,0,9.966c0,1.625-.64,2.264-2.263,2.265Q458.314,843.646,447.669,843.639Zm-10.9-1.812c2.3,0,4.605.01,6.908,0,1.494-.009,2.163-.658,2.175-2.124q.027-3.284,0-6.568c-.01-1.5-.658-2.168-2.124-2.172q-6.908-.019-13.815,0c-1.532,0-2.167.665-2.175,2.234q-.016,3.171,0,6.342c.007,1.677.633,2.286,2.35,2.291C432.314,841.832,434.541,841.827,436.768,841.827Zm16.329-5.471c0-.6.034-1.21-.007-1.811a1.793,1.793,0,0,0-1.833-1.769A1.76,1.76,0,0,0,449.5,834.5c-.055,1.243-.053,2.491,0,3.735a1.772,1.772,0,0,0,1.827,1.771,1.792,1.792,0,0,0,1.76-1.727C453.133,837.641,453.094,837,453.1,836.355Zm7.247.092c0-.641.038-1.286-.008-1.924a1.792,1.792,0,0,0-1.852-1.748,1.765,1.765,0,0,0-1.736,1.746c-.051,1.243-.051,2.491,0,3.735a1.77,1.77,0,0,0,1.733,1.75,1.8,1.8,0,0,0,1.854-1.747C460.381,837.658,460.344,837.051,460.344,836.448Zm7.244-.071c0-.641.045-1.287-.01-1.923a1.78,1.78,0,0,0-1.8-1.678,1.751,1.751,0,0,0-1.773,1.7c-.058,1.28-.06,2.568,0,3.848a1.751,1.751,0,0,0,1.8,1.679,1.784,1.784,0,0,0,1.779-1.706C467.631,837.663,467.59,837.018,467.588,836.376Z" transform="translate(-369.747 -807.395)" fill="#fffae7"/>
      <path id="Trazado_617030" data-name="Trazado 617030" d="M368.47,1127.57v-10.741h17.979v10.741Z" transform="translate(-326.736 -1029.791)" fill="#727997"/>
      <path id="Trazado_617031" data-name="Trazado 617031" d="M296.353,1183.99c0-.636-.031-1.2.007-1.758a1.79,1.79,0,0,1,1.817-1.785c.338-.024.679-.007,1.018-.007h44.7c2.959,0,3.387.477,3.116,3.551Z" transform="translate(-270.977 -1078.961)" fill="#d2e1f1"/>
      <path id="Trazado_617032" data-name="Trazado 617032" d="M231.482,893.013c4.114,0,8.229-.006,12.344,0,1.243,0,2,.585,2.133,1.582a1.84,1.84,0,0,1-2.021,2.031c-2.529.022-5.058.007-7.587.007-5.662,0-11.324.012-16.986-.019a2.443,2.443,0,0,1-1.66-.455,2.623,2.623,0,0,1-.564-1.887c.139-.921.957-1.267,1.886-1.266q5.322.01,10.645,0Z" transform="translate(-209.736 -856.769)" fill="#12263f"/>
      <path id="Trazado_617033" data-name="Trazado 617033" d="M279.5,924.95c4.077,0,8.154-.006,12.23,0,1.289,0,2.072.645,2.141,1.7a1.838,1.838,0,0,1-2.031,1.918c-2.6.02-5.209.007-7.814.007-5.587,0-11.173.012-16.76-.019a2.443,2.443,0,0,1-1.66-.455,2.625,2.625,0,0,1-.563-1.887c.14-.921.957-1.267,1.887-1.265q5.379.01,10.758,0Z" transform="translate(-246.77 -881.458)" fill="#12263f"/>
      <path id="Trazado_617034" data-name="Trazado 617034" d="M278.823,992.441c-4.077,0-8.154.006-12.23,0-1.242,0-2-.588-2.133-1.583a1.832,1.832,0,0,1,2.019-2.03c2.718-.021,5.436-.007,8.154-.007q8.267,0,16.534,0c1.341,0,2.11.555,2.247,1.582.155,1.162-.731,2.031-2.133,2.035C287.128,992.448,282.975,992.441,278.823,992.441Z" transform="translate(-246.319 -930.828)" fill="#12263f"/>
      <path id="Trazado_617035" data-name="Trazado 617035" d="M231.481,1020.764c4.115,0,8.229-.006,12.344,0,1.243,0,2,.585,2.133,1.581a1.839,1.839,0,0,1-2.021,2.032c-2.529.022-5.058.007-7.587.007-5.662,0-11.325.012-16.986-.019a2.445,2.445,0,0,1-1.66-.454,2.623,2.623,0,0,1-.565-1.887c.139-.921.956-1.268,1.886-1.266q5.323.009,10.645,0Z" transform="translate(-209.735 -955.527)" fill="#12263f"/>
      <path id="Trazado_617036" data-name="Trazado 617036" d="M279.5,861.075c4.077,0,8.154-.006,12.23,0,1.289,0,2.072.645,2.14,1.7a1.838,1.838,0,0,1-2.031,1.918c-2.6.02-5.209.006-7.814.007-5.587,0-11.174.012-16.76-.019a2.442,2.442,0,0,1-1.66-.455,2.623,2.623,0,0,1-.563-1.887c.14-.92.957-1.266,1.887-1.265q5.379.01,10.758,0Z" transform="translate(-246.771 -832.079)" fill="#12263f"/>
      <path id="Trazado_617037" data-name="Trazado 617037" d="M266.816,789.5c-1.845.041-2.715-1.4-2.019-2.716.81-1.53,1.707-3.013,2.565-4.517,1.475-2.583,2.942-5.169,4.426-7.747.724-1.257,1.688-1.626,2.681-1.064s1.19,1.587.48,2.837c-2.268,3.994-4.528,7.992-6.85,11.954A5.74,5.74,0,0,1,266.816,789.5Z" transform="translate(-246.407 -764.149)" fill="#12263f"/>
      <path id="Trazado_617038" data-name="Trazado 617038" d="M225.62,956.885c2.3,0,4.605-.01,6.908,0,1.33.007,2.143.713,2.14,1.811s-.818,1.8-2.148,1.8q-6.907.015-13.815,0c-1.334,0-2.141-.712-2.139-1.813s.805-1.8,2.147-1.8C221.015,956.875,223.318,956.885,225.62,956.885Z" transform="translate(-209.308 -906.144)" fill="#12263f"/>
      <path id="Trazado_617039" data-name="Trazado 617039" d="M221.546,794.7c1.075.721,2.016,1.331,2.933,1.974a1.825,1.825,0,1,1-2.024,2.995q-2.51-1.637-4.984-3.329c-1.4-.962-1.386-2.324.025-3.292q2.472-1.695,4.985-3.327a1.8,1.8,0,0,1,2.69.336c.638.922.377,1.926-.729,2.7C223.547,793.371,222.632,793.967,221.546,794.7Z" transform="translate(-209.203 -776.577)" fill="#12263f"/>
      <path id="Trazado_617040" data-name="Trazado 617040" d="M324.265,794.72c-1.064-.715-2-1.33-2.921-1.968a1.823,1.823,0,1,1,2-3c1.675,1.09,3.346,2.188,4.988,3.327,1.395.968,1.385,2.329-.021,3.3-1.643,1.138-3.313,2.237-4.989,3.326a1.809,1.809,0,0,1-2.692-.34c-.635-.924-.367-1.921.737-2.7.463-.325.94-.63,1.409-.945C323.217,795.429,323.652,795.134,324.265,794.72Z" transform="translate(-289.494 -776.596)" fill="#12263f"/>
      <path id="Trazado_617041" data-name="Trazado 617041" d="M220.138,864.633c-.6,0-1.21.036-1.811-.007a1.793,1.793,0,0,1-1.763-1.839,1.76,1.76,0,0,1,1.73-1.749c1.243-.054,2.492-.053,3.735,0a1.769,1.769,0,0,1,1.764,1.833,1.793,1.793,0,0,1-1.732,1.755C221.424,864.671,220.779,864.632,220.138,864.633Z" transform="translate(-209.306 -832.022)" fill="#12263f"/>
      <path id="Trazado_617042" data-name="Trazado 617042" d="M220.12,928.511c-.6,0-1.21.037-1.811-.008a1.794,1.794,0,0,1-1.747-1.853,1.764,1.764,0,0,1,1.746-1.735c1.243-.051,2.492-.051,3.735,0a1.768,1.768,0,0,1,1.749,1.734,1.8,1.8,0,0,1-1.747,1.854C221.406,928.548,220.762,928.511,220.12,928.511Z" transform="translate(-209.304 -881.403)" fill="#12263f"/>
      <path id="Trazado_617043" data-name="Trazado 617043" d="M315.92,960.446c-.6,0-1.211.037-1.811-.009a1.79,1.79,0,0,1-1.732-1.754,1.766,1.766,0,0,1,1.761-1.834c1.243-.051,2.492-.051,3.735,0a1.764,1.764,0,0,1,1.733,1.748,1.8,1.8,0,0,1-1.763,1.84C317.205,960.483,316.561,960.447,315.92,960.446Z" transform="translate(-283.374 -906.09)" fill="#12263f"/>
      <path id="Trazado_617044" data-name="Trazado 617044" d="M220.215,992.384c-.642,0-1.286.038-1.924-.01a1.785,1.785,0,0,1-1.726-1.758,1.767,1.767,0,0,1,1.767-1.829c1.243-.05,2.492-.051,3.735,0a1.763,1.763,0,0,1,1.728,1.753,1.8,1.8,0,0,1-1.768,1.835C221.425,992.419,220.819,992.385,220.215,992.384Z" transform="translate(-209.306 -930.779)" fill="#12263f"/>
      <path id="Trazado_617045" data-name="Trazado 617045" d="M363.825,1024.322c-.6,0-1.211.037-1.811-.01a1.789,1.789,0,0,1-1.73-1.755,1.766,1.766,0,0,1,1.763-1.832c1.243-.05,2.492-.051,3.735,0a1.764,1.764,0,0,1,1.732,1.749,1.8,1.8,0,0,1-1.765,1.838C365.11,1024.358,364.466,1024.323,363.825,1024.322Z" transform="translate(-320.408 -955.468)" fill="#12263f"/>
      <path id="Trazado_617046" data-name="Trazado 617046" d="M395.965,1076.645c.566,0,1.134-.031,1.7.007a1.794,1.794,0,0,1,1.789,1.814,1.758,1.758,0,0,1-1.707,1.773c-1.28.058-2.568.061-3.847,0a1.752,1.752,0,0,1-1.675-1.8,1.775,1.775,0,0,1,1.706-1.775c.675-.052,1.358-.01,2.037-.01Z" transform="translate(-345.098 -998.717)" fill="#12263f"/>
      <path id="Trazado_617047" data-name="Trazado 617047" d="M449.1,757.273c2.3,0,4.605-.01,6.908,0,1.488.009,2.151.661,2.162,2.134.017,2.227.02,4.454,0,6.681a1.82,1.82,0,0,1-2.021,2.045q-7.021.027-14.042,0a1.816,1.816,0,0,1-2.044-2.02q-.035-3.4,0-6.794c.013-1.384.7-2.037,2.132-2.046C444.5,757.261,446.8,757.273,449.1,757.273Zm-5.372,7.168h10.73v-3.484h-10.73Z" transform="translate(-382.067 -751.834)" fill="#12263f"/>
      <path id="Trazado_617048" data-name="Trazado 617048" d="M603.324,768.941c0,.642.044,1.287-.012,1.924a1.783,1.783,0,0,1-1.81,1.673,1.757,1.757,0,0,1-1.767-1.712c-.056-1.281-.06-2.568,0-3.848a1.748,1.748,0,0,1,1.8-1.671,1.782,1.782,0,0,1,1.773,1.711C603.367,767.655,603.325,768.3,603.324,768.941Z" transform="translate(-505.482 -758.047)" fill="#12263f"/>
      <path id="Trazado_617049" data-name="Trazado 617049" d="M571.391,768.989c0,.6.036,1.21-.009,1.811a1.8,1.8,0,0,1-1.752,1.736,1.771,1.771,0,0,1-1.836-1.761c-.051-1.243-.051-2.492,0-3.735a1.763,1.763,0,0,1,1.746-1.734,1.791,1.791,0,0,1,1.841,1.76C571.428,767.7,571.392,768.347,571.391,768.989Z" transform="translate(-480.795 -758.046)" fill="#12263f"/>
      <path id="Trazado_617050" data-name="Trazado 617050" d="M539.474,768.948c0,.566.022,1.133-.005,1.7a1.808,1.808,0,1,1-3.608-.055c-.028-1.131-.033-2.265,0-3.4a1.8,1.8,0,0,1,1.828-1.889,1.825,1.825,0,0,1,1.78,1.944C539.493,767.815,539.475,768.382,539.474,768.948Z" transform="translate(-456.12 -758.047)" fill="#12263f"/>
      <path id="Trazado_617051" data-name="Trazado 617051" d="M449.012,927.831c-2.265,0-4.53.011-6.794,0-1.48-.01-2.138-.669-2.148-2.148q-.023-3.284,0-6.568c.01-1.483.664-2.144,2.146-2.148q6.908-.017,13.816,0c1.481,0,2.14.666,2.15,2.145q.024,3.284,0,6.568c-.011,1.479-.671,2.14-2.148,2.15C453.692,927.842,451.352,927.831,449.012,927.831Zm-5.271-3.7h10.73v-3.487h-10.73Z" transform="translate(-382.077 -875.279)" fill="#12263f"/>
      <path id="Trazado_617052" data-name="Trazado 617052" d="M539.448,928.629c0,.641.046,1.287-.01,1.923a1.783,1.783,0,0,1-1.809,1.673,1.757,1.757,0,0,1-1.767-1.712c-.056-1.28-.06-2.568,0-3.848a1.748,1.748,0,0,1,1.8-1.671,1.815,1.815,0,0,1,1.782,1.71,2.088,2.088,0,0,1,.009.226q0,.849,0,1.7Z" transform="translate(-456.104 -881.494)" fill="#12263f"/>
      <path id="Trazado_617053" data-name="Trazado 617053" d="M571.392,928.651c0,.6.035,1.21-.008,1.811a1.8,1.8,0,0,1-1.841,1.762,1.767,1.767,0,0,1-1.746-1.736c-.053-1.243-.053-2.492,0-3.735a1.767,1.767,0,0,1,1.835-1.76,1.82,1.82,0,0,1,1.76,1.734c.008.075.007.151.008.226q0,.849,0,1.7Z" transform="translate(-480.795 -881.492)" fill="#12263f"/>
      <path id="Trazado_617054" data-name="Trazado 617054" d="M599.764,928.539c0-.6-.036-1.21.009-1.811a1.789,1.789,0,0,1,1.749-1.736,1.769,1.769,0,0,1,1.838,1.758c.052,1.243.052,2.492,0,3.735a1.77,1.77,0,0,1-1.746,1.737,1.792,1.792,0,0,1-1.841-1.76C599.728,929.825,599.763,929.181,599.764,928.539Z" transform="translate(-505.526 -881.492)" fill="#12263f"/>
      <path id="Trazado_617055" data-name="Trazado 617055" d="M449.106,847.987c-2.227,0-4.454.005-6.681,0-1.717,0-2.343-.613-2.35-2.291q-.013-3.171,0-6.341c.008-1.569.642-2.231,2.175-2.234q6.908-.016,13.815,0c1.467,0,2.115.676,2.124,2.172q.021,3.284,0,6.568c-.012,1.466-.681,2.115-2.175,2.124C453.711,848,451.409,847.987,449.106,847.987Zm5.44-7.177H443.78v3.462h10.766Z" transform="translate(-382.085 -813.555)" fill="#12263f"/>
      <path id="Trazado_617056" data-name="Trazado 617056" d="M539.454,848.73c0,.641.038,1.286-.01,1.924a1.792,1.792,0,0,1-1.76,1.727,1.772,1.772,0,0,1-1.827-1.771c-.049-1.243-.051-2.492,0-3.735a1.76,1.76,0,0,1,1.755-1.725,1.793,1.793,0,0,1,1.833,1.769C539.489,847.52,539.455,848.126,539.454,848.73Z" transform="translate(-456.105 -819.77)" fill="#12263f"/>
      <path id="Trazado_617057" data-name="Trazado 617057" d="M571.394,848.82c0,.6.036,1.21-.008,1.811a1.8,1.8,0,0,1-1.854,1.747,1.77,1.77,0,0,1-1.733-1.75c-.051-1.243-.051-2.492,0-3.735a1.765,1.765,0,0,1,1.736-1.746,1.792,1.792,0,0,1,1.852,1.749C571.432,847.534,571.394,848.179,571.394,848.82Z" transform="translate(-480.797 -819.768)" fill="#12263f"/>
      <path id="Trazado_617058" data-name="Trazado 617058" d="M603.324,848.752c0,.642.042,1.286-.009,1.924a1.784,1.784,0,0,1-1.779,1.706,1.752,1.752,0,0,1-1.8-1.679c-.062-1.28-.06-2.567,0-3.848a1.751,1.751,0,0,1,1.773-1.7,1.78,1.78,0,0,1,1.8,1.678C603.368,847.465,603.323,848.111,603.324,848.752Z" transform="translate(-505.482 -819.771)" fill="#12263f"/>
      <path id="Trazado_617059" data-name="Trazado 617059" d="M456.28,777v-3.484h10.73V777Z" transform="translate(-394.618 -764.395)" fill="#26aab7"/>
      <path id="Trazado_617060" data-name="Trazado 617060" d="M456.286,936.687V933.2h10.73v3.487Z" transform="translate(-394.622 -887.837)" fill="#26aab7"/>
      <path id="Trazado_617061" data-name="Trazado 617061" d="M467.192,853.411v3.462H456.426v-3.462Z" transform="translate(-394.731 -826.156)" fill="#26aab7"/>
    </g>
  </g>
</svg>
