<svg xmlns="http://www.w3.org/2000/svg" width="150.041" height="132.558" viewBox="0 0 150.041 132.558">
  <g id="IqJtTg" transform="translate(-152.65 -1260.106)">
    <g id="Grupo_896429" data-name="Grupo 896429" transform="translate(152.65 1260.106)">
      <path id="Trazado_617062" data-name="Trazado 617062" d="M152.65,1282.436a22.107,22.107,0,0,1,1.3-3.077,7.817,7.817,0,0,1,7.056-3.963q14.795-.016,29.589,0c2.047,0,3.334,1.12,3.362,2.863.028,1.772-1.318,2.985-3.417,2.988q-14.355.02-28.71.007c-2.5,0-3.318.815-3.318,3.332q-.006,31.5,0,63c0,.383.035.767.058,1.244H268.786v-24.091c-.933-.086-1.849-.122-2.748-.262a7,7,0,0,1-6.086-6.818c-.034-.78,0-1.563-.014-2.344-.039-1.781-1-2.314-2.589-1.437-.683.377-1.344.8-2.036,1.155a6.919,6.919,0,0,1-9.321-2.545q-2.431-4-4.684-8.11a6.859,6.859,0,0,1,2.559-9.412c.747-.461,1.542-.847,2.266-1.341a1.441,1.441,0,0,0-.015-2.6c-.358-.251-.755-.447-1.135-.668-4.011-2.331-5.016-4.413-4.282-9.1h-1.568q-10.62,0-21.24,0c-1.831,0-3.022-.816-3.37-2.225a2.924,2.924,0,0,1,3.094-3.623c4.883-.023,9.765-.008,14.648-.008,3.564,0,7.129-.024,10.693.018a1.6,1.6,0,0,0,1.731-.987,20.449,20.449,0,0,1,1.311-2.282,6.968,6.968,0,0,1,9.34-2.505c.776.408,1.51.9,2.289,1.3,1.277.661,2.221.123,2.3-1.3a35.091,35.091,0,0,1,.19-3.792,6.7,6.7,0,0,1,6.632-5.7q4.759-.079,9.521,0a6.811,6.811,0,0,1,6.792,6.821c.023.879-.03,1.76.022,2.637.085,1.427,1.056,1.994,2.311,1.353.781-.4,1.513-.893,2.287-1.305a6.936,6.936,0,0,1,9.351,2.462q2.482,4.056,4.749,8.241a6.845,6.845,0,0,1-2.528,9.313c-.741.469-1.54.848-2.274,1.328a1.463,1.463,0,0,0,.045,2.682c.78.5,1.614.914,2.392,1.416a6.8,6.8,0,0,1,2.469,8.987c-1.548,2.931-3.216,5.806-4.971,8.618a6.874,6.874,0,0,1-9.013,2.417c-.87-.438-1.679-1-2.552-1.429a1.441,1.441,0,0,0-2.266,1.288c-.06.777-.008,1.562-.017,2.343a6.959,6.959,0,0,1-6.867,7.254c-.428.027-.857.049-1.456.083v1.776q0,17.068,0,34.136c0,5.711-3.4,9.121-9.1,9.125q-16.772.012-33.544,0h-1.87c.368,3.231.708,6.273,1.061,9.312.129,1.115.242,2.234.444,3.337a5.338,5.338,0,0,0,5.1,4.432c1.17.052,2.344-.006,3.515.035a2.947,2.947,0,0,1,3.132,2.968,2.876,2.876,0,0,1-3.19,2.875q-25.121.018-50.243,0a2.842,2.842,0,0,1-3.158-2.892,2.93,2.93,0,0,1,3.135-2.951c1.171-.039,2.345.017,3.515-.035a5.063,5.063,0,0,0,4.924-3.89c.727-4.309,1.148-8.67,1.719-13.191H162.68c-5.715,0-7.878-1.438-10.03-6.667ZM296.9,1300.891a4.655,4.655,0,0,0-.789-.924c-.637-.446-1.344-.791-2.013-1.193a7.344,7.344,0,0,1-.012-12.865c.586-.351,1.165-.716,1.769-1.032a1.326,1.326,0,0,0,.584-2.155c-1.077-1.8-2.111-3.626-3.157-5.444-1.942-3.374-1.555-3.211-4.851-1.293-.127.074-.252.151-.381.218a7.354,7.354,0,0,1-10.818-6.233c-.038-.829-.035-1.661-.008-2.49.034-1.051-.443-1.512-1.494-1.5-1.953.027-3.906-.006-5.859.009-4.4.033-4.012-.566-4.087,3.927a7.27,7.27,0,0,1-10.718,6.3c-.736-.381-1.454-.8-2.158-1.237-.958-.6-1.608-.356-2.148.608-1.264,2.255-2.58,4.482-3.866,6.724-.943,1.644-.878,1.852.821,2.838.506.293,1.017.58,1.513.891a7.345,7.345,0,0,1,.007,12.559c-.66.416-1.338.8-2.024,1.175a1.349,1.349,0,0,0-.561,2.173c1.39,2.352,2.767,4.712,4.1,7.1a1.393,1.393,0,0,0,2.278.574c.744-.464,1.5-.913,2.289-1.3a7.3,7.3,0,0,1,10.479,6.263c.028.781.049,1.565.008,2.344-.07,1.338.571,1.836,1.858,1.808,2-.044,4-.024,6.006-.009,4.033.031,3.555.066,3.56-3.568,0-.244,0-.489.022-.732a7.392,7.392,0,0,1,7.421-6.849c2.088-.017,3.719,1.046,5.385,2.052a1.407,1.407,0,0,0,2.284-.575c1.334-2.384,2.725-4.736,4.084-7.106C296.58,1301.655,296.695,1301.334,296.9,1300.891ZM158.51,1354.841c0,1.917,0,3.669,0,5.421,0,2.939.64,3.57,3.637,3.57q51.559,0,103.117,0a3.614,3.614,0,0,0,1.72-.159c.7-.418,1.685-1.074,1.74-1.7.205-2.349.082-4.727.082-7.129Zm68.368,31.916a40.628,40.628,0,0,1-1-4.1c-.53-3.864-1-7.738-1.383-11.62-.106-1.089-.453-1.371-1.506-1.361-5.22.05-10.441.02-15.661.027-.42,0-.841.066-1.2.1-1.093,5.706-.807,11.477-2.7,16.961Z" transform="translate(-152.65 -1260.106)" fill="#12263f"/>
      <path id="Trazado_617063" data-name="Trazado 617063" d="M234.7,1460.97q12,0,24,0a9.745,9.745,0,0,1,1.606.056,2.919,2.919,0,0,1-.13,5.771,10.268,10.268,0,0,1-1.316.03q-24.078,0-48.156,0a10.6,10.6,0,0,1-1.316-.028,2.912,2.912,0,0,1-.158-5.771,9.661,9.661,0,0,1,1.606-.059Q222.768,1460.968,234.7,1460.97Z" transform="translate(-190.895 -1402.008)" fill="#12263f"/>
      <path id="Trazado_617064" data-name="Trazado 617064" d="M227.607,1511.715c5.854,0,11.709-.012,17.563.005,1.829.005,2.934.841,3.229,2.338a2.882,2.882,0,0,1-2.806,3.492c-1.117.076-2.243.022-3.365.022H211.053c-.39,0-.781.014-1.171-.006a3.014,3.014,0,0,1-3.1-3.02,2.925,2.925,0,0,1,3.118-2.82C215.8,1511.7,221.7,1511.716,227.607,1511.715Z" transform="translate(-190.89 -1437.856)" fill="#12263f"/>
      <path id="Trazado_617065" data-name="Trazado 617065" d="M397.862,1511.708c4,0,8-.011,12.006,0,2.142.008,3.485,1.143,3.494,2.895s-1.349,2.952-3.46,2.956q-12.006.019-24.012,0c-2.078,0-3.462-1.25-3.424-3,.037-1.708,1.352-2.843,3.39-2.853C389.858,1511.7,393.86,1511.709,397.862,1511.708Z" transform="translate(-315.007 -1437.852)" fill="#12263f"/>
      <path id="Trazado_617066" data-name="Trazado 617066" d="M213.737,1367.981c2.1,2.207,4.058,4.247,5.992,6.312,1.51,1.612,1.609,3.265.318,4.522-1.328,1.292-3.035,1.107-4.61-.536q-3.748-3.914-7.465-7.857c-1.634-1.74-1.639-3.135-.029-4.846q3.765-4,7.566-7.964c1.512-1.578,3.176-1.751,4.5-.505s1.247,2.935-.238,4.526C217.812,1363.732,215.815,1365.8,213.737,1367.981Z" transform="translate(-190.863 -1328.053)" fill="#12263f"/>
      <path id="Trazado_617067" data-name="Trazado 617067" d="M354.533,1367.987c-2.086-2.2-4.04-4.241-5.981-6.3-1.5-1.593-1.621-3.245-.345-4.515,1.333-1.327,3-1.162,4.594.493q3.805,3.961,7.578,7.953c1.479,1.567,1.511,3.1.065,4.646q-3.855,4.115-7.772,8.172c-1.43,1.484-3.115,1.621-4.4.425-1.32-1.229-1.254-2.957.212-4.517C350.452,1372.253,352.444,1370.182,354.533,1367.987Z" transform="translate(-290.185 -1328.056)" fill="#12263f"/>
      <path id="Trazado_617068" data-name="Trazado 617068" d="M290.168,1359.6a9.937,9.937,0,0,1-.676,1.558q-5.117,8.368-10.284,16.7c-1.12,1.808-2.816,2.31-4.317,1.351-1.478-.945-1.771-2.6-.694-4.361q5.161-8.427,10.367-16.825c.907-1.463,2.089-1.968,3.428-1.577A3.079,3.079,0,0,1,290.168,1359.6Z" transform="translate(-238.062 -1328.079)" fill="#12263f"/>
      <path id="Trazado_617069" data-name="Trazado 617069" d="M425.214,1466.874a2.913,2.913,0,1,1,.078-5.825,2.913,2.913,0,0,1-.078,5.825Z" transform="translate(-343.145 -1402.064)" fill="#12263f"/>
      <path id="Trazado_617070" data-name="Trazado 617070" d="M324.269,1315.108a2.917,2.917,0,0,1-5.833.077,2.945,2.945,0,0,1,2.8-2.98A2.989,2.989,0,0,1,324.269,1315.108Z" transform="translate(-269.772 -1296.911)" fill="#12263f"/>
      <path id="Trazado_617071" data-name="Trazado 617071" d="M522.245,1315.029c-.2.444-.316.765-.484,1.056-1.359,2.37-2.75,4.722-4.084,7.106a1.407,1.407,0,0,1-2.284.575c-1.667-1.006-3.3-2.069-5.385-2.052a7.392,7.392,0,0,0-7.421,6.849c-.018.243-.021.488-.022.732-.005,3.634.473,3.6-3.56,3.568-2-.015-4.005-.035-6.006.009-1.286.028-1.928-.47-1.857-1.808.041-.779.021-1.563-.008-2.344a7.3,7.3,0,0,0-10.479-6.263c-.786.388-1.545.837-2.289,1.3a1.393,1.393,0,0,1-2.278-.574c-1.33-2.386-2.706-4.747-4.1-7.1a1.348,1.348,0,0,1,.561-2.173c.686-.371,1.365-.759,2.024-1.176a7.345,7.345,0,0,0-.007-12.559c-.5-.311-1.007-.6-1.513-.891-1.7-.986-1.764-1.194-.821-2.838,1.287-2.243,2.6-4.469,3.866-6.724.54-.964,1.191-1.2,2.148-.608.7.438,1.422.856,2.158,1.237a7.27,7.27,0,0,0,10.718-6.3c.075-4.493-.318-3.894,4.087-3.927,1.953-.015,3.907.018,5.86-.009,1.051-.014,1.528.446,1.494,1.5-.027.829-.03,1.662.008,2.49a7.354,7.354,0,0,0,10.818,6.233c.13-.067.254-.144.381-.218,3.3-1.919,2.908-2.082,4.851,1.293,1.046,1.818,2.08,3.645,3.157,5.444a1.326,1.326,0,0,1-.584,2.155c-.6.316-1.184.681-1.769,1.032a7.344,7.344,0,0,0,.012,12.865c.669.4,1.376.747,2.013,1.193A4.655,4.655,0,0,1,522.245,1315.029Zm-25.334,3.613a12.121,12.121,0,0,0,12.139-12.2,12.189,12.189,0,1,0-12.139,12.2Z" transform="translate(-377.999 -1274.245)" fill="#fb8c00"/>
      <path id="Trazado_617072" data-name="Trazado 617072" d="M172.615,1582.849h110.3c0,2.4.123,4.78-.082,7.129-.055.626-1.045,1.282-1.74,1.7a3.614,3.614,0,0,1-1.72.158q-51.558.009-103.117,0c-3,0-3.637-.631-3.637-3.57C172.614,1586.518,172.615,1584.766,172.615,1582.849Z" transform="translate(-166.754 -1488.113)" fill="#b2ebf2"/>
      <path id="Trazado_617073" data-name="Trazado 617073" d="M349.1,1650.458H325.661c1.889-5.484,1.6-11.255,2.7-16.961.355-.03.776-.1,1.2-.1,5.22-.007,10.442.023,15.661-.027,1.053-.01,1.4.272,1.506,1.361.379,3.882.854,7.755,1.383,11.62A40.63,40.63,0,0,0,349.1,1650.458Z" transform="translate(-274.877 -1523.807)" fill="#e8e8e8"/>
      <path id="Trazado_617074" data-name="Trazado 617074" d="M528.3,1352.666a12.193,12.193,0,1,1,12.139-12.2A12.21,12.21,0,0,1,528.3,1352.666Zm6.279-12.172a6.329,6.329,0,1,0-6.314,6.311A6.26,6.26,0,0,0,534.578,1340.494Z" transform="translate(-409.388 -1308.268)" fill="#12263f"/>
      <path id="Trazado_617075" data-name="Trazado 617075" d="M548.682,1354.6a6.26,6.26,0,0,1-6.314,6.311,6.328,6.328,0,0,1-6.344-6.31,6.329,6.329,0,1,1,12.657,0Z" transform="translate(-423.492 -1322.376)" fill="#1565c0"/>
    </g>
  </g>
</svg>
