<svg xmlns="http://www.w3.org/2000/svg" width="107.042" height="107.038" viewBox="0 0 107.042 107.038">
  <g id="_22mLSz" data-name="22mLSz" transform="translate(-432.451 -839.444)">
    <g id="Grupo_897325" data-name="Grupo 897325" transform="translate(432.451 839.444)">
      <path id="Trazado_617454" data-name="Trazado 617454" d="M494.622,925.766v6.905c.575,0,1.135-.028,1.691,0a41.683,41.683,0,0,1,6.633.488,11.856,11.856,0,0,1,8.9,11.037c.055,1.605-.556,2.277-2.129,2.278q-23.732.007-47.464,0c-1.6,0-2.212-.652-2.166-2.242a12.1,12.1,0,0,1,11.508-11.54c1.863-.065,3.73-.01,5.668-.01v-6.922h-1.274q-17.1,0-34.2,0c-5.751,0-9.341-3.6-9.342-9.358q0-25.134,0-50.269c0-5.854,3.554-9.426,9.378-9.427q22.977,0,45.954.007c.676,0,1.2.018,1.466-.837.231-.752.478-1.26-.255-1.958-2.54-2.419-2.5-2.566-.055-5.021q2.857-2.863,5.72-5.722c1.09-1.084,1.959-1.085,3.056-.027a4.525,4.525,0,0,1,.679.691,1.589,1.589,0,0,0,2.522.471,1.425,1.425,0,0,0,.562-.853,13.433,13.433,0,0,0,.027-1.83c.013-1.567.6-2.175,2.131-2.18q4.746-.014,9.493,0c1.6,0,2.174.6,2.186,2.236a9.871,9.871,0,0,1-.011,1.4c-.106.776.258,1.075.93,1.4a1.476,1.476,0,0,0,2.011-.44c2.251-2.332,2.482-2.3,4.8.015q2.9,2.9,5.8,5.8c1.085,1.09,1.087,1.966.034,3.058-.25.259-.508.509-.762.764-1.021,1.023-1.1,1.6-.27,2.728a1.205,1.205,0,0,0,.817.291,34.494,34.494,0,0,1,3.651.182,8.48,8.48,0,0,1,7.157,8.464c.036,6.4.011,12.8.011,19.2q0,15.966,0,31.931c0,5.678-3.617,9.287-9.3,9.288q-17.152,0-34.3,0ZM435.91,908.408H536.023v-.942q0-20.824,0-41.648c0-.288,0-.576-.024-.862a4.75,4.75,0,0,0-3.41-4.288v6.464c0,3.245-.15,3.432-3.4,3.371a1.5,1.5,0,0,0-1.725,1.118,1.23,1.23,0,0,0,.381,1.653,12.262,12.262,0,0,1,1,.986c1.112,1.137,1.117,2.009,0,3.137q-2.814,2.831-5.644,5.647c-2.529,2.528-2.589,2.542-5.111,0a1.3,1.3,0,0,0-1.657-.375c-.891.345-1.26.789-1.11,1.722a7.155,7.155,0,0,1,.01,1.185c-.013,1.622-.592,2.211-2.21,2.215-2.733.007-5.467,0-8.2,0-3.258,0-3.444-.152-3.39-3.387a1.483,1.483,0,0,0-1.1-1.733,1.251,1.251,0,0,0-1.657.366,12.357,12.357,0,0,1-1.3,1.295,1.694,1.694,0,0,1-2.508.009q-3.656-3.592-7.25-7.246a1.693,1.693,0,0,1-.026-2.507c.5-.562,1.075-1.062,1.58-1.623a1.052,1.052,0,0,0,.3-.718c-.2-1.308-.71-1.72-2.02-1.72h-.755c-2.068,0-2.552-.478-2.553-2.52,0-2.579,0-5.158,0-7.838H441.753c-3.8,0-5.843,2.05-5.843,5.873q0,17.479,0,34.958Zm.021,3.615c0,1.481,0,2.844,0,4.207,0,4.033,2,6.038,6.016,6.038h88.04c.36,0,.72.012,1.079-.011a4.845,4.845,0,0,0,4.643-3.691,59.5,59.5,0,0,0,.375-6.543ZM511.784,884.2c0-.735.037-1.344-.008-1.947A2.032,2.032,0,0,1,513.349,880c1.078-.385,2.139-.826,3.181-1.3a2.1,2.1,0,0,1,2.722.482c.416.476.806.974,1.12,1.353l4.973-4.95c-.471-.394-1.01-.812-1.512-1.269a1.917,1.917,0,0,1-.44-2.357c.512-1.222,1.029-2.443,1.516-3.675a1.822,1.822,0,0,1,1.891-1.293c.708.017,1.416,0,2.169,0v-6.748c-.683,0-1.286,0-1.89,0a2.006,2.006,0,0,1-2.3-1.64c-.4-1.074-.847-2.131-1.312-3.178a1.989,1.989,0,0,1,.417-2.544c.5-.446,1.039-.855,1.492-1.225l-4.952-5c-.438.514-.877,1.076-1.364,1.592a1.892,1.892,0,0,1-2.275.4c-1.226-.5-2.442-1.032-3.676-1.515a1.866,1.866,0,0,1-1.325-1.981c.026-.7.005-1.4.005-2.1h-6.748c0,.7-.033,1.343.007,1.977a2,2,0,0,1-1.517,2.184c-1.108.408-2.2.864-3.28,1.345a2.043,2.043,0,0,1-2.631-.464c-.42-.484-.795-1.007-1.062-1.349l-5,4.9c.383.33.842.68,1.246,1.083a2.083,2.083,0,0,1,.473,2.891c-.461,1.009-.868,2.045-1.247,3.087a2,2,0,0,1-2.165,1.544c-.664-.04-1.333-.007-1.982-.007v6.748c.709,0,1.32.036,1.926-.008a2.033,2.033,0,0,1,2.236,1.6c.385,1.078.839,2.133,1.3,3.18a2.011,2.011,0,0,1-.373,2.554c-.5.456-1.054.859-1.464,1.189l4.935,5c.425-.485.878-1.042,1.374-1.556a1.855,1.855,0,0,1,2.187-.376c1.263.508,2.51,1.055,3.774,1.56a1.824,1.824,0,0,1,1.267,1.909c-.019.7,0,1.41,0,2.164ZM508.1,942.944a8.538,8.538,0,0,0-8.108-6.78c-1.58-.043-3.162-.013-4.743-.013-7.653,0-15.307-.016-22.96.007a8.367,8.367,0,0,0-8.418,6.786Zm-17.067-17.091c-3.292,0-6.48-.006-9.668.019a.651.651,0,0,0-.465.432c-.031,2.067-.021,4.135-.021,6.189h10.153Z" transform="translate(-432.451 -839.444)" fill="#12263f"/>
      <path id="Trazado_617455" data-name="Trazado 617455" d="M448.447,983.539v-7.406q0-17.479,0-34.958c0-3.823,2.04-5.873,5.843-5.873h42.483c0,2.68,0,5.259,0,7.838,0,2.042.484,2.518,2.553,2.52h.755c1.31,0,1.823.413,2.02,1.72a1.051,1.051,0,0,1-.3.718c-.5.561-1.077,1.06-1.58,1.623a1.692,1.692,0,0,0,.025,2.507q3.6,3.652,7.25,7.246a1.694,1.694,0,0,0,2.508-.009,12.37,12.37,0,0,0,1.3-1.295,1.251,1.251,0,0,1,1.657-.366,1.483,1.483,0,0,1,1.1,1.733c-.055,3.235.132,3.387,3.39,3.387,2.733,0,5.467.005,8.2,0,1.618,0,2.2-.593,2.21-2.215a7.155,7.155,0,0,0-.01-1.185c-.151-.933.219-1.377,1.11-1.722a1.3,1.3,0,0,1,1.657.374c2.522,2.545,2.582,2.532,5.111,0q2.823-2.823,5.644-5.647c1.121-1.128,1.117-2,0-3.137a12.212,12.212,0,0,0-1-.986,1.23,1.23,0,0,1-.381-1.653,1.5,1.5,0,0,1,1.725-1.118c3.252.061,3.4-.127,3.4-3.371V935.8a4.75,4.75,0,0,1,3.41,4.288c.025.286.024.575.024.863q0,20.824,0,41.648v.942Zm24.188-43.071q-9.222,0-18.444,0c-1.753,0-2.3.558-2.3,2.333q0,16.664,0,33.328c0,1.771.551,2.331,2.3,2.331q18.39,0,36.78,0c1.824,0,2.359-.544,2.359-2.387q0-16.61,0-33.22c0-1.844-.536-2.386-2.36-2.386Q481.8,940.465,472.636,940.468Z" transform="translate(-444.988 -914.575)" fill="#f6f6f6"/>
      <path id="Trazado_617456" data-name="Trazado 617456" d="M448.546,1175.125H548.7a59.5,59.5,0,0,1-.375,6.543,4.845,4.845,0,0,1-4.643,3.691c-.358.023-.719.011-1.079.011h-88.04c-4.018,0-6.015-2.005-6.016-6.038C448.545,1177.969,448.546,1176.606,448.546,1175.125Zm58.646,3.451H490v3.363h17.191Z" transform="translate(-445.066 -1102.546)" fill="#f3f9ff"/>
      <path id="Trazado_617457" data-name="Trazado 617457" d="M712.7,897.268h-6.748c0-.754-.016-1.46,0-2.164a1.824,1.824,0,0,0-1.267-1.909c-1.264-.505-2.511-1.052-3.774-1.56a1.855,1.855,0,0,0-2.187.376c-.5.515-.949,1.071-1.374,1.556l-4.935-5c.41-.33.961-.733,1.464-1.189a2.011,2.011,0,0,0,.373-2.554c-.465-1.047-.92-2.1-1.3-3.18a2.033,2.033,0,0,0-2.236-1.6c-.605.043-1.216.008-1.926.008v-6.748c.65,0,1.318-.033,1.982.007a2,2,0,0,0,2.165-1.544c.379-1.043.786-2.079,1.247-3.087a2.083,2.083,0,0,0-.473-2.891c-.4-.4-.863-.752-1.246-1.083l5-4.9c.267.342.642.865,1.062,1.349a2.043,2.043,0,0,0,2.631.464c1.079-.48,2.172-.936,3.28-1.345a2,2,0,0,0,1.517-2.184c-.041-.634-.007-1.273-.007-1.977H712.7c0,.7.021,1.4-.005,2.1a1.866,1.866,0,0,0,1.325,1.981c1.234.483,2.45,1.012,3.676,1.515a1.892,1.892,0,0,0,2.275-.4c.487-.517.926-1.078,1.364-1.592l4.952,5c-.453.37-.989.779-1.492,1.225a1.989,1.989,0,0,0-.417,2.544c.465,1.047.914,2.1,1.312,3.177a2.006,2.006,0,0,0,2.3,1.64c.6,0,1.207,0,1.89,0v6.748c-.752,0-1.461.014-2.169,0a1.822,1.822,0,0,0-1.891,1.293c-.487,1.232-1,2.453-1.516,3.675a1.917,1.917,0,0,0,.44,2.357c.5.458,1.041.876,1.512,1.269l-4.973,4.95c-.313-.38-.7-.878-1.12-1.353a2.1,2.1,0,0,0-2.722-.482c-1.041.476-2.1.918-3.181,1.3a2.032,2.032,0,0,0-1.572,2.253C712.734,895.924,712.7,896.533,712.7,897.268Zm-3.373-32.746a12.163,12.163,0,1,0,12.162,12.27A12.066,12.066,0,0,0,709.325,864.522Z" transform="translate(-633.364 -852.512)" fill="#b2ebf2"/>
      <path id="Trazado_617458" data-name="Trazado 617458" d="M621.995,1293.469H577.766a8.367,8.367,0,0,1,8.417-6.786c7.653-.023,15.307-.007,22.96-.007,1.581,0,3.163-.03,4.743.012A8.538,8.538,0,0,1,621.995,1293.469Z" transform="translate(-546.347 -1189.97)" fill="#727997"/>
      <path id="Trazado_617460" data-name="Trazado 617460" d="M485.109,959.2q9.168,0,18.336,0c1.824,0,2.36.542,2.36,2.386q0,16.61,0,33.22c0,1.843-.536,2.386-2.359,2.387q-18.39,0-36.78,0c-1.753,0-2.3-.56-2.3-2.331q0-16.664,0-33.328c0-1.775.55-2.332,2.3-2.333Q475.887,959.2,485.109,959.2Zm-17.228,34.425h34.367V969.651H467.882Zm.05-27.68h34.241V962.79H467.932Z" transform="translate(-457.462 -933.305)" fill="#12263f"/>
      <path id="Trazado_617461" data-name="Trazado 617461" d="M657.467,1191.087v3.363H640.276v-3.363Z" transform="translate(-595.341 -1115.056)" fill="#12263f"/>
      <path id="Trazado_617462" data-name="Trazado 617462" d="M739.677,894.988a12.163,12.163,0,1,1-12.164,12.051A12.064,12.064,0,0,1,739.677,894.988Zm-.036,20.785a8.624,8.624,0,1,0-8.588-8.575A8.636,8.636,0,0,0,739.64,915.773Z" transform="translate(-663.716 -882.979)" fill="#12263f"/>
      <path id="Trazado_617463" data-name="Trazado 617463" d="M480.642,1031.516v-23.973h34.367v23.973Zm9.164-18.278c-1.837,1.779-3.689,3.478-5.419,5.293-.731.767-.425,1.678.3,2.4q1.522,1.529,3.05,3.052c.649.648,1.3,1.293,1.928,1.916l2.589-2.5-4.264-3.969,4.08-3.845Zm12.093,10.114,2.353,2.536c1.785-1.766,3.54-3.461,5.241-5.209a1.491,1.491,0,0,0,.082-2.161c-1.728-1.815-3.539-3.551-5.253-5.254l-2.675,2.508,4.1,3.862Zm-2.358-8.719-3.44-.567-1.728,10.384,3.445.56Z" transform="translate(-470.222 -971.197)" fill="#f3f9ff"/>
      <path id="Trazado_617464" data-name="Trazado 617464" d="M480.873,978.965v-3.154h34.241v3.154Z" transform="translate(-470.403 -946.326)" fill="#fffae7"/>
      <path id="Trazado_617465" data-name="Trazado 617465" d="M752.47,928.6a8.623,8.623,0,1,1,8.657-8.615A8.641,8.641,0,0,1,752.47,928.6Z" transform="translate(-676.546 -895.807)" fill="#fffae7"/>
      <path id="Trazado_617466" data-name="Trazado 617466" d="M501.862,1033.883l2.261,2.349-4.08,3.845,4.264,3.969-2.589,2.5c-.627-.623-1.279-1.268-1.928-1.916q-1.527-1.525-3.05-3.053c-.722-.725-1.028-1.636-.3-2.4C498.173,1037.361,500.025,1035.662,501.862,1033.883Z" transform="translate(-482.278 -991.842)" fill="#12263f"/>
      <path id="Trazado_617467" data-name="Trazado 617467" d="M578.039,1044.092l3.85-3.718-4.1-3.862,2.675-2.508c1.714,1.7,3.525,3.439,5.253,5.254a1.491,1.491,0,0,1-.082,2.161c-1.7,1.749-3.456,3.443-5.241,5.209Z" transform="translate(-546.363 -991.937)" fill="#12263f"/>
      <path id="Trazado_617468" data-name="Trazado 617468" d="M549.315,1038.281l-1.724,10.377-3.445-.56,1.728-10.384Z" transform="translate(-519.997 -994.845)" fill="#12263f"/>
    </g>
  </g>
</svg>
