<svg xmlns="http://www.w3.org/2000/svg" width="81.452" height="87.208" viewBox="0 0 81.452 87.208">
  <g id="e0351I" transform="translate(-906.046 -499.451)">
    <g id="Grupo_897324" data-name="Grupo 897324" transform="translate(906.046 499.451)">
      <path id="Trazado_617432" data-name="Trazado 617432" d="M994.775,537.2c3.989.3,5.748,1.659,5.75,4.406s-1.8,4.159-5.746,4.411v4.321c1.282,0,2.573,0,3.864,0,1.375.005,1.879.494,1.883,1.842q.01,3.954,0,7.907c0,1.4-.495,1.879-1.935,1.883-1.264,0-2.529,0-3.881,0,0,1.38.005,2.674,0,3.969-.007,1.351-.508,1.847-1.879,1.848q-15.179,0-30.357,0h-1.208c0,1.7-.016,3.349.019,5,.005.222.244.468.427.651,3.293,3.305,6.585,6.612,9.909,9.885a1.855,1.855,0,0,0,1.185.442c4.029.032,8.059.019,12.088.019h1.037v2.865H933.692v-2.865h.969c4.029,0,8.059.017,12.088-.023a2.1,2.1,0,0,0,1.329-.526q4.928-4.84,9.771-9.766a1.9,1.9,0,0,0,.479-1.169c.056-1.474.022-2.952.022-4.514H927.022c-1.72,0-2.121-.407-2.122-2.151q0-25.222,0-50.444v-1.218c-.481,0-.921.016-1.36,0A1.438,1.438,0,0,1,922,512.44q-.037-2.817,0-5.635c.014-1.029.6-1.542,1.714-1.545,3.757-.009,7.514-.015,11.27.008a1.676,1.676,0,0,0,1.4-.612,15.954,15.954,0,0,1,23.553-.027,1.782,1.782,0,0,0,1.477.641q17.042-.027,34.084-.013c1.721,0,2.122.407,2.124,2.149q0,2.272,0,4.545c0,1.6-.435,2.021-2.061,2.032-.24,0-.48,0-.784,0Zm-66.9-23.185v50.824h63.873v-2.865h-1.128q-15.907,0-31.813,0c-1.425,0-1.906-.483-1.908-1.909q-.007-3.818,0-7.635c0-1.671.419-2.09,2.09-2.09h32.77V545.98h-1.019q-7.408,0-14.816,0c-2.09,0-4.268.337-6.244-.143-2.037-.495-3.877-1.8-5.8-2.746-.027-.013-.057-.022-.084-.034a1.534,1.534,0,0,1-1.068-1.437,1.567,1.567,0,0,1,1.063-1.442c1.682-.83,3.344-1.7,5.043-2.5a4.268,4.268,0,0,1,1.729-.407c6.726-.028,13.452-.018,20.178-.018h1.013V514.036H964.165c0,.411,0,.768,0,1.126A15.653,15.653,0,0,1,956.57,529a1.9,1.9,0,0,0-1.047,2.4,1.569,1.569,0,0,1,1.375,1.648c-.006,1.848.013,3.7-.009,5.544a1.505,1.505,0,0,1-1.419,1.588,1.376,1.376,0,0,0-.858.58c-.734,1.356-1.415,2.743-2.081,4.134a1.764,1.764,0,0,1-1.8,1.1c-1.727-.032-3.454-.028-5.181,0a1.715,1.715,0,0,1-1.726-1.067c-.671-1.389-1.352-2.775-2.076-4.137a1.261,1.261,0,0,0-.755-.6c-1.112-.208-1.537-.625-1.545-1.743-.012-1.666,0-3.333,0-5,0-1.328.176-1.585,1.4-2.093a1.944,1.944,0,0,0-1.113-2.384,15.134,15.134,0,0,1-7.215-10.431c-.283-1.466-.31-2.981-.458-4.515Zm18.842,17.38c0-2.007-.024-3.915.014-5.82a1.766,1.766,0,0,0-.605-1.419c-1.6-1.56-3.173-3.152-4.664-4.64l2.038-2.25,4.756,4.891c.8-.85,1.54-1.647,2.292-2.429.773-.8,1.561-1.6,2.275-2.323l2.222,2.054c-.939.9-1.844,1.747-2.724,2.619-.9.894-2.113,1.673-2.574,2.762-.447,1.056-.115,2.443-.121,3.685,0,.956,0,1.912,0,2.86h2.909a16.223,16.223,0,0,0-.012-1.838,2.216,2.216,0,0,1,1.514-2.461A12.935,12.935,0,0,0,961.1,513.63a13.062,13.062,0,1,0-25.724,4.463A12.732,12.732,0,0,0,942.5,527.2a1.983,1.983,0,0,1,1.318,2.12c-.053.682-.01,1.371-.01,2.078Zm30.536,24.7h-2.923v-2.789h-2.923v2.807h-2.891v-2.793h-2.923V556.1H962.67v-2.8h-2.8V559h37.7v-5.681h-2.875v2.79H991.77V553.3h-2.891v2.794h-2.923v-2.78h-2.923v2.8h-2.891v-2.784h-2.891Zm-14.775-47.907a21.462,21.462,0,0,1,.78,2.04c.179.66.494.866,1.2.864q14.669-.041,29.337-.02c.291,0,.582-.026.848-.039v-2.846Zm11.939,31.974v2.882c.215.011.364.025.513.025q10.439,0,20.878,0c.24,0,.563.059.706-.068.4-.358.943-.76,1.028-1.218a1.533,1.533,0,0,0-1.832-1.609c-5.144-.015-10.288-.01-15.431-.01ZM942.4,537.191h11.52v-2.8H942.4ZM924.971,508.21v2.864c2.488,0,4.9.007,7.321-.012a.731.731,0,0,0,.57-.28c.349-.823.638-1.672.97-2.572Zm33.3,75.562v-6.129l-6.129,6.129Zm9.308-.02-6.263-6.276v6.276ZM951.608,540.2h-6.871c.412.83.741,1.606,1.178,2.315a1.291,1.291,0,0,0,.881.526,24.222,24.222,0,0,0,2.81.009.992.992,0,0,0,.726-.344C950.782,541.935,951.155,541.114,951.608,540.2Zm19.8-.014c-1.563-.2-2.552.873-3.785,1.421,1.238.56,2.237,1.665,3.785,1.415Z" transform="translate(-919.079 -499.451)" fill="#12263f"/>
      <path id="Trazado_617433" data-name="Trazado 617433" d="M916.195,753.822v2.809a39.354,39.354,0,0,1-5.336-.044,5.591,5.591,0,0,1-4.8-5.731c-.018-6.176-.006-12.353-.006-18.529,0-2.966,0-5.933,0-8.973h2.909v1.025q0,12.9,0,25.8c0,2.646,1.014,3.647,3.692,3.648Z" transform="translate(-906.046 -682.569)" fill="#12263f"/>
      <path id="Trazado_617434" data-name="Trazado 617434" d="M1161.986,499.477h27.485v2.831h-27.485Z" transform="translate(-1115.366 -499.472)" fill="#12263f"/>
      <path id="Trazado_617435" data-name="Trazado 617435" d="M1209.7,893.68v-2.8h18.792v2.8Z" transform="translate(-1154.388 -819.582)" fill="#12263f"/>
      <path id="Trazado_617436" data-name="Trazado 617436" d="M909.224,694.14h-2.791v-2.807h2.791Z" transform="translate(-906.362 -656.381)" fill="#12263f"/>
      <path id="Trazado_617437" data-name="Trazado 617437" d="M957.147,962.815v2.8h-2.8v-2.8Z" transform="translate(-945.552 -878.412)" fill="#12263f"/>
      <path id="Trazado_617438" data-name="Trazado 617438" d="M954.331,579.428h4.18c.148,1.534.175,3.049.458,4.515a15.134,15.134,0,0,0,7.215,10.431,1.944,1.944,0,0,1,1.114,2.384c-1.221.508-1.395.764-1.4,2.093,0,1.666-.009,3.333,0,5,.008,1.118.433,1.535,1.545,1.743a1.261,1.261,0,0,1,.755.6c.724,1.362,1.4,2.748,2.076,4.137a1.715,1.715,0,0,0,1.726,1.067c1.727-.027,3.454-.031,5.181,0a1.764,1.764,0,0,0,1.8-1.1c.667-1.392,1.347-2.778,2.081-4.134a1.376,1.376,0,0,1,.858-.58A1.505,1.505,0,0,0,983.346,604c.022-1.848,0-3.7.009-5.544a1.569,1.569,0,0,0-1.375-1.648,1.9,1.9,0,0,1,1.047-2.4,15.654,15.654,0,0,0,7.595-13.838c0-.358,0-.715,0-1.126H1018.2v23.217h-1.013c-6.726,0-13.452-.01-20.178.018a4.267,4.267,0,0,0-1.729.407c-1.7.793-3.361,1.667-5.043,2.5a1.567,1.567,0,0,0-1.063,1.442,1.534,1.534,0,0,0,1.068,1.437c.027.012.057.021.084.034,1.927.949,3.767,2.252,5.8,2.746,1.977.48,4.155.14,6.244.143q7.408.009,14.816,0h1.019v4.363h-32.77c-1.671,0-2.089.419-2.09,2.09q0,3.818,0,7.635c0,1.425.483,1.908,1.908,1.909q15.906,0,31.813,0h1.128v2.865H954.331Zm14.57,36.324q-4.954,0-9.907,0c-1.307,0-1.813.509-1.817,1.814q-.011,4,0,8c0,1.306.511,1.817,1.814,1.818q9.816.007,19.633,0c1.3,0,1.815-.513,1.819-1.816q.011-3.954,0-7.908c0-1.425-.483-1.906-1.908-1.908Q973.718,615.747,968.9,615.752Zm44.954-26.115H995.064v2.8h18.791Zm0,5.815H995.061v2.8h18.792Zm-13.007-8.853h12.974v-2.8h-12.974Zm-5.785-2.812v2.828h2.78v-2.828Z" transform="translate(-945.536 -564.86)" fill="#dee4f0"/>
      <path id="Trazado_617439" data-name="Trazado 617439" d="M1005.583,544.432h-2.909c0-.707-.043-1.4.01-2.079a1.983,1.983,0,0,0-1.318-2.12,12.732,12.732,0,0,1-7.118-9.107,13.062,13.062,0,1,1,25.724-4.463,12.935,12.935,0,0,1-7.069,13.461,2.216,2.216,0,0,0-1.514,2.461,16.253,16.253,0,0,1,.012,1.838h-2.909c0-.948,0-1.9,0-2.86.005-1.242-.326-2.628.121-3.685.461-1.089,1.671-1.868,2.574-2.762.88-.872,1.785-1.718,2.724-2.619l-2.222-2.054c-.714.728-1.5,1.518-2.275,2.323-.753.782-1.491,1.579-2.292,2.429l-4.756-4.891-2.038,2.25c1.49,1.488,3.061,3.08,4.664,4.64a1.766,1.766,0,0,1,.605,1.419C1005.558,540.518,1005.583,542.425,1005.583,544.432Zm.233-23.219c4.458-.229,7.272,1.758,8.47,6.035l2.7-.466c-.775-6.134-7.321-9.456-11.617-8.21Z" transform="translate(-977.945 -512.485)" fill="#fb8c00"/>
      <path id="Trazado_617440" data-name="Trazado 617440" d="M1147.359,797.857v-2.77h2.891v2.784h2.891v-2.8h2.923v2.78h2.923v-2.794h2.891v2.808h2.923v-2.79h2.875v5.681h-37.7v-5.693h2.8v2.8h2.923v-2.779h2.923v2.793h2.891v-2.807h2.923v2.789Z" transform="translate(-1089.186 -741.213)" fill="#727997"/>
      <path id="Trazado_617441" data-name="Trazado 617441" d="M1144.3,547.416h32.161v2.846c-.267.013-.557.038-.848.039q-14.669,0-29.337.02c-.7,0-1.016-.2-1.2-.864A21.432,21.432,0,0,0,1144.3,547.416Z" transform="translate(-1100.898 -538.679)" fill="#b2ebf2"/>
      <path id="Trazado_617442" data-name="Trazado 617442" d="M1209.841,722.945h5.861c5.144,0,10.288-.005,15.431.01a1.533,1.533,0,0,1,1.832,1.609c-.085.459-.625.86-1.028,1.218-.143.127-.465.068-.706.068q-10.439,0-20.878,0c-.149,0-.3-.014-.513-.025Z" transform="translate(-1154.504 -682.234)" fill="#f6f6f6"/>
      <path id="Trazado_617443" data-name="Trazado 617443" d="M1034.051,694.064v-2.8h11.52v2.8Z" transform="translate(-1010.734 -656.324)" fill="#e8e8e8"/>
      <path id="Trazado_617444" data-name="Trazado 617444" d="M938.394,547.534h8.86c-.332.9-.62,1.748-.97,2.572a.731.731,0,0,1-.57.28c-2.416.019-4.833.012-7.321.012Z" transform="translate(-932.502 -538.776)" fill="#b2ebf2"/>
      <path id="Trazado_617445" data-name="Trazado 617445" d="M1053.775,723.181c-.454.91-.826,1.731-1.276,2.507a.991.991,0,0,1-.726.344,24.237,24.237,0,0,1-2.81-.009,1.291,1.291,0,0,1-.881-.526c-.437-.709-.766-1.485-1.178-2.316Z" transform="translate(-1021.246 -682.428)" fill="#e8e8e8"/>
      <path id="Trazado_617446" data-name="Trazado 617446" d="M1176.329,722.99v2.837c-1.548.249-2.547-.855-3.785-1.415C1173.777,723.863,1174.766,722.786,1176.329,722.99Z" transform="translate(-1124 -682.251)" fill="#b0c0d2"/>
      <path id="Trazado_617447" data-name="Trazado 617447" d="M981.655,778.834q4.817,0,9.634,0c1.425,0,1.906.483,1.908,1.908q.007,3.954,0,7.908c0,1.3-.515,1.815-1.819,1.816q-9.816.007-19.633,0c-1.3,0-1.811-.513-1.814-1.818q-.01-4,0-8c0-1.305.51-1.811,1.817-1.814Q976.7,778.826,981.655,778.834Zm8.592,2.971H972.909v5.709h17.338Z" transform="translate(-958.289 -727.942)" fill="#12263f"/>
      <path id="Trazado_617448" data-name="Trazado 617448" d="M1196.74,635.472v2.8h-18.792v-2.8Z" transform="translate(-1128.421 -610.695)" fill="#12263f"/>
      <path id="Trazado_617449" data-name="Trazado 617449" d="M1196.728,667.4v2.8h-18.792v-2.8Z" transform="translate(-1128.41 -636.806)" fill="#12263f"/>
      <path id="Trazado_617450" data-name="Trazado 617450" d="M1209.695,606.243v-2.8h12.974v2.8Z" transform="translate(-1154.384 -584.504)" fill="#12263f"/>
      <path id="Trazado_617451" data-name="Trazado 617451" d="M1177.934,603.36h2.78v2.828h-2.78Z" transform="translate(-1128.409 -584.433)" fill="#12263f"/>
      <path id="Trazado_617452" data-name="Trazado 617452" d="M1057.051,534.346c-.158-.938-.3-1.794-.445-2.641,4.3-1.246,10.842,2.076,11.617,8.21l-2.7.466C1064.324,536.1,1061.509,534.117,1057.051,534.346Z" transform="translate(-1029.181 -525.617)" fill="#12263f"/>
      <path id="Trazado_617453" data-name="Trazado 617453" d="M1003.644,795.149v5.709H986.306v-5.709Z" transform="translate(-971.686 -741.287)" fill="#fff"/>
    </g>
  </g>
</svg>
