<svg xmlns="http://www.w3.org/2000/svg" width="90.844" height="90.844" viewBox="0 0 90.844 90.844">
  <g id="Ukza2Z" transform="translate(203.788 -516.368)">
    <g id="Grupo_897323" data-name="Grupo 897323" transform="translate(-203.788 516.368)">
      <path id="Trazado_617405" data-name="Trazado 617405" d="M-22.432,560.279c-2.987,0-5.823,0-8.66,0-3.09-.005-4.961-1.862-4.963-4.933q-.006-13.244,0-26.488a4.554,4.554,0,0,1,4.888-4.911c3.374-.006,6.748-.016,10.121.013a1.153,1.153,0,0,0,1.193-.667c.477-.887,1-1.75,1.552-2.595a8.838,8.838,0,0,1,7.743-4.309c10.531-.034,21.061-.014,31.592-.011,1.425,0,1.942.515,1.945,1.932.006,3.248-.016,6.5.014,9.743a2.424,2.424,0,0,1-.847,1.9,16.567,16.567,0,0,1-8.247,4.293V535.3q0,9.933,0,19.866c0,3.293-1.8,5.11-5.07,5.112-6.432,0-12.864-.01-19.3.023a2.455,2.455,0,0,0-1.42.518c-2.572,2.083-5.108,4.21-7.646,6.336-.607.508-1.209.937-2.04.526s-.871-1.143-.864-1.933C-22.419,563.958-22.432,562.168-22.432,560.279Zm14.541-33.307H-8.926q-11.021,0-22.043,0c-1.593,0-2.058.477-2.058,2.1q0,9.982,0,19.964c0,.273.023.546.041.958.412-.239.731-.419,1.046-.608,3.7-2.221,7.422-4.409,11.089-6.686a2.339,2.339,0,0,1,2.922.051c3.824,2.614,7.705,5.144,11.539,7.743a1.3,1.3,0,0,0,1.53.081c2.352-1.211,4.737-2.356,7.085-3.575a2,2,0,0,1,2.284.133c1.817,1.25,3.664,2.457,5.5,3.677.247.164.509.3.79.471V534.552a16.076,16.076,0,0,1-8.087-2.194.907.907,0,0,0-1.349.191c-2.206,2.253-4.444,4.476-6.681,6.7a5.116,5.116,0,0,1-5.209,1.426,5.232,5.232,0,0,1-2.316-8.768C-11.294,530.3-9.678,528.749-7.891,526.972Zm-8.751-3.03c3.874,0,7.65.009,11.426-.019a1.379,1.379,0,0,0,.772-.444c.72-.681,1.409-1.394,1.994-1.979l2.248,2c-.279.292-.51.545-.753.787q-4.746,4.749-9.5,9.492a2.472,2.472,0,0,0-.912,2.078,2.108,2.108,0,0,0,1.409,1.856,2.231,2.231,0,0,0,2.5-.62c2.316-2.32,4.656-4.617,6.948-6.96,2.214-2.263,2.175-1.955,4.483-.545a13.225,13.225,0,0,0,15.282-1.113,1.713,1.713,0,0,0,.711-1.516c-.049-1.732-.016-3.467-.016-5.2V519.4H18.686c-9.424,0-18.849.058-28.273-.031A6.971,6.971,0,0,0-16.642,523.942ZM-19.4,563.1c2.174-1.809,4.171-3.439,6.128-5.116a2.937,2.937,0,0,1,2.056-.744c6.618.022,13.237.013,19.855.012.284,0,.637.1.837-.032a3.8,3.8,0,0,0,1.318-1.163c.324-.606,0-1.122-.643-1.53-2.127-1.349-4.216-2.761-6.292-4.188a1.152,1.152,0,0,0-1.362-.087c-2.349,1.21-4.733,2.354-7.075,3.578a2.216,2.216,0,0,1-2.536-.17c-3.857-2.617-7.756-5.174-11.618-7.784a1.118,1.118,0,0,0-1.425-.046c-3.818,2.327-7.631,4.665-11.514,6.88a2.326,2.326,0,0,0-1.38,2.513c.114,1.537.513,2.027,2.062,2.029,3.246,0,6.492,0,9.739,0,1.3,0,1.835.542,1.847,1.838C-19.4,560.344-19.4,561.6-19.4,563.1Z" transform="translate(67.85 -516.368)" fill="#12263f"/>
      <path id="Trazado_617406" data-name="Trazado 617406" d="M-164.412,943.819q-16.36,0-32.721,0c-4.159,0-6.647-2.485-6.65-6.636,0-1.261-.016-2.523.005-3.783a1.518,1.518,0,0,1,1.708-1.686q13.334-.011,26.668.011a6.061,6.061,0,0,1,4.268,1.761,4.422,4.422,0,0,0,3.336,1.262c2.332-.044,4.665-.028,7-.006a3.959,3.959,0,0,0,2.914-1.115,6.871,6.871,0,0,1,4.974-1.925q12.908.021,25.817.007c1.54,0,2.022.489,2.026,2.041,0,1.135,0,2.27,0,3.4,0,4.174-2.475,6.664-6.624,6.664Q-148.051,943.822-164.412,943.819Zm-36.343-9.084c0,.853,0,1.574,0,2.3,0,2.694,1.075,3.76,3.792,3.76h65.083c.315,0,.632.013.946-.01a2.917,2.917,0,0,0,2.755-2.439,30.622,30.622,0,0,0,.029-3.565c-.189-.018-.311-.039-.434-.039h-24.6a3.811,3.811,0,0,0-2.706,1.158,6.676,6.676,0,0,1-4.806,1.87q-3.737-.012-7.473,0a6.568,6.568,0,0,1-4.73-1.817,4.425,4.425,0,0,0-3.257-1.224c-7.851.024-15.7.012-23.555.012Z" transform="translate(203.788 -852.976)" fill="#12263f"/>
      <path id="Trazado_617407" data-name="Trazado 617407" d="M-167.442,788.634c0,1.981,0,3.837,0,5.693a4.554,4.554,0,0,1-4.9,4.9q-13.289.008-26.578,0a4.543,4.543,0,0,1-4.851-4.853q-.01-8.8,0-17.595a4.537,4.537,0,0,1,4.809-4.8q13.336-.011,26.673,0c2.953,0,5.024,1.911,4.788,4.855a6.441,6.441,0,0,0,2.6,6.18,32.1,32.1,0,0,1,2.894,2.852,1.546,1.546,0,0,1,.5,1.785,1.575,1.575,0,0,1-1.664.984C-164.551,788.623-165.934,788.634-167.442,788.634Zm.615-3.028.128-.223c-1.012-.985-2.077-1.922-3.01-2.977a3.2,3.2,0,0,1-.728-1.732c-.11-1.251-.026-2.519-.035-3.78-.009-1.352-.537-1.882-1.9-1.883q-13.239-.006-26.478,0c-1.363,0-1.893.528-1.895,1.884q-.008,8.7,0,17.4c0,1.366.527,1.9,1.875,1.9q13.239.007,26.478,0c1.4,0,1.914-.531,1.918-1.96.006-2.238,0-4.477,0-6.715,0-1.408.524-1.911,1.955-1.92C-167.951,785.6-167.389,785.606-166.827,785.606Z" transform="translate(203.778 -723.528)" fill="#12263f"/>
      <path id="Trazado_617408" data-name="Trazado 617408" d="M57.854,793.171c-1.471,0-2.822-.015-4.173.006a1.633,1.633,0,0,1-1.764-.978,1.6,1.6,0,0,1,.558-1.854c1.522-1.51,3.015-3.051,4.562-4.534a2.408,2.408,0,0,0,.837-1.962c-.06-2.363-.029-4.729-.019-7.094a4.53,4.53,0,0,1,4.737-4.775q13.432-.014,26.863,0a4.522,4.522,0,0,1,4.725,4.787q.016,8.8,0,17.6a4.54,4.54,0,0,1-4.843,4.862q-13.289.011-26.579,0a4.562,4.562,0,0,1-4.906-4.9C57.853,793.986,57.854,793.643,57.854,793.171Zm-.751-3.26.14.233h.933c.347,0,.694-.01,1.04,0a1.525,1.525,0,0,1,1.659,1.643c.024.851,0,1.7.008,2.553.013,1.3.542,1.853,1.832,1.853q13.285.009,26.571,0c1.342,0,1.868-.543,1.869-1.913q.007-8.7,0-17.4c0-1.348-.539-1.877-1.9-1.877q-13.238-.006-26.476,0c-1.361,0-1.888.529-1.892,1.886-.008,2.743-.021,5.485.01,8.227a2.4,2.4,0,0,1-.808,1.922C59.074,787.978,58.1,788.952,57.1,789.91Z" transform="translate(-3.353 -723.523)" fill="#12263f"/>
      <path id="Trazado_617409" data-name="Trazado 617409" d="M-155.619,668.14v3.028h-1q-7.612,0-15.225,0a4.565,4.565,0,0,0-4.945,4.947q-.007,3.83,0,7.661v.968h-2.973c-.018-.259-.052-.529-.052-.8,0-2.68-.014-5.359,0-8.039a7.552,7.552,0,0,1,7.771-7.763c5.2-.016,10.4,0,15.6,0Z" transform="translate(184.366 -639.368)" fill="#12263f"/>
      <path id="Trazado_617410" data-name="Trazado 617410" d="M-147.623,735.224v-2.915h18.045v2.915Z" transform="translate(158.269 -691.378)" fill="#12263f"/>
      <path id="Trazado_617411" data-name="Trazado 617411" d="M-147.616,703.271v-2.918h2.91v2.918Z" transform="translate(158.263 -665.479)" fill="#12263f"/>
      <path id="Trazado_617412" data-name="Trazado 617412" d="M-112.654,703.386h-2.877v-2.944h2.877Z" transform="translate(132.26 -665.551)" fill="#12263f"/>
      <path id="Trazado_617413" data-name="Trazado 617413" d="M-80.651,700.466v2.908h-2.911v-2.908Z" transform="translate(106.351 -665.571)" fill="#12263f"/>
      <path id="Trazado_617414" data-name="Trazado 617414" d="M5.06,572.311c-1.788,1.777-3.4,3.323-4.951,4.935a5.232,5.232,0,0,0,2.316,8.768,5.116,5.116,0,0,0,5.209-1.426c2.237-2.223,4.474-4.446,6.681-6.7a.907.907,0,0,1,1.349-.191,16.075,16.075,0,0,0,8.087,2.194v16.733c-.281-.167-.544-.307-.79-.471-1.837-1.22-3.684-2.427-5.5-3.677a2,2,0,0,0-2.284-.133c-2.348,1.219-4.733,2.365-7.085,3.575a1.3,1.3,0,0,1-1.53-.081c-3.834-2.6-7.716-5.129-11.539-7.743a2.339,2.339,0,0,0-2.922-.051c-3.666,2.276-7.387,4.465-11.089,6.686-.314.188-.633.368-1.046.608-.018-.412-.041-.685-.041-.958q0-9.982,0-19.964c0-1.626.465-2.1,2.058-2.1q11.022,0,22.043,0ZM-6.456,580.7a5.314,5.314,0,0,0-5.237-5.356,5.315,5.315,0,0,0-5.356,5.234,5.308,5.308,0,0,0,5.237,5.36A5.324,5.324,0,0,0-6.456,580.7Z" transform="translate(54.899 -561.707)" fill="#f3f9ff"/>
      <path id="Trazado_617416" data-name="Trazado 617416" d="M-6.616,688.059c0-1.5.009-2.755,0-4.007-.011-1.3-.547-1.834-1.847-1.837-3.246-.008-6.492,0-9.739,0-1.549,0-1.948-.492-2.062-2.029a2.326,2.326,0,0,1,1.38-2.513c3.883-2.215,7.7-4.553,11.514-6.88a1.118,1.118,0,0,1,1.425.046c3.863,2.61,7.761,5.167,11.618,7.784a2.216,2.216,0,0,0,2.536.17c2.342-1.224,4.726-2.367,7.075-3.578a1.152,1.152,0,0,1,1.362.087c2.076,1.427,4.165,2.839,6.292,4.188.644.408.967.924.643,1.53a3.8,3.8,0,0,1-1.318,1.163c-.2.132-.553.032-.837.032-6.619,0-13.237.01-19.855-.012a2.937,2.937,0,0,0-2.056.744C-2.445,684.62-4.442,686.251-6.616,688.059Z" transform="translate(55.062 -641.329)" fill="#b2ebf2"/>
      <path id="Trazado_617417" data-name="Trazado 617417" d="M-187.786,947.657h1.05c7.852,0,15.7.012,23.555-.012a4.424,4.424,0,0,1,3.257,1.224,6.567,6.567,0,0,0,4.73,1.817q3.737-.012,7.473,0a6.676,6.676,0,0,0,4.806-1.87,3.811,3.811,0,0,1,2.706-1.158q12.3,0,24.6,0c.122,0,.244.021.433.039a30.622,30.622,0,0,1-.029,3.565,2.917,2.917,0,0,1-2.755,2.439c-.314.023-.63.01-.946.01h-65.083c-2.717,0-3.791-1.066-3.792-3.76C-187.786,949.231-187.786,948.509-187.786,947.657Z" transform="translate(190.819 -865.897)" fill="#fffae7"/>
      <path id="Trazado_617418" data-name="Trazado 617418" d="M-153.874,798.559c-.562,0-1.124,0-1.686,0-1.431.009-1.95.512-1.955,1.92-.007,2.238,0,4.477,0,6.715,0,1.429-.517,1.959-1.918,1.96q-13.239.006-26.478,0c-1.348,0-1.874-.539-1.875-1.9q-.007-8.7,0-17.4c0-1.356.532-1.883,1.895-1.884q13.239-.006,26.478,0c1.361,0,1.889.53,1.9,1.883.009,1.261-.074,2.529.035,3.78a3.2,3.2,0,0,0,.728,1.732c.932,1.055,2,1.992,3.01,2.977Zm-6.714-7.5h-18.045v2.915h18.045Zm-.035,9v-2.947h-18.011v2.947Zm.024,6.029v-2.922h-18.037v2.922Zm-24.123-12.117h2.928v-2.911h-2.928Zm0,6.056h2.928v-2.911h-2.928Zm2.943,3.143h-2.91v2.913h2.91Z" transform="translate(190.825 -736.481)" fill="#b0c0d2"/>
      <path id="Trazado_617419" data-name="Trazado 617419" d="M79.784,802.868c.992-.959,1.971-1.932,2.982-2.87a2.4,2.4,0,0,0,.808-1.921c-.031-2.742-.017-5.485-.01-8.227,0-1.357.531-1.885,1.892-1.886q13.238-.006,26.476,0c1.363,0,1.9.529,1.9,1.877q.009,8.7,0,17.4c0,1.37-.527,1.912-1.869,1.912q-13.285.008-26.571,0c-1.29,0-1.818-.55-1.832-1.853-.009-.851.016-1.7-.008-2.553A1.525,1.525,0,0,0,81.9,803.1c-.346-.013-.693,0-1.04,0h-.933Zm30.983-5.757h-24.1v2.912h24.1Zm-24.13,8.965h24.109V803.17H86.637Zm0-12.124h15.018v-2.914H86.633Zm24.1.046v-2.945h-5.9V794Z" transform="translate(-26.034 -736.481)" fill="#e8e8e8"/>
      <path id="Trazado_617420" data-name="Trazado 617420" d="M6.494,593.652a5.324,5.324,0,0,1-5.356,5.238A5.3,5.3,0,0,1,1.257,588.3,5.314,5.314,0,0,1,6.494,593.652Zm-5.285,2.205a2.266,2.266,0,1,0-.073-4.532,2.266,2.266,0,0,0,.073,4.532Z" transform="translate(41.949 -574.662)" fill="#12263f"/>
      <path id="Trazado_617421" data-name="Trazado 617421" d="M-121.422,804.282V807.2h-18.045v-2.915Z" transform="translate(151.659 -749.708)" fill="#12263f"/>
      <path id="Trazado_617422" data-name="Trazado 617422" d="M-121.464,839.169h-18.011v-2.947h18.011Z" transform="translate(151.665 -775.594)" fill="#12263f"/>
      <path id="Trazado_617423" data-name="Trazado 617423" d="M-121.449,871.082h-18.037V868.16h18.037Z" transform="translate(151.674 -801.479)" fill="#12263f"/>
      <path id="Trazado_617424" data-name="Trazado 617424" d="M-171.6,807.2V804.29h2.928V807.2Z" transform="translate(177.697 -749.715)" fill="#12263f"/>
      <path id="Trazado_617425" data-name="Trazado 617425" d="M-171.6,839.15v-2.911h2.928v2.911Z" transform="translate(177.697 -775.608)" fill="#12263f"/>
      <path id="Trazado_617426" data-name="Trazado 617426" d="M-168.513,868.183V871.1h-2.91v-2.913Z" transform="translate(177.558 -801.497)" fill="#12263f"/>
      <path id="Trazado_617427" data-name="Trazado 617427" d="M140.2,836.237v2.912H116.1v-2.912Z" transform="translate(-55.464 -775.606)" fill="#12263f"/>
      <path id="Trazado_617428" data-name="Trazado 617428" d="M115.938,871.108V868.2h24.109v2.906Z" transform="translate(-55.335 -801.513)" fill="#12263f"/>
      <path id="Trazado_617429" data-name="Trazado 617429" d="M115.919,807.11V804.2h15.018v2.914Z" transform="translate(-55.319 -749.639)" fill="#12263f"/>
      <path id="Trazado_617430" data-name="Trazado 617430" d="M217.811,807.219h-5.9v-2.945h5.9Z" transform="translate(-133.114 -749.702)" fill="#12263f"/>
      <path id="Trazado_617431" data-name="Trazado 617431" d="M14.169,608.807a2.266,2.266,0,1,1,2.254-2.3A2.284,2.284,0,0,1,14.169,608.807Z" transform="translate(28.99 -587.612)" fill="#fb8c00"/>
    </g>
  </g>
</svg>
