<svg xmlns="http://www.w3.org/2000/svg" xmlns:xlink="http://www.w3.org/1999/xlink" width="800.346" height="482.17" viewBox="0 0 800.346 482.17">
  <defs>
    <linearGradient id="linear-gradient" y1="0.5" x2="1" y2="0.5" gradientUnits="objectBoundingBox">
      <stop offset="0" stop-color="#821868"/>
      <stop offset="1" stop-color="#a077ec"/>
    </linearGradient>
    <filter id="Trazado_617469" x="206.385" y="0" width="261.943" height="205.331" filterUnits="userSpaceOnUse">
      <feOffset dy="13" input="SourceAlpha"/>
      <feGaussianBlur stdDeviation="4" result="blur"/>
      <feFlood flood-color="#9b9292" flood-opacity="0.588"/>
      <feComposite operator="in" in2="blur"/>
      <feComposite in="SourceGraphic"/>
    </filter>
    <filter id="Trazado_617470" x="270.041" y="294.371" width="270.873" height="143.964" filterUnits="userSpaceOnUse">
      <feOffset dy="13" input="SourceAlpha"/>
      <feGaussianBlur stdDeviation="4" result="blur-2"/>
      <feFlood flood-color="#9b9292" flood-opacity="0.588"/>
      <feComposite operator="in" in2="blur-2"/>
      <feComposite in="SourceGraphic"/>
    </filter>
    <filter id="Trazado_617471" x="445.034" y="145.244" width="177.986" height="257.742" filterUnits="userSpaceOnUse">
      <feOffset dy="13" input="SourceAlpha"/>
      <feGaussianBlur stdDeviation="4" result="blur-3"/>
      <feFlood flood-color="#9b9292" flood-opacity="0.588"/>
      <feComposite operator="in" in2="blur-3"/>
      <feComposite in="SourceGraphic"/>
    </filter>
    <filter id="Trazado_617472" x="388.902" y="12.852" width="230.169" height="227.528" filterUnits="userSpaceOnUse">
      <feOffset dy="13" input="SourceAlpha"/>
      <feGaussianBlur stdDeviation="4" result="blur-4"/>
      <feFlood flood-color="#9b9292" flood-opacity="0.588"/>
      <feComposite operator="in" in2="blur-4"/>
      <feComposite in="SourceGraphic"/>
    </filter>
    <filter id="Trazado_617473" x="206.385" y="0" width="261.943" height="205.331" filterUnits="userSpaceOnUse">
      <feOffset dy="13" input="SourceAlpha"/>
      <feGaussianBlur stdDeviation="4" result="blur-5"/>
      <feFlood flood-color="#9b9292" flood-opacity="0.588"/>
      <feComposite operator="in" in2="blur-5"/>
      <feComposite in="SourceGraphic"/>
    </filter>
    <filter id="Trazado_617474" x="184.688" y="124.123" width="174.377" height="276.368" filterUnits="userSpaceOnUse">
      <feOffset dy="13" input="SourceAlpha"/>
      <feGaussianBlur stdDeviation="4" result="blur-6"/>
      <feFlood flood-color="#9b9292" flood-opacity="0.588"/>
      <feComposite operator="in" in2="blur-6"/>
      <feComposite in="SourceGraphic"/>
    </filter>
    <clipPath id="clip-path">
      <rect id="Rectángulo_58529" data-name="Rectángulo 58529" width="40.149" height="40.133" fill="#12263f"/>
    </clipPath>
  </defs>
  <g id="Grupo_897398" data-name="Grupo 897398" transform="translate(-400.327 -8765)">
    <path id="Trazado_189651" data-name="Trazado 189651" d="M1437.644,282.747c-10.29,0-18.632,7.613-18.632,17s8.342,17.005,18.632,17.005,18.632-7.614,18.632-17.005a15.649,15.649,0,0,0-1.092-5.746l-2.806,2.562a12.738,12.738,0,0,1,.4,3.184c0,7.631-6.778,13.817-15.139,13.817s-15.138-6.186-15.138-13.817,6.778-13.816,15.138-13.816a15.97,15.97,0,0,1,9.7,3.206l2.478-2.262a19.627,19.627,0,0,0-12.175-4.133Zm-9.8,15.32a2,2,0,0,1,0-3.006,2.49,2.49,0,0,1,3.294,0l6.5,5.937,14.655-13.376a2.489,2.489,0,0,1,3.294,0,2,2,0,0,1,0,3.006l-16.3,14.879a2.489,2.489,0,0,1-3.293,0Z" transform="translate(-762.484 8530.957)" fill="#fff" fill-rule="evenodd"/>
    <g id="Grupo_897361" data-name="Grupo 897361" transform="translate(597.015 8765)">
      <g id="Grupo_897360" data-name="Grupo 897360" transform="translate(0 0)">
        <g id="Grupo_897348" data-name="Grupo 897348">
          <g transform="matrix(1, 0, 0, 1, -196.69, 0)" filter="url(#Trazado_617469)">
            <path id="Trazado_617469-2" data-name="Trazado 617469" d="M565.177-139.036l-68.92-66.893v14.222c-80.746,9.429-146.974,67.08-169.023,143.31l63.22-33.409L418.045-25.6a107.128,107.128,0,0,1,78.212-71.386v24.84Z" transform="translate(-108.85 205.93)" fill="url(#linear-gradient)"/>
          </g>
          <g transform="matrix(1, 0, 0, 1, -196.69, 0)" filter="url(#Trazado_617470)">
            <path id="Trazado_617470-2" data-name="Trazado 617470" d="M631.361,139.131l-71.881-10.288,10.6-61A106.091,106.091,0,0,1,513.224,84.29a106.089,106.089,0,0,1-44.936-9.935l11.275-15.52L384.488,72.443l16.438,94.628,11.868-16.334A199.011,199.011,0,0,0,513.224,177.8,199.168,199.168,0,0,0,631.361,139.131Z" transform="translate(-102.45 235.54)" fill="#12263f"/>
          </g>
          <g transform="matrix(1, 0, 0, 1, -196.69, 0)" filter="url(#Trazado_617471)">
            <path id="Trazado_617471-2" data-name="Trazado 617471" d="M695.866-7.444a199.3,199.3,0,0,0-11.843-67.849L649.6-5.158,599.6-31.577a106.666,106.666,0,0,1,2.752,24.133,106.379,106.379,0,0,1-30.779,74.906L558.319,49.214,541.88,143.842l95.077,13.607-10.043-13.822A199.84,199.84,0,0,0,695.866-7.444Z" transform="translate(-84.85 220.54)" fill="#fb8c00"/>
          </g>
          <g transform="matrix(1, 0, 0, 1, -196.69, 0)" filter="url(#Trazado_617472)">
            <path id="Trazado_617472-2" data-name="Trazado 617472" d="M684.9-73.944C654-144.749,583.326-194.37,501.269-194.37q-4.967,0-9.875.246l14.646,93.376A106.862,106.862,0,0,1,595.187-44.8l-24.863,8.079L655.242,8.158,697.563-78.06Z" transform="translate(-90.49 207.22)" fill="#1565c0"/>
          </g>
          <g transform="matrix(1, 0, 0, 1, -196.69, 0)" filter="url(#Trazado_617473)">
            <path id="Trazado_617473-2" data-name="Trazado 617473" d="M565.177-139.036l-68.92-66.893v14.222c-80.746,9.429-146.974,67.08-169.023,143.31l63.22-33.409L418.045-25.6a107.128,107.128,0,0,1,78.212-71.386v24.84Z" transform="translate(-108.85 205.93)" fill="#26aab7"/>
          </g>
          <g transform="matrix(1, 0, 0, 1, -196.69, 0)" filter="url(#Trazado_617474)">
            <path id="Trazado_617474-2" data-name="Trazado 617474" d="M458.1,80.26A106.642,106.642,0,0,1,415.076-5.319c0-3.061.138-6.089.391-9.086l19.49,6.333L392.636-94.29,307.72-49.414l17.555,5.7a200.428,200.428,0,0,0-3.708,38.391,200.111,200.111,0,0,0,83.233,162.4L393.073,89.566Z" transform="translate(-111.03 218.41)" fill="#727997"/>
          </g>
          <path id="Trazado_617475" data-name="Trazado 617475" d="M502.315,123.413C503.024,110.27,505.27,97.157,505.4,84a105.937,105.937,0,0,1-37.108-9.641l11.275-15.52L384.488,72.443l16.438,94.628,11.868-16.334A199.011,199.011,0,0,0,513.224,177.8c.388,0,.775-.009,1.162-.011C504.017,161.742,501.3,142.2,502.315,123.413Z" transform="translate(-299.135 235.536)" fill="#12263f"/>
        </g>
      </g>
    </g>
    <path id="Trazado_617541" data-name="Trazado 617541" d="M21.533,22.284a10.184,10.184,0,0,1-1.941,6.665,6.707,6.707,0,0,1-5.471,2.344,6.743,6.743,0,0,1-5.508-2.358,10.168,10.168,0,0,1-1.948-6.65v-3.9a10.184,10.184,0,0,1,1.941-6.665,6.724,6.724,0,0,1,5.486-2.344,6.726,6.726,0,0,1,5.493,2.358A10.193,10.193,0,0,1,21.533,18.4ZM16.6,17.758a7.607,7.607,0,0,0-.6-3.435,2.008,2.008,0,0,0-1.9-1.135,1.96,1.96,0,0,0-1.853,1.055,7.166,7.166,0,0,0-.623,3.193v5.449a7.664,7.664,0,0,0,.6,3.494,2.015,2.015,0,0,0,1.9,1.106,1.988,1.988,0,0,0,1.86-1.077,7.317,7.317,0,0,0,.615-3.376ZM35.039,31H30.087V15.238l-4.863,1.421v-3.75l9.36-3.237h.454Z" transform="translate(777.863 8813.705)" fill="#fff" opacity="0.8"/>
    <path id="Trazado_617542" data-name="Trazado 617542" d="M21.533,22.284a10.184,10.184,0,0,1-1.941,6.665,6.707,6.707,0,0,1-5.471,2.344,6.743,6.743,0,0,1-5.508-2.358,10.168,10.168,0,0,1-1.948-6.65v-3.9a10.184,10.184,0,0,1,1.941-6.665,6.724,6.724,0,0,1,5.486-2.344,6.726,6.726,0,0,1,5.493,2.358A10.193,10.193,0,0,1,21.533,18.4ZM16.6,17.758a7.607,7.607,0,0,0-.6-3.435,2.008,2.008,0,0,0-1.9-1.135,1.96,1.96,0,0,0-1.853,1.055,7.166,7.166,0,0,0-.623,3.193v5.449a7.664,7.664,0,0,0,.6,3.494,2.015,2.015,0,0,0,1.9,1.106,1.988,1.988,0,0,0,1.86-1.077,7.317,7.317,0,0,0,.615-3.376ZM38.979,31H24.1V27.777l6.855-7.207q2.534-2.886,2.534-4.585a3.189,3.189,0,0,0-.6-2.095,2.144,2.144,0,0,0-1.743-.718,2.171,2.171,0,0,0-1.831.959,3.943,3.943,0,0,0-.7,2.4H23.657a7,7,0,0,1,.981-3.625,6.882,6.882,0,0,1,2.725-2.6,8.094,8.094,0,0,1,3.9-.937,7.962,7.962,0,0,1,5.325,1.6,5.7,5.7,0,0,1,1.868,4.585A6.658,6.658,0,0,1,37.983,18a10.76,10.76,0,0,1-1.458,2.5,36.716,36.716,0,0,1-3.186,3.508l-2.754,3.179h8.394Z" transform="translate(926.847 8907.098)" fill="#fff" opacity="0.8"/>
    <path id="Trazado_617543" data-name="Trazado 617543" d="M21.533,22.284a10.184,10.184,0,0,1-1.941,6.665,6.707,6.707,0,0,1-5.471,2.344,6.743,6.743,0,0,1-5.508-2.358,10.168,10.168,0,0,1-1.948-6.65v-3.9a10.184,10.184,0,0,1,1.941-6.665,6.724,6.724,0,0,1,5.486-2.344,6.726,6.726,0,0,1,5.493,2.358A10.193,10.193,0,0,1,21.533,18.4ZM16.6,17.758a7.607,7.607,0,0,0-.6-3.435,2.008,2.008,0,0,0-1.9-1.135,1.96,1.96,0,0,0-1.853,1.055,7.166,7.166,0,0,0-.623,3.193v5.449a7.664,7.664,0,0,0,.6,3.494,2.015,2.015,0,0,0,1.9,1.106,1.988,1.988,0,0,0,1.86-1.077,7.317,7.317,0,0,0,.615-3.376Zm12.012.513h2.329q2.769,0,2.769-2.71a2.343,2.343,0,0,0-.659-1.721,2.5,2.5,0,0,0-1.86-.667,2.676,2.676,0,0,0-1.707.571,1.743,1.743,0,0,0-.725,1.421H23.818a5.053,5.053,0,0,1,.938-3,6.191,6.191,0,0,1,2.6-2.058,8.89,8.89,0,0,1,3.655-.74,8.735,8.735,0,0,1,5.6,1.626,5.405,5.405,0,0,1,2.036,4.468,4.505,4.505,0,0,1-.842,2.6,6,6,0,0,1-2.454,1.985,5.734,5.734,0,0,1,2.666,1.868,4.919,4.919,0,0,1,.967,3.1,5.5,5.5,0,0,1-2.2,4.57,9.12,9.12,0,0,1-5.771,1.714,9.458,9.458,0,0,1-3.889-.8A6.093,6.093,0,0,1,24.4,28.283a5.751,5.751,0,0,1-.923-3.215h4.966a2.223,2.223,0,0,0,.791,1.7,2.793,2.793,0,0,0,1.948.718,2.925,2.925,0,0,0,2.08-.725,2.424,2.424,0,0,0,.776-1.853,2.833,2.833,0,0,0-.806-2.285,3.368,3.368,0,0,0-2.227-.674h-2.4Z" transform="translate(881.262 9079.432)" fill="#fff" opacity="0.8"/>
    <path id="Trazado_617540" data-name="Trazado 617540" d="M21.533,22.284a10.184,10.184,0,0,1-1.941,6.665,6.707,6.707,0,0,1-5.471,2.344,6.743,6.743,0,0,1-5.508-2.358,10.168,10.168,0,0,1-1.948-6.65v-3.9a10.184,10.184,0,0,1,1.941-6.665,6.724,6.724,0,0,1,5.486-2.344,6.726,6.726,0,0,1,5.493,2.358A10.193,10.193,0,0,1,21.533,18.4ZM16.6,17.758a7.607,7.607,0,0,0-.6-3.435,2.008,2.008,0,0,0-1.9-1.135,1.96,1.96,0,0,0-1.853,1.055,7.166,7.166,0,0,0-.623,3.193v5.449a7.664,7.664,0,0,0,.6,3.494,2.015,2.015,0,0,0,1.9,1.106,1.988,1.988,0,0,0,1.86-1.077,7.317,7.317,0,0,0,.615-3.376Zm7.793,2.824,1.3-10.91H38.159V13.51H29.706l-.483,4.237a5.822,5.822,0,0,1,1.384-.544,6.316,6.316,0,0,1,1.677-.235,6.257,6.257,0,0,1,4.885,1.882,7.582,7.582,0,0,1,1.707,5.281,7.569,7.569,0,0,1-.916,3.713A6.293,6.293,0,0,1,35.39,30.4a8.116,8.116,0,0,1-3.911.894,8.733,8.733,0,0,1-3.765-.827A6.754,6.754,0,0,1,24.96,28.2a5.513,5.513,0,0,1-.981-3.257H28.93a2.8,2.8,0,0,0,.747,1.856,2.371,2.371,0,0,0,1.772.687q2.49,0,2.49-3.684,0-3.406-3.047-3.406a3.04,3.04,0,0,0-2.578,1.111Z" transform="translate(637.772 8922.664)" fill="#fff" opacity="0.8"/>
    <path id="Trazado_617544" data-name="Trazado 617544" d="M21.533,22.284a10.184,10.184,0,0,1-1.941,6.665,6.707,6.707,0,0,1-5.471,2.344,6.743,6.743,0,0,1-5.508-2.358,10.168,10.168,0,0,1-1.948-6.65v-3.9a10.184,10.184,0,0,1,1.941-6.665,6.724,6.724,0,0,1,5.486-2.344,6.726,6.726,0,0,1,5.493,2.358A10.193,10.193,0,0,1,21.533,18.4ZM16.6,17.758a7.607,7.607,0,0,0-.6-3.435,2.008,2.008,0,0,0-1.9-1.135,1.96,1.96,0,0,0-1.853,1.055,7.166,7.166,0,0,0-.623,3.193v5.449a7.664,7.664,0,0,0,.6,3.494,2.015,2.015,0,0,0,1.9,1.106,1.988,1.988,0,0,0,1.86-1.077,7.317,7.317,0,0,0,.615-3.376Zm20.537,4.907H39.3v3.809H37.133V31H32.2V26.474H23.95l-.293-3.018L32.2,9.716V9.672h4.937Zm-8.774,0H32.2V16.1l-.308.5Z" transform="translate(700.035 9086.102)" fill="#fff" opacity="0.8"/>
    <g id="Grupo_897373" data-name="Grupo 897373" transform="translate(734.031 9207.037)">
      <g id="Grupo_180636" data-name="Grupo 180636" clip-path="url(#clip-path)">
        <path id="Trazado_232628" data-name="Trazado 232628" d="M35.617,40.134H34.08a3.5,3.5,0,0,0-.36-.156c-2.611-.807-5.224-1.607-7.833-2.421a1.459,1.459,0,0,1-.572-.345q-3.258-3.237-6.5-6.49c-.111-.111-.229-.217-.277-.263l-1.07,1.011c.463.45.955.893,1.407,1.374a2.015,2.015,0,0,1-2.6,3.052c-.085-.056-.175-.1-.273-.163a2.061,2.061,0,0,1-1.56,1.144,2.144,2.144,0,0,1-1.843-.683c-.176.188-.321.348-.471.5s-.318.331-.491.482A5.89,5.89,0,0,1,4.995,38.3a6.132,6.132,0,0,1-1.872-9.969c.27-.274.543-.545.819-.822a2.086,2.086,0,0,1-.672-1.843A2.149,2.149,0,0,1,4.42,24.107c-.071-.1-.119-.167-.163-.234A2.007,2.007,0,0,1,5.528,20.75,1.975,1.975,0,0,1,7.4,21.36c.444.444.886.891,1.279,1.287l1.035-1.011c-.084-.087-.183-.2-.286-.3q-4.105-4.107-8.21-8.214a3.766,3.766,0,0,1-.005-5.549C1.8,6.989,2.38,6.409,2.963,5.828a3.784,3.784,0,0,1,5.751,0L15.18,12.3c.1.1.207.193.369.344a4.532,4.532,0,0,1,0-.469,23.29,23.29,0,0,1,.37-2.839A12.2,12.2,0,0,1,29.705.161c5.1.835,8.414,3.864,9.962,8.792a22.525,22.525,0,0,1,.482,2.365v1.943c-.105.594-.185,1.193-.319,1.78a12.338,12.338,0,0,1-10.841,9.487c-.474.043-.95.061-1.425.09l-.063.1a2.965,2.965,0,0,1,.355.263q2.42,2.412,4.828,4.836a1.542,1.542,0,0,1,.363.606c.736,2.378,1.438,4.766,2.189,7.14a6.59,6.59,0,0,1,.382,2.572M30.439,12.939c.49,0,.932-.011,1.374,0a2.586,2.586,0,1,1-2.545,3.366c-.06-.189-.1-.384-.157-.625l-14.5,12.77,1.954,1.959c.078-.075.186-.173.289-.276,1.688-1.688,3.37-3.382,5.066-5.063a6.1,6.1,0,0,1,5-1.808A11.015,11.015,0,1,0,16.872,13.124a6.3,6.3,0,0,1-1.911,5.206q-2.5,2.48-4.979,4.977c-.1.1-.2.207-.259.274l1.954,1.955L24.364,11.045a9.005,9.005,0,0,1-1.126-.161,2.587,2.587,0,1,1,3.311-2.576c.015.453,0,.908,0,1.4h3.889Zm-1.3-1.944c-.979,0-1.9-.009-2.811.01a.615.615,0,0,0-.386.213q-4.7,5.348-9.385,10.707l-3.983,4.551,1.059,1.084a.66.66,0,0,0,.1-.061q7.62-6.709,15.235-13.422a.47.47,0,0,0,.163-.3c.012-.914.007-1.828.007-2.785M4.837,28.488c-1.748,1.453-2.7,3.234-2.035,5.545a4.6,4.6,0,0,0,3.732,3.412A5.071,5.071,0,0,0,11.65,35.3L4.837,28.488M4.179,14.212,9.721,8.674c-.649-.649-1.322-1.323-2-2a3.828,3.828,0,0,0-.389-.352,2.5,2.5,0,0,0-3.166.146C3.4,7.194,2.659,7.936,1.941,8.7a2.4,2.4,0,0,0-.012,3.273c.725.777,1.506,1.5,2.25,2.237M28.137,33.7l-6.425-6.431-2.166,2.165,6.43,6.429L28.137,33.7M31.4,30.382c.005.015,0-.016-.013-.033q-2.811-2.817-5.627-5.628a.37.37,0,0,0-.278-.1,4.7,4.7,0,0,0-2.771,1.512l6.473,6.476L31.4,30.382m-25.512-8.5a3.207,3.207,0,0,0-.62.576c-.195.321-.029.617.219.865q5.665,5.664,11.33,11.328a.731.731,0,1,0,1.026-1.019c-.5-.51-1.009-1.012-1.515-1.518q-4.863-4.864-9.73-9.723a5.835,5.835,0,0,0-.71-.51M34.277,38.794l-2.155-7.01-4.851,4.854,7.006,2.156M14.216,35.7a3.031,3.031,0,0,0,.6-.553c.2-.32.037-.617-.212-.866q-4.377-4.376-8.754-8.752a.728.728,0,1,0-1.035,1.009q4.387,4.4,8.784,8.78a3.574,3.574,0,0,0,.613.382M9.445,14.927,7.22,17.152l3.469,3.468L12.905,18.4l-3.46-3.47m4.507,2.556a4.9,4.9,0,0,0,1.523-2.555.629.629,0,0,0-.2-.707c-.542-.5-1.059-1.036-1.575-1.567-.344-.354-.67-.726-.955-1.036l-2.33,2.325,3.533,3.54M10.737,9.715,5.262,15.2l.879.887L11.633,10.6l-.9-.888m14.516-.021c0-.506.026-.962-.006-1.415a1.286,1.286,0,0,0-1.312-1.168,1.3,1.3,0,0,0-1.263,1.226,1.287,1.287,0,0,0,1.168,1.352c.452.032.909.006,1.413.006m5.191,5.471c0,.162-.012.324,0,.485a1.29,1.29,0,0,0,2.448.441,1.277,1.277,0,0,0-.321-1.542A1.6,1.6,0,0,0,31.4,14.23c-.833.014-.959.131-.954.934" transform="translate(0 0)" fill="#12263f"/>
        <path id="Trazado_232629" data-name="Trazado 232629" d="M343.7,33.4V32.181a9.659,9.659,0,0,1,9.272,6.895l-1.183.367A8.626,8.626,0,0,0,343.7,33.4" transform="translate(-315.837 -29.565)" fill="#12263f"/>
        <path id="Trazado_232630" data-name="Trazado 232630" d="M446.445,135.833l-.092-1.166,1.276-.192.113,1.357Z" transform="translate(-410.163 -123.573)" fill="#12263f"/>
      </g>
    </g>
    <g id="R6ynfF" transform="translate(969.673 8801.416)">
      <g id="Grupo_897363" data-name="Grupo 897363" transform="translate(0 0)">
        <path id="Trazado_617476" data-name="Trazado 617476" d="M413.666,631.009a4.4,4.4,0,0,1,.355,1.187c.025,4.541.017,9.082.015,13.622,0,.523.025,1.112-.733,1.092-.727-.018-.731-.592-.732-1.12q0-4.622,0-9.244V635.6H382.913V666.04h24.848a2.191,2.191,0,0,1,.645.012,9.952,9.952,0,0,1,1.024.453l-.469,1.011H381.378V631.009Zm-30.746,1.515v1.5H412.5v-1.5Z" transform="translate(-381.378 -631.009)" fill="#12263f"/>
        <path id="Trazado_617477" data-name="Trazado 617477" d="M488.639,737.455l-6.241-5.913a9.339,9.339,0,0,1-8.547,1.464,9.061,9.061,0,0,1-5.256-4.078,9.48,9.48,0,1,1,15.138,1.4c.262.277.524.571.8.847q2.616,2.578,5.239,5.149v1.136Zm-12.019-5.484a8.011,8.011,0,1,0-7.959-8.092A8.033,8.033,0,0,0,476.621,731.97Z" transform="translate(-453.268 -700.948)" fill="#12263f"/>
        <path id="Trazado_617478" data-name="Trazado 617478" d="M438.732,673.906v1.338H424.5v-1.338Z" transform="translate(-417.5 -666.946)" fill="#12263f"/>
        <path id="Trazado_617479" data-name="Trazado 617479" d="M466.625,693.76V692.4h10.434v1.356Z" transform="translate(-452.794 -682.443)" fill="#12263f"/>
        <path id="Trazado_617480" data-name="Trazado 617480" d="M423.873,806.495v-1.338h6.68v1.338Z" transform="translate(-416.978 -776.901)" fill="#12263f"/>
        <path id="Trazado_617481" data-name="Trazado 617481" d="M429.191,750.018h-5.184V748.67h5.184Z" transform="translate(-417.09 -729.579)" fill="#12263f"/>
        <path id="Trazado_617482" data-name="Trazado 617482" d="M424.5,693.706v-1.369h5.147v1.369Z" transform="translate(-417.504 -682.386)" fill="#12263f"/>
        <path id="Trazado_617483" data-name="Trazado 617483" d="M429.761,711.317V712.7h-5.153v-1.386Z" transform="translate(-417.594 -698.287)" fill="#12263f"/>
        <path id="Trazado_617484" data-name="Trazado 617484" d="M424.559,768.79v-1.342h5.1v1.342Z" transform="translate(-417.553 -745.31)" fill="#12263f"/>
        <path id="Trazado_617485" data-name="Trazado 617485" d="M424.52,787.6v-1.36h5.134v1.36Z" transform="translate(-417.52 -761.054)" fill="#12263f"/>
        <path id="Trazado_617486" data-name="Trazado 617486" d="M424.592,824.893V823.53h5.139v1.363Z" transform="translate(-417.58 -792.293)" fill="#12263f"/>
        <path id="Trazado_617487" data-name="Trazado 617487" d="M400.849,731.641v-1.358h4.4v1.358Z" transform="translate(-397.69 -714.175)" fill="#12263f"/>
        <path id="Trazado_617488" data-name="Trazado 617488" d="M442.615,730.308v1.351h-4.384v-1.351Z" transform="translate(-429.006 -714.197)" fill="#12263f"/>
        <path id="Trazado_617489" data-name="Trazado 617489" d="M466.779,711.256h2.883v1.392h-2.883Z" transform="translate(-452.922 -698.236)" fill="#12263f"/>
        <path id="Trazado_617490" data-name="Trazado 617490" d="M400.831,675.027v-1.38h2.15v1.38Z" transform="translate(-397.675 -666.729)" fill="#12263f"/>
        <path id="Trazado_617491" data-name="Trazado 617491" d="M403.2,767.34v1.367h-2.13V767.34Z" transform="translate(-397.877 -745.22)" fill="#12263f"/>
        <path id="Trazado_617492" data-name="Trazado 617492" d="M403.183,805.143v1.341h-2.072v-1.341Z" transform="translate(-397.909 -776.889)" fill="#12263f"/>
        <path id="Trazado_617493" data-name="Trazado 617493" d="M546.119,757.181a16.965,16.965,0,0,1-1.407-1.747,1.14,1.14,0,0,1,.005-1.036c.316-.429.76-.267,1.086.118a27.223,27.223,0,0,1,1.736,2.122,1.164,1.164,0,0,1,.02,1.058,26.367,26.367,0,0,1-1.73,2.126.736.736,0,0,1-1.129.164c-.42-.352-.292-.753.028-1.129C545.18,758.325,545.619,757.784,546.119,757.181Z" transform="translate(-517.977 -734.164)" fill="#12263f"/>
        <path id="Trazado_617494" data-name="Trazado 617494" d="M490.042,757.163c.5.6.94,1.144,1.39,1.679.32.381.425.8.015,1.138a.733.733,0,0,1-1.126-.179c-.565-.689-1.133-1.375-1.71-2.055a.813.813,0,0,1,0-1.166c.586-.706,1.172-1.414,1.767-2.112.307-.359.754-.492,1.039-.113a1.148,1.148,0,0,1,.048,1.046A16.387,16.387,0,0,1,490.042,757.163Z" transform="translate(-471.006 -734.15)" fill="#12263f"/>
        <path id="Trazado_617495" data-name="Trazado 617495" d="M520.95,755.375c-.3.9-.543,1.638-.79,2.378a21.413,21.413,0,0,1-.825,2.36c-.123.262-.6.355-.921.526-.148-.3-.483-.66-.413-.9q.664-2.285,1.506-4.517a1.04,1.04,0,0,1,.854-.469C520.586,754.768,520.784,755.185,520.95,755.375Z" transform="translate(-495.826 -734.674)" fill="#12263f"/>
      </g>
    </g>
    <g id="hyxKil" transform="translate(1026.673 9021.963)">
      <g id="Grupo_897364" data-name="Grupo 897364" transform="translate(0 0)">
        <path id="Trazado_617496" data-name="Trazado 617496" d="M149.382,530.253v21.961a2.026,2.026,0,0,1-2.221,1.363c-3.838-.034-7.676-.014-11.514-.014h-.418v2.477h.413c1.212,0,2.424,0,3.636,0,.474,0,.638.171.651.646,0,.178,0,.356,0,.535,0,.387,0,.774,0,1.186.274,0,.488-.012.7,0a.52.52,0,0,1,.1,1.019,1.738,1.738,0,0,1-.458.04q-9.144,0-18.287,0a2.57,2.57,0,0,1-.32-.007.538.538,0,0,1-.512-.574.529.529,0,0,1,.556-.486c.2-.008.393,0,.622,0,0-.361,0-.668,0-.975-.018-1.45-.036-1.4,1.372-1.391.986.008,1.972,0,2.959,0,.126,0,.252-.012.38-.018v-2.458H114.876a1.758,1.758,0,0,1-2-1.983q0-10.373,0-20.747a1.747,1.747,0,0,1,1.979-1.965q2.923,0,5.846,0h.444v-.432q0-1.729,0-3.458c0-.711.134-.843.859-.843h18.252c.083,0,.167,0,.249,0a.555.555,0,0,1,.605.631c.006.689,0,1.378,0,2.068,0,.663,0,1.327,0,2.033h.448q2.959,0,5.917,0a1.593,1.593,0,0,1,1.227.372A6.824,6.824,0,0,1,149.382,530.253Zm-27.144-2.07v11.292H140.02V528.182Zm24.274,17.8V534.694h-5.4v.418q0,4.1,0,8.2c0,.655-.137.791-.793.791h-18.4c-.631,0-.778-.146-.778-.77q0-4.118,0-8.235v-.4h-5.4V545.98Zm1.8,2.888H113.945c0,.907,0,1.785,0,2.663,0,.787.176.962.963.962H147.35c.107,0,.214.006.321,0a.632.632,0,0,0,.636-.639C148.319,550.867,148.311,549.882,148.311,548.868Zm0-1.117v-.388q0-8.27,0-16.539c0-.689-.2-.887-.892-.888q-2.959,0-5.917,0c-.124,0-.249.013-.374.02v.676H146.8c.657,0,.8.144.8.788q0,7.432,0,14.864c0,.628-.151.782-.772.782h-31.4c-.628,0-.779-.15-.779-.775q0-7.432,0-14.864c0-.652.143-.795.795-.8h5.68v-.675c-.121-.008-.225-.02-.329-.021q-2.994,0-5.988,0c-.666,0-.865.206-.865.879q0,8.27,0,16.539v.4Zm-8.29-7.154H122.244v2.419h17.779Zm-17.788-13.525h17.791v-1.849H122.234Zm1.184,31.31h15.414v-1.245H123.419Zm10.7-4.789h-5.969v2.426h5.969Zm12.4-21.864h-5.387v1.845h5.387Zm-25.383,0h-5.384v1.838h5.384Z" transform="translate(-112.875 -524.133)" fill="#12263f"/>
        <path id="Trazado_617497" data-name="Trazado 617497" d="M263.416,623.4a4.3,4.3,0,0,1,.726.255.464.464,0,0,1,.2.672.5.5,0,0,1-.655.266,1.694,1.694,0,0,0-.408-.1.512.512,0,0,0-.572.383.827.827,0,0,0,.1.643c.138.148.429.153.654.217.019.005.045-.013.067-.021.455-.158.744-.069.854.264.1.31-.075.581-.487.74a1.672,1.672,0,0,1-1.859-.419,1.621,1.621,0,0,1-.331-1.844A1.733,1.733,0,0,1,263.416,623.4Z" transform="translate(-250.93 -616.308)" fill="#12263f"/>
        <path id="Trazado_617498" data-name="Trazado 617498" d="M346.064,626.9c-.084-.065-.294-.151-.376-.3-.413-.773-.8-1.562-1.181-2.351a.521.521,0,0,1,.239-.724.516.516,0,0,1,.7.243c.4.779.8,1.561,1.177,2.353C346.8,626.492,346.555,626.884,346.064,626.9Z" transform="translate(-327.902 -616.371)" fill="#12263f"/>
        <path id="Trazado_617499" data-name="Trazado 617499" d="M387.124,656.565c.3,0,.594-.009.891,0a.529.529,0,1,1,.018,1.058q-.89.026-1.781,0a.529.529,0,1,1,.018-1.058C386.553,656.556,386.839,656.565,387.124,656.565Z" transform="translate(-366.231 -647.1)" fill="#12263f"/>
        <path id="Trazado_617500" data-name="Trazado 617500" d="M312.231,632.773c-.574,0-.827-.167-.821-.543s.25-.525.8-.525c.095,0,.19,0,.284,0a.533.533,0,1,1,.016,1.065C312.421,632.779,312.326,632.773,312.231,632.773Z" transform="translate(-297.226 -624.019)" fill="#12263f"/>
        <path id="Trazado_617501" data-name="Trazado 617501" d="M312.245,648.287c.57,0,.828.175.816.55s-.257.519-.815.52c-.589,0-.83-.155-.831-.536S311.65,648.286,312.245,648.287Z" transform="translate(-297.231 -639.417)" fill="#12263f"/>
        <path id="Trazado_617502" data-name="Trazado 617502" d="M349.9,878.389a1.416,1.416,0,0,1-1.418-1.426,1.422,1.422,0,0,1,2.843.007A1.416,1.416,0,0,1,349.9,878.389Zm.4-1.355,0-.15c-.142-.086-.291-.248-.424-.235s-.218.215-.326.334c.125.111.24.292.379.312C350.037,877.311,350.175,877.129,350.3,877.034Z" transform="translate(-331.646 -850.445)" fill="#12263f"/>
        <path id="Trazado_617503" data-name="Trazado 617503" d="M460.419,756.7a3.425,3.425,0,0,1-.251-.29.491.491,0,0,1,.035-.653.464.464,0,0,1,.669-.094,5.13,5.13,0,0,1,.753.749.475.475,0,0,1-.054.651c-.174.193-.36.378-.55.556a.53.53,0,0,1-.79.05.539.539,0,0,1,.023-.79C460.3,756.821,460.349,756.771,460.419,756.7Z" transform="translate(-435.257 -739.021)" fill="#12263f"/>
        <path id="Trazado_617504" data-name="Trazado 617504" d="M254.686,544.885c.19,0,.38-.009.569,0a.518.518,0,0,1,.524.517.507.507,0,0,1-.5.541c-.414.018-.831.019-1.245,0a.5.5,0,0,1-.488-.548.5.5,0,0,1,.5-.505c.212-.02.427,0,.64,0Z" transform="translate(-243.498 -543.398)" fill="#12263f"/>
        <path id="Trazado_617505" data-name="Trazado 617505" d="M163.724,636.807c-.19,0-.38.009-.569,0a.515.515,0,0,1-.526-.512.507.507,0,0,1,.493-.544c.414-.02.831-.02,1.245,0a.509.509,0,0,1,.491.546.516.516,0,0,1-.529.51C164.128,636.816,163.926,636.807,163.724,636.807Z" transform="translate(-159.074 -627.76)" fill="#12263f"/>
      </g>
    </g>
    <g id="Grupo_897366" data-name="Grupo 897366" transform="translate(526.271 8808.996)">
      <path id="Trazado_617515" data-name="Trazado 617515" d="M279.185,1327.505a1.962,1.962,0,0,1-.68,3.1.517.517,0,0,0-.213.306,4.586,4.586,0,0,1-9.035.012.522.522,0,0,0-.2-.313,1.971,1.971,0,0,1-.7-3.12,2,2,0,0,1-.455-1.629,1.836,1.836,0,0,1,.961-1.355.388.388,0,0,0,.221-.522,4.317,4.317,0,0,0-1.172-2.075c-.877-.88-1.791-1.73-2.6-2.668a11.3,11.3,0,0,1,5.663-18.259,11.286,11.286,0,0,1,10.5,19.095q-.96.953-1.912,1.913a4.142,4.142,0,0,0-1.086,1.94.44.44,0,0,0,.231.591,1.911,1.911,0,0,1,.644,2.734C279.3,1327.336,279.247,1327.413,279.185,1327.505Zm-8.741-3.307H277.1a5.81,5.81,0,0,1,2-3.62c.51-.474.987-.983,1.48-1.474a9.984,9.984,0,0,0-8.244-17.066,9.982,9.982,0,0,0-6.947,15.13,17.251,17.251,0,0,0,2.965,3.321A6.108,6.108,0,0,1,270.444,1324.2Zm.145,6.583a3.241,3.241,0,0,0,6.358.024.993.993,0,0,0-.152-.023Zm3.159-3.935q1.885,0,3.77,0c.542,0,.853-.252.842-.671s-.309-.639-.833-.639q-3.749,0-7.5,0c-.543,0-.853.251-.842.671s.309.638.832.639Q271.884,1326.849,273.749,1326.847Zm0,2.623q1.885,0,3.77,0c.543,0,.853-.251.843-.671s-.309-.639-.832-.639q-3.749,0-7.5,0c-.543,0-.853.25-.843.67s.309.639.832.64Q271.884,1329.472,273.748,1329.469Z" transform="translate(-261.568 -1300.601)" fill="#12263f"/>
      <path id="Trazado_617516" data-name="Trazado 617516" d="M550.972,1594.278c0,1.567,0,3.1-.01,4.624a.443.443,0,0,1-.229.3,5.035,5.035,0,0,1-.728.268c-.313.1-.412.287-.261.589.006.012.011.025.016.038.419.925.419.925-.295,1.639-.821.821-1.647,1.636-2.457,2.467a.4.4,0,0,1-.562.1c-.211-.124-.44-.218-.662-.322a.355.355,0,0,0-.546.228c-.123.331-.239.664-.36,1h-4.861c-.118-.325-.237-.643-.346-.964s-.3-.39-.6-.249-.652.425-.921.367c-.3-.063-.529-.438-.78-.687-.785-.779-1.553-1.576-2.354-2.338a.511.511,0,0,1-.115-.763,4.573,4.573,0,0,0,.251-.514.366.366,0,0,0-.226-.578c-.328-.125-.8-.167-.944-.405-.169-.286-.059-.74-.06-1.122,0-1.215,0-2.429,0-3.678.318-.117.63-.24.949-.346s.428-.3.275-.62c-.144-.305-.413-.646-.362-.922s.423-.506.662-.747c.818-.823,1.646-1.637,2.457-2.467a.372.372,0,0,1,.529-.093c.223.13.465.228.7.338a.346.346,0,0,0,.519-.216c.016-.037.025-.078.039-.116.34-.916.341-.916,1.3-.916,1.188,0,2.376.008,3.564-.006a.368.368,0,0,1,.431.308,6.281,6.281,0,0,0,.255.733.35.35,0,0,0,.521.215l.075-.034c.931-.423.932-.424,1.64.284.812.811,1.616,1.628,2.438,2.429a.45.45,0,0,1,.12.627c-.56,1.087-.571,1.012.563,1.407C550.719,1594.178,550.832,1594.224,550.972,1594.278Zm-12.538-3.768c-.617.618-1.177,1.216-1.78,1.768-.3.275-.4.513-.144.852a.631.631,0,0,1,.016.787,1.162,1.162,0,0,0-.162.374.981.981,0,0,1-.839.817.469.469,0,0,0-.278.346c-.024.832-.021,1.666,0,2.5a.4.4,0,0,0,.213.309c.545.112.766.467.97.959a1.228,1.228,0,0,1-.02,1.283.433.433,0,0,0,.064.4c.574.6,1.164,1.191,1.765,1.768a.4.4,0,0,0,.366.08,1.256,1.256,0,0,1,1.358-.021c.451.2.8.392.905.916a.431.431,0,0,0,.325.251c.832.022,1.666.019,2.5,0,.112,0,.3-.116.318-.2.1-.577.5-.781.99-.991a1.157,1.157,0,0,1,1.244.026.4.4,0,0,0,.378-.024c.67-.641,1.321-1.3,2.008-1.986a1.341,1.341,0,0,1-.139-1.573c.221-.425.4-.763.9-.867a.434.434,0,0,0,.259-.321c.022-.846.018-1.693,0-2.539,0-.1-.112-.273-.193-.287-.6-.1-.806-.512-1.016-1.019a1.067,1.067,0,0,1,.028-1.165c.146-.2.1-.35-.078-.522-.476-.449-.931-.922-1.395-1.385-.5-.5-.509-.518-1.135-.207-.428.212-.673-.18-1.016-.239a.875.875,0,0,1-.783-.8c-.04-.268-.205-.328-.464-.322-.764.018-1.529.021-2.293,0-.285-.009-.441.075-.485.352-.067.421-.338.6-.716.777A1.355,1.355,0,0,1,538.433,1590.51Z" transform="translate(-510.57 -1564.552)" fill="#12263f"/>
      <path id="Trazado_617517" data-name="Trazado 617517" d="M593.241,1389.288h3.008c.007-.153.019-.285.019-.416q0-3.276,0-6.552c0-.695-.206-.9-.9-.9l-1.6-.006a.432.432,0,0,1-.1-.032v-1.321a19.306,19.306,0,0,1,2.607.194,1.806,1.806,0,0,1,1.3,1.874c.005,2.225,0,4.45,0,6.675v.481h3.029l-3.684,7.369Zm3.685,4.435,1.542-3.089H595.38Z" transform="translate(-565.047 -1373.535)" fill="#12263f"/>
      <path id="Trazado_617518" data-name="Trazado 617518" d="M252.962,1633.676h-3.026l3.682-7.364,3.676,7.35h-3.02v2.237c0,.314,0,.628,0,.942.009.53.246.764.786.769.6,0,1.195,0,1.814,0v1.349a20.59,20.59,0,0,1-2.538-.154,1.825,1.825,0,0,1-1.37-1.826c-.012-.955,0-1.911,0-2.866Zm.655-4.431-1.546,3.1h3.1Z" transform="translate(-249.936 -1599.563)" fill="#12263f"/>
      <path id="Trazado_617519" data-name="Trazado 617519" d="M566.653,1380.756H567.9v1.275h-1.246Z" transform="translate(-540.643 -1374.173)" fill="#12263f"/>
      <path id="Trazado_617520" data-name="Trazado 617520" d="M350.965,1763.991h1.254v1.275h-1.254Z" transform="translate(-342.668 -1725.935)" fill="#12263f"/>
      <path id="Trazado_617521" data-name="Trazado 617521" d="M384.109,1764.272v1.258h-1.275v-1.258Z" transform="translate(-371.92 -1726.193)" fill="#12263f"/>
      <path id="Trazado_617522" data-name="Trazado 617522" d="M416.085,1765.429H414.83v-1.275h1.255Z" transform="translate(-401.288 -1726.085)" fill="#12263f"/>
      <path id="Trazado_617523" data-name="Trazado 617523" d="M300.61,1332.888h4.855c.117.322.237.638.346.958a.379.379,0,0,0,.594.262c.319-.144.676-.419.96-.362s.521.448.772.7c.8.8,1.6,1.609,2.41,2.4a.4.4,0,0,1,.094.563c-.123.211-.215.441-.321.662a.35.35,0,0,0,.229.543c.331.122.663.238,1,.358v4.862c-.326.118-.643.24-.965.348s-.39.3-.248.6.425.651.368.921c-.063.3-.437.529-.686.78-.8.8-1.608,1.6-2.4,2.41-.192.2-.348.264-.594.111a6.732,6.732,0,0,0-.624-.305.368.368,0,0,0-.578.228c-.125.328-.167.8-.406.944-.286.169-.74.058-1.122.059-1.215,0-2.43,0-3.678,0-.117-.318-.243-.63-.346-.949s-.3-.427-.619-.274c-.3.144-.646.412-.922.361s-.506-.423-.747-.663c-.823-.818-1.637-1.646-2.467-2.457a.371.371,0,0,1-.091-.529c.124-.211.215-.441.322-.661a.361.361,0,0,0-.241-.57l-.077-.028c-.294-.109-.719-.137-.848-.347-.155-.251-.066-.658-.067-1,0-1.175.006-2.349-.008-3.523a.367.367,0,0,1,.309-.431,6.338,6.338,0,0,0,.733-.255.344.344,0,0,0,.212-.521c-.012-.025-.021-.05-.031-.076-.131-.31-.4-.649-.352-.923s.427-.5.667-.745c.8-.8,1.608-1.6,2.4-2.409a.45.45,0,0,1,.627-.122c1.1.57,1.011.555,1.408-.563C300.52,1333.129,300.564,1333.015,300.61,1332.888Zm8.618,12.525a1.345,1.345,0,0,1-.119-1.628c.188-.4.374-.7.83-.768.239-.036.322-.176.316-.429-.018-.778-.022-1.556,0-2.334.009-.288-.083-.438-.356-.483-.421-.069-.593-.344-.774-.718a1.368,1.368,0,0,1,.1-1.673c-.657-.655-1.285-1.262-1.887-1.893-.2-.205-.356-.257-.587-.092a.856.856,0,0,1-1.084.01.5.5,0,0,0-.187-.081.952.952,0,0,1-.839-.856c-.036-.23-.174-.292-.4-.288-.751.015-1.5.024-2.252,0-.34-.012-.537.074-.6.425a.873.873,0,0,1-.611.671c-.614.274-1.18.482-1.754-.072-.693.7-1.351,1.35-1.993,2.018a.361.361,0,0,0-.047.34,1.252,1.252,0,0,1,.018,1.357c-.2.458-.4.8-.918.9a.432.432,0,0,0-.246.327c-.021.832-.019,1.665,0,2.5a.4.4,0,0,0,.209.313,1.307,1.307,0,0,1,.973.956A1.222,1.222,0,0,1,297,1345.2a.4.4,0,0,0,.03.376c.641.669,1.3,1.32,2,2.021a1.307,1.307,0,0,1,1.632-.123,1.166,1.166,0,0,1,.775.835.474.474,0,0,0,.339.291c.846.025,1.693.02,2.539,0a.365.365,0,0,0,.283-.2c.1-.577.491-.788.986-.994a1.167,1.167,0,0,1,1.245.02.429.429,0,0,0,.407-.046C307.9,1346.756,308.536,1346.1,309.229,1345.413Z" transform="translate(-290.831 -1330.236)" fill="#12263f"/>
      <path id="Trazado_617524" data-name="Trazado 617524" d="M584.716,1633.4a5.245,5.245,0,1,1-5.25-5.23A5.26,5.26,0,0,1,584.716,1633.4Zm-5.267,3.948a3.933,3.933,0,1,0-3.912-3.955A3.945,3.945,0,0,0,579.449,1637.349Z" transform="translate(-547.593 -1601.269)" fill="#12263f"/>
      <path id="Trazado_617525" data-name="Trazado 617525" d="M345.184,1377.905a5.245,5.245,0,1,1-5.244-5.236A5.26,5.26,0,0,1,345.184,1377.905Zm-5.261-3.924a3.933,3.933,0,1,0,3.948,3.917A3.944,3.944,0,0,0,339.923,1373.981Z" transform="translate(-327.732 -1366.75)" fill="#12263f"/>
      <path id="Trazado_617526" data-name="Trazado 617526" d="M608.78,1660.115a2.622,2.622,0,1,1-2.607,2.646A2.627,2.627,0,0,1,608.78,1660.115Zm.013,3.932a1.31,1.31,0,1,0-1.308-1.3A1.322,1.322,0,0,0,608.793,1664.047Z" transform="translate(-576.918 -1630.59)" fill="#12263f"/>
      <path id="Trazado_617527" data-name="Trazado 617527" d="M371.883,1407.252a2.622,2.622,0,1,1-2.615-2.638A2.63,2.63,0,0,1,371.883,1407.252Zm-2.637-1.327a1.31,1.31,0,1,0,1.325,1.285A1.317,1.317,0,0,0,369.247,1405.925Z" transform="translate(-357.056 -1396.072)" fill="#12263f"/>
    </g>
    <g id="Grupo_897368" data-name="Grupo 897368" transform="translate(453.015 8866.664)">
      <g id="Grupo_897358" data-name="Grupo 897358" transform="translate(0 174.341)">
        <text id="REQUERIMIENTOS_DETALLADOS" data-name="REQUERIMIENTOS
DETALLADOS" transform="translate(0 8)" fill="#12263f" font-size="15" font-family="Montserrat-Bold, Montserrat" font-weight="700"><tspan x="0" y="0">REQUERIMIENTOS</tspan><tspan x="0" y="17">DETALLADOS</tspan></text>
      </g>
    </g>
    <g id="Grupo_897369" data-name="Grupo 897369" transform="translate(575.673 8837.654)">
      <text id="DISEÑO_Y_ANÁLISIS" data-name="DISEÑO Y
ANÁLISIS" transform="translate(-6 -10)" fill="#12263f" font-size="15" font-family="Montserrat-Bold, Montserrat" font-weight="700"><tspan x="0" y="0">DISEÑO Y</tspan><tspan x="0" y="17">ANÁLISIS</tspan></text>
    </g>
    <g id="Grupo_897370" data-name="Grupo 897370" transform="translate(999.128 8803.654)">
      <text id="CODIFICACIÓN_Y_PRUEBAS_DEL_DESARROLLADOR" data-name="CODIFICACIÓN Y
PRUEBAS DEL
DESARROLLADOR" transform="translate(20 8)" fill="#12263f" font-size="15" font-family="Montserrat-Bold, Montserrat" font-weight="700"><tspan x="0" y="0">CODIFICACIÓN Y</tspan><tspan x="0" y="17">PRUEBAS DEL</tspan><tspan x="0" y="34">DESARROLLADOR</tspan></text>
    </g>
    <g id="Grupo_897371" data-name="Grupo 897371" transform="translate(1024.673 9037.004)">
      <text id="QA_PRUEBAS_DE_ACEPTACIÓN" data-name="QA / PRUEBAS
DE ACEPTACIÓN" transform="translate(45 2)" fill="#12263f" font-size="15" font-family="Montserrat-Bold, Montserrat" font-weight="700"><tspan x="0" y="0">QA / PRUEBAS</tspan><tspan x="0" y="17">DE ACEPTACIÓN</tspan></text>
    </g>
    <g id="Grupo_897372" data-name="Grupo 897372" transform="translate(779.673 9218.17)">
      <text id="EVALUACIÓN_Y_PRIORIZACIÓN" data-name="EVALUACIÓN Y
PRIORIZACIÓN" transform="translate(0 8)" fill="#12263f" font-size="15" font-family="Montserrat-Bold, Montserrat" font-weight="700"><tspan x="0" y="0">EVALUACIÓN Y</tspan><tspan x="0" y="17">PRIORIZACIÓN</tspan></text>
    </g>
    <g id="Art0uJ" transform="translate(400.327 9027.693)">
      <g id="Grupo_897365" data-name="Grupo 897365" transform="translate(0 0)">
        <path id="Trazado_617506" data-name="Trazado 617506" d="M103.885,958.01h-.517q-4.749,0-9.5,0a2.161,2.161,0,1,1,.006-4.32c1.4,0,2.791.005,4.186,0a.723.723,0,0,0,.8-.727c-.006-.423-.32-.7-.817-.71-.12,0-.24,0-.36,0-2.22,0-4.441.013-6.661-.007a4.477,4.477,0,0,1-4.127-2.827,4.289,4.289,0,0,1,2.273-5.421.514.514,0,0,0,.362-.476,4.692,4.692,0,0,1,5.75-4.117.8.8,0,0,0,.576-.185,5.756,5.756,0,0,1,9.347,3.126,8.635,8.635,0,0,0,1.383,2.2,4.309,4.309,0,0,1,1.431,4.691,4.438,4.438,0,0,1-4,3c-.733.03-1.469,0-2.239,0V950.8c.675,0,1.359.012,2.043,0a3.053,3.053,0,0,0,2.836-2.058,2.872,2.872,0,0,0-2.046-3.6c-.274-.068-.553-.116-.778-.162a13.625,13.625,0,0,0-.017-2.085,4.048,4.048,0,0,0-2.958-3.405,4.126,4.126,0,0,0-4.374,1.129.536.536,0,0,0-.092.1c-.258.442-.56.439-1.03.252a3.226,3.226,0,0,0-4.4,3.438c.02.176.044.352.068.551l-.6.135a2.891,2.891,0,0,0-2.364,3.135,2.974,2.974,0,0,0,2.952,2.573c2.355.02,4.711,0,7.067.01a2.158,2.158,0,1,1,.044,4.316c-1.38.014-2.761,0-4.141,0-.563,0-.895.277-.89.727s.335.707.9.713h10.024a6.512,6.512,0,0,1,12.686-.016h1.6a17.083,17.083,0,0,1,1.324-2.422,6.455,6.455,0,1,1,8.888,9.151,1.816,1.816,0,0,0-.864,1.7,6.587,6.587,0,0,1-.016,1.259,2.734,2.734,0,0,1-1.75,2.321.544.544,0,0,0-.4.627c.024.81.013,1.62.006,2.431a2.158,2.158,0,0,1-2.245,2.237c-1.4.007-2.791,0-4.186,0h-.426l1.644,1.578-1.045.995-3.28-3.289,3.313-3.305.892,1-1.6,1.541c.246.019.357.035.468.035q2.071,0,4.141,0c.619,0,.877-.258.881-.874.005-.825-.006-1.651.006-2.476a.4.4,0,0,0-.3-.459,2.85,2.85,0,0,1-1.866-2.756c-.023-1.495.23-1.83-1.33-2.966a5.837,5.837,0,0,1-2.257-4.484c-.008-.1-.014-.209-.023-.314,0-.012-.017-.022-.043-.055h-1.339c-.067.448-.111.906-.206,1.353a6.2,6.2,0,0,1-2.634,3.937,1.7,1.7,0,0,0-.816,1.588,7.319,7.319,0,0,1-.064,1.568,2.848,2.848,0,0,1-3.068,2.326,2.892,2.892,0,0,1-2.619-2.837c-.009-.435,0-.871-.005-1.306a1.453,1.453,0,0,0-.608-1.195A6.5,6.5,0,0,1,103.885,958.01Zm7.92,6.471a3.03,3.03,0,0,1,1.574-2.418,5.037,5.037,0,0,0-4.059-8.976,5.033,5.033,0,0,0-1.852,9.014,3.27,3.27,0,0,1,1.366,1.772c.053.2.085.4.127.607Zm14.425-.005a3.26,3.26,0,0,1,1.569-2.444,4.732,4.732,0,0,0,2.017-3.656,5.04,5.04,0,0,0-9.525-2.641,4.952,4.952,0,0,0,1.4,6.219,3.417,3.417,0,0,1,1.656,2.523Zm-17.26,1.479a1.426,1.426,0,0,0,1.582,1.412,1.31,1.31,0,0,0,1.2-1.412Zm14.4-.005a1.425,1.425,0,0,0,1.5,1.422,1.385,1.385,0,0,0,1.318-1.422Z" transform="translate(-86.586 -937.845)" fill="#12263f"/>
        <path id="Trazado_617507" data-name="Trazado 617507" d="M105.02,1231.99c0,1.724,0,3.4-.011,5.083a.49.49,0,0,1-.249.337,6.362,6.362,0,0,1-.757.282c-.424.155-.493.308-.316.7.461,1.019.461,1.019-.321,1.8-.9.9-1.809,1.8-2.7,2.71a.433.433,0,0,1-.617.107c-.231-.137-.483-.238-.727-.354a.39.39,0,0,0-.6.248c-.135.363-.262.729-.4,1.1H92.988c-.132-.37-.258-.736-.394-1.1-.108-.289-.3-.4-.6-.249-.013.007-.028.01-.042.016-.341.149-.716.465-1.012.4-.324-.068-.582-.48-.857-.753-.884-.877-1.753-1.769-2.648-2.633a.471.471,0,0,1-.106-.692c.127-.2.207-.432.315-.646a.4.4,0,0,0-.245-.636c-.014-.005-.029-.008-.043-.013-.346-.135-.837-.177-1-.43-.179-.28-.062-.753-.063-1.142,0-1.365,0-2.729,0-4.134.346-.127.689-.264,1.039-.378s.472-.319.308-.679-.443-.736-.386-1.055.477-.546.742-.811c.88-.881,1.769-1.753,2.637-2.645.212-.218.383-.285.653-.12a7.7,7.7,0,0,0,.727.352.38.38,0,0,0,.572-.233c.018-.041.027-.086.043-.128.375-1.009.375-1.009,1.476-1.009,1.29,0,2.58.008,3.869-.006.268,0,.407.074.476.336s.174.51.264.764a.4.4,0,0,0,.628.266c.351-.159.747-.475,1.053-.406.338.077.6.507.886.791.851.846,1.685,1.71,2.554,2.537a.538.538,0,0,1,.12.8,3.728,3.728,0,0,0-.235.484c-.218.462-.164.6.3.769ZM88.9,1230.206a1.784,1.784,0,0,0,.135.308,1.234,1.234,0,0,1,.038,1.322c-.235.56-.474,1-1.122,1.114-.086.015-.2.208-.2.319q-.024,1.395,0,2.79c0,.108.128.3.216.308.666.1.876.576,1.111,1.124a1.161,1.161,0,0,1-.031,1.28c-.162.22-.109.385.089.572.512.484,1,.991,1.5,1.49.57.571.574.582,1.319.238.43-.2.684.2,1.034.261a1,1,0,0,1,.9.9c.04.3.229.357.511.351.839-.019,1.68-.024,2.519,0,.315.01.482-.089.531-.389.075-.463.375-.651.789-.849a1.5,1.5,0,0,1,1.842.1c.759-.761,1.482-1.48,2.19-2.212a.359.359,0,0,0,.057-.335,1.462,1.462,0,0,1,0-1.616c.2-.441.389-.783.9-.856.283-.04.371-.212.362-.5-.022-.794-.032-1.591,0-2.385.018-.408-.076-.652-.507-.72-.372-.058-.536-.3-.695-.653-.305-.671-.54-1.3.072-1.925-.762-.761-1.478-1.485-2.21-2.192a.394.394,0,0,0-.373-.052,1.406,1.406,0,0,1-1.532,0,1.332,1.332,0,0,1-.952-.99.477.477,0,0,0-.359-.272c-.914-.023-1.829-.021-2.744,0-.122,0-.33.13-.347.226-.112.633-.554.853-1.089,1.087a1.281,1.281,0,0,1-1.367-.034.433.433,0,0,0-.413.031C90.338,1228.756,89.623,1229.482,88.9,1230.206Z" transform="translate(-86.261 -1199.363)" fill="#12263f"/>
        <path id="Trazado_617508" data-name="Trazado 617508" d="M310.479,1322.945v-1.385h1.393v1.385Z" transform="translate(-290.259 -1286.957)" fill="#12263f"/>
        <path id="Trazado_617509" data-name="Trazado 617509" d="M343.953,1322.922h-1.382v-1.39h1.382Z" transform="translate(-319.457 -1286.931)" fill="#12263f"/>
        <path id="Trazado_617510" data-name="Trazado 617510" d="M375.9,1322.946h-1.369v-1.4H375.9Z" transform="translate(-348.532 -1286.944)" fill="#12263f"/>
        <path id="Trazado_617511" data-name="Trazado 617511" d="M323.123,1121.508v7.176h-1.43v-4.992l-.086-.04-.77,1.131-1.189-.8c.535-.8,1.052-1.584,1.581-2.358a.366.366,0,0,1,.264-.115C322.017,1121.5,322.54,1121.508,323.123,1121.508Z" transform="translate(-298.602 -1104.944)" fill="#12263f"/>
        <path id="Trazado_617512" data-name="Trazado 617512" d="M487.677,1127.285h2.52v1.441h-4.285c0-.555-.017-1.076.012-1.594a.744.744,0,0,1,.245-.4c.757-.769,1.53-1.522,2.279-2.3a1.255,1.255,0,0,0,.329-.609.716.716,0,0,0-.649-.859.726.726,0,0,0-.773.749c-.01.208,0,.417,0,.656h-1.388a2.244,2.244,0,0,1,1.968-2.846,2.168,2.168,0,0,1,2.083,1.221,2.267,2.267,0,0,1-.358,2.516c-.519.561-1.075,1.087-1.613,1.63C487.943,1127,487.846,1127.1,487.677,1127.285Z" transform="translate(-449.867 -1104.959)" fill="#12263f"/>
        <path id="Trazado_617513" data-name="Trazado 617513" d="M132.367,1276.825a5.762,5.762,0,1,1,5.741-5.772A5.78,5.78,0,0,1,132.367,1276.825Zm-4.34-5.747a4.32,4.32,0,1,0,4.3-4.336A4.334,4.334,0,0,0,128.027,1271.078Z" transform="translate(-122.949 -1235.771)" fill="#12263f"/>
        <path id="Trazado_617514" data-name="Trazado 617514" d="M164.3,1300.159a2.879,2.879,0,1,1-2.869-2.9A2.889,2.889,0,0,1,164.3,1300.159Zm-4.318-.058a1.439,1.439,0,1,0,1.464-1.4A1.452,1.452,0,0,0,159.98,1300.1Z" transform="translate(-152.022 -1264.846)" fill="#12263f"/>
      </g>
    </g>
  </g>
</svg>
