<svg xmlns="http://www.w3.org/2000/svg" xmlns:xlink="http://www.w3.org/1999/xlink" width="695.241" height="182.537" viewBox="0 0 695.241 182.537">
  <defs>
    <filter id="Trazado_617528" x="49.083" y="29.367" width="625.33" height="123.802" filterUnits="userSpaceOnUse">
      <feOffset dy="3" input="SourceAlpha"/>
      <feGaussianBlur stdDeviation="3" result="blur"/>
      <feFlood flood-opacity="0.161"/>
      <feComposite operator="in" in2="blur"/>
      <feComposite in="SourceGraphic"/>
    </filter>
    <filter id="Trazado_617529" x="75.58" y="0" width="100.268" height="182.537" filterUnits="userSpaceOnUse">
      <feOffset dy="3" input="SourceAlpha"/>
      <feGaussianBlur stdDeviation="3" result="blur-2"/>
      <feFlood flood-opacity="0.161"/>
      <feComposite operator="in" in2="blur-2"/>
      <feComposite in="SourceGraphic"/>
    </filter>
    <filter id="Elipse_8201" x="0" y="6.688" width="169.159" height="169.159" filterUnits="userSpaceOnUse">
      <feOffset dy="3" input="SourceAlpha"/>
      <feGaussianBlur stdDeviation="3" result="blur-3"/>
      <feFlood flood-opacity="0.161"/>
      <feComposite operator="in" in2="blur-3"/>
      <feComposite in="SourceGraphic"/>
    </filter>
    <filter id="Elipse_8202" x="20.345" y="27.033" width="128.47" height="128.47" filterUnits="userSpaceOnUse">
      <feOffset dy="3" input="SourceAlpha"/>
      <feGaussianBlur stdDeviation="3" result="blur-4"/>
      <feFlood flood-opacity="0.161"/>
      <feComposite operator="in" in2="blur-4"/>
      <feComposite in="SourceGraphic"/>
    </filter>
    <filter id="Trazado_617530" x="543.906" y="44.443" width="151.335" height="93.649" filterUnits="userSpaceOnUse">
      <feOffset dy="3" input="SourceAlpha"/>
      <feGaussianBlur stdDeviation="3" result="blur-5"/>
      <feFlood flood-opacity="0.161"/>
      <feComposite operator="in" in2="blur-5"/>
      <feComposite in="SourceGraphic"/>
    </filter>
    <linearGradient id="linear-gradient" y1="0.5" x2="1" y2="0.5" gradientUnits="objectBoundingBox">
      <stop offset="0" stop-color="#821868"/>
      <stop offset="1" stop-color="#a077ec"/>
    </linearGradient>
    <filter id="Trazado_617469" x="175.586" y="48.194" width="57.011" height="50.018" filterUnits="userSpaceOnUse">
      <feOffset dy="13" input="SourceAlpha"/>
      <feGaussianBlur stdDeviation="4" result="blur-6"/>
      <feFlood flood-color="#9b9292" flood-opacity="0.588"/>
      <feComposite operator="in" in2="blur-6"/>
      <feComposite in="SourceGraphic"/>
    </filter>
    <filter id="Trazado_617470" x="184.417" y="89.033" width="58.25" height="41.504" filterUnits="userSpaceOnUse">
      <feOffset dy="13" input="SourceAlpha"/>
      <feGaussianBlur stdDeviation="4" result="blur-7"/>
      <feFlood flood-color="#9b9292" flood-opacity="0.588"/>
      <feComposite operator="in" in2="blur-7"/>
      <feComposite in="SourceGraphic"/>
    </filter>
    <filter id="Trazado_617471" x="208.694" y="68.345" width="45.363" height="57.289" filterUnits="userSpaceOnUse">
      <feOffset dy="13" input="SourceAlpha"/>
      <feGaussianBlur stdDeviation="4" result="blur-8"/>
      <feFlood flood-color="#9b9292" flood-opacity="0.588"/>
      <feComposite operator="in" in2="blur-8"/>
      <feComposite in="SourceGraphic"/>
    </filter>
    <filter id="Trazado_617472" x="200.907" y="49.978" width="52.603" height="53.098" filterUnits="userSpaceOnUse">
      <feOffset dy="13" input="SourceAlpha"/>
      <feGaussianBlur stdDeviation="4" result="blur-9"/>
      <feFlood flood-color="#9b9292" flood-opacity="0.588"/>
      <feComposite operator="in" in2="blur-9"/>
      <feComposite in="SourceGraphic"/>
    </filter>
    <filter id="Trazado_617473" x="175.586" y="48.194" width="57.011" height="50.018" filterUnits="userSpaceOnUse">
      <feOffset dy="13" input="SourceAlpha"/>
      <feGaussianBlur stdDeviation="4" result="blur-10"/>
      <feFlood flood-color="#9b9292" flood-opacity="0.588"/>
      <feComposite operator="in" in2="blur-10"/>
      <feComposite in="SourceGraphic"/>
    </filter>
    <filter id="Trazado_617474" x="172.576" y="65.414" width="44.862" height="59.873" filterUnits="userSpaceOnUse">
      <feOffset dy="13" input="SourceAlpha"/>
      <feGaussianBlur stdDeviation="4" result="blur-11"/>
      <feFlood flood-color="#9b9292" flood-opacity="0.588"/>
      <feComposite operator="in" in2="blur-11"/>
      <feComposite in="SourceGraphic"/>
    </filter>
    <filter id="Trazado_617469-2" x="283.769" y="48.194" width="57.011" height="50.018" filterUnits="userSpaceOnUse">
      <feOffset dy="13" input="SourceAlpha"/>
      <feGaussianBlur stdDeviation="4" result="blur-12"/>
      <feFlood flood-color="#9b9292" flood-opacity="0.588"/>
      <feComposite operator="in" in2="blur-12"/>
      <feComposite in="SourceGraphic"/>
    </filter>
    <filter id="Trazado_617470-2" x="292.601" y="89.033" width="58.25" height="41.504" filterUnits="userSpaceOnUse">
      <feOffset dy="13" input="SourceAlpha"/>
      <feGaussianBlur stdDeviation="4" result="blur-13"/>
      <feFlood flood-color="#9b9292" flood-opacity="0.588"/>
      <feComposite operator="in" in2="blur-13"/>
      <feComposite in="SourceGraphic"/>
    </filter>
    <filter id="Trazado_617471-2" x="316.878" y="68.345" width="45.363" height="57.289" filterUnits="userSpaceOnUse">
      <feOffset dy="13" input="SourceAlpha"/>
      <feGaussianBlur stdDeviation="4" result="blur-14"/>
      <feFlood flood-color="#9b9292" flood-opacity="0.588"/>
      <feComposite operator="in" in2="blur-14"/>
      <feComposite in="SourceGraphic"/>
    </filter>
    <filter id="Trazado_617472-2" x="309.091" y="49.978" width="52.603" height="53.098" filterUnits="userSpaceOnUse">
      <feOffset dy="13" input="SourceAlpha"/>
      <feGaussianBlur stdDeviation="4" result="blur-15"/>
      <feFlood flood-color="#9b9292" flood-opacity="0.588"/>
      <feComposite operator="in" in2="blur-15"/>
      <feComposite in="SourceGraphic"/>
    </filter>
    <filter id="Trazado_617473-2" x="283.769" y="48.194" width="57.011" height="50.018" filterUnits="userSpaceOnUse">
      <feOffset dy="13" input="SourceAlpha"/>
      <feGaussianBlur stdDeviation="4" result="blur-16"/>
      <feFlood flood-color="#9b9292" flood-opacity="0.588"/>
      <feComposite operator="in" in2="blur-16"/>
      <feComposite in="SourceGraphic"/>
    </filter>
    <filter id="Trazado_617474-2" x="280.759" y="65.414" width="44.862" height="59.873" filterUnits="userSpaceOnUse">
      <feOffset dy="13" input="SourceAlpha"/>
      <feGaussianBlur stdDeviation="4" result="blur-17"/>
      <feFlood flood-color="#9b9292" flood-opacity="0.588"/>
      <feComposite operator="in" in2="blur-17"/>
      <feComposite in="SourceGraphic"/>
    </filter>
    <filter id="Trazado_617469-3" x="378.131" y="48.194" width="57.011" height="50.018" filterUnits="userSpaceOnUse">
      <feOffset dy="13" input="SourceAlpha"/>
      <feGaussianBlur stdDeviation="4" result="blur-18"/>
      <feFlood flood-color="#9b9292" flood-opacity="0.588"/>
      <feComposite operator="in" in2="blur-18"/>
      <feComposite in="SourceGraphic"/>
    </filter>
    <filter id="Trazado_617470-3" x="386.962" y="89.033" width="58.25" height="41.504" filterUnits="userSpaceOnUse">
      <feOffset dy="13" input="SourceAlpha"/>
      <feGaussianBlur stdDeviation="4" result="blur-19"/>
      <feFlood flood-color="#9b9292" flood-opacity="0.588"/>
      <feComposite operator="in" in2="blur-19"/>
      <feComposite in="SourceGraphic"/>
    </filter>
    <filter id="Trazado_617471-3" x="411.24" y="68.345" width="45.363" height="57.289" filterUnits="userSpaceOnUse">
      <feOffset dy="13" input="SourceAlpha"/>
      <feGaussianBlur stdDeviation="4" result="blur-20"/>
      <feFlood flood-color="#9b9292" flood-opacity="0.588"/>
      <feComposite operator="in" in2="blur-20"/>
      <feComposite in="SourceGraphic"/>
    </filter>
    <filter id="Trazado_617472-3" x="403.452" y="49.978" width="52.603" height="53.098" filterUnits="userSpaceOnUse">
      <feOffset dy="13" input="SourceAlpha"/>
      <feGaussianBlur stdDeviation="4" result="blur-21"/>
      <feFlood flood-color="#9b9292" flood-opacity="0.588"/>
      <feComposite operator="in" in2="blur-21"/>
      <feComposite in="SourceGraphic"/>
    </filter>
    <filter id="Trazado_617473-3" x="378.131" y="48.194" width="57.011" height="50.018" filterUnits="userSpaceOnUse">
      <feOffset dy="13" input="SourceAlpha"/>
      <feGaussianBlur stdDeviation="4" result="blur-22"/>
      <feFlood flood-color="#9b9292" flood-opacity="0.588"/>
      <feComposite operator="in" in2="blur-22"/>
      <feComposite in="SourceGraphic"/>
    </filter>
    <filter id="Trazado_617474-3" x="375.121" y="65.414" width="44.862" height="59.873" filterUnits="userSpaceOnUse">
      <feOffset dy="13" input="SourceAlpha"/>
      <feGaussianBlur stdDeviation="4" result="blur-23"/>
      <feFlood flood-color="#9b9292" flood-opacity="0.588"/>
      <feComposite operator="in" in2="blur-23"/>
      <feComposite in="SourceGraphic"/>
    </filter>
    <filter id="Trazado_617469-4" x="473.131" y="48.194" width="57.011" height="50.018" filterUnits="userSpaceOnUse">
      <feOffset dy="13" input="SourceAlpha"/>
      <feGaussianBlur stdDeviation="4" result="blur-24"/>
      <feFlood flood-color="#9b9292" flood-opacity="0.588"/>
      <feComposite operator="in" in2="blur-24"/>
      <feComposite in="SourceGraphic"/>
    </filter>
    <filter id="Trazado_617470-4" x="481.962" y="89.033" width="58.25" height="41.504" filterUnits="userSpaceOnUse">
      <feOffset dy="13" input="SourceAlpha"/>
      <feGaussianBlur stdDeviation="4" result="blur-25"/>
      <feFlood flood-color="#9b9292" flood-opacity="0.588"/>
      <feComposite operator="in" in2="blur-25"/>
      <feComposite in="SourceGraphic"/>
    </filter>
    <filter id="Trazado_617471-4" x="506.24" y="68.345" width="45.363" height="57.289" filterUnits="userSpaceOnUse">
      <feOffset dy="13" input="SourceAlpha"/>
      <feGaussianBlur stdDeviation="4" result="blur-26"/>
      <feFlood flood-color="#9b9292" flood-opacity="0.588"/>
      <feComposite operator="in" in2="blur-26"/>
      <feComposite in="SourceGraphic"/>
    </filter>
    <filter id="Trazado_617472-4" x="498.452" y="49.978" width="52.603" height="53.098" filterUnits="userSpaceOnUse">
      <feOffset dy="13" input="SourceAlpha"/>
      <feGaussianBlur stdDeviation="4" result="blur-27"/>
      <feFlood flood-color="#9b9292" flood-opacity="0.588"/>
      <feComposite operator="in" in2="blur-27"/>
      <feComposite in="SourceGraphic"/>
    </filter>
    <filter id="Trazado_617473-4" x="473.131" y="48.194" width="57.011" height="50.018" filterUnits="userSpaceOnUse">
      <feOffset dy="13" input="SourceAlpha"/>
      <feGaussianBlur stdDeviation="4" result="blur-28"/>
      <feFlood flood-color="#9b9292" flood-opacity="0.588"/>
      <feComposite operator="in" in2="blur-28"/>
      <feComposite in="SourceGraphic"/>
    </filter>
    <filter id="Trazado_617474-4" x="470.121" y="65.414" width="44.862" height="59.873" filterUnits="userSpaceOnUse">
      <feOffset dy="13" input="SourceAlpha"/>
      <feGaussianBlur stdDeviation="4" result="blur-29"/>
      <feFlood flood-color="#9b9292" flood-opacity="0.588"/>
      <feComposite operator="in" in2="blur-29"/>
      <feComposite in="SourceGraphic"/>
    </filter>
  </defs>
  <g id="Grupo_897397" data-name="Grupo 897397" transform="translate(-452.38 -8575.036)">
    <g id="Grupo_897367" data-name="Grupo 897367" transform="translate(475.168 8887.801)">
      <g transform="matrix(1, 0, 0, 1, -22.79, -312.76)" filter="url(#Trazado_617528)">
        <path id="Trazado_617528-2" data-name="Trazado 617528" d="M601.4-171.6H35.294V-277.4H601.4l41.224,52.9Z" transform="translate(22.79 312.76)" fill="#e8e8e8"/>
      </g>
      <g transform="matrix(1, 0, 0, 1, -22.79, -312.76)" filter="url(#Trazado_617529)">
        <path id="Trazado_617529-2" data-name="Trazado 617529" d="M61.791-306.765A82.269,82.269,0,0,1,144.059-224.5a82.268,82.268,0,0,1-82.268,82.268Z" transform="translate(22.79 312.76)" fill="#26aab7"/>
      </g>
      <g transform="matrix(1, 0, 0, 1, -22.79, -312.76)" filter="url(#Elipse_8201)">
        <circle id="Elipse_8201-2" data-name="Elipse 8201" cx="65.815" cy="65.815" r="65.815" transform="translate(9 142.59) rotate(-80.71)" fill="#e8e8e8"/>
      </g>
      <g transform="matrix(1, 0, 0, 1, -22.79, -312.76)" filter="url(#Elipse_8202)">
        <circle id="Elipse_8202-2" data-name="Elipse 8202" cx="45.862" cy="45.862" r="45.862" transform="translate(29.34 122.26) rotate(-76.61)" fill="#fb8c00"/>
      </g>
      <g transform="matrix(1, 0, 0, 1, -22.79, -312.76)" filter="url(#Trazado_617530)">
        <path id="Trazado_617530-2" data-name="Trazado 617530" d="M462.712-262.321H387.941A37.825,37.825,0,0,0,350.117-224.5a37.825,37.825,0,0,0,37.824,37.824h74.771l20.74-37.824Z" transform="translate(202.79 312.76)" fill="#1565c0"/>
      </g>
    </g>
    <path id="Trazado_617534" data-name="Trazado 617534" d="M3.289,0h-2.2V-10.664h2.2ZM7.134-7.925l.066.916A2.767,2.767,0,0,1,9.478-8.071a2.3,2.3,0,0,1,1.875.74,3.451,3.451,0,0,1,.63,2.212V0H9.866V-5.068a1.373,1.373,0,0,0-.293-.978,1.312,1.312,0,0,0-.974-.3,1.456,1.456,0,0,0-1.34.762V0H5.142V-7.925ZM15.82,0H13.7V-7.925H15.82ZM13.572-9.976a1.042,1.042,0,0,1,.319-.784,1.2,1.2,0,0,1,.868-.308,1.2,1.2,0,0,1,.864.308,1.036,1.036,0,0,1,.322.784,1.039,1.039,0,0,1-.326.791,1.2,1.2,0,0,1-.861.308,1.2,1.2,0,0,1-.861-.308A1.039,1.039,0,0,1,13.572-9.976ZM20.859-1.56a1.388,1.388,0,0,0,.952-.322,1.129,1.129,0,0,0,.381-.857h1.985a2.715,2.715,0,0,1-.439,1.476,2.9,2.9,0,0,1-1.183,1.04A3.7,3.7,0,0,1,20.9.146a3.44,3.44,0,0,1-2.681-1.08,4.275,4.275,0,0,1-.981-2.985v-.139a4.226,4.226,0,0,1,.974-2.922,3.4,3.4,0,0,1,2.673-1.091,3.333,3.333,0,0,1,2.384.846,3,3,0,0,1,.912,2.252H22.192a1.455,1.455,0,0,0-.381-1.005,1.27,1.27,0,0,0-.967-.387,1.275,1.275,0,0,0-1.117.539,3.125,3.125,0,0,0-.377,1.749v.22A3.164,3.164,0,0,0,19.724-2.1,1.291,1.291,0,0,0,20.859-1.56ZM27.62,0H25.5V-7.925H27.62ZM25.371-9.976a1.042,1.042,0,0,1,.319-.784,1.2,1.2,0,0,1,.868-.308,1.2,1.2,0,0,1,.864.308,1.036,1.036,0,0,1,.322.784,1.039,1.039,0,0,1-.326.791,1.2,1.2,0,0,1-.861.308,1.2,1.2,0,0,1-.861-.308A1.039,1.039,0,0,1,25.371-9.976Zm3.662,5.94a4.7,4.7,0,0,1,.454-2.1,3.324,3.324,0,0,1,1.307-1.428,3.814,3.814,0,0,1,1.981-.505,3.609,3.609,0,0,1,2.618.981,3.939,3.939,0,0,1,1.132,2.666l.015.542A4.142,4.142,0,0,1,35.522-.956a3.539,3.539,0,0,1-2.732,1.1,3.556,3.556,0,0,1-2.736-1.1A4.215,4.215,0,0,1,29.033-3.94Zm2.117.15a2.962,2.962,0,0,0,.425,1.727,1.4,1.4,0,0,0,1.216.6,1.4,1.4,0,0,0,1.2-.591,3.241,3.241,0,0,0,.432-1.889,2.933,2.933,0,0,0-.432-1.716,1.4,1.4,0,0,0-1.216-.609,1.382,1.382,0,0,0-1.2.605A3.3,3.3,0,0,0,31.15-3.885Zm10.1-.136a4.776,4.776,0,0,1,.831-2.952,2.7,2.7,0,0,1,2.274-1.1,2.427,2.427,0,0,1,1.912.864V-11.25h2.124V0H46.479l-.1-.842a2.491,2.491,0,0,1-2.036.989A2.69,2.69,0,0,1,42.1-.956,4.93,4.93,0,0,1,41.25-4.021Zm2.117.158a3.128,3.128,0,0,0,.388,1.709,1.265,1.265,0,0,0,1.128.594,1.416,1.416,0,0,0,1.384-.829V-5.521A1.4,1.4,0,0,0,44.9-6.35Q43.367-6.35,43.367-3.863ZM53.679.146A3.89,3.89,0,0,1,50.841-.923a3.8,3.8,0,0,1-1.095-2.849v-.205a4.787,4.787,0,0,1,.461-2.135,3.386,3.386,0,0,1,1.307-1.45,3.669,3.669,0,0,1,1.93-.509A3.289,3.289,0,0,1,56-7.046a4.167,4.167,0,0,1,.934,2.908v.864H51.892a1.966,1.966,0,0,0,.619,1.245,1.871,1.871,0,0,0,1.307.469,2.285,2.285,0,0,0,1.912-.886l1.04,1.165A3.178,3.178,0,0,1,55.481-.231,4.229,4.229,0,0,1,53.679.146Zm-.242-6.511a1.323,1.323,0,0,0-1.022.427,2.209,2.209,0,0,0-.5,1.221h2.944v-.169a1.576,1.576,0,0,0-.381-1.092A1.365,1.365,0,0,0,53.438-6.365ZM60.374,0H58.25V-11.25h2.124ZM7.947,13.111a4.753,4.753,0,0,1-.831,2.933,2.665,2.665,0,0,1-2.245,1.1,2.469,2.469,0,0,1-1.941-.835v3.735H.813V9.075H2.776l.073.776a2.488,2.488,0,0,1,2.007-.923,2.683,2.683,0,0,1,2.278,1.084A4.882,4.882,0,0,1,7.947,13ZM5.83,12.957a3.119,3.119,0,0,0-.392-1.707,1.276,1.276,0,0,0-1.139-.6,1.386,1.386,0,0,0-1.37.762v3.245a1.41,1.41,0,0,0,1.384.784Q5.83,15.44,5.83,12.957Zm7.881-1.9A5.751,5.751,0,0,0,12.949,11a1.55,1.55,0,0,0-1.575.813V17H9.258V9.075h2l.059.945a1.961,1.961,0,0,1,1.765-1.091,2.218,2.218,0,0,1,.659.1Zm.425,1.9a4.7,4.7,0,0,1,.454-2.1A3.324,3.324,0,0,1,15.9,9.434a3.814,3.814,0,0,1,1.981-.505A3.609,3.609,0,0,1,20.5,9.91a3.939,3.939,0,0,1,1.132,2.666l.015.542a4.142,4.142,0,0,1-1.018,2.926,3.539,3.539,0,0,1-2.732,1.1,3.556,3.556,0,0,1-2.736-1.1,4.215,4.215,0,0,1-1.022-2.988Zm2.117.15a2.962,2.962,0,0,0,.425,1.727,1.526,1.526,0,0,0,2.417.007,3.241,3.241,0,0,0,.432-1.889,2.933,2.933,0,0,0-.432-1.716,1.4,1.4,0,0,0-1.216-.609,1.382,1.382,0,0,0-1.2.605A3.3,3.3,0,0,0,16.252,13.115Zm9.653.89,1.465-4.929h2.271L26.455,18.23l-.176.417A2.416,2.416,0,0,1,23.936,20.2,3.33,3.33,0,0,1,23,20.062v-1.6l.322.007a1.741,1.741,0,0,0,.9-.183,1.2,1.2,0,0,0,.465-.608l.249-.652L22.156,9.075h2.278Zm8.218,3.142a3.89,3.89,0,0,1-2.838-1.069,3.8,3.8,0,0,1-1.095-2.849v-.205a4.787,4.787,0,0,1,.461-2.135,3.386,3.386,0,0,1,1.307-1.45,3.669,3.669,0,0,1,1.93-.509,3.289,3.289,0,0,1,2.56,1.025,4.167,4.167,0,0,1,.934,2.908v.864H32.336a1.966,1.966,0,0,0,.619,1.245,1.871,1.871,0,0,0,1.307.469,2.285,2.285,0,0,0,1.912-.886l1.04,1.165a3.178,3.178,0,0,1-1.289,1.051A4.229,4.229,0,0,1,34.124,17.146Zm-.242-6.511a1.323,1.323,0,0,0-1.022.427,2.209,2.209,0,0,0-.5,1.221H35.3v-.169a1.576,1.576,0,0,0-.381-1.092A1.365,1.365,0,0,0,33.882,10.635Zm8,4.8a1.388,1.388,0,0,0,.952-.322,1.129,1.129,0,0,0,.381-.857H45.2a2.715,2.715,0,0,1-.439,1.476,2.9,2.9,0,0,1-1.183,1.04,3.7,3.7,0,0,1-1.659.37,3.44,3.44,0,0,1-2.681-1.08,4.275,4.275,0,0,1-.981-2.985v-.139a4.226,4.226,0,0,1,.974-2.922A3.4,3.4,0,0,1,41.9,8.929a3.333,3.333,0,0,1,2.384.846,3,3,0,0,1,.912,2.252H43.213a1.455,1.455,0,0,0-.381-1.005,1.416,1.416,0,0,0-2.084.153,3.125,3.125,0,0,0-.377,1.749v.22a3.164,3.164,0,0,0,.374,1.761A1.291,1.291,0,0,0,41.88,15.44ZM48.94,7.127V9.075H50.3v1.553H48.94v3.955a.944.944,0,0,0,.168.63.846.846,0,0,0,.645.19,3.376,3.376,0,0,0,.623-.051v1.6a4.358,4.358,0,0,1-1.282.19A2.021,2.021,0,0,1,46.824,14.9v-4.27H45.667V9.075h1.157V7.127Zm1.985,5.837a4.7,4.7,0,0,1,.454-2.1,3.324,3.324,0,0,1,1.307-1.428,3.814,3.814,0,0,1,1.981-.505,3.609,3.609,0,0,1,2.618.981,3.939,3.939,0,0,1,1.132,2.666l.015.542a4.142,4.142,0,0,1-1.018,2.926,3.946,3.946,0,0,1-5.468,0,4.215,4.215,0,0,1-1.022-2.988Zm2.117.15a2.962,2.962,0,0,0,.425,1.727,1.526,1.526,0,0,0,2.417.007,3.241,3.241,0,0,0,.432-1.889,2.933,2.933,0,0,0-.432-1.716,1.4,1.4,0,0,0-1.216-.609,1.382,1.382,0,0,0-1.2.605A3.3,3.3,0,0,0,53.042,13.115Z" transform="translate(505.62 8659.574)" fill="#12263f"/>
    <path id="Trazado_617539" data-name="Trazado 617539" d="M7.368-4.358H3.149V0H.952V-10.664H7.9v1.78H3.149V-6.13H7.368ZM11.265,0H9.141V-7.925h2.124ZM9.016-9.976a1.042,1.042,0,0,1,.319-.784,1.2,1.2,0,0,1,.868-.308,1.2,1.2,0,0,1,.864.308,1.036,1.036,0,0,1,.322.784,1.039,1.039,0,0,1-.326.791,1.2,1.2,0,0,1-.861.308,1.2,1.2,0,0,1-.861-.308A1.039,1.039,0,0,1,9.016-9.976Zm5.94,2.051.066.916A2.767,2.767,0,0,1,17.3-8.071a2.3,2.3,0,0,1,1.875.74A3.451,3.451,0,0,1,19.8-5.12V0H17.688V-5.068a1.373,1.373,0,0,0-.293-.978,1.312,1.312,0,0,0-.974-.3,1.456,1.456,0,0,0-1.34.762V0H12.964V-7.925Zm9.858,3.9a4.776,4.776,0,0,1,.831-2.952,2.7,2.7,0,0,1,2.274-1.1,2.427,2.427,0,0,1,1.912.864V-11.25h2.124V0H30.044l-.1-.842a2.491,2.491,0,0,1-2.036.989,2.69,2.69,0,0,1-2.245-1.1A4.93,4.93,0,0,1,24.814-4.021Zm2.117.158a3.128,3.128,0,0,0,.388,1.709,1.265,1.265,0,0,0,1.128.594,1.416,1.416,0,0,0,1.384-.829V-5.521a1.4,1.4,0,0,0-1.37-.829Q26.931-6.35,26.931-3.863ZM37.244.146A3.89,3.89,0,0,1,34.406-.923a3.8,3.8,0,0,1-1.095-2.849v-.205a4.787,4.787,0,0,1,.461-2.135,3.386,3.386,0,0,1,1.307-1.45,3.669,3.669,0,0,1,1.93-.509,3.289,3.289,0,0,1,2.56,1.025A4.167,4.167,0,0,1,40.5-4.138v.864H35.457a1.966,1.966,0,0,0,.619,1.245,1.871,1.871,0,0,0,1.307.469,2.285,2.285,0,0,0,1.912-.886l1.04,1.165A3.178,3.178,0,0,1,39.045-.231,4.229,4.229,0,0,1,37.244.146ZM37-6.365a1.323,1.323,0,0,0-1.022.427,2.209,2.209,0,0,0-.5,1.221h2.944v-.169a1.576,1.576,0,0,0-.381-1.092A1.365,1.365,0,0,0,37-6.365ZM43.938,0H41.814V-11.25h2.124ZM7.947,13.111a4.753,4.753,0,0,1-.831,2.933,2.665,2.665,0,0,1-2.245,1.1,2.469,2.469,0,0,1-1.941-.835v3.735H.813V9.075H2.776l.073.776a2.488,2.488,0,0,1,2.007-.923,2.683,2.683,0,0,1,2.278,1.084A4.882,4.882,0,0,1,7.947,13ZM5.83,12.957a3.119,3.119,0,0,0-.392-1.707,1.276,1.276,0,0,0-1.139-.6,1.386,1.386,0,0,0-1.37.762v3.245a1.41,1.41,0,0,0,1.384.784Q5.83,15.44,5.83,12.957Zm7.881-1.9A5.751,5.751,0,0,0,12.949,11a1.55,1.55,0,0,0-1.575.813V17H9.258V9.075h2l.059.945a1.961,1.961,0,0,1,1.765-1.091,2.218,2.218,0,0,1,.659.1Zm.425,1.9a4.7,4.7,0,0,1,.454-2.1A3.324,3.324,0,0,1,15.9,9.434a3.814,3.814,0,0,1,1.981-.505A3.609,3.609,0,0,1,20.5,9.91a3.939,3.939,0,0,1,1.132,2.666l.015.542a4.142,4.142,0,0,1-1.018,2.926,3.539,3.539,0,0,1-2.732,1.1,3.556,3.556,0,0,1-2.736-1.1,4.215,4.215,0,0,1-1.022-2.988Zm2.117.15a2.962,2.962,0,0,0,.425,1.727,1.526,1.526,0,0,0,2.417.007,3.241,3.241,0,0,0,.432-1.889,2.933,2.933,0,0,0-.432-1.716,1.4,1.4,0,0,0-1.216-.609,1.382,1.382,0,0,0-1.2.605A3.3,3.3,0,0,0,16.252,13.115Zm9.653.89,1.465-4.929h2.271L26.455,18.23l-.176.417A2.416,2.416,0,0,1,23.936,20.2,3.33,3.33,0,0,1,23,20.062v-1.6l.322.007a1.741,1.741,0,0,0,.9-.183,1.2,1.2,0,0,0,.465-.608l.249-.652L22.156,9.075h2.278Zm8.218,3.142a3.89,3.89,0,0,1-2.838-1.069,3.8,3.8,0,0,1-1.095-2.849v-.205a4.787,4.787,0,0,1,.461-2.135,3.386,3.386,0,0,1,1.307-1.45,3.669,3.669,0,0,1,1.93-.509,3.289,3.289,0,0,1,2.56,1.025,4.167,4.167,0,0,1,.934,2.908v.864H32.336a1.966,1.966,0,0,0,.619,1.245,1.871,1.871,0,0,0,1.307.469,2.285,2.285,0,0,0,1.912-.886l1.04,1.165a3.178,3.178,0,0,1-1.289,1.051A4.229,4.229,0,0,1,34.124,17.146Zm-.242-6.511a1.323,1.323,0,0,0-1.022.427,2.209,2.209,0,0,0-.5,1.221H35.3v-.169a1.576,1.576,0,0,0-.381-1.092A1.365,1.365,0,0,0,33.882,10.635Zm8,4.8a1.388,1.388,0,0,0,.952-.322,1.129,1.129,0,0,0,.381-.857H45.2a2.715,2.715,0,0,1-.439,1.476,2.9,2.9,0,0,1-1.183,1.04,3.7,3.7,0,0,1-1.659.37,3.44,3.44,0,0,1-2.681-1.08,4.275,4.275,0,0,1-.981-2.985v-.139a4.226,4.226,0,0,1,.974-2.922A3.4,3.4,0,0,1,41.9,8.929a3.333,3.333,0,0,1,2.384.846,3,3,0,0,1,.912,2.252H43.213a1.455,1.455,0,0,0-.381-1.005,1.416,1.416,0,0,0-2.084.153,3.125,3.125,0,0,0-.377,1.749v.22a3.164,3.164,0,0,0,.374,1.761A1.291,1.291,0,0,0,41.88,15.44ZM48.94,7.127V9.075H50.3v1.553H48.94v3.955a.944.944,0,0,0,.168.63.846.846,0,0,0,.645.19,3.376,3.376,0,0,0,.623-.051v1.6a4.358,4.358,0,0,1-1.282.19A2.021,2.021,0,0,1,46.824,14.9v-4.27H45.667V9.075h1.157V7.127Zm1.985,5.837a4.7,4.7,0,0,1,.454-2.1,3.324,3.324,0,0,1,1.307-1.428,3.814,3.814,0,0,1,1.981-.505,3.609,3.609,0,0,1,2.618.981,3.939,3.939,0,0,1,1.132,2.666l.015.542a4.142,4.142,0,0,1-1.018,2.926,3.946,3.946,0,0,1-5.468,0,4.215,4.215,0,0,1-1.022-2.988Zm2.117.15a2.962,2.962,0,0,0,.425,1.727,1.526,1.526,0,0,0,2.417.007,3.241,3.241,0,0,0,.432-1.889,2.933,2.933,0,0,0-.432-1.716,1.4,1.4,0,0,0-1.216-.609,1.382,1.382,0,0,0-1.2.605A3.3,3.3,0,0,0,53.042,13.115Z" transform="translate(1035.62 8659.574)" fill="#fff"/>
    <path id="Trazado_617535" data-name="Trazado 617535" d="M3.289,0h-2.2V-10.664h2.2ZM7.72-9.873v1.948H9.075v1.553H7.72v3.955a.944.944,0,0,0,.168.63.846.846,0,0,0,.645.19,3.376,3.376,0,0,0,.623-.051v1.6a4.358,4.358,0,0,1-1.282.19A2.021,2.021,0,0,1,5.6-2.1v-4.27H4.446V-7.925H5.6V-9.873ZM13.9.146A3.89,3.89,0,0,1,11.063-.923,3.8,3.8,0,0,1,9.968-3.772v-.205a4.787,4.787,0,0,1,.461-2.135,3.386,3.386,0,0,1,1.307-1.45,3.669,3.669,0,0,1,1.93-.509,3.289,3.289,0,0,1,2.56,1.025,4.167,4.167,0,0,1,.934,2.908v.864H12.114a1.966,1.966,0,0,0,.619,1.245,1.871,1.871,0,0,0,1.307.469,2.285,2.285,0,0,0,1.912-.886l1.04,1.165A3.178,3.178,0,0,1,15.7-.231,4.229,4.229,0,0,1,13.9.146ZM13.66-6.365a1.323,1.323,0,0,0-1.022.427,2.209,2.209,0,0,0-.5,1.221h2.944v-.169A1.576,1.576,0,0,0,14.7-5.979,1.365,1.365,0,0,0,13.66-6.365Zm9.155.425A5.751,5.751,0,0,0,22.053-6a1.55,1.55,0,0,0-1.575.813V0H18.362V-7.925h2l.059.945a1.961,1.961,0,0,1,1.765-1.091,2.218,2.218,0,0,1,.659.1ZM28.206,0a2.351,2.351,0,0,1-.212-.71,2.561,2.561,0,0,1-2,.857,2.814,2.814,0,0,1-1.93-.674,2.167,2.167,0,0,1-.765-1.7,2.24,2.24,0,0,1,.934-1.934,4.608,4.608,0,0,1,2.7-.681h.974V-5.3a1.306,1.306,0,0,0-.282-.879,1.109,1.109,0,0,0-.89-.33,1.261,1.261,0,0,0-.839.256.871.871,0,0,0-.3.7H23.474A2.126,2.126,0,0,1,23.9-6.819a2.808,2.808,0,0,1,1.2-.919,4.378,4.378,0,0,1,1.743-.333,3.459,3.459,0,0,1,2.325.736,2.575,2.575,0,0,1,.861,2.069v3.435a3.789,3.789,0,0,0,.315,1.707V0Zm-1.75-1.472a1.823,1.823,0,0,0,.864-.209,1.371,1.371,0,0,0,.586-.56V-3.6h-.791q-1.589,0-1.692,1.1l-.007.125a.847.847,0,0,0,.278.652A1.081,1.081,0,0,0,26.455-1.472Zm8.5-.088a1.388,1.388,0,0,0,.952-.322,1.129,1.129,0,0,0,.381-.857h1.985a2.715,2.715,0,0,1-.439,1.476,2.9,2.9,0,0,1-1.183,1.04,3.7,3.7,0,0,1-1.659.37,3.44,3.44,0,0,1-2.681-1.08,4.275,4.275,0,0,1-.981-2.985v-.139A4.226,4.226,0,0,1,32.3-6.98a3.4,3.4,0,0,1,2.673-1.091,3.333,3.333,0,0,1,2.384.846,3,3,0,0,1,.912,2.252H36.284A1.455,1.455,0,0,0,35.9-5.978a1.27,1.27,0,0,0-.967-.387,1.275,1.275,0,0,0-1.117.539,3.125,3.125,0,0,0-.377,1.749v.22A3.164,3.164,0,0,0,33.816-2.1,1.291,1.291,0,0,0,34.951-1.56ZM41.711,0H39.587V-7.925h2.124ZM39.463-9.976a1.042,1.042,0,0,1,.319-.784,1.2,1.2,0,0,1,.868-.308,1.2,1.2,0,0,1,.864.308,1.036,1.036,0,0,1,.322.784,1.039,1.039,0,0,1-.326.791,1.2,1.2,0,0,1-.861.308,1.2,1.2,0,0,1-.861-.308A1.039,1.039,0,0,1,39.463-9.976Zm3.662,5.94a4.7,4.7,0,0,1,.454-2.1,3.324,3.324,0,0,1,1.307-1.428,3.814,3.814,0,0,1,1.981-.505,3.609,3.609,0,0,1,2.618.981,3.939,3.939,0,0,1,1.132,2.666l.015.542A4.142,4.142,0,0,1,49.614-.956a3.539,3.539,0,0,1-2.732,1.1,3.556,3.556,0,0,1-2.736-1.1A4.215,4.215,0,0,1,43.125-3.94Zm2.117.15a2.962,2.962,0,0,0,.425,1.727,1.4,1.4,0,0,0,1.216.6,1.4,1.4,0,0,0,1.2-.591,3.241,3.241,0,0,0,.432-1.889,2.933,2.933,0,0,0-.432-1.716,1.4,1.4,0,0,0-1.216-.609,1.382,1.382,0,0,0-1.2.605A3.3,3.3,0,0,0,45.242-3.885Zm2.043-7.365h2.307L47.563-8.979H45.842Zm6.6,3.325.066.916a2.767,2.767,0,0,1,2.278-1.062,2.3,2.3,0,0,1,1.875.74,3.451,3.451,0,0,1,.63,2.212V0H56.616V-5.068a1.373,1.373,0,0,0-.293-.978,1.312,1.312,0,0,0-.974-.3,1.456,1.456,0,0,0-1.34.762V0H51.892V-7.925ZM69.126,0H67.009V-8.159l-2.527.784V-9.1L68.9-10.679h.227Z" transform="translate(633.62 8704.574)" fill="#12263f"/>
    <path id="Trazado_617536" data-name="Trazado 617536" d="M3.289,0h-2.2V-10.664h2.2ZM7.72-9.873v1.948H9.075v1.553H7.72v3.955a.944.944,0,0,0,.168.63.846.846,0,0,0,.645.19,3.376,3.376,0,0,0,.623-.051v1.6a4.358,4.358,0,0,1-1.282.19A2.021,2.021,0,0,1,5.6-2.1v-4.27H4.446V-7.925H5.6V-9.873ZM13.9.146A3.89,3.89,0,0,1,11.063-.923,3.8,3.8,0,0,1,9.968-3.772v-.205a4.787,4.787,0,0,1,.461-2.135,3.386,3.386,0,0,1,1.307-1.45,3.669,3.669,0,0,1,1.93-.509,3.289,3.289,0,0,1,2.56,1.025,4.167,4.167,0,0,1,.934,2.908v.864H12.114a1.966,1.966,0,0,0,.619,1.245,1.871,1.871,0,0,0,1.307.469,2.285,2.285,0,0,0,1.912-.886l1.04,1.165A3.178,3.178,0,0,1,15.7-.231,4.229,4.229,0,0,1,13.9.146ZM13.66-6.365a1.323,1.323,0,0,0-1.022.427,2.209,2.209,0,0,0-.5,1.221h2.944v-.169A1.576,1.576,0,0,0,14.7-5.979,1.365,1.365,0,0,0,13.66-6.365Zm9.155.425A5.751,5.751,0,0,0,22.053-6a1.55,1.55,0,0,0-1.575.813V0H18.362V-7.925h2l.059.945a1.961,1.961,0,0,1,1.765-1.091,2.218,2.218,0,0,1,.659.1ZM28.206,0a2.351,2.351,0,0,1-.212-.71,2.561,2.561,0,0,1-2,.857,2.814,2.814,0,0,1-1.93-.674,2.167,2.167,0,0,1-.765-1.7,2.24,2.24,0,0,1,.934-1.934,4.608,4.608,0,0,1,2.7-.681h.974V-5.3a1.306,1.306,0,0,0-.282-.879,1.109,1.109,0,0,0-.89-.33,1.261,1.261,0,0,0-.839.256.871.871,0,0,0-.3.7H23.474A2.126,2.126,0,0,1,23.9-6.819a2.808,2.808,0,0,1,1.2-.919,4.378,4.378,0,0,1,1.743-.333,3.459,3.459,0,0,1,2.325.736,2.575,2.575,0,0,1,.861,2.069v3.435a3.789,3.789,0,0,0,.315,1.707V0Zm-1.75-1.472a1.823,1.823,0,0,0,.864-.209,1.371,1.371,0,0,0,.586-.56V-3.6h-.791q-1.589,0-1.692,1.1l-.007.125a.847.847,0,0,0,.278.652A1.081,1.081,0,0,0,26.455-1.472Zm8.5-.088a1.388,1.388,0,0,0,.952-.322,1.129,1.129,0,0,0,.381-.857h1.985a2.715,2.715,0,0,1-.439,1.476,2.9,2.9,0,0,1-1.183,1.04,3.7,3.7,0,0,1-1.659.37,3.44,3.44,0,0,1-2.681-1.08,4.275,4.275,0,0,1-.981-2.985v-.139A4.226,4.226,0,0,1,32.3-6.98a3.4,3.4,0,0,1,2.673-1.091,3.333,3.333,0,0,1,2.384.846,3,3,0,0,1,.912,2.252H36.284A1.455,1.455,0,0,0,35.9-5.978a1.27,1.27,0,0,0-.967-.387,1.275,1.275,0,0,0-1.117.539,3.125,3.125,0,0,0-.377,1.749v.22A3.164,3.164,0,0,0,33.816-2.1,1.291,1.291,0,0,0,34.951-1.56ZM41.711,0H39.587V-7.925h2.124ZM39.463-9.976a1.042,1.042,0,0,1,.319-.784,1.2,1.2,0,0,1,.868-.308,1.2,1.2,0,0,1,.864.308,1.036,1.036,0,0,1,.322.784,1.039,1.039,0,0,1-.326.791,1.2,1.2,0,0,1-.861.308,1.2,1.2,0,0,1-.861-.308A1.039,1.039,0,0,1,39.463-9.976Zm3.662,5.94a4.7,4.7,0,0,1,.454-2.1,3.324,3.324,0,0,1,1.307-1.428,3.814,3.814,0,0,1,1.981-.505,3.609,3.609,0,0,1,2.618.981,3.939,3.939,0,0,1,1.132,2.666l.015.542A4.142,4.142,0,0,1,49.614-.956a3.539,3.539,0,0,1-2.732,1.1,3.556,3.556,0,0,1-2.736-1.1A4.215,4.215,0,0,1,43.125-3.94Zm2.117.15a2.962,2.962,0,0,0,.425,1.727,1.4,1.4,0,0,0,1.216.6,1.4,1.4,0,0,0,1.2-.591,3.241,3.241,0,0,0,.432-1.889,2.933,2.933,0,0,0-.432-1.716,1.4,1.4,0,0,0-1.216-.609,1.382,1.382,0,0,0-1.2.605A3.3,3.3,0,0,0,45.242-3.885Zm2.043-7.365h2.307L47.563-8.979H45.842Zm6.6,3.325.066.916a2.767,2.767,0,0,1,2.278-1.062,2.3,2.3,0,0,1,1.875.74,3.451,3.451,0,0,1,.63,2.212V0H56.616V-5.068a1.373,1.373,0,0,0-.293-.978,1.312,1.312,0,0,0-.974-.3,1.456,1.456,0,0,0-1.34.762V0H51.892V-7.925ZM71.294,0h-7.31V-1.45l3.45-3.677a8.51,8.51,0,0,0,1.051-1.355,2.177,2.177,0,0,0,.341-1.1A1.629,1.629,0,0,0,68.467-8.7,1.3,1.3,0,0,0,67.441-9.1a1.4,1.4,0,0,0-1.132.494,1.958,1.958,0,0,0-.414,1.3H63.772a3.5,3.5,0,0,1,.465-1.78,3.278,3.278,0,0,1,1.315-1.263,4,4,0,0,1,1.926-.458,3.784,3.784,0,0,1,2.56.791,2.8,2.8,0,0,1,.912,2.234,3.586,3.586,0,0,1-.41,1.611,8.954,8.954,0,0,1-1.406,1.912L66.709-1.707h4.585Z" transform="translate(738.62 8704.574)" fill="#12263f"/>
    <path id="Trazado_617537" data-name="Trazado 617537" d="M3.289,0h-2.2V-10.664h2.2ZM7.72-9.873v1.948H9.075v1.553H7.72v3.955a.944.944,0,0,0,.168.63.846.846,0,0,0,.645.19,3.376,3.376,0,0,0,.623-.051v1.6a4.358,4.358,0,0,1-1.282.19A2.021,2.021,0,0,1,5.6-2.1v-4.27H4.446V-7.925H5.6V-9.873ZM13.9.146A3.89,3.89,0,0,1,11.063-.923,3.8,3.8,0,0,1,9.968-3.772v-.205a4.787,4.787,0,0,1,.461-2.135,3.386,3.386,0,0,1,1.307-1.45,3.669,3.669,0,0,1,1.93-.509,3.289,3.289,0,0,1,2.56,1.025,4.167,4.167,0,0,1,.934,2.908v.864H12.114a1.966,1.966,0,0,0,.619,1.245,1.871,1.871,0,0,0,1.307.469,2.285,2.285,0,0,0,1.912-.886l1.04,1.165A3.178,3.178,0,0,1,15.7-.231,4.229,4.229,0,0,1,13.9.146ZM13.66-6.365a1.323,1.323,0,0,0-1.022.427,2.209,2.209,0,0,0-.5,1.221h2.944v-.169A1.576,1.576,0,0,0,14.7-5.979,1.365,1.365,0,0,0,13.66-6.365Zm9.155.425A5.751,5.751,0,0,0,22.053-6a1.55,1.55,0,0,0-1.575.813V0H18.362V-7.925h2l.059.945a1.961,1.961,0,0,1,1.765-1.091,2.218,2.218,0,0,1,.659.1ZM28.206,0a2.351,2.351,0,0,1-.212-.71,2.561,2.561,0,0,1-2,.857,2.814,2.814,0,0,1-1.93-.674,2.167,2.167,0,0,1-.765-1.7,2.24,2.24,0,0,1,.934-1.934,4.608,4.608,0,0,1,2.7-.681h.974V-5.3a1.306,1.306,0,0,0-.282-.879,1.109,1.109,0,0,0-.89-.33,1.261,1.261,0,0,0-.839.256.871.871,0,0,0-.3.7H23.474A2.126,2.126,0,0,1,23.9-6.819a2.808,2.808,0,0,1,1.2-.919,4.378,4.378,0,0,1,1.743-.333,3.459,3.459,0,0,1,2.325.736,2.575,2.575,0,0,1,.861,2.069v3.435a3.789,3.789,0,0,0,.315,1.707V0Zm-1.75-1.472a1.823,1.823,0,0,0,.864-.209,1.371,1.371,0,0,0,.586-.56V-3.6h-.791q-1.589,0-1.692,1.1l-.007.125a.847.847,0,0,0,.278.652A1.081,1.081,0,0,0,26.455-1.472Zm8.5-.088a1.388,1.388,0,0,0,.952-.322,1.129,1.129,0,0,0,.381-.857h1.985a2.715,2.715,0,0,1-.439,1.476,2.9,2.9,0,0,1-1.183,1.04,3.7,3.7,0,0,1-1.659.37,3.44,3.44,0,0,1-2.681-1.08,4.275,4.275,0,0,1-.981-2.985v-.139A4.226,4.226,0,0,1,32.3-6.98a3.4,3.4,0,0,1,2.673-1.091,3.333,3.333,0,0,1,2.384.846,3,3,0,0,1,.912,2.252H36.284A1.455,1.455,0,0,0,35.9-5.978a1.27,1.27,0,0,0-.967-.387,1.275,1.275,0,0,0-1.117.539,3.125,3.125,0,0,0-.377,1.749v.22A3.164,3.164,0,0,0,33.816-2.1,1.291,1.291,0,0,0,34.951-1.56ZM41.711,0H39.587V-7.925h2.124ZM39.463-9.976a1.042,1.042,0,0,1,.319-.784,1.2,1.2,0,0,1,.868-.308,1.2,1.2,0,0,1,.864.308,1.036,1.036,0,0,1,.322.784,1.039,1.039,0,0,1-.326.791,1.2,1.2,0,0,1-.861.308,1.2,1.2,0,0,1-.861-.308A1.039,1.039,0,0,1,39.463-9.976Zm3.662,5.94a4.7,4.7,0,0,1,.454-2.1,3.324,3.324,0,0,1,1.307-1.428,3.814,3.814,0,0,1,1.981-.505,3.609,3.609,0,0,1,2.618.981,3.939,3.939,0,0,1,1.132,2.666l.015.542A4.142,4.142,0,0,1,49.614-.956a3.539,3.539,0,0,1-2.732,1.1,3.556,3.556,0,0,1-2.736-1.1A4.215,4.215,0,0,1,43.125-3.94Zm2.117.15a2.962,2.962,0,0,0,.425,1.727,1.4,1.4,0,0,0,1.216.6,1.4,1.4,0,0,0,1.2-.591,3.241,3.241,0,0,0,.432-1.889,2.933,2.933,0,0,0-.432-1.716,1.4,1.4,0,0,0-1.216-.609,1.382,1.382,0,0,0-1.2.605A3.3,3.3,0,0,0,45.242-3.885Zm2.043-7.365h2.307L47.563-8.979H45.842Zm6.6,3.325.066.916a2.767,2.767,0,0,1,2.278-1.062,2.3,2.3,0,0,1,1.875.74,3.451,3.451,0,0,1,.63,2.212V0H56.616V-5.068a1.373,1.373,0,0,0-.293-.978,1.312,1.312,0,0,0-.974-.3,1.456,1.456,0,0,0-1.34.762V0H51.892V-7.925ZM66.138-6.27h1.128a1.589,1.589,0,0,0,1.194-.4,1.476,1.476,0,0,0,.388-1.069,1.305,1.305,0,0,0-.385-1A1.49,1.49,0,0,0,67.4-9.1a1.562,1.562,0,0,0-1.018.333,1.066,1.066,0,0,0-.41.868H63.86a2.6,2.6,0,0,1,.45-1.5,3,3,0,0,1,1.26-1.036,4.2,4.2,0,0,1,1.783-.374A3.987,3.987,0,0,1,70-10a2.761,2.761,0,0,1,.959,2.23,2.244,2.244,0,0,1-.447,1.348,2.9,2.9,0,0,1-1.172.945,2.65,2.65,0,0,1,1.344.967,2.623,2.623,0,0,1,.443,1.523A2.807,2.807,0,0,1,70.1-.71a4.167,4.167,0,0,1-2.743.857A3.951,3.951,0,0,1,64.742-.7a2.751,2.751,0,0,1-1.014-2.227h2.117a1.226,1.226,0,0,0,.45.981,1.66,1.66,0,0,0,1.11.381,1.668,1.668,0,0,0,1.183-.4,1.378,1.378,0,0,0,.428-1.058q0-1.6-1.758-1.6H66.138Z" transform="translate(836.62 8704.574)" fill="#12263f"/>
    <path id="Trazado_617538" data-name="Trazado 617538" d="M3.289,0h-2.2V-10.664h2.2ZM7.72-9.873v1.948H9.075v1.553H7.72v3.955a.944.944,0,0,0,.168.63.846.846,0,0,0,.645.19,3.376,3.376,0,0,0,.623-.051v1.6a4.358,4.358,0,0,1-1.282.19A2.021,2.021,0,0,1,5.6-2.1v-4.27H4.446V-7.925H5.6V-9.873ZM13.9.146A3.89,3.89,0,0,1,11.063-.923,3.8,3.8,0,0,1,9.968-3.772v-.205a4.787,4.787,0,0,1,.461-2.135,3.386,3.386,0,0,1,1.307-1.45,3.669,3.669,0,0,1,1.93-.509,3.289,3.289,0,0,1,2.56,1.025,4.167,4.167,0,0,1,.934,2.908v.864H12.114a1.966,1.966,0,0,0,.619,1.245,1.871,1.871,0,0,0,1.307.469,2.285,2.285,0,0,0,1.912-.886l1.04,1.165A3.178,3.178,0,0,1,15.7-.231,4.229,4.229,0,0,1,13.9.146ZM13.66-6.365a1.323,1.323,0,0,0-1.022.427,2.209,2.209,0,0,0-.5,1.221h2.944v-.169A1.576,1.576,0,0,0,14.7-5.979,1.365,1.365,0,0,0,13.66-6.365Zm9.155.425A5.751,5.751,0,0,0,22.053-6a1.55,1.55,0,0,0-1.575.813V0H18.362V-7.925h2l.059.945a1.961,1.961,0,0,1,1.765-1.091,2.218,2.218,0,0,1,.659.1ZM28.206,0a2.351,2.351,0,0,1-.212-.71,2.561,2.561,0,0,1-2,.857,2.814,2.814,0,0,1-1.93-.674,2.167,2.167,0,0,1-.765-1.7,2.24,2.24,0,0,1,.934-1.934,4.608,4.608,0,0,1,2.7-.681h.974V-5.3a1.306,1.306,0,0,0-.282-.879,1.109,1.109,0,0,0-.89-.33,1.261,1.261,0,0,0-.839.256.871.871,0,0,0-.3.7H23.474A2.126,2.126,0,0,1,23.9-6.819a2.808,2.808,0,0,1,1.2-.919,4.378,4.378,0,0,1,1.743-.333,3.459,3.459,0,0,1,2.325.736,2.575,2.575,0,0,1,.861,2.069v3.435a3.789,3.789,0,0,0,.315,1.707V0Zm-1.75-1.472a1.823,1.823,0,0,0,.864-.209,1.371,1.371,0,0,0,.586-.56V-3.6h-.791q-1.589,0-1.692,1.1l-.007.125a.847.847,0,0,0,.278.652A1.081,1.081,0,0,0,26.455-1.472Zm8.5-.088a1.388,1.388,0,0,0,.952-.322,1.129,1.129,0,0,0,.381-.857h1.985a2.715,2.715,0,0,1-.439,1.476,2.9,2.9,0,0,1-1.183,1.04,3.7,3.7,0,0,1-1.659.37,3.44,3.44,0,0,1-2.681-1.08,4.275,4.275,0,0,1-.981-2.985v-.139A4.226,4.226,0,0,1,32.3-6.98a3.4,3.4,0,0,1,2.673-1.091,3.333,3.333,0,0,1,2.384.846,3,3,0,0,1,.912,2.252H36.284A1.455,1.455,0,0,0,35.9-5.978a1.27,1.27,0,0,0-.967-.387,1.275,1.275,0,0,0-1.117.539,3.125,3.125,0,0,0-.377,1.749v.22A3.164,3.164,0,0,0,33.816-2.1,1.291,1.291,0,0,0,34.951-1.56ZM41.711,0H39.587V-7.925h2.124ZM39.463-9.976a1.042,1.042,0,0,1,.319-.784,1.2,1.2,0,0,1,.868-.308,1.2,1.2,0,0,1,.864.308,1.036,1.036,0,0,1,.322.784,1.039,1.039,0,0,1-.326.791,1.2,1.2,0,0,1-.861.308,1.2,1.2,0,0,1-.861-.308A1.039,1.039,0,0,1,39.463-9.976Zm3.662,5.94a4.7,4.7,0,0,1,.454-2.1,3.324,3.324,0,0,1,1.307-1.428,3.814,3.814,0,0,1,1.981-.505,3.609,3.609,0,0,1,2.618.981,3.939,3.939,0,0,1,1.132,2.666l.015.542A4.142,4.142,0,0,1,49.614-.956a3.539,3.539,0,0,1-2.732,1.1,3.556,3.556,0,0,1-2.736-1.1A4.215,4.215,0,0,1,43.125-3.94Zm2.117.15a2.962,2.962,0,0,0,.425,1.727,1.4,1.4,0,0,0,1.216.6,1.4,1.4,0,0,0,1.2-.591,3.241,3.241,0,0,0,.432-1.889,2.933,2.933,0,0,0-.432-1.716,1.4,1.4,0,0,0-1.216-.609,1.382,1.382,0,0,0-1.2.605A3.3,3.3,0,0,0,45.242-3.885Zm2.043-7.365h2.307L47.563-8.979H45.842Zm6.6,3.325.066.916a2.767,2.767,0,0,1,2.278-1.062,2.3,2.3,0,0,1,1.875.74,3.451,3.451,0,0,1,.63,2.212V0H56.616V-5.068a1.373,1.373,0,0,0-.293-.978,1.312,1.312,0,0,0-.974-.3,1.456,1.456,0,0,0-1.34.762V0H51.892V-7.925ZM70.247-4.014h1.208v1.707H70.247V0H68.13V-2.307H63.757l-.1-1.333,4.446-7.024h2.139Zm-4.475,0H68.13V-7.778l-.139.242Z" transform="translate(928.62 8704.574)" fill="#12263f"/>
    <path id="Trazado_617531" data-name="Trazado 617531" d="M-159-3114.969v106.023" transform="translate(877.62 11725.574)" fill="none" stroke="#12263f" stroke-width="1"/>
    <path id="Trazado_617532" data-name="Trazado 617532" d="M-159-3114.969v106.023" transform="translate(982.62 11725.574)" fill="none" stroke="#12263f" stroke-width="1"/>
    <path id="Trazado_617533" data-name="Trazado 617533" d="M-159-3114.969v106.023" transform="translate(1080.62 11725.574)" fill="none" stroke="#12263f" stroke-width="1"/>
    <g id="Grupo_897374" data-name="Grupo 897374" transform="translate(636.955 8623.23)">
      <g id="Grupo_897360" data-name="Grupo 897360" transform="translate(0 0)">
        <g id="Grupo_897348" data-name="Grupo 897348">
          <g transform="matrix(1, 0, 0, 1, -184.58, -48.19)" filter="url(#Trazado_617469)">
            <path id="Trazado_617469-5" data-name="Trazado 617469" d="M360.245-196.649l-9.561-9.28v1.973a27.853,27.853,0,0,0-23.449,19.882L336-188.709l3.828,7.8a14.862,14.862,0,0,1,10.851-9.9v3.446Z" transform="translate(-139.65 254.12)" fill="url(#linear-gradient)"/>
          </g>
          <g transform="matrix(1, 0, 0, 1, -184.58, -48.19)" filter="url(#Trazado_617470)">
            <path id="Trazado_617470-5" data-name="Trazado 617470" d="M418.738,69.975l-9.972-1.427,1.47-8.462a14.781,14.781,0,0,1-14.122.9l1.564-2.153-13.19,1.888,2.281,13.128,1.646-2.266a27.724,27.724,0,0,0,30.323-1.61Z" transform="translate(-188.07 30.2)" fill="#12263f"/>
          </g>
          <g transform="matrix(1, 0, 0, 1, -184.58, -48.19)" filter="url(#Trazado_617471)">
            <path id="Trazado_617471-5" data-name="Trazado 617471" d="M563.243-65.88a27.65,27.65,0,0,0-1.643-9.413l-4.776,9.73-6.936-3.665a14.8,14.8,0,0,1,.382,3.348A14.758,14.758,0,0,1,546-55.488l-1.839-2.532L541.88-44.892,555.07-43l-1.393-1.918A27.725,27.725,0,0,0,563.243-65.88Z" transform="translate(-321.19 143.64)" fill="#fb8c00"/>
          </g>
          <g transform="matrix(1, 0, 0, 1, -184.58, -48.19)" filter="url(#Trazado_617472)">
            <path id="Trazado_617472-5" data-name="Trazado 617472" d="M518.239-177.663a27.82,27.82,0,0,0-25.475-16.707q-.689,0-1.37.034l2.032,12.954a14.825,14.825,0,0,1,12.368,7.762l-3.449,1.121,11.781,6.226L520-178.234Z" transform="translate(-278.49 244.35)" fill="#1565c0"/>
          </g>
          <g transform="matrix(1, 0, 0, 1, -184.58, -48.19)" filter="url(#Trazado_617473)">
            <path id="Trazado_617473-5" data-name="Trazado 617473" d="M360.245-196.649l-9.561-9.28v1.973a27.853,27.853,0,0,0-23.449,19.882L336-188.709l3.828,7.8a14.862,14.862,0,0,1,10.851-9.9v3.446Z" transform="translate(-139.65 254.12)" fill="#26aab7"/>
          </g>
          <g transform="matrix(1, 0, 0, 1, -184.58, -48.19)" filter="url(#Trazado_617474)">
            <path id="Trazado_617474-5" data-name="Trazado 617474" d="M328.582-70.074a14.8,14.8,0,0,1-5.968-11.873c0-.425.019-.845.054-1.261l2.7.879L319.5-94.29,307.72-88.064l2.435.791a27.8,27.8,0,0,0-.514,5.326,27.762,27.762,0,0,0,11.547,22.53l-1.627-9.366Z" transform="translate(-123.14 159.7)" fill="#727997"/>
          </g>
          <path id="Trazado_617475" data-name="Trazado 617475" d="M400.834,67.794c.1-1.823.41-3.643.428-5.469a14.7,14.7,0,0,1-5.148-1.337l1.564-2.153-13.19,1.888,2.281,13.128,1.646-2.266a27.609,27.609,0,0,0,13.933,3.755l.161,0A12.559,12.559,0,0,1,400.834,67.794Z" transform="translate(-372.647 -17.996)" fill="#12263f"/>
        </g>
      </g>
    </g>
    <g id="Grupo_897375" data-name="Grupo 897375" transform="translate(745.139 8623.23)">
      <g id="Grupo_897360-2" data-name="Grupo 897360" transform="translate(0 0)">
        <g id="Grupo_897348-2" data-name="Grupo 897348">
          <g transform="matrix(1, 0, 0, 1, -292.76, -48.19)" filter="url(#Trazado_617469-2)">
            <path id="Trazado_617469-6" data-name="Trazado 617469" d="M360.245-196.649l-9.561-9.28v1.973a27.853,27.853,0,0,0-23.449,19.882L336-188.709l3.828,7.8a14.862,14.862,0,0,1,10.851-9.9v3.446Z" transform="translate(-31.46 254.12)" fill="url(#linear-gradient)"/>
          </g>
          <g transform="matrix(1, 0, 0, 1, -292.76, -48.19)" filter="url(#Trazado_617470-2)">
            <path id="Trazado_617470-6" data-name="Trazado 617470" d="M418.738,69.975l-9.972-1.427,1.47-8.462a14.781,14.781,0,0,1-14.122.9l1.564-2.153-13.19,1.888,2.281,13.128,1.646-2.266a27.724,27.724,0,0,0,30.323-1.61Z" transform="translate(-79.89 30.2)" fill="#12263f"/>
          </g>
          <g transform="matrix(1, 0, 0, 1, -292.76, -48.19)" filter="url(#Trazado_617471-2)">
            <path id="Trazado_617471-6" data-name="Trazado 617471" d="M563.243-65.88a27.65,27.65,0,0,0-1.643-9.413l-4.776,9.73-6.936-3.665a14.8,14.8,0,0,1,.382,3.348A14.758,14.758,0,0,1,546-55.488l-1.839-2.532L541.88-44.892,555.07-43l-1.393-1.918A27.725,27.725,0,0,0,563.243-65.88Z" transform="translate(-213 143.64)" fill="#fb8c00"/>
          </g>
          <g transform="matrix(1, 0, 0, 1, -292.76, -48.19)" filter="url(#Trazado_617472-2)">
            <path id="Trazado_617472-6" data-name="Trazado 617472" d="M518.239-177.663a27.82,27.82,0,0,0-25.475-16.707q-.689,0-1.37.034l2.032,12.954a14.825,14.825,0,0,1,12.368,7.762l-3.449,1.121,11.781,6.226L520-178.234Z" transform="translate(-170.3 244.35)" fill="#1565c0"/>
          </g>
          <g transform="matrix(1, 0, 0, 1, -292.76, -48.19)" filter="url(#Trazado_617473-2)">
            <path id="Trazado_617473-6" data-name="Trazado 617473" d="M360.245-196.649l-9.561-9.28v1.973a27.853,27.853,0,0,0-23.449,19.882L336-188.709l3.828,7.8a14.862,14.862,0,0,1,10.851-9.9v3.446Z" transform="translate(-31.46 254.12)" fill="#26aab7"/>
          </g>
          <g transform="matrix(1, 0, 0, 1, -292.76, -48.19)" filter="url(#Trazado_617474-2)">
            <path id="Trazado_617474-6" data-name="Trazado 617474" d="M328.582-70.074a14.8,14.8,0,0,1-5.968-11.873c0-.425.019-.845.054-1.261l2.7.879L319.5-94.29,307.72-88.064l2.435.791a27.8,27.8,0,0,0-.514,5.326,27.762,27.762,0,0,0,11.547,22.53l-1.627-9.366Z" transform="translate(-14.96 159.7)" fill="#727997"/>
          </g>
          <path id="Trazado_617475-2" data-name="Trazado 617475" d="M400.834,67.794c.1-1.823.41-3.643.428-5.469a14.7,14.7,0,0,1-5.148-1.337l1.564-2.153-13.19,1.888,2.281,13.128,1.646-2.266a27.609,27.609,0,0,0,13.933,3.755l.161,0A12.559,12.559,0,0,1,400.834,67.794Z" transform="translate(-372.647 -17.996)" fill="#12263f"/>
        </g>
      </g>
    </g>
    <g id="Grupo_897376" data-name="Grupo 897376" transform="translate(839.501 8623.23)">
      <g id="Grupo_897360-3" data-name="Grupo 897360" transform="translate(0 0)">
        <g id="Grupo_897348-3" data-name="Grupo 897348">
          <g transform="matrix(1, 0, 0, 1, -387.12, -48.19)" filter="url(#Trazado_617469-3)">
            <path id="Trazado_617469-7" data-name="Trazado 617469" d="M360.245-196.649l-9.561-9.28v1.973a27.853,27.853,0,0,0-23.449,19.882L336-188.709l3.828,7.8a14.862,14.862,0,0,1,10.851-9.9v3.446Z" transform="translate(62.9 254.12)" fill="url(#linear-gradient)"/>
          </g>
          <g transform="matrix(1, 0, 0, 1, -387.12, -48.19)" filter="url(#Trazado_617470-3)">
            <path id="Trazado_617470-7" data-name="Trazado 617470" d="M418.738,69.975l-9.972-1.427,1.47-8.462a14.781,14.781,0,0,1-14.122.9l1.564-2.153-13.19,1.888,2.281,13.128,1.646-2.266a27.724,27.724,0,0,0,30.323-1.61Z" transform="translate(14.47 30.2)" fill="#12263f"/>
          </g>
          <g transform="matrix(1, 0, 0, 1, -387.12, -48.19)" filter="url(#Trazado_617471-3)">
            <path id="Trazado_617471-7" data-name="Trazado 617471" d="M563.243-65.88a27.65,27.65,0,0,0-1.643-9.413l-4.776,9.73-6.936-3.665a14.8,14.8,0,0,1,.382,3.348A14.758,14.758,0,0,1,546-55.488l-1.839-2.532L541.88-44.892,555.07-43l-1.393-1.918A27.725,27.725,0,0,0,563.243-65.88Z" transform="translate(-118.64 143.64)" fill="#fb8c00"/>
          </g>
          <g transform="matrix(1, 0, 0, 1, -387.12, -48.19)" filter="url(#Trazado_617472-3)">
            <path id="Trazado_617472-7" data-name="Trazado 617472" d="M518.239-177.663a27.82,27.82,0,0,0-25.475-16.707q-.689,0-1.37.034l2.032,12.954a14.825,14.825,0,0,1,12.368,7.762l-3.449,1.121,11.781,6.226L520-178.234Z" transform="translate(-75.94 244.35)" fill="#1565c0"/>
          </g>
          <g transform="matrix(1, 0, 0, 1, -387.12, -48.19)" filter="url(#Trazado_617473-3)">
            <path id="Trazado_617473-7" data-name="Trazado 617473" d="M360.245-196.649l-9.561-9.28v1.973a27.853,27.853,0,0,0-23.449,19.882L336-188.709l3.828,7.8a14.862,14.862,0,0,1,10.851-9.9v3.446Z" transform="translate(62.9 254.12)" fill="#26aab7"/>
          </g>
          <g transform="matrix(1, 0, 0, 1, -387.12, -48.19)" filter="url(#Trazado_617474-3)">
            <path id="Trazado_617474-7" data-name="Trazado 617474" d="M328.582-70.074a14.8,14.8,0,0,1-5.968-11.873c0-.425.019-.845.054-1.261l2.7.879L319.5-94.29,307.72-88.064l2.435.791a27.8,27.8,0,0,0-.514,5.326,27.762,27.762,0,0,0,11.547,22.53l-1.627-9.366Z" transform="translate(79.4 159.7)" fill="#727997"/>
          </g>
          <path id="Trazado_617475-3" data-name="Trazado 617475" d="M400.834,67.794c.1-1.823.41-3.643.428-5.469a14.7,14.7,0,0,1-5.148-1.337l1.564-2.153-13.19,1.888,2.281,13.128,1.646-2.266a27.609,27.609,0,0,0,13.933,3.755l.161,0A12.559,12.559,0,0,1,400.834,67.794Z" transform="translate(-372.647 -17.996)" fill="#12263f"/>
        </g>
      </g>
    </g>
    <g id="Grupo_897377" data-name="Grupo 897377" transform="translate(934.501 8623.23)">
      <g id="Grupo_897360-4" data-name="Grupo 897360" transform="translate(0 0)">
        <g id="Grupo_897348-4" data-name="Grupo 897348">
          <g transform="matrix(1, 0, 0, 1, -482.12, -48.19)" filter="url(#Trazado_617469-4)">
            <path id="Trazado_617469-8" data-name="Trazado 617469" d="M360.245-196.649l-9.561-9.28v1.973a27.853,27.853,0,0,0-23.449,19.882L336-188.709l3.828,7.8a14.862,14.862,0,0,1,10.851-9.9v3.446Z" transform="translate(157.9 254.12)" fill="url(#linear-gradient)"/>
          </g>
          <g transform="matrix(1, 0, 0, 1, -482.12, -48.19)" filter="url(#Trazado_617470-4)">
            <path id="Trazado_617470-8" data-name="Trazado 617470" d="M418.738,69.975l-9.972-1.427,1.47-8.462a14.781,14.781,0,0,1-14.122.9l1.564-2.153-13.19,1.888,2.281,13.128,1.646-2.266a27.724,27.724,0,0,0,30.323-1.61Z" transform="translate(109.47 30.2)" fill="#12263f"/>
          </g>
          <g transform="matrix(1, 0, 0, 1, -482.12, -48.19)" filter="url(#Trazado_617471-4)">
            <path id="Trazado_617471-8" data-name="Trazado 617471" d="M563.243-65.88a27.65,27.65,0,0,0-1.643-9.413l-4.776,9.73-6.936-3.665a14.8,14.8,0,0,1,.382,3.348A14.758,14.758,0,0,1,546-55.488l-1.839-2.532L541.88-44.892,555.07-43l-1.393-1.918A27.725,27.725,0,0,0,563.243-65.88Z" transform="translate(-23.64 143.64)" fill="#fb8c00"/>
          </g>
          <g transform="matrix(1, 0, 0, 1, -482.12, -48.19)" filter="url(#Trazado_617472-4)">
            <path id="Trazado_617472-8" data-name="Trazado 617472" d="M518.239-177.663a27.82,27.82,0,0,0-25.475-16.707q-.689,0-1.37.034l2.032,12.954a14.825,14.825,0,0,1,12.368,7.762l-3.449,1.121,11.781,6.226L520-178.234Z" transform="translate(19.06 244.35)" fill="#1565c0"/>
          </g>
          <g transform="matrix(1, 0, 0, 1, -482.12, -48.19)" filter="url(#Trazado_617473-4)">
            <path id="Trazado_617473-8" data-name="Trazado 617473" d="M360.245-196.649l-9.561-9.28v1.973a27.853,27.853,0,0,0-23.449,19.882L336-188.709l3.828,7.8a14.862,14.862,0,0,1,10.851-9.9v3.446Z" transform="translate(157.9 254.12)" fill="#26aab7"/>
          </g>
          <g transform="matrix(1, 0, 0, 1, -482.12, -48.19)" filter="url(#Trazado_617474-4)">
            <path id="Trazado_617474-8" data-name="Trazado 617474" d="M328.582-70.074a14.8,14.8,0,0,1-5.968-11.873c0-.425.019-.845.054-1.261l2.7.879L319.5-94.29,307.72-88.064l2.435.791a27.8,27.8,0,0,0-.514,5.326,27.762,27.762,0,0,0,11.547,22.53l-1.627-9.366Z" transform="translate(174.4 159.7)" fill="#727997"/>
          </g>
          <path id="Trazado_617475-4" data-name="Trazado 617475" d="M400.834,67.794c.1-1.823.41-3.643.428-5.469a14.7,14.7,0,0,1-5.148-1.337l1.564-2.153-13.19,1.888,2.281,13.128,1.646-2.266a27.609,27.609,0,0,0,13.933,3.755l.161,0A12.559,12.559,0,0,1,400.834,67.794Z" transform="translate(-372.647 -17.996)" fill="#12263f"/>
        </g>
      </g>
    </g>
  </g>
</svg>
