<svg id="Grupo_892552" data-name="Grupo 892552" xmlns="http://www.w3.org/2000/svg" xmlns:xlink="http://www.w3.org/1999/xlink" width="83.188" height="83.194" viewBox="0 0 83.188 83.194">
  <defs>
    <clipPath id="clip-path">
      <rect id="Rectángulo_303189" data-name="Rectángulo 303189" width="83.188" height="83.194" fill="none"/>
    </clipPath>
  </defs>
  <g id="Grupo_892551" data-name="Grupo 892551" clip-path="url(#clip-path)">
    <path id="Trazado_612098" data-name="Trazado 612098" d="M47.757,54.138v4.025H45V54.149c-9.663-1.519-15.214-7.058-16.728-16.727H24.221V34.7h4.073c.236-1.163.392-2.271.691-3.34a17.616,17.616,0,0,1,9.66-11.576,1.2,1.2,0,0,0,.8-1.3c-.033-3.841-.02-7.683-.015-11.524A6.887,6.887,0,0,1,46.416.007Q61.622,0,76.827,0a6.978,6.978,0,0,1,4.627,1.731l-1.835,2.1C78.211,2.562,76.482,2.774,74.8,2.773c-9.155,0-18.31.072-27.464-.04-3.395-.041-5.518,1.989-5.092,5.552H64.322V11.07H42.259v7.385l2.7-.416v-4.1H47.71v4.016c9.613,1.531,15.151,7.056,16.737,16.71h4.027V37.41H64.442C62.931,47.071,57.4,52.628,47.757,54.138M31.2,37.454a15.347,15.347,0,0,0,5.425,10.321,9.93,9.93,0,0,1,5.116-9.209c-3.065-4.3-3.057-7.827.015-10.531a6.948,6.948,0,0,1,9.309.1c2.977,2.757,2.946,6.407-.114,10.435a9.951,9.951,0,0,1,3.838,3.758A10.162,10.162,0,0,1,56.074,47.8,15.415,15.415,0,0,0,61.51,37.41H58.888V34.657h2.528c-.3-7.42-7.252-13.569-13.684-13.633v2.487H44.948V20.97c-7.949.442-13.66,7.842-13.592,13.723h2.456v2.762ZM47.763,51.379c1.506-.418,2.9-.743,4.251-1.2,1.3-.437,1.282-.5,1.277-1.9,0-.433.01-.867-.008-1.3a6.93,6.93,0,0,0-12.567-3.837c-1.371,1.891-1.343,4.051-1.275,6.224a.549.549,0,0,0,.282.379,13.118,13.118,0,0,0,5.264,1.414V48.59h2.777Zm-1.43-22.259a4.157,4.157,0,1,0,4.179,4.111,4.221,4.221,0,0,0-4.179-4.111" transform="translate(-20.017 0)" fill="#12263f"/>
    <path id="Trazado_612099" data-name="Trazado 612099" d="M259.045,173.771V159.706h2.69v11.685c1.38-1.213,2.606-2.289,3.83-3.367,2.73-2.406,5.445-4.828,8.192-7.213a4.339,4.339,0,0,1,5.36-.476,4.4,4.4,0,0,1,.812,6.769c-2.281,2.647-4.616,5.247-6.928,7.867q-6.077,6.885-12.14,13.782a2.749,2.749,0,0,0-.578,1.286,9.71,9.71,0,0,1-10.028,8.428c-3.032,0-6.065-.013-9.1,0a1.417,1.417,0,0,1-.743-2.707,3.767,3.767,0,0,0,1.924-3.446,21.241,21.241,0,0,1,.307-4.468c1.08-4.235,3.95-6.619,8.233-7.362a2.278,2.278,0,0,0,1.065-.464c2.4-2.082,4.771-4.193,7.1-6.253m-.117,12.872c.174-.182.338-.342.49-.515q7.361-8.34,14.72-16.682c1.241-1.406,2.5-2.8,3.715-4.226a1.582,1.582,0,0,0-.919-2.733,2.692,2.692,0,0,0-1.655.727c-4.893,4.267-9.752,8.572-14.62,12.868q-3.275,2.89-6.527,5.769l4.8,4.791m-14.612,9.042c2.327,0,4.462.069,6.592-.016a6.8,6.8,0,0,0,6.509-5.747,1.418,1.418,0,0,0-.34-1.031c-1.6-1.661-3.281-3.248-4.861-4.927a1.729,1.729,0,0,0-1.978-.5,6.988,6.988,0,0,0-5.137,6.71c-.045,1.828.241,3.7-.785,5.509" transform="translate(-197.963 -131.913)" fill="#12263f"/>
    <path id="Trazado_612100" data-name="Trazado 612100" d="M288.188,51.381q-7.359,0-14.718,0c-1.5,0-1.91-.4-1.91-1.874q0-7.836,0-15.672c0-1.454.4-1.86,1.829-1.86h29.7c1.268,0,1.739.452,1.74,1.7q.006,8.009,0,16.018c0,1.239-.468,1.689-1.745,1.69q-7.446,0-14.891,0M302,34.811H274.374V48.575H302Z" transform="translate(-224.42 -26.424)" fill="#12263f"/>
    <path id="Trazado_612101" data-name="Trazado 612101" d="M19.414,326.768V319.9H22.17v6.865h1.024c2.829,0,5.658,0,8.488,0,1.093,0,1.584.491,1.586,1.585q.011,5.37,0,10.741a1.355,1.355,0,0,1-1.554,1.528q-15.07.008-30.139,0a1.361,1.361,0,0,1-1.564-1.521q-.017-5.413,0-10.827c0-1.039.537-1.51,1.663-1.51q8.185,0,16.369,0h1.375M2.81,337.8H30.434v-8.216H2.81Z" transform="translate(0 -264.371)" fill="#12263f"/>
    <path id="Trazado_612102" data-name="Trazado 612102" d="M132.8,376.014v-2.758H157.71v-5.544H160.5c0,.265,0,.54,0,.815q0,5.719,0,11.438a6.9,6.9,0,0,1-7.106,7.106q-15.206,0-30.411-.011a6.808,6.808,0,0,1-5.934-3.438l2.411-1.418c1.172,1.883,2.981,2.125,4.978,2.117,9.559-.039,19.119-.018,28.678-.02,2.908,0,4.612-1.717,4.615-4.64,0-1.182,0-2.365,0-3.645Z" transform="translate(-96.731 -303.88)" fill="#12263f"/>
    <path id="Trazado_612103" data-name="Trazado 612103" d="M8.34,31.975q3.288,0,6.575,0c1.274,0,1.735.448,1.736,1.694q.006,5.235,0,10.47c0,1.21-.469,1.69-1.654,1.691q-6.662.007-13.324,0c-1.186,0-1.647-.48-1.648-1.695q-.005-5.235,0-10.47c0-1.244.462-1.688,1.739-1.69q3.288-.005,6.576,0M2.851,43H13.84V34.783H2.851Z" transform="translate(-0.018 -26.424)" fill="#12263f"/>
    <rect id="Rectángulo_303182" data-name="Rectángulo 303182" width="2.677" height="2.662" transform="translate(40.245 74.935)" fill="#12263f"/>
    <path id="Trazado_612104" data-name="Trazado 612104" d="M64.445,137.285h2.608v-2.762H64.6c-.068-5.881,5.643-13.28,13.592-13.723v2.541h2.783v-2.487c6.433.064,13.388,6.213,13.684,13.633H92.129v2.753h2.622a15.414,15.414,0,0,1-5.436,10.394,10.164,10.164,0,0,0-1.282-5.477A9.95,9.95,0,0,0,84.2,138.4c3.06-4.028,3.091-7.678.114-10.435a6.948,6.948,0,0,0-9.309-.1c-3.072,2.7-3.079,6.232-.015,10.531a9.93,9.93,0,0,0-5.116,9.209,15.347,15.347,0,0,1-5.426-10.321" transform="translate(-53.258 -99.831)" fill="#26aab7"/>
    <path id="Trazado_612105" data-name="Trazado 612105" d="M120.1,242.929V240.14h-2.777v2.573a13.115,13.115,0,0,1-5.264-1.414.548.548,0,0,1-.281-.379c-.068-2.173-.1-4.333,1.275-6.224a6.93,6.93,0,0,1,12.567,3.837c.018.432.007.866.008,1.3,0,1.4.024,1.464-1.277,1.9-1.351.454-2.746.779-4.251,1.2" transform="translate(-92.353 -191.55)" fill="#636363"/>
    <path id="Trazado_612106" data-name="Trazado 612106" d="M131.932,167.748a4.157,4.157,0,1,1-4.132,4.16,4.213,4.213,0,0,1,4.132-4.16" transform="translate(-105.615 -138.629)" fill="#b2ebf2"/>
    <path id="Trazado_612107" data-name="Trazado 612107" d="M328.367,200.28l-4.8-4.791q3.245-2.869,6.527-5.769c4.867-4.3,9.727-8.6,14.62-12.868a2.693,2.693,0,0,1,1.655-.727,1.582,1.582,0,0,1,.919,2.733c-1.212,1.431-2.474,2.819-3.715,4.226q-7.36,8.341-14.72,16.682c-.152.172-.316.333-.49.514" transform="translate(-267.403 -145.55)" fill="#fb8c00"/>
    <path id="Trazado_612108" data-name="Trazado 612108" d="M267.026,308.658c1.026-1.813.741-3.681.785-5.509a6.988,6.988,0,0,1,5.137-6.71,1.729,1.729,0,0,1,1.978.5c1.58,1.68,3.26,3.266,4.861,4.927a1.418,1.418,0,0,1,.34,1.031,6.8,6.8,0,0,1-6.509,5.747c-2.13.085-4.265.016-6.592.016" transform="translate(-220.673 -244.886)" fill="#e8e8e8"/>
    <path id="Trazado_612109" data-name="Trazado 612109" d="M315.392,62.08H287.768V48.316h27.624Zm-24.852-2.8H312.6V56.615H290.54Zm22.079-8.194h-13.76v2.665h13.76Zm-16.64.005h-5.434v2.664h5.434Z" transform="translate(-237.815 -39.929)" fill="#fffae7"/>
    <path id="Trazado_612110" data-name="Trazado 612110" d="M16.188,375.66H43.812v8.216H16.188ZM28.67,381.1H41.062v-2.662H28.67Zm-2.884-2.665H18.981v2.694h6.806Z" transform="translate(-13.378 -310.45)" fill="#b0c0d2"/>
    <path id="Trazado_612111" data-name="Trazado 612111" d="M16.317,48.157H27.306v8.216H16.317Zm8.212,2.787H19.094v2.682h5.435Z" transform="translate(-13.485 -39.797)" fill="#b2ebf2"/>
    <rect id="Rectángulo_303183" data-name="Rectángulo 303183" width="22.064" height="2.666" transform="translate(52.725 16.686)" fill="#12263f"/>
    <rect id="Rectángulo_303184" data-name="Rectángulo 303184" width="13.76" height="2.665" transform="translate(61.044 11.157)" fill="#12263f"/>
    <rect id="Rectángulo_303185" data-name="Rectángulo 303185" width="5.434" height="2.664" transform="translate(52.73 11.162)" fill="#12263f"/>
    <rect id="Rectángulo_303186" data-name="Rectángulo 303186" width="12.392" height="2.662" transform="translate(15.292 67.988)" fill="#12263f"/>
    <rect id="Rectángulo_303187" data-name="Rectángulo 303187" width="6.806" height="2.694" transform="translate(5.603 67.985)" fill="#12263f"/>
    <rect id="Rectángulo_303188" data-name="Rectángulo 303188" width="5.435" height="2.682" transform="translate(5.61 11.147)" fill="#12263f"/>
  </g>
</svg>
