<svg id="Grupo_892549" data-name="Grupo 892549" xmlns="http://www.w3.org/2000/svg" xmlns:xlink="http://www.w3.org/1999/xlink" width="467.25" height="458.891" viewBox="0 0 467.25 458.891">
  <defs>
    <linearGradient id="linear-gradient" x1="0.5" x2="0.5" y2="1" gradientUnits="objectBoundingBox">
      <stop offset="0" stop-color="#fff"/>
      <stop offset="1" stop-color="#d2e6ee"/>
    </linearGradient>
    <linearGradient id="linear-gradient-2" x1="0.167" y1="-0.077" x2="0.833" y2="1.077" gradientUnits="objectBoundingBox">
      <stop offset="0" stop-color="#b1b2f3"/>
      <stop offset="1" stop-color="#9d9ef0"/>
    </linearGradient>
    <linearGradient id="linear-gradient-5" x1="0.314" y1="-0.604" x2="0.686" y2="1.604" xlink:href="#linear-gradient-2"/>
  </defs>
  <g id="Grupo_29020" data-name="Grupo 29020" transform="translate(223.929 16.554)">
    <path id="Trazado_68871" data-name="Trazado 68871" d="M543.705,126.019Z" transform="translate(-500.135 -114.033)" fill="#cbd9e4"/>
    <path id="Trazado_68872" data-name="Trazado 68872" d="M556.072,135.555l-2.7.528a20.487,20.487,0,0,0-2.188-6.013l2.4-1.332a23.219,23.219,0,0,0-7.306-8l-1.539,2.275a20.483,20.483,0,0,0-5.8-2.715l.76-2.633-.122-.035a23.159,23.159,0,0,0-10.7-.466l.52,2.7a20.531,20.531,0,0,0-6.019,2.173l-1.324-2.408a23.224,23.224,0,0,0-8.015,7.286l2.27,1.543a20.513,20.513,0,0,0-2.729,5.79l-2.632-.767-.052.181a23.162,23.162,0,0,0-.48,10.639l2.7-.512a20.524,20.524,0,0,0,2.157,6.026l-2.411,1.318h0a23.243,23.243,0,0,0,7.262,8.036l1.549-2.265a20.508,20.508,0,0,0,5.784,2.741l-.775,2.632h0l.242.071a23.177,23.177,0,0,0,10.827.442l-.536-2.7a20.528,20.528,0,0,0,6.008-2.207l1.339,2.4a23.226,23.226,0,0,0,7.974-7.327l-2.28-1.534a20.523,20.523,0,0,0,2.7-5.8l2.633.753.017-.061a23.122,23.122,0,0,0,.454-10.765Zm-22.8,18.271a13.85,13.85,0,1,1,13.3-10.068A13.808,13.808,0,0,1,533.269,153.826Z" transform="translate(-510.018 -116.752)" fill="#cbd9e4"/>
  </g>
  <g id="Grupo_29021" data-name="Grupo 29021" transform="translate(50.614 89.771)">
    <path id="Trazado_68873" data-name="Trazado 68873" d="M685.774,482.074a80.954,80.954,0,1,0-142.263,0Z" transform="translate(-329.758 -117.892)" fill="#fff"/>
    <ellipse id="Elipse_3363" data-name="Elipse 3363" cx="107.794" cy="107.794" rx="107.794" ry="107.794" transform="translate(0 68.832)" fill="#fff"/>
    <ellipse id="Elipse_3364" data-name="Elipse 3364" cx="80.954" cy="80.954" rx="80.954" ry="80.954" transform="translate(49.568)" fill="#fff"/>
    <circle id="Elipse_3365" data-name="Elipse 3365" cx="80.953" cy="80.953" r="80.953" transform="translate(135.159 160.839) rotate(-79.905)" fill="#fff"/>
    <ellipse id="Elipse_3366" data-name="Elipse 3366" cx="63.58" cy="63.58" rx="63.58" ry="63.58" transform="translate(196.299 143.367)" fill="#fff"/>
    <path id="Trazado_68874" data-name="Trazado 68874" d="M403.688,397.92a80.951,80.951,0,0,0,23.1,89.831H604.15a80.941,80.941,0,0,0-89.465-134.337,80.978,80.978,0,0,0-95.71,19.184,14.792,14.792,0,1,0-15.288,25.321Z" transform="translate(-370.064 -123.568)" fill="#fff"/>
  </g>
  <g id="Grupo_29048" data-name="Grupo 29048" transform="translate(136.826 71.167)">
    <g id="Grupo_29044" data-name="Grupo 29044">
      <g id="Grupo_29043" data-name="Grupo 29043">
        <g id="Grupo_29042" data-name="Grupo 29042">
          <path id="Rectángulo_26499" data-name="Rectángulo 26499" d="M8.851,0H191.611a8.85,8.85,0,0,1,8.85,8.85V371.663a8.851,8.851,0,0,1-8.851,8.851H8.85A8.85,8.85,0,0,1,0,371.664V8.851A8.851,8.851,0,0,1,8.851,0Z" transform="translate(1.293 1.293)" fill="#00223d"/>
          <path id="Trazado_68906" data-name="Trazado 68906" d="M632.979,161.565a10.152,10.152,0,0,1,10.153,10.153V529.339a10.153,10.153,0,0,1-10.153,10.153H455.412a10.153,10.153,0,0,1-10.153-10.153V171.718a10.153,10.153,0,0,1,10.153-10.153H632.979m0-2.587H455.412a12.754,12.754,0,0,0-12.74,12.74V529.339a12.755,12.755,0,0,0,12.74,12.74H632.979a12.754,12.754,0,0,0,12.74-12.74V171.718a12.753,12.753,0,0,0-12.74-12.74Z" transform="translate(-442.672 -158.978)" fill="#b4b7c6"/>
        </g>
      </g>
    </g>
    <g id="Grupo_29045" data-name="Grupo 29045" transform="translate(2.587 22.084)">
      <path id="Trazado_68907" data-name="Trazado 68907" d="M642.548,187.785V503.251a11.732,11.732,0,0,1-11.732,11.733H456.4a11.732,11.732,0,0,1-11.732-11.733V187.785A11.732,11.732,0,0,1,456.4,176.053H630.816A11.732,11.732,0,0,1,642.548,187.785Z" transform="translate(-444.672 -176.053)" fill="url(#linear-gradient)"/>
    </g>
    <g id="Grupo_29046" data-name="Grupo 29046" transform="translate(87.164 10.36)">
      <path id="Trazado_68908" data-name="Trazado 68908" d="M536.52,171.517H512.33a2.264,2.264,0,0,1-2.265-2.265h0a2.265,2.265,0,0,1,2.265-2.265h24.19a2.264,2.264,0,0,1,2.265,2.265h0A2.264,2.264,0,0,1,536.52,171.517Z" transform="translate(-510.065 -166.988)" fill="#161c59"/>
    </g>
    <g id="Grupo_29047" data-name="Grupo 29047" transform="translate(77.823 10.36)">
      <path id="Trazado_68909" data-name="Trazado 68909" d="M507.372,169.253a2.265,2.265,0,1,1-2.265-2.265A2.264,2.264,0,0,1,507.372,169.253Z" transform="translate(-502.843 -166.988)" fill="#161c59"/>
    </g>
  </g>
  <path id="Rectángulo_26500" data-name="Rectángulo 26500" d="M2.949,0h152.4A2.949,2.949,0,0,1,158.3,2.949V15.666a2.948,2.948,0,0,1-2.948,2.948H2.948A2.948,2.948,0,0,1,0,15.666V2.949A2.949,2.949,0,0,1,2.949,0Z" transform="translate(159.2 221.901)" fill="#e6e7e8" style="mix-blend-mode: multiply;isolation: isolate"/>
  <rect id="Rectángulo_26501" data-name="Rectángulo 26501" width="46.64" height="21.975" rx="2.106" transform="translate(158.388 110.866)" fill="#e6e7e8" style="mix-blend-mode: multiply;isolation: isolate"/>
  <rect id="Rectángulo_26502" data-name="Rectángulo 26502" width="46.64" height="21.975" rx="2.106" transform="translate(215.031 110.866)" fill="#e6e7e8" style="mix-blend-mode: multiply;isolation: isolate"/>
  <rect id="Rectángulo_26503" data-name="Rectángulo 26503" width="46.64" height="21.975" rx="2.106" transform="translate(271.672 110.866)" fill="#e6e7e8" style="mix-blend-mode: multiply;isolation: isolate"/>
  <rect id="Rectángulo_26504" data-name="Rectángulo 26504" width="69.753" height="69.753" rx="2.455" transform="translate(165.026 296.457)" stroke="#707070" stroke-miterlimit="10" stroke-width="8" opacity="0.4" fill="url(#linear-gradient-2)" style="mix-blend-mode: multiply;isolation: isolate"/>
  <rect id="Rectángulo_26505" data-name="Rectángulo 26505" width="69.753" height="69.753" rx="2.455" transform="translate(255.522 296.457)" stroke="#707070" stroke-miterlimit="10" stroke-width="8" opacity="0.4" fill="url(#linear-gradient-2)" style="mix-blend-mode: multiply;isolation: isolate"/>
  <rect id="Rectángulo_26506" data-name="Rectángulo 26506" width="69.753" height="69.753" rx="2.455" transform="translate(346.017 296.457)" stroke="#707070" stroke-miterlimit="10" stroke-width="8" opacity="0.4" fill="url(#linear-gradient-2)" style="mix-blend-mode: multiply;isolation: isolate"/>
  <rect id="Rectángulo_26507" data-name="Rectángulo 26507" width="69.753" height="69.753" rx="2.455" transform="translate(160.048 291.478)" fill="#fff"/>
  <rect id="Rectángulo_26508" data-name="Rectángulo 26508" width="69.753" height="69.753" rx="2.455" transform="translate(250.543 291.478)" fill="#fff"/>
  <rect id="Rectángulo_26509" data-name="Rectángulo 26509" width="69.753" height="33.517" rx="1.702" transform="translate(250.543 374.763)" fill="#e6e7e8" style="mix-blend-mode: multiply;isolation: isolate"/>
  <rect id="Rectángulo_26510" data-name="Rectángulo 26510" width="69.753" height="33.517" rx="1.702" transform="translate(159.342 374.763)" fill="#e6e7e8" style="mix-blend-mode: multiply;isolation: isolate"/>
  <rect id="Rectángulo_26511" data-name="Rectángulo 26511" width="69.753" height="69.753" rx="2.455" transform="translate(341.039 291.478)" fill="#fff"/>
  <g id="Grupo_29049" data-name="Grupo 29049" transform="translate(158.388 138.69)">
    <rect id="Rectángulo_26512" data-name="Rectángulo 26512" width="46.64" height="5.195" rx="1.646" fill="#707070"/>
    <rect id="Rectángulo_26513" data-name="Rectángulo 26513" width="46.64" height="5.195" rx="1.646" transform="translate(56.642)" fill="#707070"/>
    <rect id="Rectángulo_26514" data-name="Rectángulo 26514" width="46.64" height="5.195" rx="1.646" transform="translate(113.284)" fill="#707070"/>
  </g>
  <g id="Grupo_29050" data-name="Grupo 29050" transform="translate(158.388 149.677)" style="mix-blend-mode: multiply;isolation: isolate">
    <rect id="Rectángulo_26515" data-name="Rectángulo 26515" width="46.64" height="5.195" rx="1.646" fill="#e6e7e8"/>
    <rect id="Rectángulo_26516" data-name="Rectángulo 26516" width="46.64" height="5.195" rx="1.646" transform="translate(56.642)" fill="#e6e7e8"/>
    <rect id="Rectángulo_26517" data-name="Rectángulo 26517" width="46.64" height="5.195" rx="1.646" transform="translate(113.284)" fill="#e6e7e8"/>
  </g>
  <g id="Grupo_29053" data-name="Grupo 29053" transform="translate(384.82 301.227)">
    <path id="Trazado_68910" data-name="Trazado 68910" d="M670.77,430.7c-3.5-.293-3.747-19.869-3.208-28.179s2.517-14.755,6.786-14.4,5.145,7.044,4.289,15.328S674.268,431,670.77,430.7Z" transform="translate(-624.754 -321.816)" fill="#ffc8af"/>
    <path id="Trazado_68911" data-name="Trazado 68911" d="M687.111,458.822c-2.887,1.165-13.491-24.176-15.807-29.906s-4.314-11.958-1.08-13.264,6.121,4.563,8.437,10.293S690,457.657,687.111,458.822Z" transform="translate(-624.405 -313.792)" fill="#ffc8af"/>
    <path id="Trazado_68912" data-name="Trazado 68912" d="M686.545,457.93c-1.891,1.3-5.806,2.139-6.162,1.478s.254-2.52.794-3.86l.008-.013c.163-.4.316-.749.433-1.009.14-.328.233-.52.233-.52s-6.269-24.77-5.109-25.085c1.259-.34,9.647,24.241,9.647,24.241s.041.155.111.375l.1.317.639,2.133C687.316,456.248,687.932,456.994,686.545,457.93Z" transform="translate(-622.039 -309.846)" fill="#ffc8af"/>
    <path id="Trazado_68913" data-name="Trazado 68913" d="M685.711,452.274c-1.891,1.3-5.806,2.139-6.161,1.478s.253-2.519.794-3.859l.008-.013c.163-.4.315-.749.433-1.009.119.247.3.614.44.939.247.566.571.573,1.725-.185a22.454,22.454,0,0,1,2.813-1.425s.748,1.567.952,2.108C686.812,450.56,687.1,451.338,685.711,452.274Z" transform="translate(-621.205 -304.189)" fill="#262b7f"/>
    <g id="Grupo_29052" data-name="Grupo 29052" transform="translate(44.856 25.466)">
      <path id="Trazado_68914" data-name="Trazado 68914" d="M686.168,386.488c-2.336.971-9.233-12.07-11.75-17.823s-3.472-10.734-.621-11.92,5.71,3,8.015,8.844S688.5,385.517,686.168,386.488Z" transform="translate(-668.229 -356.544)" fill="#ffc8af"/>
      <g id="Grupo_29051" data-name="Grupo 29051" transform="translate(0 25.923)">
        <path id="Trazado_68915" data-name="Trazado 68915" d="M672.863,404.692c-2.038-.935,4.276-16.193,6.217-20.429s4.3-8.565,6.589-7.517.55,5.661-1.392,9.9S674.9,405.625,672.863,404.692Z" transform="translate(-668.108 -376.587)" fill="#ffc8af"/>
        <path id="Trazado_68916" data-name="Trazado 68916" d="M675.532,395.34c2.483.922.36,5.118-.418,6.522-1.265,2.288-4.8,3.42-5.695,2.941s2.359-5.441,2.248-5.726-1.595,2.545-2.389,2.008,1.179-3.889,2.468-4.916S673.976,394.762,675.532,395.34Z" transform="translate(-669.096 -371.165)" fill="#ffc8af"/>
      </g>
    </g>
    <path id="Trazado_68917" data-name="Trazado 68917" d="M671.044,455.4c.211.841.639,1.782.18,2.614a2.3,2.3,0,0,1-1.634.965,18.526,18.526,0,0,1-2.72.388,9.97,9.97,0,0,1-1.108.089c-.308,0-.611-.057-.916-.075-.6-.036-1.2-.012-1.8-.063-.059-.005-.463.009-.519-.071s.049-.19.1-.234c.258-.226.6-.329.865-.543.3-.242.573-.513.877-.751a8.373,8.373,0,0,1,1.961-1.189c.136-.057-4.012-26.049-2.774-26.319C664.677,429.962,671.041,455.386,671.044,455.4Z" transform="translate(-626.172 -309.468)" fill="#ffc8af"/>
    <path id="Trazado_68918" data-name="Trazado 68918" d="M657.494,431.338c-3.43-.749-1.121-20.188.5-28.357s4.423-14.3,8.61-13.386,4.18,7.655,2.251,15.756S660.922,432.085,657.494,431.338Z" transform="translate(-628.165 -321.409)" fill="#ffc8af"/>
    <path id="Trazado_68919" data-name="Trazado 68919" d="M671.568,460.557c-2.97.931-12.012-25.046-13.861-30.943s-3.346-12.265-.017-13.309,5.737,5.038,7.587,10.934S674.538,459.626,671.568,460.557Z" transform="translate(-628.165 -313.58)" fill="#ffc8af"/>
    <path id="Trazado_68920" data-name="Trazado 68920" d="M671.938,451.128l0,2.922a.533.533,0,0,1-.532.533l-9.4-.005a.852.852,0,0,1-.515-1.535,35.607,35.607,0,0,1,5.179-2.816c.384.339.964,1.387,1.64,1.512A18.881,18.881,0,0,0,671.938,451.128Z" transform="translate(-626.574 -303.595)" fill="#262b7f"/>
    <path id="Trazado_68921" data-name="Trazado 68921" d="M638.1,365.284c1.465-1.671,14.17,8.66,17.644,11.707s6.916,6.518,5.271,8.393-5.534-1.085-9.008-4.131S636.631,366.956,638.1,365.284Z" transform="translate(-633.37 -328.567)" fill="#ffc8af"/>
    <path id="Trazado_68922" data-name="Trazado 68922" d="M681.3,405.771l-21.775-.905-.955-37.253,1.5-9.356,10.057-3.7,6.479,1.237a7.6,7.6,0,0,1,6.169,7.73l-2.36,26.365Z" transform="translate(-627.328 -331.66)" fill="#ffc8af"/>
    <path id="Trazado_68923" data-name="Trazado 68923" d="M671.137,351.011V358.5s-1.582.946-5.284.946c-2,0-2.443-.946-2.443-.946v-2.768Z" transform="translate(-625.908 -332.701)" fill="#ffc8af"/>
    <path id="Trazado_68924" data-name="Trazado 68924" d="M673.551,349.188c-.017.272-.026.525-.044.77,0,.088.009.175.009.272.184,4.444-2.668,9.2-6.962,9.849,0,0-.035.009-.1.018-.035,0-.086.008-.148.008-.918.114-4.242.385-5.458-.953a11.312,11.312,0,0,1-2.694-6.432,25.206,25.206,0,0,1,.36-3.235c0-.621-.334-2.565-.34-3.408-.029-3.965,2.64-7.9,7.381-7.9C672.667,338.175,673.753,344.412,673.551,349.188Z" transform="translate(-627.449 -336.467)" fill="#ffc8af"/>
    <path id="Trazado_68925" data-name="Trazado 68925" d="M663.414,356.6" transform="translate(-625.907 -331.061)" fill="#6ebaad"/>
    <path id="Trazado_68926" data-name="Trazado 68926" d="M659.962,357.838c-1.513,1.4-2.69,3.859-2.974,8.884-.082,1.4-1.12,5.259.763,9.956,3.32,8.279,1.286,18.551,1.286,18.551l22.56.832s.476-15.126,1.247-19.95c2.326-14.56-.018-19.245-4.074-20.383C672.691,354.022,661.475,356.433,659.962,357.838Z" transform="translate(-627.898 -331.49)" fill="#1565c0"/>
    <path id="Trazado_68927" data-name="Trazado 68927" d="M655.13,388.241c-2.429-.627-.1-15.069,1.346-21.126s3.665-10.57,6.63-9.805,2.725,5.789,1.061,11.789S657.558,388.867,655.13,388.241Z" transform="translate(-628.646 -330.878)" fill="#ffc8af"/>
    <path id="Trazado_68928" data-name="Trazado 68928" d="M634.628,361.357c.584-.651,3.756,2.468,4.777,3.272.154.122.262.194.3.189s.038-.06.012-.14c-.165-.5-1.416-2.243-.81-2.794.669-.6,3.165,1.766,4.011,3.28.048.083.11.174.146.252.687,1.484.831,2.479-.09,3.842-1.473,2.175-5.016-.858-6.186-1.935a8.219,8.219,0,0,1-2.079-3.48A3.146,3.146,0,0,1,634.628,361.357Z" transform="translate(-634.414 -329.692)" fill="#ffc8af"/>
    <path id="Trazado_68929" data-name="Trazado 68929" d="M657.148,344.007a6.683,6.683,0,0,0,.137.718c.489,1.987,2.044,3.143,1.888,5.311a9.061,9.061,0,0,0,1.223,5.615c2.4,4.064-.916,3.162-.25,9.4.327,3.064,3.236,4.325,8.98,4.242s12.066-.167,11.9-4.493a7.942,7.942,0,0,0-1.582-4.3c-1.1-1.671-2.049-3.072-1.447-5.131a11.95,11.95,0,0,0,.658-2.583c.131-2.173-1.427-2.873-2.636-4.281-1.3-1.513-.538-4.07-.973-5.892-1.415-5.925-7.556-6.621-12.544-5.016C659.451,338.582,656.677,340.508,657.148,344.007Z" transform="translate(-627.761 -336.854)" fill="#00223d"/>
    <path id="Trazado_68930" data-name="Trazado 68930" d="M678.8,382.215c-.189,4.734,3.382,10.942,3.934,15.656,1.107,9.447-5.428,27.14-5.428,28.283s6.115,16.49,8.486,25.849c0,0-1.331,1.913-7.737,3.078,0,0-9.825-21.379-10.735-26.2s.207-45.78.207-45.78Z" transform="translate(-624.867 -323.547)" fill="#00223d"/>
    <path id="Trazado_68931" data-name="Trazado 68931" d="M672.59,382.816H660.236a231.59,231.59,0,0,0-4.673,26.337c-1.83,15.14-1.247,19.632-.914,22.045s8.678,25.2,8.678,25.2a14.55,14.55,0,0,0,8.6-2s-2.809-12.978-5.221-18.966a59.648,59.648,0,0,1-2.676-7.32s6.946-14.808,8.679-25.372A62.5,62.5,0,0,0,672.59,382.816Z" transform="translate(-628.584 -323.371)" fill="#00223d"/>
  </g>
  <rect id="Rectángulo_26518" data-name="Rectángulo 26518" width="225.761" height="65.983" rx="1.881" transform="translate(75.145 169.549)" stroke="#707070" stroke-miterlimit="10" stroke-width="8" opacity="0.3" fill="url(#linear-gradient-5)" style="mix-blend-mode: multiply;isolation: isolate"/>
  <g id="Grupo_29065" data-name="Grupo 29065" transform="translate(64.655 161.251)">
    <g id="Grupo_29054" data-name="Grupo 29054" transform="translate(0 202.938)">
      <path id="Trazado_68932" data-name="Trazado 68932" d="M416.055,385.535V403.15h-6.223v13.932h6.223v.054H403.406v13.932h12.649v.055H398.33v13.932h17.725v.054H391.9v13.932h24.151v.055H386.871v13.932h72.662V385.535Z" transform="translate(-386.871 -385.535)" fill="#00223d"/>
    </g>
    <path id="Trazado_68933" data-name="Trazado 68933" d="M436.927,385.535V403.15H430.7v13.932h6.223v.054H424.277v13.932h12.649v.055H419.2v13.932h17.725v.054H412.776v13.932h24.151v.055H407.742v13.932H453.41V385.535Z" transform="translate(-380.748 -182.598)" fill="#8998a5"/>
    <g id="Grupo_29064" data-name="Grupo 29064" transform="translate(12.149)">
      <path id="Trazado_68934" data-name="Trazado 68934" d="M431.784,361.345c3.7-.31,3.96-21,3.391-29.78s-2.66-15.593-7.173-15.214-5.436,7.443-4.532,16.2S428.087,361.656,431.784,361.345Z" transform="translate(-388.375 -202.898)" fill="#ffc8af"/>
      <path id="Trazado_68935" data-name="Trazado 68935" d="M416.326,391.06c3.05,1.231,14.258-25.549,16.7-31.6s4.56-12.637,1.141-14.019-6.469,4.823-8.915,10.878S413.276,389.827,416.326,391.06Z" transform="translate(-390.554 -194.418)" fill="#ffc8af"/>
      <path id="Trazado_68936" data-name="Trazado 68936" d="M414.933,390.116c2,1.375,6.137,2.262,6.512,1.563s-.268-2.662-.839-4.078l-.008-.013c-.172-.419-.334-.793-.458-1.067-.147-.348-.246-.55-.246-.55s6.625-26.178,5.4-26.509c-1.33-.359-10.194,25.619-10.194,25.619s-.044.163-.118.4l-.1.335-.674,2.253C414.12,388.338,413.468,389.128,414.933,390.116Z" transform="translate(-391.065 -190.248)" fill="#ffc8af"/>
      <path id="Trazado_68937" data-name="Trazado 68937" d="M414.981,384.138c2,1.375,6.137,2.262,6.512,1.562s-.268-2.662-.839-4.078l-.008-.013c-.172-.419-.334-.793-.458-1.067-.126.262-.317.649-.466.993-.26.6-.6.605-1.822-.2a23.607,23.607,0,0,0-2.974-1.505s-.789,1.656-1.006,2.227C413.82,382.329,413.516,383.15,414.981,384.138Z" transform="translate(-391.113 -184.27)" fill="#00223d"/>
      <path id="Trazado_68938" data-name="Trazado 68938" d="M438.675,331.559s.153,18.9-.692,22.856-17.309,41.791-17.309,41.791a23.4,23.4,0,0,1-6.3-1.793s6.154-21.625,8.7-29.362,4.835-11.34,4.659-14.153-2.989-26.285-2.989-26.285l13.944-.588Z" transform="translate(-390.953 -200.643)" fill="#00223d"/>
      <g id="Grupo_29057" data-name="Grupo 29057" transform="translate(34.941 41.157)">
        <g id="Grupo_29055" data-name="Grupo 29055" transform="translate(26.439)">
          <path id="Trazado_68939" data-name="Trazado 68939" d="M469.642,265.156c-1.466-1.862-15.575,8.408-19.444,11.453s-7.73,6.545-6.088,8.633,5.953-.841,9.823-3.885S471.108,267.018,469.642,265.156Z" transform="translate(-443.722 -259.135)" fill="#ffc8af"/>
          <path id="Trazado_68940" data-name="Trazado 68940" d="M461.121,269.171c1.564,2.323,5.347-.9,6.6-2.046,2.037-1.868,2.323-5.78,1.61-6.581s-5.005,3.774-5.325,3.73,2.219-2.27,1.471-2.953-3.7,2.174-4.439,3.755S460.14,267.715,461.121,269.171Z" transform="translate(-438.819 -260.45)" fill="#ffc8af"/>
        </g>
        <g id="Grupo_29056" data-name="Grupo 29056" transform="translate(0 22.199)">
          <path id="Trazado_68941" data-name="Trazado 68941" d="M456.4,278.563c-.789-2.553-16.047.651-22.422,2.491s-11.069,4.43-10.106,7.547,6.3,2.613,12.6.541S457.186,281.118,456.4,278.563Z" transform="translate(-423.143 -277.614)" fill="#ffc8af"/>
          <path id="Trazado_68942" data-name="Trazado 68942" d="M423.878,289.492c-1.535-2.773-.1-5.776,4.173-7.465C433,280.077,443.243,278,443.243,278c.113.242.215.482.31.716,2.532,5.921,1.392,7.8,1.392,7.8-7.322,2.942-15.9,5.265-18.781,4.284A8.39,8.39,0,0,1,423.878,289.492Z" transform="translate(-423.279 -277.5)" fill="#ffe3a1"/>
        </g>
      </g>
      <g id="Grupo_29060" data-name="Grupo 29060">
        <rect id="Rectángulo_26519" data-name="Rectángulo 26519" width="225.761" height="65.983" rx="1.47" fill="#fb8c00"/>
        <g id="Grupo_29058" data-name="Grupo 29058" transform="translate(10.225 9.611)">
          <rect id="Rectángulo_26520" data-name="Rectángulo 26520" width="46.761" height="46.761" rx="0.634" fill="#eef0f2"/>
        </g>
        <g id="Grupo_29059" data-name="Grupo 29059" transform="translate(71.925 12.28)">
          <rect id="Rectángulo_26521" data-name="Rectángulo 26521" width="131.535" height="5.863" rx="1.857" fill="#eef0f2"/>
          <rect id="Rectángulo_26522" data-name="Rectángulo 26522" width="131.535" height="5.863" rx="1.857" transform="translate(0 17.78)" fill="#eef0f2"/>
          <rect id="Rectángulo_26523" data-name="Rectángulo 26523" width="101.838" height="5.863" rx="1.857" transform="translate(0 35.56)" fill="#eef0f2"/>
        </g>
      </g>
      <path id="Trazado_68944" data-name="Trazado 68944" d="M430.87,387.441c-.18.716-.813,2.209-.231,2.865.361.4,1.23.433,1.717.454a5.4,5.4,0,0,0,1.815-.154c.775-.22,1.232-.392,1.433-1.208.459-1.861.647-3.788.918-5.688.41-2.867.816-5.736,1.2-8.607.388-2.914.761-5.832,1.044-8.757.106-1.09.2-2.185.248-3.279a6.186,6.186,0,0,0-.052-1.93c-.029-.1-.048-.29-.172-.317C437.6,360.562,430.873,387.43,430.87,387.441Z" transform="translate(-386.251 -189.849)" fill="#ffc8af"/>
      <path id="Trazado_68945" data-name="Trazado 68945" d="M446.485,362.014c3.624-.792,1.184-21.336-.528-29.967s-4.674-15.113-9.1-14.147-4.418,8.09-2.379,16.651S442.861,362.8,446.485,362.014Z" transform="translate(-385.44 -202.468)" fill="#ffc8af"/>
      <path id="Trazado_68946" data-name="Trazado 68946" d="M432.129,392.892c3.138.984,12.693-26.467,14.647-32.7s3.536-12.961.018-14.064-6.063,5.323-8.018,11.555S428.99,391.908,432.129,392.892Z" transform="translate(-385.958 -194.195)" fill="#ffc8af"/>
      <path id="Trazado_68947" data-name="Trazado 68947" d="M430.245,382.93l0,3.089a.563.563,0,0,0,.564.561l9.935-.008a.9.9,0,0,0,.543-1.623,37.716,37.716,0,0,0-5.473-2.973c-.406.358-1.018,1.465-1.732,1.6A19.934,19.934,0,0,1,430.245,382.93Z" transform="translate(-386.296 -183.642)" fill="#00223d"/>
      <path id="Trazado_68948" data-name="Trazado 68948" d="M423.685,334.995h24.478l1.008-39.369-1.822-11.107-11.861-3.645-6.846,1.306a8.031,8.031,0,0,0-6.521,8.17l2.495,27.863Z" transform="translate(-388.68 -213.302)" fill="#ffc8af"/>
      <path id="Trazado_68949" data-name="Trazado 68949" d="M430.47,276.8v7.91s1.671,1,5.583,1c2.109,0,2.583-1,2.583-1V281.79Z" transform="translate(-386.229 -214.496)" fill="#ffc8af"/>
      <path id="Trazado_68950" data-name="Trazado 68950" d="M429.763,274.877c.018.287.027.555.045.813,0,.093-.009.185-.009.287-.194,4.7,2.82,9.725,7.358,10.409,0,0,.037.009.1.018.038,0,.092.009.157.009.971.12,4.484.406,5.768-1.008a11.957,11.957,0,0,0,2.848-6.8,26.7,26.7,0,0,0-.379-3.419c0-.656.352-2.711.358-3.6.031-4.19-2.79-8.349-7.8-8.349C430.7,263.239,429.55,269.83,429.763,274.877Z" transform="translate(-386.444 -218.475)" fill="#ffc8af"/>
      <path id="Trazado_68951" data-name="Trazado 68951" d="M436.781,283.034" transform="translate(-384.378 -212.668)" fill="#6ebaad"/>
      <g id="Grupo_29062" data-name="Grupo 29062" transform="translate(79.124 63.012)">
        <path id="Trazado_68952" data-name="Trazado 68952" d="M483.329,281.172c-1.434-1.861-15.525,8.186-19.393,11.167s-7.729,6.412-6.12,8.5,5.911-.775,9.778-3.756S484.763,283.033,483.329,281.172Z" transform="translate(-457.441 -276.293)" fill="#ffc8af"/>
        <g id="Grupo_29061" data-name="Grupo 29061" transform="translate(21.087)">
          <path id="Trazado_68953" data-name="Trazado 68953" d="M478.387,280.332a.858.858,0,0,1-.331.178c-.043-.009-.035-.066,0-.149.208-.514,1.644-2.271,1.04-2.892-.664-.681-3.456,1.652-4.449,3.191-.055.085-.128.178-.171.257-.824,1.52-1.044,2.558-.162,4.059,1.407,2.393,5.347-.569,6.653-1.628a7.018,7.018,0,0,0,2.247-3.123C481.622,280.332,480.187,280.24,478.387,280.332Z" transform="translate(-473.746 -277.348)" fill="#ffc8af"/>
        </g>
      </g>
      <path id="Trazado_68954" data-name="Trazado 68954" d="M446.338,326.647c3.577,10.457,4.193,25.138,3.8,31.6s-13.262,40.083-13.262,40.083a9.66,9.66,0,0,1-6.46-1.464s9.436-39.674,8.91-42.839-7.638-28.762-7.638-28.762Z" transform="translate(-386.246 -200.279)" fill="#00223d"/>
      <path id="Trazado_68955" data-name="Trazado 68955" d="M441.349,282.044a24.962,24.962,0,0,1,6.479,2.194,28.657,28.657,0,0,1,2.31,9.56c.086,1.484.078,5.743.025,11.091-.147,13.725-.6,34.67-.6,34.67h-28s2.058-30.741,1.243-35.839c-2.457-15.386.019-20.338,4.307-21.541C433.541,280.377,437.164,281.7,441.349,282.044Z" transform="translate(-388.84 -213.191)" fill="#26a69a"/>
      <path id="Trazado_68956" data-name="Trazado 68956" d="M444.328,274.685s-.088,3.077-.528,3.3-.529-.839-.616-1.649c-.1-.917-.176-2.483-1.582-2.307s-.949,3.286-.643,4.34-1.579,5.286-2.8,5.418-6.1.528-6.758-.484a20.741,20.741,0,0,1-2.285-8.615c-.132-3.824-.88-9.055,2.681-10.2,0,0,.52-2.751,5.674-2.091s5.486,1.344,7.556,1.388a7.233,7.233,0,0,0,2.438-.528s.949,4.385-1.864,5.176c0,0,.657,2.955-.354,3.439S444.381,273.665,444.328,274.685Z" transform="translate(-386.671 -218.752)" fill="#00223d"/>
      <g id="Grupo_29063" data-name="Grupo 29063" transform="translate(52.324 70.353)">
        <path id="Trazado_68957" data-name="Trazado 68957" d="M467.2,300.241c1.2-2.366-11.9-10.58-17.72-13.653s-10.951-4.456-12.41-1.568,2.7,6.2,8.625,9.059S466.008,302.606,467.2,300.241Z" transform="translate(-436.702 -282.903)" fill="#ffc8af"/>
        <path id="Trazado_68958" data-name="Trazado 68958" d="M438.048,283.7c-2.463,2-1.406,5.6,2.38,8.214,4.383,3.017,13.893,7.352,13.893,7.352.163-.211.317-.422.463-.629,3.8-5.2,3.116-7.283,3.116-7.283C451.432,286.833,441.339,281.031,438.048,283.7Z" transform="translate(-436.72 -283.024)" fill="#26a69a"/>
      </g>
      <path id="Trazado_68959" data-name="Trazado 68959" d="M470.028,288.059c-.616-.688-3.968,2.606-5.047,3.457,1.822-.286,3.519-.568,4.96-.83C470.312,289.495,470.37,288.441,470.028,288.059Z" transform="translate(-376.105 -211.221)" fill="#ffc8af"/>
    </g>
  </g>
  <path id="Trazado_68960" data-name="Trazado 68960" d="M398.763,235.193a30.95,30.95,0,1,0-16.748,27.492c5.051,1.639,14.368,4.622,14.368,4.622l-3.92-13.4A30.8,30.8,0,0,0,398.763,235.193Z" transform="translate(-336.881 -74.529)" fill="#cbd9e4"/>
  <g id="Grupo_29066" data-name="Grupo 29066" transform="translate(70.085 89.125)">
    <path id="Trazado_68961" data-name="Trazado 68961" d="M408.443,173.055a10.133,10.133,0,1,0,7.94,7.939A10.138,10.138,0,0,0,408.443,173.055Zm3.607,20.059a11.516,11.516,0,0,1-11.22,0,15.374,15.374,0,0,0-9.761,14.319v.335a23.612,23.612,0,0,0,30.754,0v-.335A15.385,15.385,0,0,0,412.05,193.114Z" transform="translate(-391.069 -172.862)" fill="#cbd9e4"/>
  </g>
  <g id="Grupo_29067" data-name="Grupo 29067" transform="translate(272.242 317.706)">
    <path id="Trazado_68962" data-name="Trazado 68962" d="M547.372,359.407v-2.672l7.421-3.468v2.15l-5.8,2.654,5.8,2.654v2.148Z" transform="translate(-547.372 -348.519)" fill="#00223d"/>
    <path id="Trazado_68963" data-name="Trazado 68963" d="M560.934,349.6h2.491l-6.952,17.3H554Z" transform="translate(-545.427 -349.596)" fill="#00223d"/>
    <path id="Trazado_68964" data-name="Trazado 68964" d="M562.012,362.873v-2.148l5.778-2.654-5.778-2.654v-2.15l7.422,3.468v2.672Z" transform="translate(-543.077 -348.519)" fill="#00223d"/>
  </g>
  <path id="Rectángulo_26524" data-name="Rectángulo 26524" d="M2.949,0h152.4A2.949,2.949,0,0,1,158.3,2.949V15.666a2.949,2.949,0,0,1-2.949,2.949H2.948A2.948,2.948,0,0,1,0,15.667V2.949A2.949,2.949,0,0,1,2.949,0Z" transform="translate(159.2 249.514)" fill="#707070"/>
  <path id="Trazado_68965" data-name="Trazado 68965" d="M496.251,358.453a7.327,7.327,0,0,0-.914-3.126l.905-.5a8.371,8.371,0,0,0-1.75-2.183l-.691.777a7.3,7.3,0,0,0-2.853-1.57l.283-.993-.013,0a8.369,8.369,0,0,0-2.28-.317c-.163,0-.327,0-.49.014l.062,1.036a7.318,7.318,0,0,0-3.126.912l-.5-.907a8.4,8.4,0,0,0-2.185,1.749l.776.692a7.3,7.3,0,0,0-1.57,2.852l-.995-.285-.005.021a8.364,8.364,0,0,0-.318,2.279c0,.162.005.322.014.482l1.036-.06a7.3,7.3,0,0,0,.911,3.126l-.908.5a8.387,8.387,0,0,0,1.747,2.185l.692-.775a7.283,7.283,0,0,0,2.851,1.573l-.284.995.026.007a8.381,8.381,0,0,0,2.28.318c.168,0,.336-.005.5-.016l-.064-1.036a7.315,7.315,0,0,0,3.125-.917l.506.905a8.338,8.338,0,0,0,2.181-1.753l-.776-.689a7.283,7.283,0,0,0,1.566-2.854l.994.282,0-.006a8.377,8.377,0,0,0,.318-2.279q0-.25-.016-.5Zm-9.124,6.854h0l.052-.181Zm6.076-5.21a4.42,4.42,0,1,1,.169-1.208A4.431,4.431,0,0,1,493.2,360.1Z" transform="translate(-294.724 -31.615)" fill="#00223d"/>
  <path id="Trazado_68966" data-name="Trazado 68966" d="M629.909,356.334v-4.193h-2.328v4.193h-4.194v2.327h4.194v4.194h2.328v-4.194H634.1v-2.327Z" transform="translate(-252.83 -31.143)" fill="#00223d"/>
  <g id="Grupo_29070" data-name="Grupo 29070" transform="translate(285.932 16.921)">
    <g id="Grupo_29069" data-name="Grupo 29069" transform="translate(0)">
      <rect id="Rectángulo_26525" data-name="Rectángulo 26525" width="163.993" height="104.19" rx="2.658" fill="url(#linear-gradient)"/>
      <g id="Grupo_29068" data-name="Grupo 29068" transform="translate(14.805 12.035)">
        <rect id="Rectángulo_26526" data-name="Rectángulo 26526" width="27.579" height="1.67" rx="0.443" transform="translate(83.192)" fill="#00223d"/>
        <rect id="Rectángulo_26527" data-name="Rectángulo 26527" width="78.808" height="1.67" rx="0.443" fill="#00223d"/>
        <rect id="Rectángulo_26528" data-name="Rectángulo 26528" width="27.484" height="1.67" rx="0.443" transform="translate(106.899 8.717)" fill="#00223d"/>
        <rect id="Rectángulo_26529" data-name="Rectángulo 26529" width="24.257" height="1.67" rx="0.443" transform="translate(0 8.717)" fill="#00223d"/>
        <rect id="Rectángulo_26530" data-name="Rectángulo 26530" width="74.101" height="1.67" rx="0.443" transform="translate(28.851 8.717)" fill="#00223d"/>
        <rect id="Rectángulo_26531" data-name="Rectángulo 26531" width="46.617" height="1.67" rx="0.443" transform="translate(77.897 17.433)" fill="#00223d"/>
        <rect id="Rectángulo_26532" data-name="Rectángulo 26532" width="73.265" height="1.67" rx="0.443" transform="translate(0 17.433)" fill="#00223d"/>
        <rect id="Rectángulo_26533" data-name="Rectángulo 26533" width="34.76" height="1.67" rx="0.443" transform="translate(0 26.15)" fill="#00223d"/>
        <rect id="Rectángulo_26534" data-name="Rectángulo 26534" width="95.466" height="1.67" rx="0.443" transform="translate(38.917 26.15)" fill="#00223d"/>
        <rect id="Rectángulo_26535" data-name="Rectángulo 26535" width="113.429" height="1.67" rx="0.443" transform="translate(0 34.866)" fill="#00223d"/>
        <rect id="Rectángulo_26536" data-name="Rectángulo 26536" width="19.512" height="1.67" rx="0.443" transform="translate(0 43.583)" fill="#00223d"/>
        <rect id="Rectángulo_26537" data-name="Rectángulo 26537" width="74.556" height="1.67" rx="0.443" transform="translate(24.675 43.583)" fill="#00223d"/>
        <rect id="Rectángulo_26538" data-name="Rectángulo 26538" width="22.473" height="1.67" rx="0.443" transform="translate(104.697 43.583)" fill="#00223d"/>
        <rect id="Rectángulo_26539" data-name="Rectángulo 26539" width="76.834" height="1.67" rx="0.443" transform="translate(0 52.3)" fill="#00223d"/>
        <rect id="Rectángulo_26540" data-name="Rectángulo 26540" width="52.463" height="1.67" rx="0.443" transform="translate(81.921 52.3)" fill="#00223d"/>
        <rect id="Rectángulo_26541" data-name="Rectángulo 26541" width="12.338" height="1.67" rx="0.443" transform="translate(116.465 61.016)" fill="#00223d"/>
        <rect id="Rectángulo_26542" data-name="Rectángulo 26542" width="33.083" height="1.67" rx="0.443" transform="translate(0 61.016)" fill="#00223d"/>
        <rect id="Rectángulo_26543" data-name="Rectángulo 26543" width="73.512" height="1.67" rx="0.443" transform="translate(37.866 61.016)" fill="#00223d"/>
        <rect id="Rectángulo_26544" data-name="Rectángulo 26544" width="60.738" height="1.67" rx="0.443" transform="translate(73.645 69.733)" fill="#00223d"/>
        <rect id="Rectángulo_26545" data-name="Rectángulo 26545" width="69.09" height="1.67" rx="0.443" transform="translate(0 69.733)" fill="#00223d"/>
        <rect id="Rectángulo_26546" data-name="Rectángulo 26546" width="81.085" height="1.67" rx="0.443" transform="translate(14.805 78.449)" fill="#00223d"/>
        <rect id="Rectángulo_26547" data-name="Rectángulo 26547" width="9.49" height="1.67" rx="0.443" transform="translate(0 78.449)" fill="#00223d"/>
      </g>
    </g>
  </g>
  <rect id="Rectángulo_26548" data-name="Rectángulo 26548" width="457.799" height="7.21" rx="2.787" transform="translate(9.452 451.681)" fill="#b3b5c4"/>
  <rect id="Rectángulo_26549" data-name="Rectángulo 26549" width="172.91" height="37.039" rx="3.608" transform="translate(31.256 25.323)" fill="#1565c0"/>
  <g id="Grupo_29071" data-name="Grupo 29071" transform="translate(73.21 34.986)">
    <rect id="Rectángulo_26550" data-name="Rectángulo 26550" width="116.305" height="2.507" rx="0.794" fill="#e6eef3"/>
    <rect id="Rectángulo_26551" data-name="Rectángulo 26551" width="116.305" height="2.507" rx="0.794" transform="translate(0 7.604)" fill="#e6eef3"/>
    <rect id="Rectángulo_26552" data-name="Rectángulo 26552" width="90.046" height="2.507" rx="0.794" transform="translate(0 15.207)" fill="#e6eef3"/>
  </g>
  <circle id="Elipse_3367" data-name="Elipse 3367" cx="13.331" cy="13.331" r="13.331" transform="translate(33.16 43.843) rotate(-45)" fill="#e6eef3"/>
  <g id="Grupo_29072" data-name="Grupo 29072" transform="translate(45.894 35.766)">
    <path id="Trazado_68967" data-name="Trazado 68967" d="M379.277,131.683a4.031,4.031,0,1,0,3.16,3.158A4.033,4.033,0,0,0,379.277,131.683Zm1.436,7.981a4.588,4.588,0,0,1-4.463,0,6.115,6.115,0,0,0-3.884,5.7v.133a9.393,9.393,0,0,0,12.237,0v-.133A6.12,6.12,0,0,0,380.712,139.665Z" transform="translate(-372.365 -131.607)" fill="#12263f"/>
  </g>
  <g id="Grupo_29077" data-name="Grupo 29077" transform="translate(2.437 262.347)">
    <rect id="Rectángulo_26553" data-name="Rectángulo 26553" width="87.192" height="54.374" rx="2.294" fill="#cbd9e4"/>
    <g id="Grupo_29075" data-name="Grupo 29075" transform="translate(7.575 11.787)">
      <g id="Grupo_29073" data-name="Grupo 29073">
        <rect id="Rectángulo_26554" data-name="Rectángulo 26554" width="5.283" height="30.799" fill="#f6c343"/>
        <rect id="Rectángulo_26555" data-name="Rectángulo 26555" width="5.283" height="30.799" transform="translate(11.318)" fill="#f6c343"/>
        <rect id="Rectángulo_26556" data-name="Rectángulo 26556" width="5.283" height="30.799" transform="translate(22.636)" fill="#f6c343"/>
        <rect id="Rectángulo_26557" data-name="Rectángulo 26557" width="5.283" height="30.799" transform="translate(33.954)" fill="#f6c343"/>
        <rect id="Rectángulo_26558" data-name="Rectángulo 26558" width="5.283" height="30.799" transform="translate(45.272)" fill="#f6c343"/>
      </g>
      <g id="Grupo_29074" data-name="Grupo 29074">
        <rect id="Rectángulo_26559" data-name="Rectángulo 26559" width="5.283" height="7.692" fill="#f1f1f1"/>
        <rect id="Rectángulo_26560" data-name="Rectángulo 26560" width="5.283" height="17.95" transform="translate(11.318)" fill="#f1f1f1"/>
        <rect id="Rectángulo_26561" data-name="Rectángulo 26561" width="5.283" height="13.096" transform="translate(22.636)" fill="#f1f1f1"/>
        <rect id="Rectángulo_26562" data-name="Rectángulo 26562" width="5.283" height="22.219" transform="translate(33.954)" fill="#f1f1f1"/>
        <rect id="Rectángulo_26563" data-name="Rectángulo 26563" width="5.283" height="26.193" transform="translate(45.272)" fill="#f1f1f1"/>
      </g>
    </g>
    <g id="Grupo_29076" data-name="Grupo 29076" transform="translate(63.828 11.787)" style="mix-blend-mode: multiply;isolation: isolate">
      <rect id="Rectángulo_26564" data-name="Rectángulo 26564" width="16.014" height="2.569" fill="#dce8ef"/>
      <rect id="Rectángulo_26565" data-name="Rectángulo 26565" width="16.014" height="2.569" transform="translate(0 5.646)" fill="#dce8ef"/>
      <rect id="Rectángulo_26566" data-name="Rectángulo 26566" width="16.014" height="2.569" transform="translate(0 11.292)" fill="#dce8ef"/>
      <rect id="Rectángulo_26567" data-name="Rectángulo 26567" width="16.014" height="2.569" transform="translate(0 16.938)" fill="#dce8ef"/>
      <rect id="Rectángulo_26568" data-name="Rectángulo 26568" width="16.014" height="2.569" transform="translate(0 22.584)" fill="#dce8ef"/>
      <rect id="Rectángulo_26569" data-name="Rectángulo 26569" width="16.014" height="2.569" transform="translate(0 28.23)" fill="#dce8ef"/>
    </g>
  </g>
  <g id="Grupo_29082" data-name="Grupo 29082" transform="translate(350.432 135.898)">
    <rect id="Rectángulo_26570" data-name="Rectángulo 26570" width="87.193" height="54.374" rx="2.294" transform="translate(0)" fill="url(#linear-gradient)"/>
    <g id="Grupo_29078" data-name="Grupo 29078" transform="translate(9.867 5.173)" style="mix-blend-mode: multiply;isolation: isolate">
      <line id="Línea_260" data-name="Línea 260" y2="44.029" transform="translate(67.458)" fill="none" stroke="#dce8ef" stroke-miterlimit="10" stroke-width="0.5"/>
      <line id="Línea_261" data-name="Línea 261" y2="44.029" transform="translate(56.215)" fill="none" stroke="#dce8ef" stroke-miterlimit="10" stroke-width="0.5"/>
      <line id="Línea_262" data-name="Línea 262" y2="44.029" transform="translate(44.972)" fill="none" stroke="#dce8ef" stroke-miterlimit="10" stroke-width="0.5"/>
      <line id="Línea_263" data-name="Línea 263" y2="44.029" transform="translate(33.729)" fill="none" stroke="#dce8ef" stroke-miterlimit="10" stroke-width="0.5"/>
      <line id="Línea_264" data-name="Línea 264" y2="44.029" transform="translate(22.486)" fill="none" stroke="#dce8ef" stroke-miterlimit="10" stroke-width="0.5"/>
      <line id="Línea_265" data-name="Línea 265" y2="44.029" fill="none" stroke="#dce8ef" stroke-miterlimit="10" stroke-width="0.5"/>
      <line id="Línea_266" data-name="Línea 266" y2="44.029" transform="translate(11.243)" fill="none" stroke="#dce8ef" stroke-miterlimit="10" stroke-width="0.5"/>
    </g>
    <g id="Grupo_29081" data-name="Grupo 29081" transform="translate(7.626 5.877)">
      <g id="Grupo_29080" data-name="Grupo 29080">
        <path id="Trazado_68968" data-name="Trazado 68968" d="M615.456,247.5,626.7,236.612l11.243-2.825,11.243-11.13,11.243,4.481,11.243-5.676,11.243-6.159" transform="translate(-613.215 -213.062)" fill="none" stroke="#f6c343" stroke-linecap="round" stroke-miterlimit="10" stroke-width="1"/>
        <g id="Grupo_29079" data-name="Grupo 29079">
          <rect id="Rectángulo_26571" data-name="Rectángulo 26571" width="4.481" height="4.481" transform="translate(0 32.198)" fill="#002b45"/>
          <rect id="Rectángulo_26572" data-name="Rectángulo 26572" width="4.481" height="4.481" transform="translate(11.243 21.31)" fill="#00223d"/>
          <rect id="Rectángulo_26573" data-name="Rectángulo 26573" width="4.481" height="4.481" transform="translate(22.486 18.484)" fill="#00223d"/>
          <rect id="Rectángulo_26574" data-name="Rectángulo 26574" width="4.481" height="4.481" transform="translate(33.729 7.354)" fill="#00223d"/>
          <rect id="Rectángulo_26575" data-name="Rectángulo 26575" width="4.481" height="4.481" transform="translate(44.972 11.835)" fill="#00223d"/>
          <rect id="Rectángulo_26576" data-name="Rectángulo 26576" width="4.481" height="4.481" transform="translate(56.215 6.159)" fill="#00223d"/>
          <rect id="Rectángulo_26577" data-name="Rectángulo 26577" width="4.481" height="4.481" transform="translate(67.458)" fill="#00223d"/>
        </g>
      </g>
    </g>
  </g>
  <path id="Trazado_68969" data-name="Trazado 68969" d="M384.952,233.446h.481a1.317,1.317,0,1,0,0-2.633h-.48L386.939,227h-5.118a17.773,17.773,0,1,0,0,10.267h5.119Zm-20.145,13.822A15.139,15.139,0,1,1,379.049,227h-.068L377,230.813h-.564a11.7,11.7,0,1,0,0,2.633h.561l1.988,3.818h.067A15.164,15.164,0,0,1,364.807,247.268Zm4.524-16.455a4.714,4.714,0,1,0,0,2.633h4.447a9.068,9.068,0,1,1,0-2.633Z" transform="translate(-333.902 -71.564)" fill="#12263f"/>
  <path id="Trazado_68970" data-name="Trazado 68970" d="M642.62,324.818h12.318v-4.594H642.62Zm16.186-17.476c.092-1.1.149-2.2.149-3.32a39.3,39.3,0,0,0-8.562-24.547,2.069,2.069,0,0,0-3.229,0,39.3,39.3,0,0,0-8.56,24.547c0,1.119.057,2.225.149,3.32-6.14,4.134-10.188,14.365-5.7,22.263a.821.821,0,0,0,1.52-.2c.691-2.972,2.553-8.443,7.075-10.564h14.258c4.523,2.121,6.385,7.592,7.076,10.564a.821.821,0,0,0,1.52.2C668.995,321.707,664.947,311.475,658.807,307.342Zm-10.027-9.976a3.63,3.63,0,1,1,3.631-3.629A3.629,3.629,0,0,1,648.78,297.366Z" transform="translate(-250.554 -52.688)" fill="#12263f"/>
  <g id="Grupo_29083" data-name="Grupo 29083" transform="translate(35.174 72.55)">
    <path id="Trazado_68971" data-name="Trazado 68971" d="M366.8,165.487a2.72,2.72,0,1,0-1.923-.8,2.743,2.743,0,0,0,1.923.8" transform="translate(-364.077 -160.047)" fill="#cbd9e4"/>
    <path id="Trazado_68972" data-name="Trazado 68972" d="M400.324,165.487h.013a2.72,2.72,0,1,0,0-5.44h-.013a2.72,2.72,0,0,0,0,5.44Zm-18.914,0h.013a2.72,2.72,0,1,0,0-5.44h-.013a2.72,2.72,0,0,0,0,5.44Z" transform="translate(-359.79 -160.047)" fill="#cbd9e4"/>
    <path id="Trazado_68973" data-name="Trazado 68973" d="M410.667,165.487a2.718,2.718,0,1,0-1.923-.8,2.739,2.739,0,0,0,1.923.8" transform="translate(-351.206 -160.047)" fill="#cbd9e4"/>
  </g>
  <g id="Grupo_29084" data-name="Grupo 29084" transform="translate(367.368 0)">
    <path id="Trazado_68974" data-name="Trazado 68974" d="M623.641,109.392a2.719,2.719,0,1,0-1.923-.8,2.734,2.734,0,0,0,1.923.8" transform="translate(-620.921 -103.953)" fill="#cbd9e4"/>
    <path id="Trazado_68975" data-name="Trazado 68975" d="M657.168,109.392h.014a2.719,2.719,0,1,0,0-5.439h-.014a2.719,2.719,0,1,0,0,5.439Zm-18.914,0h.014a2.719,2.719,0,1,0,0-5.439h-.014a2.719,2.719,0,0,0,0,5.439Z" transform="translate(-616.634 -103.953)" fill="#cbd9e4"/>
    <path id="Trazado_68976" data-name="Trazado 68976" d="M667.513,109.392a2.72,2.72,0,1,0-1.923-.8,2.739,2.739,0,0,0,1.923.8" transform="translate(-608.05 -103.953)" fill="#cbd9e4"/>
  </g>
  <g id="Grupo_29085" data-name="Grupo 29085" transform="translate(36.508 410.226)">
    <path id="Trazado_68977" data-name="Trazado 68977" d="M377.082,433.1H365.108V421.13h11.974Zm-9.934-2.039h7.895V423.17h-7.895Z" transform="translate(-365.108 -421.13)" fill="#dfe1f7"/>
  </g>
  <g id="Grupo_29086" data-name="Grupo 29086" transform="translate(433.394 249.594)">
    <path id="Trazado_68978" data-name="Trazado 68978" d="M683.945,308.907H671.971V296.933h11.974Zm-9.934-2.041H681.9v-7.893h-7.893Z" transform="translate(-671.971 -296.933)" fill="#cbd9e4"/>
  </g>
  <g id="Grupo_29087" data-name="Grupo 29087" transform="translate(433.394 269.306)">
    <path id="Trazado_68979" data-name="Trazado 68979" d="M683.945,324.148H671.971V312.174h11.974Zm-9.934-2.039H681.9v-7.893h-7.893Z" transform="translate(-671.971 -312.174)" fill="#cbd9e4"/>
  </g>
  <path id="Trazado_68980" data-name="Trazado 68980" d="M387.756,376.674v-7.131H383.8v7.131h-7.132v3.958H383.8v7.132h3.958v-7.132h7.131v-3.958Z" transform="translate(-325.209 -26.038)" fill="#002b45"/>
  <path id="Trazado_68981" data-name="Trazado 68981" d="M639.6,440.634a2.344,2.344,0,1,0,1.657.686A2.36,2.36,0,0,0,639.6,440.634Zm12.092,0h-.012a2.344,2.344,0,0,0,0,4.688h.012a2.344,2.344,0,0,0,0-4.688ZM639.6,428.661a2.345,2.345,0,1,0,1.657.687A2.366,2.366,0,0,0,639.6,428.661Zm12.08,4.688h.012a2.344,2.344,0,0,0,0-4.688h-.012a2.344,2.344,0,0,0,0,4.688Z" transform="translate(-248.762 -8.695)" fill="#f9fbfc"/>
  <path id="Trazado_68982" data-name="Trazado 68982" d="M350.608,298.017a2.72,2.72,0,1,0,1.923.8A2.742,2.742,0,0,0,350.608,298.017Zm14.031,0h-.013a2.72,2.72,0,1,0,0,5.44h.013a2.72,2.72,0,1,0,0-5.44Zm-14.031-13.891a2.718,2.718,0,1,0,1.923.8A2.74,2.74,0,0,0,350.608,284.126Zm14.018,5.439h.013a2.719,2.719,0,1,0,0-5.439h-.013a2.719,2.719,0,1,0,0,5.439Z" transform="translate(-333.652 -51.096)" fill="#cbd9e4"/>
  <path id="Trazado_68983" data-name="Trazado 68983" d="M662.548,272.1H651.31v1.815h11.238Zm-7.293,11.335,1.283,1.283,7.945-7.946-1.283-1.283ZM671.38,272.1v1.815h11.238V272.1Zm-16.126-9.519,7.945,7.945,1.283-1.283-7.945-7.945Zm23.419,0L677.39,261.3l-7.945,7.945,1.283,1.283Zm-9.228,14.191,7.945,7.946,1.283-1.283-7.945-7.946Zm-3.388-8.182h1.815V257.354h-1.815Zm0,20.07h1.815V277.424h-1.815Z" transform="translate(-244.638 -58.95)" fill="#cbd9e4"/>
  <path id="Trazado_68984" data-name="Trazado 68984" d="M396.246,179.931H356.288a6.024,6.024,0,0,0-6.024,6.024V208.3" transform="translate(-332.955 -81.664)" fill="none" stroke="#cbd9e4" stroke-miterlimit="10" stroke-width="2"/>
  <path id="Trazado_68985" data-name="Trazado 68985" d="M660,290.711h32.145a4.273,4.273,0,0,1,4.273,4.272v56.43a4.273,4.273,0,0,1-4.273,4.272H680.178" transform="translate(-242.089 -49.165)" fill="none" stroke="#cbd9e4" stroke-miterlimit="10" stroke-width="2"/>
  <path id="Trazado_68986" data-name="Trazado 68986" d="M377.27,383.349H354.856a5.784,5.784,0,0,1-5.784-5.784V353.538" transform="translate(-333.305 -30.733)" fill="none" stroke="#cbd9e4" stroke-miterlimit="10" stroke-width="2"/>
  <path id="Trazado_68987" data-name="Trazado 68987" d="M413.173,123.136V111.7a5.642,5.642,0,0,1,5.643-5.642h249.05" transform="translate(-314.5 -103.336)" fill="none" stroke="#cbd9e4" stroke-miterlimit="10" stroke-width="2"/>
  <line id="Línea_267" data-name="Línea 267" y2="54.904" transform="translate(60.567 367.296)" fill="none" stroke="#dfe1f7" stroke-miterlimit="10" stroke-width="2"/>
</svg>
