<svg id="Grupo_892554" data-name="Grupo 892554" xmlns="http://www.w3.org/2000/svg" xmlns:xlink="http://www.w3.org/1999/xlink" width="89.188" height="89.143" viewBox="0 0 89.188 89.143">
  <defs>
    <clipPath id="clip-path">
      <rect id="Rectángulo_303193" data-name="Rectángulo 303193" width="89.188" height="89.143" fill="#12263f"/>
    </clipPath>
  </defs>
  <g id="Grupo_892553" data-name="Grupo 892553" clip-path="url(#clip-path)">
    <path id="Trazado_612112" data-name="Trazado 612112" d="M0,117.049c0-2.235-.007-4.47.005-6.706A13.4,13.4,0,0,1,12.831,97.009c3.738-.184,7.471-.454,11.205-.7a1.029,1.029,0,0,0,.67-.3c1.338-1.637,2.649-3.3,3.961-4.941-2.309-2.412-2.515-4.17-.812-6.711a4.6,4.6,0,0,1,.188-6.169c-6.529-6.075-9.578-13.537-8.474-22.464a24.38,24.38,0,0,1,8.866-16.056,25.276,25.276,0,0,1,33.971,1.469c8.784,8.476,11.444,25.793-1.234,37.078a4.559,4.559,0,0,1,.184,6.1c1.582,2.728,1.441,4.327-.6,6.534a4.267,4.267,0,0,0,.344.446c1.515,1.523,3.024,3.052,4.565,4.548a1.7,1.7,0,0,0,.967.455c3.442.261,6.887.478,10.331.719a13.389,13.389,0,0,1,12.053,11.2,2.351,2.351,0,0,0,.172.469v8.361H86.227c0-2.147.008-4.294-.009-6.441-.044-5.466-3.574-9.763-8.967-10.5-3.64-.5-7.338-.579-11.013-.811a1.593,1.593,0,0,0-.917.381q-5.2,3.871-10.374,7.771c-1.294.971-1.815.953-2.919-.173-.4-.408-.736-.879-1.154-1.385a18.688,18.688,0,0,1-1.074,1.578,1.071,1.071,0,0,0-.016,1.466c.986,1.57,1.859,3.213,2.891,4.751a4.644,4.644,0,0,1,.8,3.364H50.518a8.393,8.393,0,0,0-.543-1.939c-1.09-1.947-2.25-3.856-3.434-5.748a1.99,1.99,0,0,1,.043-2.482c.706-.975,1.343-2,1.892-2.83l-3.938-3.958-3.876,3.885c.635.955,1.287,1.984,1.991,2.978a1.9,1.9,0,0,1,.038,2.33c-1.192,1.921-2.37,3.853-3.475,5.825a8.384,8.384,0,0,0-.543,1.939H35.711a4.658,4.658,0,0,1,.8-3.365c1.064-1.586,2-3.257,2.96-4.912a1.154,1.154,0,0,0,.125-.921,18.455,18.455,0,0,0-1.211-1.837c-.454.472-.829.876-1.218,1.265-1.121,1.12-1.7,1.156-2.9.135-2.385-2.031-4.842-3.988-7.108-6.145a5.937,5.937,0,0,0-5.3-1.878c-3.327.441-6.711.426-10.054.765a10.083,10.083,0,0,0-8.652,8.724c-.235,2.708-.139,5.445-.191,8.169ZM50.536,76.877c2.46,0,4.807.007,7.153-.012a1.083,1.083,0,0,0,.612-.274c6.792-5.685,9.71-12.932,8.137-21.658a22.235,22.235,0,0,0-43.8,7.643,22.437,22.437,0,0,0,6.683,12.7A4.555,4.555,0,0,0,33.458,76.9a10.227,10.227,0,0,1,1.652-.014H38.6c.026-.28.055-.448.055-.617,0-2.816.02-5.632-.02-8.448a1.536,1.536,0,0,0-.5-1c-1.466-1.277-2.979-2.5-4.468-3.75a9.986,9.986,0,0,1-3.855-8.959,7.466,7.466,0,0,1,10.464-6.244,1.745,1.745,0,0,0,1.26,0,7.3,7.3,0,0,1,6.147.047,1.349,1.349,0,0,0,1.288-.028c4.767-2.244,9.918,1.252,10.408,6.177A9.972,9.972,0,0,1,55.5,63.094c-1.469,1.229-2.952,2.442-4.407,3.687a1.367,1.367,0,0,0-.53.816c-.038,3.043-.024,6.087-.024,9.281M44.6,55.891A8.188,8.188,0,0,1,42,60.231a1.466,1.466,0,0,1-2.186.031,6.932,6.932,0,0,1-2.56-6.5,24.26,24.26,0,0,1,1-3.382c-2.457-.84-5.339,1.276-5.5,4.2a6.862,6.862,0,0,0,2.372,5.743c1.8,1.6,3.672,3.118,5.536,4.644a2.462,2.462,0,0,1,.983,2.1c-.039,2.932-.015,5.864-.015,8.8v.945h5.933c0-3.229.04-6.389-.022-9.548a2.815,2.815,0,0,1,1.173-2.453c1.809-1.455,3.6-2.933,5.34-4.471A6.883,6.883,0,0,0,56.44,54.6a4.493,4.493,0,0,0-5.661-4.183c.106.21.2.417.312.615a7.292,7.292,0,0,1-1.5,9.044,1.6,1.6,0,0,1-2.581-.008A8.225,8.225,0,0,1,44.6,55.891m9.169,48.685,9.22-6.916-5.434-5.414L47.195,98l6.574,6.574m-18.34-.121,6.522-6.482L31.593,92.222l-4.24,5.313,8.075,6.921m9.163-18.6q-6.4,0-12.8,0a3.49,3.49,0,0,0-.866.049,1.37,1.37,0,0,0-1.141,1.352,1.312,1.312,0,0,0,1.03,1.421,3.892,3.892,0,0,0,1.028.127q12.76.01,25.519,0a3.526,3.526,0,0,0,1.111-.151,1.362,1.362,0,0,0,.577-2.25,2.38,2.38,0,0,0-1.478-.526c-4.325-.04-8.651-.023-12.977-.023m.047-5.936H31.924a6.035,6.035,0,0,0-.87.023,1.426,1.426,0,0,0-.123,2.817,5.257,5.257,0,0,0,1.036.087q12.627.007,25.254,0a5.624,5.624,0,0,0,1.036-.086,1.318,1.318,0,0,0,1.153-1.409,1.394,1.394,0,0,0-1.275-1.408,6.874,6.874,0,0,0-.87-.023H44.638M52.1,91.833H37.3c.061.091.08.151.12.174a45.728,45.728,0,0,1,4.673,2.66,3.76,3.76,0,0,0,5.013,0,51.133,51.133,0,0,1,5-2.829M40.849,52.364a3.932,3.932,0,0,0,.047,4.468,3.811,3.811,0,0,0-.047-4.468m7.477.034a3.7,3.7,0,0,0,.019,4.445,3.969,3.969,0,0,0-.019-4.445m-3.729.922,1.23-3.019H43.358L44.6,53.321" transform="translate(0 -27.907)" fill="#12263f"/>
    <path id="Trazado_612115" data-name="Trazado 612115" d="M221.576,430.551a8.383,8.383,0,0,1,.543-1.939c1.1-1.972,2.283-3.9,3.475-5.825a1.9,1.9,0,0,0-.038-2.33c-.7-.993-1.356-2.023-1.991-2.978l3.876-3.885,3.937,3.958c-.55.828-1.186,1.854-1.892,2.83a1.99,1.99,0,0,0-.043,2.482c1.184,1.892,2.344,3.8,3.434,5.748a8.377,8.377,0,0,1,.543,1.939Z" transform="translate(-182.904 -341.408)" fill="#12263f"/>
    <path id="Trazado_612116" data-name="Trazado 612116" d="M99.262,280.528l-1.8-1.847,2.876-2.848,1.775,1.849-2.849,2.845" transform="translate(-80.449 -227.691)" fill="#12263f"/>
    <path id="Trazado_612117" data-name="Trazado 612117" d="M391.417,278.848l-1.85,1.795-2.89-2.879,1.889-1.795,2.851,2.879" transform="translate(-319.189 -227.803)" fill="#12263f"/>
    <path id="Trazado_612118" data-name="Trazado 612118" d="M99.675,59.179l-2.861-2.854,1.958-1.852,2.862,2.873-1.959,1.833" transform="translate(-79.917 -44.966)" fill="#12263f"/>
    <path id="Trazado_612119" data-name="Trazado 612119" d="M389.382,54.275l1.9,1.871-2.9,2.869-1.931-1.858,2.932-2.881" transform="translate(-319.002 -44.802)" fill="#12263f"/>
    <rect id="Rectángulo_303190" data-name="Rectángulo 303190" width="2.935" height="2.88" transform="translate(43.128 0)" fill="#12263f"/>
    <rect id="Rectángulo_303191" data-name="Rectángulo 303191" width="2.894" height="2.889" transform="translate(11.91 29.75)" fill="#12263f"/>
    <rect id="Rectángulo_303192" data-name="Rectángulo 303192" width="2.917" height="2.883" transform="translate(74.358 29.724)" fill="#12263f"/>
    <path id="Trazado_612120" data-name="Trazado 612120" d="M156.27,90.985c0-3.193-.014-6.237.024-9.281a1.368,1.368,0,0,1,.53-.816c1.455-1.245,2.938-2.458,4.407-3.687a9.973,9.973,0,0,0,3.879-9.032c-.49-4.925-5.641-8.421-10.408-6.177a1.349,1.349,0,0,1-1.288.028,7.3,7.3,0,0,0-6.147-.047,1.744,1.744,0,0,1-1.26,0,7.466,7.466,0,0,0-10.464,6.244,9.986,9.986,0,0,0,3.855,8.959c1.488,1.252,3,2.474,4.467,3.75a1.534,1.534,0,0,1,.5,1c.04,2.815.023,5.632.02,8.448,0,.169-.029.337-.055.617h-3.488a10.229,10.229,0,0,0-1.652.014,4.555,4.555,0,0,1-4.14-1.625,22.306,22.306,0,0,1,10.637-37.989,22.2,22.2,0,0,1,26.483,17.649c1.573,8.726-1.345,15.973-8.137,21.658a1.082,1.082,0,0,1-.612.274c-2.346.019-4.693.012-7.153.012" transform="translate(-105.734 -42.015)" fill="#fffae7"/>
    <path id="Trazado_612121" data-name="Trazado 612121" d="M199.442,133.421a8.226,8.226,0,0,0,2.413,4.181,1.6,1.6,0,0,0,2.58.008,7.293,7.293,0,0,0,1.5-9.044c-.111-.2-.206-.405-.312-.615a4.493,4.493,0,0,1,5.661,4.183,6.882,6.882,0,0,1-2.386,5.738c-1.738,1.538-3.532,3.016-5.34,4.471a2.815,2.815,0,0,0-1.173,2.453c.062,3.159.022,6.32.022,9.548h-5.933V153.4c0-2.932-.025-5.865.015-8.8a2.462,2.462,0,0,0-.983-2.1c-1.864-1.526-3.733-3.048-5.536-4.644a6.862,6.862,0,0,1-2.372-5.743c.158-2.924,3.04-5.041,5.5-4.2a24.278,24.278,0,0,0-1,3.382,6.932,6.932,0,0,0,2.56,6.5,1.466,1.466,0,0,0,2.186-.031,8.188,8.188,0,0,0,2.6-4.341" transform="translate(-154.843 -105.437)" fill="#fffae7"/>
    <path id="Trazado_612122" data-name="Trazado 612122" d="M276.977,380.969l-6.574-6.574,10.359-5.756,5.434,5.413-9.22,6.916" transform="translate(-223.209 -304.299)" fill="#f6f6f6"/>
    <path id="Trazado_612123" data-name="Trazado 612123" d="M164.794,380.732l-8.075-6.921,4.24-5.313,10.357,5.752-6.522,6.482" transform="translate(-129.366 -304.183)" fill="#f6f6f6"/>
    <path id="Trazado_612124" data-name="Trazado 612124" d="M185.438,332.013c4.326,0,8.652-.017,12.977.023a2.379,2.379,0,0,1,1.478.526,1.362,1.362,0,0,1-.577,2.25,3.531,3.531,0,0,1-1.111.151q-12.759.012-25.519,0a3.882,3.882,0,0,1-1.028-.127,1.312,1.312,0,0,1-1.03-1.421,1.371,1.371,0,0,1,1.141-1.352,3.494,3.494,0,0,1,.866-.049q6.4,0,12.8,0" transform="translate(-140.847 -274.063)" fill="#fb8c00"/>
    <path id="Trazado_612125" data-name="Trazado 612125" d="M185.459,298h12.627a6.877,6.877,0,0,1,.87.023,1.394,1.394,0,0,1,1.275,1.408,1.318,1.318,0,0,1-1.153,1.409,5.621,5.621,0,0,1-1.036.086q-12.627.007-25.254,0a5.257,5.257,0,0,1-1.036-.087,1.426,1.426,0,0,1,.124-2.817,6.033,6.033,0,0,1,.869-.023h12.714" transform="translate(-140.822 -245.988)" fill="#b2ebf2"/>
    <path id="Trazado_612126" data-name="Trazado 612126" d="M228.516,366.27a51.135,51.135,0,0,0-5,2.829,3.759,3.759,0,0,1-5.013,0,45.758,45.758,0,0,0-4.673-2.66c-.04-.022-.058-.082-.12-.174Z" transform="translate(-176.412 -302.344)" fill="#e8e8e8"/>
    <path id="Trazado_612127" data-name="Trazado 612127" d="M230.881,140.132a3.81,3.81,0,0,1,.047,4.468,3.932,3.932,0,0,1-.047-4.468" transform="translate(-190.032 -115.674)" fill="#fffae7"/>
    <path id="Trazado_612128" data-name="Trazado 612128" d="M273.421,140.329a3.97,3.97,0,0,1,.019,4.445,3.7,3.7,0,0,1-.019-4.445" transform="translate(-225.095 -115.837)" fill="#fffae7"/>
    <path id="Trazado_612129" data-name="Trazado 612129" d="M249.662,131.335l-1.238-3.019h2.469l-1.23,3.019" transform="translate(-205.066 -105.921)" fill="#12263f"/>
  </g>
</svg>
