<svg xmlns="http://www.w3.org/2000/svg" width="134.028" height="137.062" viewBox="0 0 134.028 137.062">
  <g id="Grupo_892577" data-name="Grupo 892577" transform="translate(37.572 43.498)">
    <rect id="Rectángulo_49533" data-name="Rectángulo 49533" width="89.789" height="83.368" transform="translate(6.667 10.195)" fill="#ffde96"/>
    <g id="Q4GkDX" transform="translate(1218.284 -544.691)">
      <g id="Grupo_892601" data-name="Grupo 892601" transform="translate(-1255.856 501.193)">
        <path id="Trazado_612224" data-name="Trazado 612224" d="M-1249.739,501.193h108.231c.282.119.558.259.848.355a7.4,7.4,0,0,1,5.255,7.156q.022,40.168,0,80.336a7.241,7.241,0,0,1-5.487,7.185,15.166,15.166,0,0,1-3.835.367c-10.586.02-21.172,0-31.757,0-.488,0-.976.041-1.515.066,0,3.2.033,6.253-.023,9.307a1.463,1.463,0,0,0,.934,1.513,7.328,7.328,0,0,1,4.045,6.675c.018.776,0,1.552,0,2.492h4.981v4.944h-55.119v-5h4.871a3.352,3.352,0,0,0,.09-.4,6.8,6.8,0,0,0,.009-.705c-.239-3.718,1.081-6.575,4.521-8.3a.95.95,0,0,0,.431-.7c.028-3.249.019-6.5.019-9.9h-1.592c-10.86,0-21.721-.019-32.581.013-2.831.008-5.28-.75-6.971-3.132a21.827,21.827,0,0,1-1.475-2.866V507.311a29.179,29.179,0,0,1,1.47-3.008C-1253.313,502.6-1251.558,501.828-1249.739,501.193Zm-1.073,72.673h110.306c.025-.372.067-.715.067-1.058q.005-31.525,0-63.049c0-2.732-.781-3.521-3.482-3.521-6.274,0-12.547.017-18.821.017q-40.111-.006-80.223-.014c-1.881,0-3.764,0-5.641.1a2.172,2.172,0,0,0-2.119,2.106,11.969,11.969,0,0,0-.067,1.407q-.015,30.466-.023,60.932C-1250.812,571.763-1250.812,572.741-1250.812,573.866Zm0,5.229V580.3c0,2.587,0,5.175,0,7.762.006,2.674.82,3.473,3.531,3.474q12.054,0,24.109.006,39.75,0,79.5,0c2.279,0,3.208-.918,3.229-3.2.025-2.783.01-5.567,0-8.35a7.6,7.6,0,0,0-.105-.9Zm67.646,17.669h-24.87v9.758h24.87Zm5.085,19.811c0-.691-.014-1.268,0-1.845.05-1.839-.831-3.063-3.087-3.024-5.678.1-11.36.023-17.04.021-4.113,0-8.227.02-12.339-.012a2.2,2.2,0,0,0-2.387,1.51,16.856,16.856,0,0,0-.269,3.35Z" transform="translate(1255.856 -501.193)" fill="#12263f"/>
        <path id="Trazado_612225" data-name="Trazado 612225" d="M-1101.522,610.122h29.135V587.638h5c.02.408.055.787.055,1.166q0,11.47-.009,22.939c0,2.649-.781,3.464-3.407,3.466q-20.88.014-41.76,0a20.908,20.908,0,0,1-2.695-.04,2.436,2.436,0,0,1-2.151-3.407c1.6-4.2,3.29-8.368,4.994-12.528a4.929,4.929,0,0,1,1.148-1.471q15.709-15.734,31.437-31.448c1.8-1.8,2.985-1.794,4.795.01q3.249,3.239,6.486,6.49c1.577,1.594,1.579,2.866-.012,4.458q-15.838,15.854-31.693,31.692C-1100.555,609.324-1100.96,609.635-1101.522,610.122Zm-1.015-6.2,21.3-21.3-3.607-3.76-21.333,21.333Zm25.244-32.641-3.664,3.668,3.64,3.683,3.745-3.715Zm-29.762,35.477-2.061-2-1.3,3.343Z" transform="translate(1150.155 -549.936)" fill="#12263f"/>
        <path id="Trazado_612226" data-name="Trazado 612226" d="M-883.49,647.628q0-7.64,0-15.28c0-2.559.883-3.43,3.466-3.429q7.992,0,15.985.011c2.3,0,3.232.914,3.232,3.173,0,10.382,0,20.764-.043,31.146a4.148,4.148,0,0,1-.672,2.391,2.9,2.9,0,0,1-2.035.887c-5.719.069-11.439.052-17.159.031-1.8-.007-2.752-1.078-2.758-3.063-.015-5.289-.005-10.578-.005-15.867Zm17.577-3.568h-12.4v17.4h12.4Zm-12.418-5.2h12.418v-4.785h-12.418Z" transform="translate(971.274 -598.809)" fill="#12263f"/>
        <path id="Trazado_612227" data-name="Trazado 612227" d="M-872.219,558.735c-2.663,0-5.327.009-7.99,0-2.288-.009-3.255-.993-3.264-3.309q-.016-4.289-.011-8.578c0-2.249.964-3.247,3.2-3.251q8.167-.017,16.333.021c2.23.011,3.111.912,3.127,3.152q.032,4.406,0,8.813c-.02,2.193-.986,3.14-3.168,3.151C-866.735,558.746-869.477,558.735-872.219,558.735Zm-6.073-10.036v4.859h12.356V548.7Z" transform="translate(971.27 -533.594)" fill="#12263f"/>
        <path id="Trazado_612228" data-name="Trazado 612228" d="M-1095.026,586.136v5.041h-17.493v17.538h-5.051c-.021-.442-.055-.825-.055-1.208q-.016-8.877-.022-17.754c0-2.779.864-3.63,3.67-3.629q8.818,0,17.636.011Z" transform="translate(1150.23 -566.103)" fill="#12263f"/>
        <path id="Trazado_612229" data-name="Trazado 612229" d="M-1208.152,621.516h-4.907v-35.1h4.907Z" transform="translate(1223.148 -566.326)" fill="#12263f"/>
        <path id="Trazado_612230" data-name="Trazado 612230" d="M-1170.635,548.9v-4.905h12.513V548.9Z" transform="translate(1190.725 -533.904)" fill="#12263f"/>
        <path id="Trazado_612231" data-name="Trazado 612231" d="M-1095.791,543.95h9.941v4.914h-9.941Z" transform="translate(1133.525 -533.87)" fill="#12263f"/>
        <path id="Trazado_612232" data-name="Trazado 612232" d="M-1208.167,764.447h-4.884V757.02h4.884Z" transform="translate(1223.142 -696.71)" fill="#12263f"/>
        <path id="Trazado_612233" data-name="Trazado 612233" d="M-1208.146,544.007v4.878h-4.932v-4.878Z" transform="translate(1223.163 -533.914)" fill="#12263f"/>
      </g>
    </g>
  </g>
</svg>
