<svg xmlns="http://www.w3.org/2000/svg" xmlns:xlink="http://www.w3.org/1999/xlink" width="438.482" height="298.424" viewBox="0 0 438.482 298.424">
  <defs>
    <clipPath id="clip-path">
      <rect id="Rectángulo_58051" data-name="Rectángulo 58051" width="393.118" height="298.425" fill="none"/>
    </clipPath>
    <clipPath id="clip-path-2">
      <rect id="Rectángulo_58011" data-name="Rectángulo 58011" width="393.118" height="388.136" fill="none"/>
    </clipPath>
    <clipPath id="clip-path-4">
      <rect id="Rectángulo_58023" data-name="Rectángulo 58023" width="5.159" height="5.159" fill="none"/>
    </clipPath>
    <linearGradient id="linear-gradient" x1="0.5" x2="0.5" y2="1" gradientUnits="objectBoundingBox">
      <stop offset="0" stop-color="#4adbd1"/>
      <stop offset="1" stop-color="#5573c6"/>
    </linearGradient>
    <clipPath id="clip-path-6">
      <rect id="Rectángulo_59564" data-name="Rectángulo 59564" width="39.008" height="32.054" fill="#f4a338"/>
    </clipPath>
  </defs>
  <g id="Grupo_897393" data-name="Grupo 897393" transform="translate(-942.016 -5644.626)">
    <rect id="Rectángulo_303222" data-name="Rectángulo 303222" width="392.984" height="249.159" transform="translate(942.016 5653.456)" fill="#fff7ee"/>
    <g id="Grupo_888580" data-name="Grupo 888580" transform="translate(-32.75 4149.238)">
      <g id="Grupo_181180" data-name="Grupo 181180" transform="translate(1020.13 1495.388)">
        <g id="Grupo_180166" data-name="Grupo 180166" clip-path="url(#clip-path)">
          <g id="Grupo_180096" data-name="Grupo 180096">
            <g id="Grupo_180095" data-name="Grupo 180095" clip-path="url(#clip-path-2)">
              <path id="Trazado_231172" data-name="Trazado 231172" d="M42.4,97.684l-3.931.006a3.025,3.025,0,0,0-1.184.128,1.853,1.853,0,0,0-.936.83,1.967,1.967,0,0,0-.22.628,3.987,3.987,0,0,0-.029.694c0,.237,0,.478,0,.722a3.362,3.362,0,0,1-.048.747,1.976,1.976,0,0,1-.877,1.262,1.835,1.835,0,0,1-.771.272c-.281.025-.552.008-.834.014H30.046l-7.992,0H19.309a2.193,2.193,0,0,1-.57-.055,1.893,1.893,0,0,1-.98-.6,2.007,2.007,0,0,1-.478-1.064,4.46,4.46,0,0,1-.021-.589v-.587a3.134,3.134,0,0,0-.117-1.156,1.891,1.891,0,0,0-.7-.917,1.832,1.832,0,0,0-1.131-.312H6.239a6.254,6.254,0,0,0-2.645.5,6.184,6.184,0,0,0-2.2,1.642,6.047,6.047,0,0,0-1.246,2.506c-.061.23-.079.47-.12.7-.011.2-.021.4-.028.6v39.261c0,.525,0,1.037,0,1.565,0,1.586,0,3.2,0,4.814v51.02a6.286,6.286,0,0,0,.243,1.9,6.009,6.009,0,0,0,2.335,3.214,6.247,6.247,0,0,0,3.85,1.055l4.092,0,8.1,0,15.841.011,7.718,0c1.273-.007,2.549.02,3.8-.015a5.983,5.983,0,0,0,3.407-1.316,6.406,6.406,0,0,0,1.229-1.358,5.953,5.953,0,0,0,.754-1.656,6.279,6.279,0,0,0,.226-1.8q0-.917,0-1.831,0-3.651,0-7.219c.011-19.017.02-36.145.028-50.529s.026-26.024.034-34.07q0-1.509,0-2.847a6.209,6.209,0,0,0-.442-2.433,6.016,6.016,0,0,0-1.139-1.792,6.058,6.058,0,0,0-3.627-1.911,4.725,4.725,0,0,0-.612-.055c-.138-.009-.208-.016-.208-.016s-.279.006-.823.009l-2.418.007" transform="translate(0 -2.84)" fill="#fafafa"/>
              <path id="Trazado_231173" data-name="Trazado 231173" d="M394.075,97.684l-3.931.006a3.026,3.026,0,0,0-1.184.128,1.854,1.854,0,0,0-.936.83,1.969,1.969,0,0,0-.22.628,4.1,4.1,0,0,0-.029.694c0,.237,0,.478,0,.722a3.364,3.364,0,0,1-.048.747,1.975,1.975,0,0,1-.877,1.262,1.835,1.835,0,0,1-.771.272c-.281.025-.553.008-.834.014h-3.523l-7.992,0h-2.746a2.194,2.194,0,0,1-.57-.055,1.893,1.893,0,0,1-.98-.6,2.007,2.007,0,0,1-.478-1.064,4.47,4.47,0,0,1-.021-.589v-.587a3.136,3.136,0,0,0-.117-1.156,1.892,1.892,0,0,0-.7-.917,1.832,1.832,0,0,0-1.131-.312h-9.069a6.254,6.254,0,0,0-2.645.5,6.185,6.185,0,0,0-2.2,1.642,6.047,6.047,0,0,0-1.246,2.506c-.061.23-.079.47-.12.7-.011.2-.021.4-.028.6v39.261c0,.525,0,1.037,0,1.565,0,1.586,0,3.2,0,4.814v51.02a6.253,6.253,0,0,0,.243,1.9,6.013,6.013,0,0,0,2.335,3.214,6.247,6.247,0,0,0,3.85,1.055l4.093,0,8.1,0,15.841.011,7.719,0c1.272-.007,2.548.02,3.8-.015a5.983,5.983,0,0,0,3.407-1.316,6.407,6.407,0,0,0,1.229-1.358,5.953,5.953,0,0,0,.754-1.656,6.279,6.279,0,0,0,.227-1.8v-1.831q0-3.651,0-7.219c.011-19.017.02-36.145.028-50.529s.026-26.024.034-34.07q0-1.509,0-2.847a6.209,6.209,0,0,0-.442-2.433,6.018,6.018,0,0,0-1.139-1.792,6.058,6.058,0,0,0-3.627-1.911,4.711,4.711,0,0,0-.612-.055c-.138-.009-.208-.016-.208-.016s-.279.006-.823.009l-2.418.007" transform="translate(-10.226 -2.84)" fill="#fafafa"/>
            </g>
          </g>
          <g id="Grupo_180152" data-name="Grupo 180152">
            <g id="Grupo_180151" data-name="Grupo 180151" clip-path="url(#clip-path-2)">
              <path id="Trazado_231174" data-name="Trazado 231174" d="M96.565,55.67l-6.271.01a4.805,4.805,0,0,0-1.887.2,2.954,2.954,0,0,0-1.493,1.323,3.186,3.186,0,0,0-.351,1,6.5,6.5,0,0,0-.047,1.107c0,.379,0,.763,0,1.152a5.4,5.4,0,0,1-.076,1.191,3.16,3.16,0,0,1-1.4,2.014,2.952,2.952,0,0,1-1.23.434c-.448.04-.881.012-1.329.02l-5.621,0-12.747,0H59.734a3.461,3.461,0,0,1-.91-.088,3.024,3.024,0,0,1-1.562-.963,3.206,3.206,0,0,1-.762-1.7,6.959,6.959,0,0,1-.033-.94v-.938a5.012,5.012,0,0,0-.189-1.845A3.014,3.014,0,0,0,55.158,56.2a2.924,2.924,0,0,0-1.8-.5H38.886a9.972,9.972,0,0,0-4.219.8,9.86,9.86,0,0,0-3.51,2.62,9.626,9.626,0,0,0-1.987,4c-.1.367-.126.749-.193,1.123-.017.319-.034.638-.044.959V219.389a10.014,10.014,0,0,0,.386,3.034,9.587,9.587,0,0,0,3.725,5.127,9.963,9.963,0,0,0,6.141,1.684l6.527,0,12.924.009,25.267.016,12.312.009c2.029-.012,4.064.032,6.06-.025a9.538,9.538,0,0,0,5.434-2.1,10.2,10.2,0,0,0,1.961-2.167,9.486,9.486,0,0,0,1.2-2.642,10.033,10.033,0,0,0,.361-2.869q0-1.465,0-2.921,0-5.826,0-11.515c.017-30.335.033-57.656.046-80.6s.042-41.511.054-54.346q0-2.406.007-4.54a9.877,9.877,0,0,0-.7-3.881,9.556,9.556,0,0,0-1.817-2.859,9.658,9.658,0,0,0-5.786-3.048,8,8,0,0,0-.977-.089c-.219-.013-.33-.023-.33-.023s-.446.009-1.315.013l-3.856.012" transform="translate(-0.841 -1.618)" fill="#fafafa"/>
              <path id="Trazado_231175" data-name="Trazado 231175" d="M101.843,55.78s.111,0,.33.01a7.267,7.267,0,0,1,.976.076,9.06,9.06,0,0,1,3.614,1.248,9.246,9.246,0,0,1,2.2,1.781A9.651,9.651,0,0,1,110.8,61.77a9.974,9.974,0,0,1,.72,3.911q0,2.132.006,4.54c.008,12.836.018,31.4.033,54.346s.008,50.266.013,80.6q0,5.689,0,11.514V219.6a10.3,10.3,0,0,1-.37,2.939,9.694,9.694,0,0,1-1.23,2.714,10.416,10.416,0,0,1-2.006,2.227,9.755,9.755,0,0,1-5.562,2.159c-2.02.058-4.025.015-6.054.027l-12.268-.006L58.9,229.652l-12.875-.007-6.5,0a10.185,10.185,0,0,1-6.274-1.732,9.872,9.872,0,0,1-3.819-5.274,10.638,10.638,0,0,1-.4-3.259q0-1.625,0-3.247,0-6.485,0-12.88,0-12.79.006-25.183c.007-16.51.012-32.435.017-47.605s.016-29.586.02-43.077q.007-10.119.013-19.522,0-1.174,0-2.336c.006-.388.033-.781.054-1.169.068-.383.1-.773.2-1.148a9.848,9.848,0,0,1,2.025-4.082,9.774,9.774,0,0,1,7.854-3.48l8.4.01,4.04,0,1.979,0a3.088,3.088,0,0,1,1.9.53,3.19,3.19,0,0,1,1.178,1.548,5.159,5.159,0,0,1,.2,1.9q0,.47,0,.938a6.987,6.987,0,0,0,.03.918,3.039,3.039,0,0,0,.718,1.612,2.84,2.84,0,0,0,1.472.914,3.279,3.279,0,0,0,.868.086h.887l3.477,0,12.7.018,5.6.009c.442-.008.892.02,1.312-.017a2.824,2.824,0,0,0,1.18-.415,3.051,3.051,0,0,0,1.35-1.94,5.365,5.365,0,0,0,.076-1.17q0-.584,0-1.152a6.568,6.568,0,0,1,.05-1.123,3.244,3.244,0,0,1,.363-1.031,3.033,3.033,0,0,1,1.538-1.359,4.83,4.83,0,0,1,1.913-.2l6.248.017,3.843.016c.865,0,1.309.015,1.309.015s-.444.009-1.309.014l-3.843.011-6.248.01a4.77,4.77,0,0,0-1.881.2,2.952,2.952,0,0,0-1.488,1.324,3.169,3.169,0,0,0-.35,1,6.4,6.4,0,0,0-.046,1.107q0,.568,0,1.152a5.466,5.466,0,0,1-.075,1.192,3.163,3.163,0,0,1-1.394,2.013,2.935,2.935,0,0,1-1.226.434c-.446.04-.877.012-1.324.02l-5.6,0-12.7,0H60a3.439,3.439,0,0,1-.907-.088,3,3,0,0,1-1.556-.963,3.21,3.21,0,0,1-.759-1.7,6.962,6.962,0,0,1-.033-.94v-.938a5.033,5.033,0,0,0-.188-1.845,3.014,3.014,0,0,0-1.117-1.462,2.907,2.907,0,0,0-1.8-.5H39.223a9.581,9.581,0,0,0-7.7,3.418,9.641,9.641,0,0,0-1.979,4c-.1.367-.126.749-.193,1.123-.019.382-.047.761-.052,1.148q0,1.162,0,2.336,0,9.394,0,19.522c0,13.491,0,27.907,0,43.077s0,31.1,0,47.605q0,12.382,0,25.183,0,6.394,0,12.88,0,1.621,0,3.247a10.331,10.331,0,0,0,.391,3.183,9.6,9.6,0,0,0,3.712,5.126,9.894,9.894,0,0,0,6.12,1.684l6.5,0,12.876.008,25.175.016,12.268.009c2.021-.012,4.05.032,6.037-.025a9.485,9.485,0,0,0,5.415-2.1,10.184,10.184,0,0,0,1.954-2.167,9.475,9.475,0,0,0,1.2-2.642,10.067,10.067,0,0,0,.36-2.869q0-1.465,0-2.921,0-5.824,0-11.514c.017-30.336.032-57.656.045-80.6s.042-41.511.054-54.346q0-2.406.007-4.54a9.886,9.886,0,0,0-.7-3.88,9.553,9.553,0,0,0-1.809-2.86,9.614,9.614,0,0,0-5.765-3.048,7.707,7.707,0,0,0-.973-.088c-.218-.014-.329-.024-.329-.024" transform="translate(-0.844 -1.618)" fill="#263238"/>
              <path id="Trazado_231176" data-name="Trazado 231176" d="M105.729,71.85c0,.042-1.591.088-3.555.1s-3.557,0-3.557-.046,1.59-.088,3.555-.1,3.556,0,3.556.046" transform="translate(-2.868 -2.088)" fill="#263238"/>
              <path id="Trazado_231177" data-name="Trazado 231177" d="M105.745,73.724c0,.042-1.591.088-3.556.1s-3.556,0-3.556-.046,1.591-.088,3.556-.1,3.556,0,3.556.046" transform="translate(-2.868 -2.142)" fill="#263238"/>
              <path id="Trazado_231178" data-name="Trazado 231178" d="M105.76,75.6c0,.042-1.591.088-3.556.1s-3.556,0-3.556-.046,1.591-.088,3.556-.1,3.556,0,3.556.046" transform="translate(-2.868 -2.197)" fill="#263238"/>
              <path id="Trazado_231179" data-name="Trazado 231179" d="M39.322,77.561a1.149,1.149,0,0,1,.148-.01l.412-.014L41.4,77.5l-.043.043c0-.337-.011-.7-.017-1.1,0-.2-.017-.4,0-.634a.582.582,0,0,1,.509-.468c.245,0,.46-.016.726,0a.59.59,0,0,1,.5.586c0,.514.012,1.05.017,1.606l-.07-.069,1.915-.019-.072.074c-.008-.772-.015-1.569-.021-2.387l-.006-.609a.621.621,0,0,0-.269-.452l-.838-.825-.808-.8-.391-.386c-.135-.129-.24-.264-.4-.3a.518.518,0,0,0-.439.084c-.117.1-.24.237-.357.351l-.687.693c-.432.45-.883.859-1.21,1.248a1.354,1.354,0,0,0-.1.715c0,.237,0,.462,0,.675,0,.414,0,.777-.006,1.087,0,.278-.006.507-.009.7a2.223,2.223,0,0,1-.009.251,1.76,1.76,0,0,1-.014-.23c0-.185-.011-.411-.018-.685-.008-.314-.016-.679-.025-1.1,0-.217-.008-.447-.013-.688,0-.122,0-.248-.006-.377a.8.8,0,0,1,.106-.4c.354-.434.777-.818,1.213-1.281.22-.225.449-.458.682-.7.123-.12.224-.241.37-.367a.653.653,0,0,1,.555-.109,1.025,1.025,0,0,1,.46.329l.393.384q.4.39.811.794l.839.824a1.609,1.609,0,0,1,.214.231.637.637,0,0,1,.1.323c0,.2,0,.406,0,.611.007.818.013,1.616.018,2.388v.073h-.073l-1.916.012h-.07v-.07q0-.835-.009-1.606a.461.461,0,0,0-.386-.465c-.22-.012-.481,0-.7,0a.469.469,0,0,0-.413.372c-.018.193,0,.417-.009.613,0,.4,0,.764,0,1.1v.043H41.4l-1.543-.011-.4-.007a.783.783,0,0,1-.132-.008" transform="translate(-1.141 -2.082)" fill="#263238"/>
              <path id="Trazado_231180" data-name="Trazado 231180" d="M88.039,143.365c0,.276-7.618.5-17.012.5s-17.014-.223-17.014-.5,7.617-.5,17.014-.5,17.012.223,17.012.5" transform="translate(-1.571 -4.154)" fill="#263238"/>
              <rect id="Rectángulo_58012" data-name="Rectángulo 58012" width="33.033" height="43.949" transform="translate(47.442 127.676) rotate(-89.681)" fill="#afafaf"/>
              <path id="Trazado_231181" data-name="Trazado 231181" d="M48.863,130.887,64.328,110.44l9.436,12.9,6.488-6.831,12.559,14.624Z" transform="translate(-1.421 -3.211)" fill="#636363"/>
              <path id="Trazado_231182" data-name="Trazado 231182" d="M78.548,107.823a3.46,3.46,0,1,1-3.441-3.48,3.46,3.46,0,0,1,3.441,3.48" transform="translate(-2.083 -3.034)" fill="#636363"/>
              <path id="Trazado_231185" data-name="Trazado 231185" d="M100.892,155.887c0,.276-13.507.5-30.167.5s-30.169-.223-30.169-.5,13.5-.5,30.169-.5,30.167.223,30.167.5" transform="translate(-1.179 -4.518)" fill="#263238"/>
              <path id="Trazado_231186" data-name="Trazado 231186" d="M100.892,164.55c0,.276-13.507.5-30.167.5s-30.169-.223-30.169-.5,13.5-.5,30.169-.5,30.167.223,30.167.5" transform="translate(-1.179 -4.77)" fill="#263238"/>
              <path id="Trazado_231187" data-name="Trazado 231187" d="M100.892,173.212c0,.276-13.507.5-30.167.5s-30.169-.223-30.169-.5,13.5-.5,30.169-.5,30.167.223,30.167.5" transform="translate(-1.179 -5.022)" fill="#263238"/>
              <path id="Trazado_231188" data-name="Trazado 231188" d="M100.892,181.874c0,.276-13.507.5-30.167.5s-30.169-.223-30.169-.5,13.5-.5,30.169-.5,30.167.223,30.167.5" transform="translate(-1.179 -5.274)" fill="#263238"/>
              <path id="Trazado_231189" data-name="Trazado 231189" d="M100.892,190.537c0,.276-13.507.5-30.167.5s-30.169-.223-30.169-.5,13.5-.5,30.169-.5,30.167.223,30.167.5" transform="translate(-1.179 -5.526)" fill="#263238"/>
              <path id="Trazado_231190" data-name="Trazado 231190" d="M88.3,198.446c0,.138-1.939.262-5.073.353s-7.463.146-12.245.146-9.113-.055-12.247-.146-5.072-.216-5.072-.353,1.938-.263,5.072-.353,7.464-.146,12.247-.146,9.111.055,12.245.146,5.073.215,5.073.353" transform="translate(-1.56 -5.756)" fill="#263238"/>
              <path id="Trazado_231191" data-name="Trazado 231191" d="M158.457,41.125l-6.968.011a5.308,5.308,0,0,0-2.1.227,3.3,3.3,0,0,0-1.659,1.477,3.542,3.542,0,0,0-.39,1.118,7.2,7.2,0,0,0-.051,1.235q0,.634,0,1.285a6.057,6.057,0,0,1-.083,1.329,3.528,3.528,0,0,1-1.555,2.246,3.3,3.3,0,0,1-1.367.484c-.5.044-.978.013-1.478.022l-6.245,0-14.166,0h-4.866a3.859,3.859,0,0,1-1.012-.1,3.348,3.348,0,0,1-1.736-1.074,3.585,3.585,0,0,1-.848-1.893,7.929,7.929,0,0,1-.036-1.048q0-.521,0-1.046a5.587,5.587,0,0,0-.21-2.057,3.359,3.359,0,0,0-1.245-1.631,3.238,3.238,0,0,0-2-.554H94.363a10.689,10.689,0,0,0-8.588,3.811,10.769,10.769,0,0,0-2.208,4.458c-.109.41-.14.836-.214,1.253-.018.356-.038.712-.049,1.07V223.719a11.2,11.2,0,0,0,.428,3.385,10.7,10.7,0,0,0,4.141,5.718A11.042,11.042,0,0,0,94.7,234.7l7.253,0,14.361.009,28.078.018,13.681.01c2.255-.013,4.517.036,6.734-.028a10.584,10.584,0,0,0,6.038-2.341,11.384,11.384,0,0,0,2.18-2.417,10.62,10.62,0,0,0,1.336-2.947,11.185,11.185,0,0,0,.4-3.2q0-1.633,0-3.257,0-6.5,0-12.842c.018-33.833.036-64.3.051-89.894s.046-46.3.06-60.611q0-2.684.008-5.064a11.066,11.066,0,0,0-.784-4.327,10.7,10.7,0,0,0-2.019-3.189,10.718,10.718,0,0,0-6.429-3.4,8.668,8.668,0,0,0-1.085-.1c-.244-.015-.367-.026-.367-.026s-.494.01-1.46.015l-4.285.013" transform="translate(-2.422 -1.195)" fill="#fafafa"/>
              <path id="Trazado_231192" data-name="Trazado 231192" d="M164.27,41.02s.123,0,.368.011a7.963,7.963,0,0,1,1.089.084,10.117,10.117,0,0,1,4.029,1.392,10.286,10.286,0,0,1,2.452,1.986,10.74,10.74,0,0,1,2.046,3.207,11.111,11.111,0,0,1,.8,4.361q0,2.38.006,5.064c.009,14.314.021,35.023.037,60.611s.01,56.061.015,89.894q0,6.344,0,12.842v3.257a11.517,11.517,0,0,1-.412,3.278,10.866,10.866,0,0,1-1.373,3.027,11.625,11.625,0,0,1-2.237,2.484,10.88,10.88,0,0,1-6.2,2.408c-2.253.066-4.49.016-6.752.03l-13.681-.006-28.078-.015-14.361-.008-7.253,0a11.352,11.352,0,0,1-7-1.932,11.006,11.006,0,0,1-4.259-5.882,11.837,11.837,0,0,1-.449-3.634q0-1.815,0-3.622,0-7.231,0-14.365,0-14.264.008-28.086c.007-18.413.013-36.174.019-53.093s.016-33,.023-48.044q.006-11.284.013-21.772,0-1.311,0-2.606c.006-.433.037-.871.06-1.3.076-.428.109-.863.22-1.281a10.987,10.987,0,0,1,2.259-4.553,10.9,10.9,0,0,1,8.76-3.881l9.365.011,4.505.006,2.207,0a3.441,3.441,0,0,1,2.115.59,3.551,3.551,0,0,1,1.315,1.726,5.744,5.744,0,0,1,.217,2.121q0,.526,0,1.046a7.745,7.745,0,0,0,.034,1.024,3.4,3.4,0,0,0,.8,1.8,3.167,3.167,0,0,0,1.641,1.019,3.659,3.659,0,0,0,.969.1h.989l3.878.006,14.165.02,6.245.011c.493-.009,1,.022,1.463-.018a3.159,3.159,0,0,0,1.316-.463,3.4,3.4,0,0,0,1.5-2.164,5.925,5.925,0,0,0,.084-1.3q0-.652,0-1.285a7.184,7.184,0,0,1,.056-1.253,3.6,3.6,0,0,1,.4-1.151,3.391,3.391,0,0,1,1.716-1.517,5.383,5.383,0,0,1,2.133-.227l6.968.018,4.286.017c.965.006,1.459.016,1.459.016s-.494.01-1.459.015l-4.286.013-6.968.011a5.284,5.284,0,0,0-2.1.228,3.287,3.287,0,0,0-1.66,1.476,3.541,3.541,0,0,0-.39,1.118,7.283,7.283,0,0,0-.051,1.235q0,.634,0,1.285a6.058,6.058,0,0,1-.083,1.329,3.525,3.525,0,0,1-1.555,2.246,3.3,3.3,0,0,1-1.367.484c-.5.044-.978.013-1.478.022l-6.245,0-14.166,0H117.6a3.813,3.813,0,0,1-1.011-.1,3.348,3.348,0,0,1-1.736-1.074A3.589,3.589,0,0,1,114,47.423a7.944,7.944,0,0,1-.036-1.049c0-.347,0-.7,0-1.046a5.588,5.588,0,0,0-.21-2.057,3.35,3.35,0,0,0-1.245-1.631,3.246,3.246,0,0,0-2-.554H94.431A10.689,10.689,0,0,0,85.843,44.9a10.773,10.773,0,0,0-2.208,4.459c-.109.409-.14.834-.214,1.252-.022.425-.052.849-.058,1.28q0,1.3,0,2.606,0,10.476,0,21.772c0,15.047,0,31.125,0,48.044s0,34.68,0,53.093q0,13.811,0,28.086,0,7.132,0,14.366,0,1.807,0,3.622a11.522,11.522,0,0,0,.437,3.549,10.7,10.7,0,0,0,4.14,5.718,11.042,11.042,0,0,0,6.824,1.878l7.253,0,14.361.009,28.078.018,13.681.01c2.254-.013,4.517.036,6.734-.028a10.581,10.581,0,0,0,6.038-2.341,11.383,11.383,0,0,0,2.18-2.417,10.591,10.591,0,0,0,1.336-2.947,11.183,11.183,0,0,0,.4-3.2q0-1.633,0-3.257,0-6.5,0-12.842c.019-33.833.036-64.3.05-89.894s.046-46.3.059-60.611q.006-2.684.009-5.064a11.063,11.063,0,0,0-.784-4.327,10.678,10.678,0,0,0-2.019-3.189,10.718,10.718,0,0,0-6.429-3.4,8.669,8.669,0,0,0-1.086-.1c-.244-.015-.367-.026-.367-.026" transform="translate(-2.415 -1.188)" fill="#263238"/>
              <path id="Trazado_231193" data-name="Trazado 231193" d="M168.6,58.942c0,.047-1.775.1-3.965.117s-3.966,0-3.966-.05,1.775-.1,3.965-.117,3.966,0,3.966.05" transform="translate(-4.672 -1.712)" fill="#263238"/>
              <path id="Trazado_231194" data-name="Trazado 231194" d="M168.621,61.033c0,.047-1.775.1-3.965.117s-3.967,0-3.967-.05,1.776-.1,3.965-.117,3.967,0,3.967.05" transform="translate(-4.672 -1.773)" fill="#263238"/>
              <path id="Trazado_231195" data-name="Trazado 231195" d="M168.638,63.123c0,.047-1.775.1-3.965.117s-3.966,0-3.966-.05,1.775-.1,3.965-.117,3.966,0,3.966.05" transform="translate(-4.673 -1.834)" fill="#263238"/>
              <path id="Trazado_231196" data-name="Trazado 231196" d="M94.539,65.311A1.259,1.259,0,0,1,94.7,65.3l.458-.016,1.694-.041-.048.049q-.009-.564-.019-1.228c0-.228-.019-.444,0-.707a.651.651,0,0,1,.568-.522c.273-.006.513-.017.809,0a.657.657,0,0,1,.555.653q.01.859.02,1.791l-.079-.077,2.136-.022-.081.083c-.008-.86-.016-1.75-.024-2.661l-.006-.679a.686.686,0,0,0-.3-.5l-.934-.921-.9-.888-.436-.431c-.151-.145-.268-.294-.442-.33a.574.574,0,0,0-.49.093c-.13.11-.268.264-.4.391l-.767.774c-.482.5-.984.957-1.349,1.39a1.5,1.5,0,0,0-.108.8c0,.265,0,.516,0,.753q0,.692-.007,1.212c0,.31-.007.566-.01.776a2.547,2.547,0,0,1-.01.28,2.024,2.024,0,0,1-.015-.257c-.006-.206-.013-.458-.021-.763q-.012-.524-.027-1.222-.007-.363-.015-.767c0-.137,0-.277-.007-.42a.88.88,0,0,1,.118-.447c.394-.484.866-.914,1.352-1.429l.76-.779c.137-.135.25-.269.413-.409a.727.727,0,0,1,.619-.122,1.156,1.156,0,0,1,.513.367c.145.142.291.284.438.43l.9.885.936.918a1.693,1.693,0,0,1,.239.259.694.694,0,0,1,.112.36q0,.338.007.681c.007.912.014,1.8.019,2.662v.082H100.8l-2.136.014H98.59v-.079c0-.62-.007-1.219-.01-1.79a.515.515,0,0,0-.432-.518c-.246-.014-.535,0-.775,0a.524.524,0,0,0-.46.416c-.02.215,0,.465-.01.683q0,.664,0,1.228v.048h-.048l-1.721-.013-.449-.007a.878.878,0,0,1-.148-.009" transform="translate(-2.747 -1.706)" fill="#263238"/>
              <path id="Trazado_231197" data-name="Trazado 231197" d="M138.594,76.74a7.161,7.161,0,1,1-7.161-7.161,7.161,7.161,0,0,1,7.161,7.161" transform="translate(-3.614 -2.023)" fill="#4adbd1"/>
              <path id="Trazado_231198" data-name="Trazado 231198" d="M134.031,79.836h-4.913v-.6a2.456,2.456,0,0,1,4.913,0Z" transform="translate(-3.754 -2.232)" fill="#fff"/>
              <path id="Trazado_231199" data-name="Trazado 231199" d="M133.049,75.424A1.444,1.444,0,1,1,131.6,73.98a1.444,1.444,0,0,1,1.444,1.444" transform="translate(-3.785 -2.151)" fill="#fff"/>
              <path id="Trazado_231200" data-name="Trazado 231200" d="M148.873,96.43c0,.308-8.5.557-18.974.557s-18.976-.25-18.976-.557,8.495-.556,18.976-.556,18.974.249,18.974.556" transform="translate(-3.225 -2.788)" fill="#263238"/>
              <rect id="Rectángulo_58015" data-name="Rectángulo 58015" width="24.626" height="32.764" transform="translate(87.826 137.125) rotate(-89.681)" fill="#afafaf"/>
              <path id="Trazado_231201" data-name="Trazado 231201" d="M90.456,140.775l11.529-15.243,7.035,9.616,4.836-5.092,9.364,10.9Z" transform="translate(-2.63 -3.65)" fill="#636363"/>
              <path id="Trazado_231202" data-name="Trazado 231202" d="M112.587,123.58a2.58,2.58,0,1,1-2.566-2.594,2.581,2.581,0,0,1,2.566,2.594" transform="translate(-3.124 -3.518)" fill="#636363"/>
              <rect id="Rectángulo_58018" data-name="Rectángulo 58018" width="56.93" height="75.743" transform="matrix(0.006, -1, 1, 0.006, 87.528, 201.651)" fill="#afafaf"/>
              <path id="Trazado_231205" data-name="Trazado 231205" d="M90.149,206.635,116.8,171.4l16.264,22.23,11.18-11.773,21.646,25.2Z" transform="translate(-2.621 -4.984)" fill="#636363"/>
              <path id="Trazado_231206" data-name="Trazado 231206" d="M141.31,166.885a5.964,5.964,0,1,1-5.93-6,5.964,5.964,0,0,1,5.93,6" transform="translate(-3.762 -4.678)" fill="#636363"/>
              <rect id="Rectángulo_58021" data-name="Rectángulo 58021" width="24.626" height="32.765" transform="translate(131.081 137.125) rotate(-89.681)" fill="#afafaf"/>
              <path id="Trazado_231209" data-name="Trazado 231209" d="M135.006,140.775l11.529-15.243,7.035,9.616,4.837-5.092,9.363,10.9Z" transform="translate(-3.926 -3.65)" fill="#707070"/>
              <path id="Trazado_231210" data-name="Trazado 231210" d="M157.137,123.58a2.58,2.58,0,1,1-2.566-2.594,2.581,2.581,0,0,1,2.566,2.594" transform="translate(-4.419 -3.518)" fill="#e8505b"/>
              <g id="Grupo_180120" data-name="Grupo 180120" transform="translate(147.559 117.468)" opacity="0.2">
                <g id="Grupo_180119" data-name="Grupo 180119">
                  <g id="Grupo_180118" data-name="Grupo 180118" clip-path="url(#clip-path-4)">
                    <path id="Trazado_231212" data-name="Trazado 231212" d="M157.137,123.58a2.58,2.58,0,1,1-2.566-2.594,2.581,2.581,0,0,1,2.566,2.594" transform="translate(-151.978 -120.986)"/>
                  </g>
                </g>
              </g>
              <path id="Trazado_231213" data-name="Trazado 231213" d="M368.248,51.013l-6.248.01a4.77,4.77,0,0,0-1.881.2,2.951,2.951,0,0,0-1.488,1.323,3.16,3.16,0,0,0-.35,1,6.5,6.5,0,0,0-.047,1.107q0,.568,0,1.152A5.409,5.409,0,0,1,358.161,57a3.157,3.157,0,0,1-1.394,2.013,2.926,2.926,0,0,1-1.225.434c-.446.04-.877.012-1.325.02l-5.6,0-12.7,0h-4.363a3.432,3.432,0,0,1-.907-.088,3,3,0,0,1-1.556-.963,3.21,3.21,0,0,1-.76-1.7,7.108,7.108,0,0,1-.032-.94q0-.467,0-.938a4.99,4.99,0,0,0-.188-1.845,3.012,3.012,0,0,0-1.116-1.462,2.908,2.908,0,0,0-1.8-.5H310.779a9.577,9.577,0,0,0-7.7,3.418,9.652,9.652,0,0,0-1.981,4c-.1.367-.125.749-.191,1.123-.016.319-.034.638-.044.959V214.732a10.019,10.019,0,0,0,.385,3.035,9.589,9.589,0,0,0,3.712,5.126,9.9,9.9,0,0,0,6.119,1.684l6.5,0,12.876.008,25.176.016,12.267.009c2.021-.012,4.05.032,6.038-.025a9.483,9.483,0,0,0,5.414-2.1,10.141,10.141,0,0,0,1.954-2.167,9.5,9.5,0,0,0,1.2-2.642,10.07,10.07,0,0,0,.361-2.869q0-1.465,0-2.921,0-5.825,0-11.515c.017-30.336.032-57.656.045-80.6s.041-41.511.053-54.346q0-2.406.008-4.54a9.912,9.912,0,0,0-.7-3.881,9.562,9.562,0,0,0-1.81-2.859A9.6,9.6,0,0,0,374.7,51.1a7.812,7.812,0,0,0-.973-.09c-.219-.013-.33-.023-.33-.023s-.443.009-1.309.014l-3.842.011" transform="translate(-8.748 -1.483)" fill="#fafafa"/>
              <rect id="Rectángulo_58024" data-name="Rectángulo 58024" width="54.219" height="11.074" transform="translate(305.612 114.858)" fill="#ebebeb"/>
              <path id="Trazado_231214" data-name="Trazado 231214" d="M373.577,50.918s.111,0,.33.01a7.266,7.266,0,0,1,.976.076,9.077,9.077,0,0,1,3.614,1.248,9.249,9.249,0,0,1,2.2,1.781,9.651,9.651,0,0,1,1.835,2.876,9.991,9.991,0,0,1,.721,3.911q0,2.134,0,4.54c.008,12.836.018,31.4.033,54.346s.008,50.266.013,80.6q0,5.689,0,11.515v2.921a10.3,10.3,0,0,1-.37,2.939,9.7,9.7,0,0,1-1.23,2.714,10.416,10.416,0,0,1-2.006,2.227,9.755,9.755,0,0,1-5.562,2.159c-2.02.058-4.025.015-6.054.027l-12.268-.006-25.176-.013-12.875-.007-6.5,0a10.18,10.18,0,0,1-6.273-1.732,9.872,9.872,0,0,1-3.819-5.274,10.633,10.633,0,0,1-.4-3.258q0-1.627,0-3.248,0-6.485,0-12.88,0-12.79.007-25.183c.006-16.51.012-32.435.017-47.605s.015-29.586.021-43.077q.006-10.119.012-19.522,0-1.174,0-2.336c.006-.388.034-.781.054-1.169.068-.383.1-.773.2-1.148a9.851,9.851,0,0,1,2.026-4.082,9.774,9.774,0,0,1,7.854-3.48l8.4.01,4.04,0,1.979,0a3.092,3.092,0,0,1,1.9.53,3.184,3.184,0,0,1,1.178,1.548,5.161,5.161,0,0,1,.2,1.9c0,.314,0,.625,0,.937a6.984,6.984,0,0,0,.03.919,3.04,3.04,0,0,0,.718,1.612,2.84,2.84,0,0,0,1.472.914,3.238,3.238,0,0,0,.868.086h.888l3.477,0,12.7.018,5.6.009c.442-.007.892.02,1.312-.017a2.836,2.836,0,0,0,1.18-.414,3.055,3.055,0,0,0,1.35-1.941,5.367,5.367,0,0,0,.076-1.17q0-.584,0-1.152a6.575,6.575,0,0,1,.051-1.123,3.254,3.254,0,0,1,.363-1.031,3.034,3.034,0,0,1,1.538-1.359,4.847,4.847,0,0,1,1.913-.2l6.248.017,3.843.016c.865,0,1.309.015,1.309.015s-.444.009-1.309.013l-3.843.012-6.248.01a4.77,4.77,0,0,0-1.881.2,2.953,2.953,0,0,0-1.489,1.324,3.166,3.166,0,0,0-.349,1,6.38,6.38,0,0,0-.046,1.107q0,.568,0,1.152a5.456,5.456,0,0,1-.075,1.191,3.159,3.159,0,0,1-1.394,2.014,2.935,2.935,0,0,1-1.225.434c-.447.04-.878.012-1.325.02l-5.6,0-12.7,0H331.73a3.441,3.441,0,0,1-.907-.088,3,3,0,0,1-1.555-.963,3.2,3.2,0,0,1-.76-1.7,7.109,7.109,0,0,1-.033-.94v-.937a5.039,5.039,0,0,0-.188-1.846,3.014,3.014,0,0,0-1.117-1.462,2.907,2.907,0,0,0-1.8-.5H310.957a9.577,9.577,0,0,0-7.7,3.418,9.651,9.651,0,0,0-1.98,4c-.1.367-.125.749-.192,1.123-.019.382-.047.761-.052,1.148q0,1.162,0,2.336,0,9.394,0,19.522c0,13.491,0,27.907,0,43.077s0,31.1,0,47.605q0,12.384,0,25.183,0,6.393,0,12.88v3.248a10.325,10.325,0,0,0,.39,3.182,9.592,9.592,0,0,0,3.713,5.126,9.893,9.893,0,0,0,6.119,1.684l6.5,0,12.876.008,25.175.016,12.268.009c2.021-.012,4.05.032,6.037-.025a9.485,9.485,0,0,0,5.415-2.1,10.158,10.158,0,0,0,1.954-2.167,9.476,9.476,0,0,0,1.2-2.642,10.069,10.069,0,0,0,.36-2.869q0-1.465,0-2.921,0-5.825,0-11.515c.017-30.336.032-57.656.045-80.6s.042-41.511.054-54.346q0-2.406.007-4.54a9.885,9.885,0,0,0-.7-3.88,9.568,9.568,0,0,0-1.809-2.86,9.214,9.214,0,0,0-2.176-1.78,9.12,9.12,0,0,0-3.59-1.267,7.572,7.572,0,0,0-.973-.089c-.218-.014-.329-.024-.329-.024" transform="translate(-8.745 -1.477)" fill="#263238"/>
              <path id="Trazado_231215" data-name="Trazado 231215" d="M377.463,66.988c0,.042-1.591.088-3.555.1s-3.556,0-3.556-.046,1.59-.088,3.554-.1,3.557,0,3.557.046" transform="translate(-10.769 -1.946)" fill="#263238"/>
              <path id="Trazado_231216" data-name="Trazado 231216" d="M377.479,68.862c0,.042-1.591.088-3.556.1s-3.555,0-3.557-.046,1.591-.088,3.556-.1,3.556,0,3.556.046" transform="translate(-10.769 -2.001)" fill="#263238"/>
              <path id="Trazado_231217" data-name="Trazado 231217" d="M377.494,70.736c0,.042-1.591.088-3.556.1s-3.555,0-3.555-.046,1.59-.088,3.555-.1,3.556,0,3.556.046" transform="translate(-10.77 -2.055)" fill="#263238"/>
              <path id="Trazado_231218" data-name="Trazado 231218" d="M311.056,72.7a1.146,1.146,0,0,1,.148-.01l.412-.014,1.519-.036-.043.043c0-.337-.011-.7-.017-1.1,0-.2-.017-.4,0-.634a.581.581,0,0,1,.509-.468c.245,0,.46-.017.726,0a.59.59,0,0,1,.5.586c0,.514.012,1.05.018,1.606l-.07-.07,1.916-.018-.073.074c-.008-.772-.015-1.57-.021-2.387l-.006-.609a.62.62,0,0,0-.269-.452l-.837-.825q-.412-.4-.809-.8l-.392-.386c-.134-.13-.24-.264-.4-.3a.514.514,0,0,0-.439.084c-.117.1-.24.237-.357.35l-.687.693c-.432.45-.882.859-1.21,1.247a1.357,1.357,0,0,0-.1.716c0,.237,0,.462,0,.675,0,.414,0,.777-.007,1.087,0,.278-.006.507-.009.7a2.207,2.207,0,0,1-.009.251,1.776,1.776,0,0,1-.013-.23c0-.185-.011-.412-.019-.684q-.011-.47-.025-1.1c0-.217-.008-.447-.013-.688,0-.122,0-.248-.006-.377a.8.8,0,0,1,.106-.4c.354-.434.778-.818,1.213-1.281.22-.225.449-.458.682-.7.123-.12.224-.241.37-.367a.652.652,0,0,1,.555-.109,1.031,1.031,0,0,1,.46.328l.393.385.81.794.84.824a1.613,1.613,0,0,1,.214.231.637.637,0,0,1,.1.323c0,.2,0,.406,0,.611.007.818.013,1.616.018,2.387v.073h-.073l-1.916.012h-.07v-.07q0-.834-.008-1.606a.462.462,0,0,0-.387-.465c-.22-.012-.481,0-.7,0a.468.468,0,0,0-.413.372c-.018.193,0,.417-.008.613v1.144h-.043l-1.543-.011-.4-.007a.782.782,0,0,1-.132-.008" transform="translate(-9.043 -1.941)" fill="#263238"/>
              <rect id="Rectángulo_58025" data-name="Rectángulo 58025" width="54.219" height="11.074" transform="translate(305.726 131.377)" fill="#ebebeb"/>
              <rect id="Rectángulo_58026" data-name="Rectángulo 58026" width="54.219" height="11.074" transform="translate(305.726 147.445)" fill="#ebebeb"/>
              <path id="Trazado_231219" data-name="Trazado 231219" d="M356.322,185.6H329.107a5.537,5.537,0,0,1,0-11.074h27.215a5.537,5.537,0,1,1,0,11.074" transform="translate(-9.409 -5.075)" fill="#12263f"/>
              <path id="Trazado_231220" data-name="Trazado 231220" d="M359.654,106.5c0,.276-7.618.5-17.012.5s-17.015-.223-17.015-.5,7.617-.5,17.015-.5,17.012.223,17.012.5" transform="translate(-9.468 -3.082)" fill="#263238"/>
              <path id="Trazado_231221" data-name="Trazado 231221" d="M322.238,39.206l-6.968.011a5.3,5.3,0,0,0-2.1.228,3.288,3.288,0,0,0-1.66,1.476,3.537,3.537,0,0,0-.39,1.118,7.275,7.275,0,0,0-.051,1.234q0,.634,0,1.286a6.11,6.11,0,0,1-.084,1.329,3.524,3.524,0,0,1-1.555,2.246,3.3,3.3,0,0,1-1.367.484c-.5.044-.978.013-1.477.022l-6.246,0-14.166,0h-4.867a3.812,3.812,0,0,1-1.011-.1,3.341,3.341,0,0,1-1.736-1.074,3.585,3.585,0,0,1-.848-1.892,7.949,7.949,0,0,1-.036-1.049c0-.347,0-.7,0-1.046a5.588,5.588,0,0,0-.21-2.057,3.36,3.36,0,0,0-1.245-1.631,3.244,3.244,0,0,0-2-.554H258.144a10.689,10.689,0,0,0-8.588,3.811,10.769,10.769,0,0,0-2.208,4.458c-.108.41-.14.836-.214,1.253-.018.356-.038.712-.048,1.07V221.8a11.171,11.171,0,0,0,.429,3.386,10.7,10.7,0,0,0,4.14,5.718,11.042,11.042,0,0,0,6.824,1.878l7.253,0,14.361.009,28.078.018,13.681.01c2.254-.013,4.517.036,6.734-.028a10.581,10.581,0,0,0,6.038-2.341,11.38,11.38,0,0,0,2.18-2.417,10.584,10.584,0,0,0,1.336-2.947,11.186,11.186,0,0,0,.4-3.2q0-1.633,0-3.257,0-6.5,0-12.842c.018-33.833.036-64.3.05-89.893s.046-46.3.06-60.612q0-2.684.008-5.064a11.067,11.067,0,0,0-.784-4.327,10.713,10.713,0,0,0-2.019-3.189,10.718,10.718,0,0,0-6.429-3.4,8.665,8.665,0,0,0-1.086-.1c-.244-.015-.367-.026-.367-.026s-.494.01-1.46.015l-4.285.013" transform="translate(-7.185 -1.139)" fill="#fafafa"/>
              <path id="Trazado_231222" data-name="Trazado 231222" d="M328.051,39.329s.123,0,.368.011a7.934,7.934,0,0,1,1.088.084,10.115,10.115,0,0,1,4.03,1.392,10.281,10.281,0,0,1,2.451,1.986,10.741,10.741,0,0,1,2.047,3.207,11.145,11.145,0,0,1,.8,4.361q0,2.38.006,5.064c.009,14.314.021,35.023.037,60.611s.009,56.061.015,89.894q0,6.344,0,12.842,0,1.624,0,3.257a11.518,11.518,0,0,1-.411,3.278,10.864,10.864,0,0,1-1.373,3.027,11.62,11.62,0,0,1-2.237,2.484,10.878,10.878,0,0,1-6.2,2.408c-2.253.066-4.49.016-6.752.03l-13.681-.006-28.078-.015-14.361-.008-7.253,0a11.35,11.35,0,0,1-7-1.932,11,11,0,0,1-4.26-5.882,11.841,11.841,0,0,1-.449-3.634q0-1.815,0-3.622,0-7.231,0-14.365,0-14.264.008-28.086c.006-18.413.013-36.174.018-53.093s.017-33,.024-48.044q.006-11.284.013-21.772,0-1.311,0-2.606c.006-.433.037-.871.06-1.3.076-.428.109-.863.22-1.281a10.974,10.974,0,0,1,2.259-4.553,10.9,10.9,0,0,1,8.76-3.881l9.365.011,4.505.006,2.207,0a3.434,3.434,0,0,1,2.115.59,3.556,3.556,0,0,1,1.315,1.726,5.766,5.766,0,0,1,.218,2.121c0,.351,0,.7,0,1.046a7.743,7.743,0,0,0,.034,1.024,3.394,3.394,0,0,0,.8,1.8,3.174,3.174,0,0,0,1.642,1.019,3.7,3.7,0,0,0,.969.1h.989l3.877.006,14.166.02,6.245.011c.493-.009,1,.022,1.463-.018a3.159,3.159,0,0,0,1.316-.463,3.4,3.4,0,0,0,1.5-2.164,5.924,5.924,0,0,0,.084-1.3q0-.652,0-1.285a7.377,7.377,0,0,1,.056-1.253,3.624,3.624,0,0,1,.406-1.151A3.387,3.387,0,0,1,313.2,39.5a5.383,5.383,0,0,1,2.133-.227l6.968.018,4.285.017c.966.006,1.46.016,1.46.016s-.494.01-1.46.015l-4.285.013-6.968.011a5.285,5.285,0,0,0-2.1.228,3.287,3.287,0,0,0-1.66,1.476,3.521,3.521,0,0,0-.39,1.118,7.177,7.177,0,0,0-.051,1.235q0,.634,0,1.285a5.994,5.994,0,0,1-.083,1.329,3.527,3.527,0,0,1-1.554,2.246,3.3,3.3,0,0,1-1.367.484c-.5.044-.979.013-1.478.022l-6.245,0-14.166,0h-4.867a3.813,3.813,0,0,1-1.011-.1,3.348,3.348,0,0,1-1.736-1.074,3.581,3.581,0,0,1-.848-1.892,8.106,8.106,0,0,1-.037-1.049V43.637a5.588,5.588,0,0,0-.21-2.057,3.36,3.36,0,0,0-1.245-1.631,3.246,3.246,0,0,0-2-.554H258.212a10.688,10.688,0,0,0-8.588,3.811,10.772,10.772,0,0,0-2.208,4.459c-.109.409-.14.834-.215,1.253-.021.425-.052.849-.057,1.28V52.8q0,10.476,0,21.772c0,15.047,0,31.125,0,48.044s0,34.68,0,53.093q0,13.811,0,28.086,0,7.132,0,14.366,0,1.807,0,3.622a11.551,11.551,0,0,0,.436,3.549,10.7,10.7,0,0,0,4.141,5.718,11.04,11.04,0,0,0,6.824,1.878l7.253,0,14.361.009,28.078.018,13.681.01c2.255-.013,4.517.036,6.734-.028a10.584,10.584,0,0,0,6.038-2.341,11.353,11.353,0,0,0,2.179-2.417,10.568,10.568,0,0,0,1.337-2.947,11.183,11.183,0,0,0,.4-3.2q0-1.633,0-3.257,0-6.5.006-12.842c.019-33.833.036-64.3.051-89.894s.046-46.3.059-60.611q0-2.684.009-5.064a11.046,11.046,0,0,0-.784-4.327,10.677,10.677,0,0,0-2.018-3.189,10.718,10.718,0,0,0-6.43-3.4,8.661,8.661,0,0,0-1.085-.1c-.244-.015-.367-.026-.367-.026" transform="translate(-7.178 -1.139)" fill="#263238"/>
              <path id="Trazado_231223" data-name="Trazado 231223" d="M332.384,57.251c0,.047-1.775.1-3.964.116s-3.966,0-3.967-.05,1.775-.1,3.965-.117,3.966,0,3.966.05" transform="translate(-9.434 -1.663)" fill="#263238"/>
              <path id="Trazado_231224" data-name="Trazado 231224" d="M332.4,59.341c0,.047-1.775.1-3.965.117s-3.966,0-3.966-.05,1.775-.1,3.965-.117,3.966,0,3.966.051" transform="translate(-9.435 -1.724)" fill="#263238"/>
              <path id="Trazado_231225" data-name="Trazado 231225" d="M332.42,61.431c0,.047-1.775.1-3.965.116s-3.966,0-3.966-.05,1.775-.1,3.965-.116,3.965,0,3.966.05" transform="translate(-9.435 -1.785)" fill="#263238"/>
              <path id="Trazado_231226" data-name="Trazado 231226" d="M258.32,63.619a1.259,1.259,0,0,1,.165-.011l.459-.016,1.693-.04-.048.048q-.009-.564-.019-1.228c0-.228-.02-.444,0-.707a.651.651,0,0,1,.568-.522c.273,0,.513-.017.809,0a.658.658,0,0,1,.555.653q.01.859.02,1.791l-.079-.077,2.137-.022-.082.083c-.008-.86-.016-1.75-.024-2.661l-.006-.679a.683.683,0,0,0-.3-.5q-.473-.468-.934-.92t-.9-.889l-.436-.431c-.15-.145-.268-.294-.442-.33a.574.574,0,0,0-.49.093c-.13.11-.268.264-.4.391l-.766.774c-.483.5-.985.957-1.35,1.39a1.513,1.513,0,0,0-.108.8c0,.265,0,.517,0,.753,0,.461,0,.866-.007,1.212,0,.311-.007.566-.009.776a2.625,2.625,0,0,1-.011.28,2.021,2.021,0,0,1-.015-.256c-.006-.207-.013-.459-.021-.764q-.012-.524-.028-1.222-.006-.363-.013-.767c0-.137-.005-.277-.007-.42a.884.884,0,0,1,.119-.447c.394-.484.866-.914,1.352-1.429l.76-.779c.137-.135.25-.268.413-.409A.727.727,0,0,1,261.5,57a1.155,1.155,0,0,1,.513.367l.439.43.9.885.935.918a1.733,1.733,0,0,1,.239.259.692.692,0,0,1,.112.36q0,.338.007.681c.007.912.014,1.8.019,2.662v.082h-.082l-2.137.014h-.078v-.079c0-.619-.007-1.218-.01-1.79a.515.515,0,0,0-.432-.518c-.246-.014-.536,0-.775,0a.523.523,0,0,0-.46.416c-.021.215,0,.465-.01.683q0,.664,0,1.228v.048h-.048l-1.721-.012-.449-.008a.875.875,0,0,1-.148-.009" transform="translate(-7.509 -1.657)" fill="#263238"/>
              <path id="Trazado_231227" data-name="Trazado 231227" d="M312.923,104.518A17.938,17.938,0,1,1,294.985,86.58a17.938,17.938,0,0,1,17.938,17.938" transform="translate(-8.056 -2.518)" fill="#1565c0"/>
              <path id="Trazado_231228" data-name="Trazado 231228" d="M301.49,112.276H289.184v-1.513a6.153,6.153,0,1,1,12.306,0Z" transform="translate(-8.409 -3.042)" fill="#fff"/>
              <path id="Trazado_231229" data-name="Trazado 231229" d="M299.03,101.221a3.617,3.617,0,1,1-3.618-3.618,3.617,3.617,0,0,1,3.618,3.618" transform="translate(-8.485 -2.838)" fill="#fff"/>
              <rect id="Rectángulo_58027" data-name="Rectángulo 58027" width="60.47" height="12.351" transform="translate(254.954 140.487)" fill="#ebebeb"/>
              <rect id="Rectángulo_58028" data-name="Rectángulo 58028" width="60.47" height="12.351" transform="translate(254.954 158.408)" fill="#ebebeb"/>
              <path id="Trazado_231230" data-name="Trazado 231230" d="M308.807,200.784H278.454a6.176,6.176,0,0,1,0-12.351h30.353a6.176,6.176,0,1,1,0,12.351" transform="translate(-7.917 -5.479)" fill="url(#linear-gradient)"/>
              <path id="Trazado_231231" data-name="Trazado 231231" d="M312.654,137.01c0,.308-8.5.556-18.974.556s-18.976-.249-18.976-.556,8.495-.557,18.976-.557,18.974.251,18.974.557" transform="translate(-7.988 -3.968)" fill="#263238"/>
              <path id="Trazado_231232" data-name="Trazado 231232" d="M271.1,153.788h-2.671a.474.474,0,0,1-.474-.474,1.78,1.78,0,0,1,1.78-1.781h.059a1.78,1.78,0,0,1,1.78,1.781.474.474,0,0,1-.474.474" transform="translate(-7.791 -4.406)" fill="#e0e0e0"/>
              <path id="Trazado_231233" data-name="Trazado 231233" d="M270.847,150.536a1.064,1.064,0,1,1-1.064-1.064,1.065,1.065,0,0,1,1.064,1.064" transform="translate(-7.814 -4.346)" fill="#e0e0e0"/>
              <rect id="Rectángulo_58029" data-name="Rectángulo 58029" width="3.189" height="2.254" transform="translate(260.375 164.78)" fill="#e0e0e0"/>
              <path id="Trazado_231234" data-name="Trazado 231234" d="M271.705,170.128h-1.069v-.694a.9.9,0,0,0-1.8,0v.694h-1.07v-.694a1.972,1.972,0,0,1,3.944,0Z" transform="translate(-7.786 -4.869)" fill="#e0e0e0"/>
              <path id="Trazado_231235" data-name="Trazado 231235" d="M255.179.169,244.8.184a7.913,7.913,0,0,0-3.123.339,4.905,4.905,0,0,0-2.473,2.2,5.277,5.277,0,0,0-.581,1.664,10.7,10.7,0,0,0-.077,1.838q0,.942,0,1.913a8.941,8.941,0,0,1-.124,1.978,5.239,5.239,0,0,1-2.316,3.342,4.9,4.9,0,0,1-2.036.721c-.74.064-1.457.018-2.2.033l-9.3,0-21.1.006h-7.249a5.682,5.682,0,0,1-1.506-.148,4.987,4.987,0,0,1-2.586-1.6,5.331,5.331,0,0,1-1.262-2.818,11.878,11.878,0,0,1-.054-1.56q0-.775,0-1.555A8.3,8.3,0,0,0,188.5,3.48a5,5,0,0,0-1.854-2.427,4.823,4.823,0,0,0-2.986-.825H159.722a16.48,16.48,0,0,0-6.982,1.324A16.311,16.311,0,0,0,146.932,5.9a16,16,0,0,0-3.289,6.635c-.162.609-.208,1.243-.319,1.865-.027.529-.055,1.059-.072,1.592V119.948c0,1.391,0,2.745,0,4.144,0,4.2,0,8.479,0,12.744V271.927a16.637,16.637,0,0,0,.639,5.037,15.916,15.916,0,0,0,6.166,8.51,16.451,16.451,0,0,0,10.163,2.8l10.8.007,21.387.014,41.818.028,20.377.014c3.358-.019,6.727.054,10.029-.042a15.755,15.755,0,0,0,8.993-3.485,16.878,16.878,0,0,0,3.246-3.6,15.745,15.745,0,0,0,1.99-4.386,16.655,16.655,0,0,0,.6-4.762q0-2.431,0-4.849,0-9.669.008-19.114c.028-50.354.053-95.7.075-133.791.038-38.083.069-68.9.089-90.208q.007-3.995.013-7.537a16.415,16.415,0,0,0-1.168-6.441,15.87,15.87,0,0,0-3.005-4.747,15.314,15.314,0,0,0-3.614-2.955A15.164,15.164,0,0,0,265.9.316a12.777,12.777,0,0,0-1.617-.149c-.363-.022-.547-.04-.547-.04S263,.144,261.561.15l-6.382.018" transform="translate(-4.165 -0.004)" fill="#fafafa"/>
              <path id="Trazado_231236" data-name="Trazado 231236" d="M263.893.222s.183,0,.547.017a11.73,11.73,0,0,1,1.618.125,15.024,15.024,0,0,1,5.987,2.067,15.311,15.311,0,0,1,3.641,2.951,15.95,15.95,0,0,1,3.039,4.764,16.533,16.533,0,0,1,1.2,6.479q0,3.535.009,7.524c.012,21.265.03,52.03.053,90.042.007,38.017.015,83.282.022,133.544v23.918a17.036,17.036,0,0,1-.612,4.868,16.136,16.136,0,0,1-2.038,4.5,17.271,17.271,0,0,1-3.324,3.689,16.148,16.148,0,0,1-9.216,3.578c-3.347.1-6.669.024-10.031.045l-20.324-.009-41.712-.021-21.334-.012-10.775-.006a16.866,16.866,0,0,1-10.394-2.87,16.339,16.339,0,0,1-6.326-8.738,17.569,17.569,0,0,1-.667-5.4q0-2.694,0-5.381,0-10.742,0-21.34.006-21.19.012-41.723c.01-27.354.019-53.739.028-78.874s.024-49.019.035-71.373q.01-16.764.019-32.344,0-1.946,0-3.872c.009-.643.054-1.293.089-1.936.113-.634.162-1.281.327-1.9a16.321,16.321,0,0,1,3.356-6.762,16.62,16.62,0,0,1,5.919-4.424A16.751,16.751,0,0,1,160.141,0l13.911.016,6.693.009,3.279,0a5.111,5.111,0,0,1,3.142.878,5.28,5.28,0,0,1,1.952,2.564,8.549,8.549,0,0,1,.323,3.152q0,.781,0,1.553A11.563,11.563,0,0,0,189.49,9.7a5.048,5.048,0,0,0,1.191,2.671,4.709,4.709,0,0,0,2.439,1.515,5.416,5.416,0,0,0,1.438.142l1.47,0,5.76.008,21.044.031,9.278.016c.732-.014,1.478.033,2.173-.028a4.684,4.684,0,0,0,1.953-.686,5.05,5.05,0,0,0,2.237-3.216,8.814,8.814,0,0,0,.125-1.938q0-.968,0-1.909a10.919,10.919,0,0,1,.084-1.861,5.4,5.4,0,0,1,.6-1.71A5.035,5.035,0,0,1,241.837.483a7.988,7.988,0,0,1,3.169-.338l10.352.027L261.724.2c1.434.008,2.169.024,2.169.024s-.735.016-2.169.022l-6.366.018L245.006.279a7.893,7.893,0,0,0-3.116.338,4.892,4.892,0,0,0-2.466,2.193,5.256,5.256,0,0,0-.579,1.661,10.674,10.674,0,0,0-.077,1.834q0,.941,0,1.909a9.034,9.034,0,0,1-.124,1.975,5.231,5.231,0,0,1-2.31,3.336,4.876,4.876,0,0,1-2.031.718c-.738.065-1.452.019-2.194.034l-9.278,0-21.044.007h-7.23a5.733,5.733,0,0,1-1.5-.147,4.981,4.981,0,0,1-2.579-1.6,5.316,5.316,0,0,1-1.259-2.812,11.836,11.836,0,0,1-.054-1.557q0-.773,0-1.553a8.3,8.3,0,0,0-.311-3.056A4.992,4.992,0,0,0,187,1.145a4.8,4.8,0,0,0-2.979-.823H160.141a16.424,16.424,0,0,0-6.963,1.321,16.291,16.291,0,0,0-5.794,4.339,15.99,15.99,0,0,0-3.281,6.625c-.161.607-.208,1.24-.318,1.861-.033.632-.079,1.26-.086,1.9q0,1.927,0,3.872,0,15.561.007,32.344c0,22.354,0,46.237.007,71.373s0,51.52,0,78.874q0,20.516,0,41.723,0,10.6,0,21.341,0,2.686,0,5.38a17.116,17.116,0,0,0,.649,5.272,15.886,15.886,0,0,0,6.15,8.495,16.406,16.406,0,0,0,10.137,2.789l10.775.007,21.334.014,41.712.027,20.325.015c3.349-.019,6.709.054,10-.042a15.712,15.712,0,0,0,8.97-3.478,16.857,16.857,0,0,0,3.237-3.59,15.7,15.7,0,0,0,1.985-4.377,16.631,16.631,0,0,0,.6-4.754q0-2.426,0-4.84,0-9.651.008-19.078c.027-50.262.053-95.527.074-133.544.038-38.014.069-68.777.09-90.042q.006-3.986.011-7.524A16.363,16.363,0,0,0,278.6,10.2a15.873,15.873,0,0,0-3-4.739A15.246,15.246,0,0,0,272,2.51a15.113,15.113,0,0,0-5.946-2.1,12.674,12.674,0,0,0-1.613-.148c-.362-.022-.546-.04-.546-.04" transform="translate(-4.165 0)" fill="#263238"/>
              <path id="Trazado_231237" data-name="Trazado 231237" d="M270.331,26.847c0,.069-2.637.146-5.89.173s-5.893-.007-5.893-.076,2.636-.146,5.891-.173,5.892.007,5.893.076" transform="translate(-7.518 -0.778)" fill="#263238"/>
              <path id="Trazado_231238" data-name="Trazado 231238" d="M270.357,29.952c0,.069-2.637.146-5.891.173s-5.892-.007-5.893-.076,2.636-.146,5.891-.173,5.892.007,5.893.076" transform="translate(-7.519 -0.868)" fill="#263238"/>
              <path id="Trazado_231239" data-name="Trazado 231239" d="M270.382,33.057c0,.069-2.637.146-5.89.173s-5.893-.007-5.894-.076,2.636-.146,5.891-.173,5.892.007,5.893.076" transform="translate(-7.519 -0.959)" fill="#263238"/>
              <path id="Trazado_231240" data-name="Trazado 231240" d="M160.3,36.309a2.053,2.053,0,0,1,.245-.016l.682-.023,2.516-.06-.069.071c-.01-.557-.019-1.167-.03-1.824,0-.339-.029-.658,0-1.05a.968.968,0,0,1,.845-.776c.4-.008.762-.026,1.2-.006a.976.976,0,0,1,.824.971c.01.851.02,1.74.031,2.661l-.118-.115,3.174-.033-.12.123c-.012-1.279-.023-2.6-.036-3.955q0-.507-.008-1.007a1.025,1.025,0,0,0-.447-.75l-1.387-1.368-1.338-1.32q-.328-.325-.65-.641c-.222-.216-.4-.437-.656-.49a.849.849,0,0,0-.727.14c-.193.162-.4.391-.591.581l-1.139,1.149c-.716.744-1.462,1.423-2,2.066a2.253,2.253,0,0,0-.159,1.185q0,.59,0,1.119-.007,1.028-.012,1.8c0,.46-.01.841-.013,1.152,0,.265-.01.409-.016.415a3.038,3.038,0,0,1-.021-.382c-.009-.307-.019-.681-.032-1.134q-.018-.779-.042-1.816-.009-.539-.02-1.141c0-.2-.007-.411-.01-.623a1.318,1.318,0,0,1,.175-.664c.587-.719,1.288-1.356,2.01-2.122l1.13-1.157c.2-.2.37-.4.612-.607a1.081,1.081,0,0,1,.92-.182,1.707,1.707,0,0,1,.762.545l.652.638,1.343,1.317,1.39,1.365a2.588,2.588,0,0,1,.354.384,1.037,1.037,0,0,1,.166.536q0,.5.009,1.012c.011,1.354.021,2.676.031,3.955v.122h-.122l-3.174.02h-.115v-.116c0-.921-.01-1.811-.015-2.661a.764.764,0,0,0-.641-.77c-.365-.019-.8-.007-1.151,0a.778.778,0,0,0-.684.618c-.031.318-.008.691-.014,1.014v1.9h-.069l-2.558-.017-.666-.012a1.189,1.189,0,0,1-.219-.013" transform="translate(-4.658 -0.769)" fill="#263238"/>
              <path id="Trazado_231241" data-name="Trazado 231241" d="M258.179,73.257H163.965a8.535,8.535,0,0,1-8.535-8.534V61.55a8.536,8.536,0,0,1,8.535-8.536h94.214a8.536,8.536,0,0,1,8.535,8.536v3.172a8.535,8.535,0,0,1-8.535,8.534" transform="translate(-4.52 -1.542)" fill="#f5f5f5"/>
              <path id="Trazado_231242" data-name="Trazado 231242" d="M258.173,73.251s.217-.024.639-.052a9.143,9.143,0,0,0,1.837-.357,8.817,8.817,0,0,0,2.677-1.408,8.377,8.377,0,0,0,2.538-3.218,8.148,8.148,0,0,0,.67-2.359,21.67,21.67,0,0,0,.077-2.726,18.306,18.306,0,0,0-.132-2.965,8.423,8.423,0,0,0-6.721-6.869,23.278,23.278,0,0,0-3.869-.148l-4.112.007-87.811.061a8.345,8.345,0,0,0-8.3,7.637c-.07,1.008-.019,2.074-.035,3.1a9.668,9.668,0,0,0,.316,3.01,8.393,8.393,0,0,0,3.448,4.717,8.03,8.03,0,0,0,2.7,1.15,12.29,12.29,0,0,0,2.928.22l5.894,0,11.412.007L221.8,73.1l26.614.066,7.236.038,1.882.021c.423.008.641.02.641.02s-.217.016-.641.021l-1.882.021c-1.667.008-4.1.022-7.236.039L221.8,73.4l-39.478.046-11.412.007-5.894,0A12.689,12.689,0,0,1,162,73.224a8.447,8.447,0,0,1-2.828-1.2,8.8,8.8,0,0,1-3.619-4.944,10.1,10.1,0,0,1-.332-3.121c.016-1.044-.037-2.06.035-3.136a8.756,8.756,0,0,1,8.711-8.017l87.811.061q2.107,0,4.112.007a23.381,23.381,0,0,1,3.919.166,8.651,8.651,0,0,1,6.884,7.094,18.414,18.414,0,0,1,.116,3,21.548,21.548,0,0,1-.1,2.751,8.294,8.294,0,0,1-.7,2.4,8.45,8.45,0,0,1-2.61,3.249,8.762,8.762,0,0,1-2.727,1.39,8.644,8.644,0,0,1-1.858.319c-.424.015-.642.011-.642.011" transform="translate(-4.513 -1.535)" fill="#263238"/>
              <path id="Trazado_231243" data-name="Trazado 231243" d="M262.8,62.827c-.04,0-.036-.326-.193-.876a3.657,3.657,0,0,0-1.344-1.922,3.489,3.489,0,1,0,0,5.6,3.66,3.66,0,0,0,1.344-1.922c.157-.55.153-.878.193-.876.015,0,.024.081.03.236a2.736,2.736,0,0,1-.066.679,3.649,3.649,0,0,1-1.323,2.116,3.8,3.8,0,0,1-3.622.593,3.845,3.845,0,0,1,0-7.247,3.8,3.8,0,0,1,3.622.592,3.647,3.647,0,0,1,1.323,2.117,2.7,2.7,0,0,1,.067.679c-.006.155-.016.236-.03.236" transform="translate(-7.422 -1.715)" fill="#263238"/>
              <path id="Trazado_231244" data-name="Trazado 231244" d="M265.005,69.346a7.24,7.24,0,0,1-1.794-1.637,7.289,7.289,0,0,1-1.49-1.918,7.216,7.216,0,0,1,1.794,1.637,7.271,7.271,0,0,1,1.49,1.918" transform="translate(-7.61 -1.913)" fill="#263238"/>
              <path id="Trazado_231245" data-name="Trazado 231245" d="M170.844,61.338H168.86v-.517h4.567v.517h-1.985V66.47h-.6Z" transform="translate(-4.91 -1.769)" fill="#e0e0e0"/>
              <path id="Trazado_231246" data-name="Trazado 231246" d="M177.646,64.567h-3.551a1.572,1.572,0,0,0,1.67,1.477,1.671,1.671,0,0,0,1.3-.557l.322.372a2.245,2.245,0,0,1-3.865-1.469,2.044,2.044,0,0,1,2.074-2.154,2.022,2.022,0,0,1,2.057,2.154c0,.049-.008.113-.008.178m-3.551-.428h3.01a1.508,1.508,0,0,0-3.01,0" transform="translate(-5.046 -1.81)" fill="#e0e0e0"/>
              <path id="Trazado_231247" data-name="Trazado 231247" d="M181.542,66.513l-1.348-1.776-1.356,1.776h-.645l1.678-2.179-1.6-2.066h.646l1.275,1.662,1.275-1.662h.629l-1.6,2.066,1.694,2.179Z" transform="translate(-5.181 -1.811)" fill="#e0e0e0"/>
              <path id="Trazado_231248" data-name="Trazado 231248" d="M185.511,66.227a1.364,1.364,0,0,1-.9.3,1.124,1.124,0,0,1-1.243-1.234V62.725h-.758V62.24h.758v-.928h.573v.928h1.291v.484h-1.291v2.533a.68.68,0,0,0,.735.775.95.95,0,0,0,.629-.217Z" transform="translate(-5.31 -1.783)" fill="#e0e0e0"/>
              <path id="Trazado_231249" data-name="Trazado 231249" d="M232.525,93.712c0,.115-8.145.207-18.19.207s-18.192-.092-18.192-.207,8.143-.207,18.192-.207,18.19.092,18.19.207" transform="translate(-5.703 -2.719)" fill="#e8505b"/>
              <path id="Trazado_231250" data-name="Trazado 231250" d="M261.535,101.4c0,.115-14.64.207-32.694.207s-32.7-.092-32.7-.207,14.637-.207,32.7-.207,32.694.092,32.694.207" transform="translate(-5.703 -2.943)" fill="#263238"/>
              <path id="Trazado_231251" data-name="Trazado 231251" d="M260.766,106.894c0,.115-14.468.207-32.31.207s-32.312-.092-32.312-.207,14.464-.207,32.312-.207,32.31.092,32.31.207" transform="translate(-5.703 -3.102)" fill="#263238"/>
              <path id="Trazado_231252" data-name="Trazado 231252" d="M234.3,112.133c0,.116-8.542.208-19.077.208s-19.079-.092-19.079-.208,8.54-.206,19.079-.206,19.077.092,19.077.206" transform="translate(-5.703 -3.255)" fill="#263238"/>
              <path id="Trazado_231253" data-name="Trazado 231253" d="M232.525,135.509c0,.115-8.145.207-18.19.207s-18.192-.092-18.192-.207,8.143-.207,18.192-.207,18.19.092,18.19.207" transform="translate(-5.703 -3.934)" fill="#12263f"/>
              <path id="Trazado_231254" data-name="Trazado 231254" d="M261.535,143.2c0,.115-14.64.207-32.694.207s-32.7-.092-32.7-.207,14.637-.207,32.7-.207,32.694.093,32.694.207" transform="translate(-5.703 -4.158)" fill="#263238"/>
              <path id="Trazado_231255" data-name="Trazado 231255" d="M260.766,148.692c0,.115-14.468.207-32.31.207s-32.312-.092-32.312-.207,14.464-.207,32.312-.207,32.31.092,32.31.207" transform="translate(-5.703 -4.318)" fill="#263238"/>
              <path id="Trazado_231256" data-name="Trazado 231256" d="M234.3,153.931c0,.115-8.542.207-19.077.207s-19.079-.092-19.079-.207,8.54-.207,19.079-.207,19.077.092,19.077.207" transform="translate(-5.703 -4.47)" fill="#263238"/>
              <path id="Trazado_231257" data-name="Trazado 231257" d="M232.525,177.307c0,.115-8.145.207-18.19.207s-18.192-.092-18.192-.207,8.143-.207,18.192-.207,18.19.092,18.19.207" transform="translate(-5.703 -5.15)" fill="#12263f"/>
              <path id="Trazado_231258" data-name="Trazado 231258" d="M261.535,185c0,.115-14.64.208-32.694.208s-32.7-.093-32.7-.208,14.637-.207,32.7-.207,32.694.092,32.694.207" transform="translate(-5.703 -5.373)" fill="#263238"/>
              <path id="Trazado_231259" data-name="Trazado 231259" d="M260.766,190.49c0,.115-14.468.207-32.31.207s-32.312-.092-32.312-.207,14.464-.207,32.312-.207,32.31.092,32.31.207" transform="translate(-5.703 -5.533)" fill="#263238"/>
              <path id="Trazado_231260" data-name="Trazado 231260" d="M234.3,195.729c0,.115-8.542.208-19.077.208s-19.079-.093-19.079-.208,8.54-.207,19.079-.207,19.077.092,19.077.207" transform="translate(-5.703 -5.685)" fill="#263238"/>
              <path id="Trazado_231261" data-name="Trazado 231261" d="M232.525,219.1c0,.115-8.145.207-18.19.207s-18.192-.092-18.192-.207,8.143-.207,18.192-.207,18.19.093,18.19.207" transform="translate(-5.703 -6.365)" fill="#12263f"/>
              <path id="Trazado_231262" data-name="Trazado 231262" d="M261.535,226.8c0,.115-14.64.207-32.694.207s-32.7-.092-32.7-.207,14.637-.207,32.7-.207,32.694.092,32.694.207" transform="translate(-5.703 -6.589)" fill="#263238"/>
              <path id="Trazado_231263" data-name="Trazado 231263" d="M260.766,232.288c0,.115-14.468.207-32.31.207s-32.312-.092-32.312-.207,14.464-.207,32.312-.207,32.31.092,32.31.207" transform="translate(-5.703 -6.748)" fill="#263238"/>
              <path id="Trazado_231264" data-name="Trazado 231264" d="M234.3,237.527c0,.115-8.542.207-19.077.207s-19.079-.092-19.079-.207,8.54-.207,19.079-.207,19.077.092,19.077.207" transform="translate(-5.703 -6.901)" fill="#263238"/>
              <path id="Trazado_231265" data-name="Trazado 231265" d="M232.525,260.61c0,.115-8.145.207-18.19.207s-18.192-.092-18.192-.207,8.143-.207,18.192-.207,18.19.093,18.19.207" transform="translate(-5.703 -7.572)" fill="#12263f"/>
              <path id="Trazado_231266" data-name="Trazado 231266" d="M261.535,268.3c0,.115-14.64.207-32.694.207s-32.7-.092-32.7-.207,14.637-.207,32.7-.207,32.694.092,32.694.207" transform="translate(-5.703 -7.795)" fill="#263238"/>
              <path id="Trazado_231267" data-name="Trazado 231267" d="M260.766,273.792c0,.115-14.468.207-32.31.207s-32.312-.092-32.312-.207,14.464-.207,32.312-.207,32.31.093,32.31.207" transform="translate(-5.703 -7.955)" fill="#263238"/>
              <path id="Trazado_231268" data-name="Trazado 231268" d="M234.3,279.032c0,.114-8.542.207-19.077.207s-19.079-.092-19.079-.207,8.54-.207,19.079-.207,19.077.092,19.077.207" transform="translate(-5.703 -8.108)" fill="#263238"/>
              <rect id="Rectángulo_58030" data-name="Rectángulo 58030" width="22.274" height="29.635" transform="translate(151.353 112.966) rotate(-89.681)" fill="#afafaf"/>
              <path id="Trazado_231269" data-name="Trazado 231269" d="M155.886,115.936l10.428-13.787,6.363,8.7,4.375-4.606,8.468,9.861Z" transform="translate(-4.533 -2.97)" fill="#636363"/>
              <path id="Trazado_231270" data-name="Trazado 231270" d="M175.9,100.384a2.333,2.333,0,1,1-2.321-2.346,2.334,2.334,0,0,1,2.321,2.346" transform="translate(-4.979 -2.851)" fill="#636363"/>
              <rect id="Rectángulo_58033" data-name="Rectángulo 58033" width="22.274" height="29.635" transform="translate(151.353 153.032) rotate(-89.681)" fill="#afafaf"/>
              <path id="Trazado_231273" data-name="Trazado 231273" d="M155.886,157.2l10.428-13.788,6.363,8.7,4.375-4.607,8.468,9.862Z" transform="translate(-4.533 -4.17)" fill="#636363"/>
              <path id="Trazado_231274" data-name="Trazado 231274" d="M175.9,141.65a2.333,2.333,0,1,1-2.321-2.347,2.333,2.333,0,0,1,2.321,2.347" transform="translate(-4.979 -4.051)" fill="#707070"/>
              <rect id="Rectángulo_58036" data-name="Rectángulo 58036" width="22.274" height="29.635" transform="translate(151.353 193.098) rotate(-89.681)" fill="#afafaf"/>
              <path id="Trazado_231277" data-name="Trazado 231277" d="M155.886,198.468l10.428-13.787,6.363,8.7,4.375-4.606,8.468,9.861Z" transform="translate(-4.533 -5.37)" fill="#636363"/>
              <path id="Trazado_231278" data-name="Trazado 231278" d="M175.9,182.916a2.333,2.333,0,1,1-2.321-2.347,2.334,2.334,0,0,1,2.321,2.347" transform="translate(-4.979 -5.25)" fill="#636363"/>
              <rect id="Rectángulo_58039" data-name="Rectángulo 58039" width="22.274" height="29.635" transform="translate(151.353 233.164) rotate(-89.681)" fill="#afafaf"/>
              <path id="Trazado_231281" data-name="Trazado 231281" d="M155.886,239.734l10.428-13.788,6.363,8.7,4.375-4.607,8.468,9.862Z" transform="translate(-4.533 -6.57)" fill="#636363"/>
              <path id="Trazado_231282" data-name="Trazado 231282" d="M175.9,224.182a2.333,2.333,0,1,1-2.321-2.347,2.334,2.334,0,0,1,2.321,2.347" transform="translate(-4.979 -6.45)" fill="#636363"/>
              <rect id="Rectángulo_58042" data-name="Rectángulo 58042" width="22.274" height="29.635" transform="translate(151.353 273.035) rotate(-89.681)" fill="#afafaf"/>
              <path id="Trazado_231285" data-name="Trazado 231285" d="M155.886,280.8l10.428-13.787,6.363,8.7,4.375-4.606,8.468,9.861Z" transform="translate(-4.533 -7.764)" fill="#636363"/>
              <path id="Trazado_231286" data-name="Trazado 231286" d="M175.9,265.247a2.333,2.333,0,1,1-2.321-2.346,2.334,2.334,0,0,1,2.321,2.346" transform="translate(-4.979 -7.645)" fill="#636363"/>
              <path id="Trazado_231289" data-name="Trazado 231289" d="M395.689,53.78a10.567,10.567,0,1,1-10.567-10.567A10.568,10.568,0,0,1,395.689,53.78" transform="translate(-10.891 -1.257)" fill="#afafaf"/>
              <path id="Trazado_231290" data-name="Trazado 231290" d="M384.665,57.429a.483.483,0,0,1-.308-.111L380.8,54.391a.485.485,0,1,1,.616-.75l3.182,2.618,4.514-5.525a.485.485,0,1,1,.75.615l-4.822,5.9a.488.488,0,0,1-.328.177l-.048,0" transform="translate(-11.068 -1.47)" fill="#fff"/>
              <path id="Trazado_231291" data-name="Trazado 231291" d="M352.538,38.744A14.484,14.484,0,1,1,338.053,24.26a14.484,14.484,0,0,1,14.484,14.484" transform="translate(-9.409 -0.705)" fill="#f4a338"/>
              <path id="Trazado_231292" data-name="Trazado 231292" d="M337.419,44.044a.974.974,0,0,1-.617-.221l-4.874-4.013a.971.971,0,1,1,1.234-1.5l4.122,3.393,5.995-7.334a.971.971,0,0,1,1.5,1.228l-6.611,8.09a.966.966,0,0,1-.655.351c-.032,0-.065,0-.1,0" transform="translate(-9.641 -0.989)" fill="#fff"/>
            </g>
          </g>
          <g id="Grupo_180154" data-name="Grupo 180154">
            <g id="Grupo_180153" data-name="Grupo 180153" clip-path="url(#clip-path-2)">
              <g id="Grupo_891396" data-name="Grupo 891396" transform="translate(287.46 173.805)">
                <path id="Trazado_231293" data-name="Trazado 231293" d="M263.55,224.247a15.949,15.949,0,0,1-11.276-18.47c-.146.393-.282.794-.4,1.2a15.951,15.951,0,1,0,30.687,8.722c.116-.411.211-.822.294-1.234a15.95,15.95,0,0,1-19.306,9.778" transform="translate(-251.262 -192.786)" fill="#263238"/>
                <path id="Trazado_231294" data-name="Trazado 231294" d="M272.214,183.922a15.949,15.949,0,0,1,11.276,18.47c.146-.394.282-.794.4-1.2a15.951,15.951,0,0,0-30.687-8.722c-.116.411-.211.822-.294,1.234a15.949,15.949,0,0,1,19.306-9.778" transform="translate(-252.064 -180.658)" fill="#455a64"/>
                <path id="Trazado_231295" data-name="Trazado 231295" d="M283.83,200.881s.011-.088.045-.255l.157-.742.119-.545c.035-.2.053-.427.084-.668a11.634,11.634,0,0,0,.128-1.673,15.237,15.237,0,0,0-.547-4.548,15.933,15.933,0,0,0-8.263-10.1,14.787,14.787,0,0,0-1.863-.77c-.325-.1-.647-.23-.982-.32l-1.022-.234c-.172-.036-.343-.086-.518-.111l-.531-.066c-.354-.04-.711-.1-1.072-.125a16.767,16.767,0,0,0-2.2.019,16.468,16.468,0,0,0-2.233.309c-.371.083-.737.2-1.109.3a8.075,8.075,0,0,0-1.1.372,14.464,14.464,0,0,0-4.136,2.317,15.328,15.328,0,0,0-3.366,3.574,15.675,15.675,0,0,0-2.731,9.6,15.336,15.336,0,0,0,.983,4.812,14.475,14.475,0,0,0,2.3,4.147,8.059,8.059,0,0,0,.739.894c.264.28.515.57.786.836a16.51,16.51,0,0,0,1.738,1.438,16.793,16.793,0,0,0,1.86,1.174c.321.167.655.305.977.458l.486.223c.163.071.333.118.5.178l.993.339c.332.1.672.162,1,.244a14.781,14.781,0,0,0,1.989.326,15.931,15.931,0,0,0,12.338-4.241,15.22,15.22,0,0,0,2.857-3.58,11.638,11.638,0,0,0,.771-1.49c.1-.221.2-.422.281-.612l.186-.526.256-.714c.06-.161.1-.241.1-.241s-.019.086-.07.249l-.232.724-.174.533c-.073.192-.172.4-.27.62a11.329,11.329,0,0,1-.754,1.51,15.111,15.111,0,0,1-2.844,3.637,16.043,16.043,0,0,1-12.461,4.353,14.954,14.954,0,0,1-2.019-.323c-.337-.082-.682-.145-1.019-.245l-1.009-.341c-.168-.06-.342-.108-.507-.179l-.494-.225c-.328-.154-.667-.293-.993-.462a17.563,17.563,0,0,1-3.66-2.644c-.276-.27-.531-.564-.8-.848a8.327,8.327,0,0,1-.752-.907,14.735,14.735,0,0,1-2.342-4.212,15.578,15.578,0,0,1-1-4.892,15.919,15.919,0,0,1,2.777-9.763,15.568,15.568,0,0,1,3.426-3.631,14.706,14.706,0,0,1,4.206-2.349,8.164,8.164,0,0,1,1.117-.376c.378-.1.75-.216,1.127-.3a16.662,16.662,0,0,1,2.269-.309,16.92,16.92,0,0,1,2.234-.014c.366.027.727.087,1.088.129l.538.069c.178.027.351.078.526.114l1.037.241c.34.092.666.221,1,.328a14.837,14.837,0,0,1,1.887.787,16.04,16.04,0,0,1,8.309,10.256,15.105,15.105,0,0,1,.506,4.59,11.294,11.294,0,0,1-.153,1.681c-.035.242-.057.467-.1.669l-.132.545-.184.738c-.043.166-.071.248-.071.248" transform="translate(-251.823 -180.455)" fill="#263238"/>
                <path id="Trazado_231296" data-name="Trazado 231296" d="M301.836,234.761c.2.137,15.307,14.069,20.867,19.278a2.424,2.424,0,1,0,3.311-3.541l-20.732-19.151Z" transform="translate(-275.891 -205.238)" fill="#263238"/>
              </g>
            </g>
          </g>
        </g>
      </g>
      <g id="Grupo_888578" data-name="Grupo 888578" transform="translate(1081.155 1531.691)">
        <rect id="Rectángulo_299819" data-name="Rectángulo 299819" width="66.054" height="17.057" transform="translate(3.498)" fill="#1565c0"/>
        <path id="Trazado_605119" data-name="Trazado 605119" d="M36.123,141.858l-4.114,11.349H28.845l-2.552-7.046-2.637,7.046H20.492L16.4,141.858h3.1l2.679,7.678,2.784-7.678h2.785l2.7,7.678,2.763-7.678Z" transform="translate(-9.382 -139.134)" fill="#fff"/>
        <path id="Trazado_605120" data-name="Trazado 605120" d="M53.261,141.858l-4.114,11.349H45.983l-2.552-7.046-2.637,7.046H37.63l-4.092-11.349h3.1l2.679,7.678,2.784-7.678h2.785l2.7,7.678,2.764-7.678Z" transform="translate(-7.029 -139.134)" fill="#fff"/>
        <path id="Trazado_605121" data-name="Trazado 605121" d="M70.4,141.858l-4.114,11.349H63.122l-2.552-7.046-2.637,7.046H54.769l-4.092-11.349h3.1l2.679,7.678,2.784-7.678h2.784l2.7,7.678,2.764-7.678Z" transform="translate(-4.676 -139.134)" fill="#fff"/>
        <line id="Línea_2084" data-name="Línea 2084" x2="6.996" transform="translate(0)" fill="none" stroke="#38356e" stroke-miterlimit="10" stroke-width="1"/>
        <line id="Línea_2085" data-name="Línea 2085" x2="6.996" transform="translate(0 17.057)" fill="none" stroke="#38356e" stroke-miterlimit="10" stroke-width="1"/>
        <line id="Línea_2086" data-name="Línea 2086" y2="17.057" transform="translate(3.498)" fill="none" stroke="#38356e" stroke-miterlimit="10" stroke-width="1"/>
      </g>
      <g id="Grupo_888579" data-name="Grupo 888579" transform="translate(1003.75 1573.206)">
        <path id="Trazado_605122" data-name="Trazado 605122" d="M124.535,119.094H10.966a2.3,2.3,0,0,1-2.3-2.3V46.5a2.3,2.3,0,0,1,2.3-2.3H124.535a2.3,2.3,0,0,1,2.3,2.3v70.3a2.3,2.3,0,0,1-2.3,2.3" transform="translate(0.375 -35.221)" fill="#12263f"/>
        <path id="Trazado_605123" data-name="Trazado 605123" d="M10.229,115.131V51.844a1.811,1.811,0,0,1,1.811-1.811H123.324a1.812,1.812,0,0,1,1.812,1.811v63.287a1.812,1.812,0,0,1-1.812,1.811H12.04a1.811,1.811,0,0,1-1.811-1.811" transform="translate(0.443 -34.968)" fill="#fff"/>
        <path id="Trazado_605124" data-name="Trazado 605124" d="M119.762,47.18a1.5,1.5,0,1,1-1.5-1.5,1.5,1.5,0,0,1,1.5,1.5" transform="translate(5.055 -35.156)" fill="#fff"/>
        <path id="Trazado_605125" data-name="Trazado 605125" d="M115.023,47.18a1.5,1.5,0,1,1-1.5-1.5,1.5,1.5,0,0,1,1.5,1.5" transform="translate(4.85 -35.156)" fill="#fff"/>
        <path id="Trazado_605126" data-name="Trazado 605126" d="M110.284,47.18a1.5,1.5,0,1,1-1.5-1.5,1.5,1.5,0,0,1,1.5,1.5" transform="translate(4.645 -35.156)" fill="#fff"/>
        <path id="Trazado_605127" data-name="Trazado 605127" d="M26.272,61.764a6.05,6.05,0,1,1-6.05-6.05,6.05,6.05,0,0,1,6.05,6.05" transform="translate(0.613 -34.722)" fill="#1565c0"/>
        <rect id="Rectángulo_299820" data-name="Rectángulo 299820" width="90.208" height="2.858" transform="translate(29.665 21.04)" fill="#e8e8e8"/>
        <rect id="Rectángulo_299821" data-name="Rectángulo 299821" width="61.396" height="2.858" transform="translate(29.665 25.613)" fill="#e8e8e8"/>
        <rect id="Rectángulo_299822" data-name="Rectángulo 299822" width="31.926" height="2.858" transform="translate(29.665 30.468)" fill="#e8e8e8"/>
        <path id="Trazado_605128" data-name="Trazado 605128" d="M26.272,80.231a6.05,6.05,0,1,1-6.05-6.05,6.05,6.05,0,0,1,6.05,6.05" transform="translate(0.613 -33.923)" fill="#fb8c00"/>
        <rect id="Rectángulo_299823" data-name="Rectángulo 299823" width="90.208" height="2.858" transform="translate(29.665 40.306)" fill="#e8e8e8"/>
        <rect id="Rectángulo_299824" data-name="Rectángulo 299824" width="61.396" height="2.858" transform="translate(29.665 44.879)" fill="#e8e8e8"/>
        <rect id="Rectángulo_299825" data-name="Rectángulo 299825" width="31.926" height="2.858" transform="translate(29.665 49.735)" fill="#e8e8e8"/>
        <path id="Trazado_605129" data-name="Trazado 605129" d="M26.272,98.7a6.05,6.05,0,1,1-6.05-6.05,6.05,6.05,0,0,1,6.05,6.05" transform="translate(0.613 -33.123)" fill="#26aab7"/>
        <rect id="Rectángulo_299826" data-name="Rectángulo 299826" width="90.208" height="2.858" transform="translate(29.665 59.573)" fill="#e8e8e8"/>
        <rect id="Rectángulo_299827" data-name="Rectángulo 299827" width="61.396" height="2.858" transform="translate(29.665 64.146)" fill="#e8e8e8"/>
        <rect id="Rectángulo_299828" data-name="Rectángulo 299828" width="31.926" height="2.858" transform="translate(29.665 69.001)" fill="#e8e8e8"/>
        <path id="Trazado_605130" data-name="Trazado 605130" d="M127.368,121.336V122.9H125.8" transform="translate(5.446 -31.881)" fill="none" stroke="#38356e" stroke-linejoin="round" stroke-width="0.5"/>
        <line id="Línea_2087" data-name="Línea 2087" x1="122.482" transform="translate(5.666 91.02)" fill="none" stroke="#12263f" stroke-linejoin="round" stroke-width="0.5" stroke-dasharray="2.972 2.972"/>
        <path id="Trazado_605131" data-name="Trazado 605131" d="M4.01,122.9H2.445v-1.565" transform="translate(0.106 -31.881)" fill="none" stroke="#38356e" stroke-linejoin="round" stroke-width="0.5"/>
        <line id="Línea_2088" data-name="Línea 2088" y1="80.598" transform="translate(2.551 5.696)" fill="none" stroke="#12263f" stroke-linejoin="round" stroke-width="0.5" stroke-dasharray="3.03 3.03"/>
        <path id="Trazado_605132" data-name="Trazado 605132" d="M2.445,39.6V38.038H4.01" transform="translate(0.106 -35.487)" fill="none" stroke="#38356e" stroke-linejoin="round" stroke-width="0.5"/>
        <line id="Línea_2089" data-name="Línea 2089" x2="122.482" transform="translate(7.217 2.551)" fill="none" stroke="#12263f" stroke-linejoin="round" stroke-width="0.5" stroke-dasharray="2.972 2.972"/>
        <path id="Trazado_605133" data-name="Trazado 605133" d="M125.8,38.038h1.565V39.6" transform="translate(5.446 -35.487)" fill="none" stroke="#38356e" stroke-linejoin="round" stroke-width="0.5"/>
        <line id="Línea_2090" data-name="Línea 2090" y2="80.598" transform="translate(132.814 7.276)" fill="none" stroke="#12263f" stroke-linejoin="round" stroke-width="0.5" stroke-dasharray="3.03 3.03"/>
        <rect id="Rectángulo_299829" data-name="Rectángulo 299829" width="5.102" height="5.102" fill="#12263f"/>
        <rect id="Rectángulo_299830" data-name="Rectángulo 299830" width="5.102" height="5.102" transform="translate(130.264)" fill="#12263f"/>
        <rect id="Rectángulo_299831" data-name="Rectángulo 299831" width="5.102" height="5.102" transform="translate(130.264 88.469)" fill="#12263f"/>
        <rect id="Rectángulo_299832" data-name="Rectángulo 299832" width="5.102" height="5.102" transform="translate(0.782 88.469)" fill="#12263f"/>
        <path id="Trazado_605134" data-name="Trazado 605134" d="M84.209,103.305V101.74h1.565" transform="translate(3.645 -32.73)" fill="none" stroke="#38356e" stroke-linejoin="round" stroke-width="0.5"/>
      </g>
      <path id="Trazado_236852" data-name="Trazado 236852" d="M409.11,278.871v27.573a3.107,3.107,0,0,1-2.653,3.08,2.4,2.4,0,0,1-.467.04H370.568a3.119,3.119,0,0,1-3.12-3.12V278.871a2.991,2.991,0,0,1,.318-1.362,3.11,3.11,0,0,1,2.8-1.768h13.88a3.147,3.147,0,0,0,1.838-.6,3.054,3.054,0,0,0,1.133-1.55,3.126,3.126,0,0,1,2.971-2.156h7.393a3.118,3.118,0,0,1,2.971,2.156,3.121,3.121,0,0,0,2.971,2.146h2.266a3.127,3.127,0,0,1,3.12,3.13" transform="translate(999.735 1340.163)" fill="#c17d23"/>
      <g id="Grupo_182229" data-name="Grupo 182229" transform="translate(1367.183 1617.673)" style="isolation: isolate">
        <g id="Grupo_182228" data-name="Grupo 182228">
          <g id="Grupo_182227" data-name="Grupo 182227" clip-path="url(#clip-path-6)">
            <path id="Trazado_236853" data-name="Trazado 236853" d="M406.456,280.826v29.351c-.015.015-.024.023-.04.04h-35.85a3.12,3.12,0,0,1-3.12-3.121V279.524a2.987,2.987,0,0,1,.318-1.362h36.028a2.664,2.664,0,0,1,2.664,2.664" transform="translate(-367.448 -278.162)" fill="#f4a338"/>
          </g>
        </g>
      </g>
    </g>
  </g>
</svg>
