<svg xmlns="http://www.w3.org/2000/svg" width="141.501" height="140.133" viewBox="0 0 141.501 140.133">
  <g id="Grupo_892595" data-name="Grupo 892595" transform="translate(45.045 46.569)">
    <rect id="Rectángulo_49533" data-name="Rectángulo 49533" width="89.789" height="83.368" transform="translate(6.667 10.195)" fill="#ffde96"/>
    <g id="kaoxqM" transform="translate(477.526 -238.045)">
      <g id="Grupo_892600" data-name="Grupo 892600" transform="translate(-522.571 191.476)">
        <path id="Trazado_612215" data-name="Trazado 612215" d="M-497.787,220.447c0-7.466.135-14.737-.053-22a6.7,6.7,0,0,1,6.981-6.971q34.394.169,68.79,0c3.951-.019,7.283,2.892,6.9,7.005-.063.682-.009,1.376-.009,2.064,0,2.964-.4,3.366-3.305,3.367q-2.258,0-4.517.012a2.3,2.3,0,0,0-.344.069V217.54c.92-.973,1.618-1.763,2.37-2.5a9.513,9.513,0,0,1,13.654-.018q2.958,2.882,5.84,5.842a9.508,9.508,0,0,1,.045,13.564c-1.58,1.643-3.242,3.208-4.812,4.86a2.313,2.313,0,0,0-.641,1.42q-.048,24.651-.023,49.3c0,.166.031.332.064.661,1.892,0,3.768-.005,5.644,0s2.552.7,2.547,2.57a18.642,18.642,0,0,1-15.272,17.792,19.451,19.451,0,0,1-2.947.268q-43.753.021-87.505,0a18.542,18.542,0,0,1-18.192-18.087c0-1.858.683-2.54,2.57-2.546,1.843-.006,3.685,0,5.691,0v-1.586c0-19.231.095-38.462-.055-57.691a10.627,10.627,0,0,1,11.042-10.965C-501.532,220.537-499.729,220.447-497.787,220.447Zm70.158,40.086c-1.157,1.2-2.107,2.165-3.041,3.148a19.654,19.654,0,0,1-9.426,5.545c-4.52,1.194-9.022,2.458-13.541,3.655a23.3,23.3,0,0,1-5.369,1.2c-7.958.131-15.919.059-23.879.055-1.636,0-2.525-.757-2.5-2.095s.895-2.021,2.575-2.023q4.712-.007,9.423,0h13.236l1.113-4.141c-3.917,0-7.657,0-11.4,0-1.665,0-2.547-.716-2.556-2.044s.876-2.071,2.524-2.074q5.615-.009,11.23,0h1.351l1.1-4.14h-3.194q-11.553,0-23.105,0a2.028,2.028,0,0,1-2.3-2.039,2.025,2.025,0,0,1,2.263-2.075c.774-.016,1.549,0,2.323,0q12,0,24.009-.016c.418,0,1.09-.121,1.208-.382.533-1.184.91-2.438,1.37-3.743-1.439,0-2.771.015-4.1,0a2.034,2.034,0,0,1-2.283-2.313c-.016-2.5-.009-4.991,0-7.487,0-1.894.671-2.574,2.539-2.577,4.69-.006,9.38,0,14.069-.01.414,0,.965.039,1.218-.194,1.3-1.2,2.528-2.479,3.988-3.939h-12.846q-7.422,0-14.844,0c-1.6,0-2.551-.958-2.376-2.343.144-1.139.99-1.772,2.429-1.772,9.251,0,18.5-.025,27.752.031a14.515,14.515,0,0,1,3.185.823c2.162-2.168,4.678-4.637,7.113-7.182a3.006,3.006,0,0,0,.784-1.869c.055-7.1.035-14.2.035-21.3v-3.565H-490.6c-2.429,0-3.062.628-3.062,3.043q0,41.112,0,82.224v1.412h66.037ZM-518.2,294.8c.047.412.054.711.118,1a14.5,14.5,0,0,0,14.5,11.4q42.97.028,85.939-.035a16.054,16.054,0,0,0,5.527-1c5.152-1.947,8.1-5.818,9.168-11.248a4.256,4.256,0,0,0-.609-.1q-19.226-.007-38.453.026a1.6,1.6,0,0,0-1.116.754c-.762,1.342-1.38,2.766-2.122,4.121a6.053,6.053,0,0,1-5.671,3.357q-9.678-.01-19.356,0a6.1,6.1,0,0,1-5.744-3.455c-.65-1.21-1.3-2.427-1.832-3.69a1.679,1.679,0,0,0-1.845-1.143q-18.581.052-37.163.023Zm20.418-61.842c-3.392-.416-4.141.218-4.141,3.374v54.246h82.537V252.32c-1.208,1.238-2.183,2.319-3.25,3.3a2.473,2.473,0,0,0-.814,2.03q.038,13.036.015,26.072c0,2.217-.6,2.81-2.83,2.81h-68.666c-2.291,0-2.852-.574-2.852-2.914q0-24.523,0-49.047Zm-.054-8.384c-1.864,0-3.582,0-5.3,0-4.538,0-7.047,2.492-7.047,7q0,28.844,0,57.688v1.35h4.14v-1.577c0-17.767.081-35.534-.057-53.3-.034-4.372,3.195-7.45,7.006-7.032a8.224,8.224,0,0,0,1.26-.053Zm86.778,19.405c-1.269,1.308-2.241,2.385-3.3,3.37a2.494,2.494,0,0,0-.831,2.022q.035,19.933.017,39.866v1.341h4.114Zm-38.137,5.505c-1.9,2.333-2.481,5.263-3.18,8.131a1.918,1.918,0,0,0,.408,1.518c1.74,1.847,3.67,3.524,5.324,5.44a3.176,3.176,0,0,0,3.981,1.076c2.339-.824,4.8-1.308,6.723-2.92Zm11.082,4.893,20.537-20.506-2.56-2.913-20.678,20.68Zm19.982-36.148,13.463,13.457a5.17,5.17,0,0,0,.429-7.646c-2.031-2.16-4.125-4.268-6.291-6.293A5.124,5.124,0,0,0-418.136,218.225Zm-55.6,76.6c.5,1.014.919,1.849,1.317,2.694a2.3,2.3,0,0,0,2.253,1.414c6.364,0,12.727.02,19.09-.034a2.527,2.527,0,0,0,1.8-.758,24.735,24.735,0,0,0,1.813-3.316Zm29.533-46.69,20.516-20.519-1.718-1.925-20.639,20.627Zm11.364,11.339,20.49-20.494-1.675-1.943-20.612,20.616ZM-408,235.05l-13.447-13.5-.945.737,13.5,13.57Zm-48.424,10.183c1.336,0,2.574.011,3.812-.005.507-.006,1.192.128,1.489-.141,1.338-1.21,2.566-2.542,3.928-3.926h-9.229Zm.86,23.878,5.488-1.521-3.957-4.094Zm32.154-69.4h4.111c-.069-1.37.424-2.868-1.022-3.664a2.536,2.536,0,0,0-2.129.029C-423.871,196.9-423.375,198.38-423.413,199.716Z" transform="translate(522.571 -191.476)" fill="#12263f"/>
        <path id="Trazado_612216" data-name="Trazado 612216" d="M-366.551,260.233c-3.27,0-6.541.006-9.811,0-1.8,0-2.5-.7-2.5-2.488q-.01-7.81,0-15.62c0-1.819.686-2.53,2.454-2.532q9.94-.01,19.88,0c1.713,0,2.434.717,2.437,2.421q.014,7.874,0,15.749c0,1.773-.715,2.466-2.52,2.47C-359.924,260.238-363.238,260.233-366.551,260.233Zm8.283-16.432h-16.372v12.242h16.372Z" transform="translate(416.042 -227.14)" fill="#12263f"/>
        <path id="Trazado_612217" data-name="Trazado 612217" d="M-256.82,275.643c-2.625,0-5.25.009-7.874,0-1.523-.007-2.393-.8-2.369-2.1.023-1.245.878-2.01,2.324-2.013q8-.016,16.007,0a2.029,2.029,0,0,1,2.306,2.033,2.021,2.021,0,0,1-2.261,2.078C-251.4,275.656-254.109,275.643-256.82,275.643Z" transform="translate(333.161 -250.812)" fill="#12263f"/>
        <path id="Trazado_612218" data-name="Trazado 612218" d="M-256.811,307.58c-2.625,0-5.25.009-7.875,0-1.524-.007-2.4-.791-2.377-2.092.018-1.245.875-2.018,2.316-2.021q8-.016,16.007,0a2.031,2.031,0,0,1,2.314,2.024c.018,1.295-.862,2.082-2.382,2.089C-251.475,307.589-254.143,307.58-256.811,307.58Z" transform="translate(333.161 -274.487)" fill="#12263f"/>
        <path id="Trazado_612219" data-name="Trazado 612219" d="M-368.585,371.459c-2.625,0-5.25.009-7.875,0-1.525-.007-2.4-.787-2.384-2.085s.885-2.028,2.438-2.03q7.874-.01,15.749,0c1.559,0,2.429.734,2.451,2.019.022,1.335-.872,2.093-2.5,2.1C-363.335,371.465-365.96,371.459-368.585,371.459Z" transform="translate(416.025 -321.842)" fill="#12263f"/>
        <path id="Trazado_612220" data-name="Trazado 612220" d="M-368.619,403.393c-2.625,0-5.25.01-7.875,0-1.514-.008-2.385-.81-2.352-2.117.031-1.243.885-1.994,2.34-2q8-.014,16.007,0a2.027,2.027,0,0,1,2.29,2.049,2.029,2.029,0,0,1-2.278,2.062C-363.2,403.406-365.908,403.393-368.619,403.393Z" transform="translate(416.027 -345.515)" fill="#12263f"/>
        <path id="Trazado_612221" data-name="Trazado 612221" d="M-242.916,243.7c-1.937,0-3.873.01-5.809,0-1.523-.011-2.393-.8-2.369-2.1.023-1.245.878-2.008,2.324-2.013q5.938-.018,11.876,0a2.03,2.03,0,0,1,2.306,2.033,2.024,2.024,0,0,1-2.261,2.079C-238.872,243.716-240.894,243.7-242.916,243.7Z" transform="translate(321.323 -227.133)" fill="#12263f"/>
        <path id="Trazado_612222" data-name="Trazado 612222" d="M-358.658,335.363a19.237,19.237,0,0,1,2.193.016,1.91,1.91,0,0,1,1.829,1.971,1.94,1.94,0,0,1-1.826,2.1c-1.5.07-3.013.063-4.516,0a1.959,1.959,0,0,1-1.9-2.04,2.012,2.012,0,0,1,1.894-2.053,2.532,2.532,0,0,1,.258-.006h2.065Z" transform="translate(404.187 -298.122)" fill="#12263f"/>
        <path id="Trazado_612223" data-name="Trazado 612223" d="M-374.776,467.212c-.732,0-1.466.043-2.194-.012a1.987,1.987,0,0,1-1.874-2.066,1.954,1.954,0,0,1,1.916-2.019c1.461-.055,2.927-.053,4.388,0a1.964,1.964,0,0,1,1.94,2,2,2,0,0,1-1.983,2.093C-373.311,467.247-374.044,467.213-374.776,467.212Z" transform="translate(416.024 -392.814)" fill="#12263f"/>
      </g>
    </g>
  </g>
</svg>
