<svg xmlns="http://www.w3.org/2000/svg" width="116.817" height="121.647" viewBox="0 0 116.817 121.647">
  <g id="Grupo_892590" data-name="Grupo 892590" transform="translate(20.361 28.084)">
    <rect id="Rectángulo_49533" data-name="Rectángulo 49533" width="89.789" height="83.368" transform="translate(6.667 10.195)" fill="#ffde96"/>
    <g id="q9jnnq" transform="translate(-698.742 -311.842)">
      <g id="Grupo_892599" data-name="Grupo 892599" transform="translate(678.381 283.758)">
        <path id="Trazado_612203" data-name="Trazado 612203" d="M782.21,370.29c.636,0,1.168-.027,1.7.005a1.7,1.7,0,0,1,1.755,1.792c.017,3.677.077,7.356-.022,11.03a8.566,8.566,0,0,1-7.8,7.915c-.539.033-1.08.058-1.62.059q-44.178,0-88.356.015a9.228,9.228,0,0,1-6.74-2.361,8.34,8.34,0,0,1-2.741-6.242c-.008-3.245,0-6.489,0-9.733,0-1.985.482-2.466,2.484-2.483.282,0,.565,0,.912,0V353.01c-.536,0-1.065.027-1.591-.005a1.7,1.7,0,0,1-1.8-1.843c-.008-.216,0-.433,0-.649q0-32.12,0-64.239c0-2.04.484-2.515,2.561-2.515h77.974c2.037,0,2.523.493,2.523,2.555q0,10.166,0,20.332v1.342h1.192c4.11,0,8.219-.006,12.329,0a6.921,6.921,0,0,1,7.245,7.284q0,26.821,0,53.641Zm-100.373,3.567c0,2.691,0,5.316,0,7.94a8.635,8.635,0,0,0,.043,1.187,5.147,5.147,0,0,0,5.259,4.6q44.885.012,89.77,0a4.965,4.965,0,0,0,5.219-4.6c.205-3.007.047-6.038.047-9.127Zm76.082-34.465V301.184H681.9v48.287h70.389c-.114-.408-.2-.751-.3-1.091-.8-2.685-1.6-5.372-2.414-8.054a2.145,2.145,0,0,1,.294-2.415,2.108,2.108,0,0,1,2.324-.252C754.074,338.238,755.961,338.8,757.918,339.391Zm3.614-20.926a1.887,1.887,0,0,0-.077.319c-.006,6.992,0,13.985-.024,20.977,0,.608.268.773.789.922,2.072.593,4.124,1.256,6.194,1.858.9.262,1.61.666,1.674,1.7.069,1.1-.653,1.586-1.55,1.939-2.241.882-4.489,1.749-6.7,2.695a2.2,2.2,0,0,0-1.05,1.065c-.987,2.314-1.892,4.663-2.832,7a1.726,1.726,0,0,1-1.819,1.238,1.7,1.7,0,0,1-1.6-1.371c-.274-.893-.6-1.775-.805-2.683-.185-.822-.521-1.132-1.442-1.13q-29.412.051-58.825.026h-1.181V363.3H771.77V318.465Zm-76.2,51.742h93.423V346.024q0-15.3,0-30.606c0-2.321-1.276-3.875-3.419-3.9-4.541-.06-9.083,0-13.624.011-.061,0-.122.067-.205.117v3.266h1.229q5.029,0,10.058,0c1.985,0,2.495.506,2.495,2.475q0,23.522,0,47.044c0,.216.008.433,0,.649a1.666,1.666,0,0,1-1.659,1.759c-.393.038-.792.029-1.188.029H691.652c-.288,0-.577.007-.865,0-1.444-.056-2.015-.632-2.018-2.073q-.011-5.245,0-10.49v-1.2h-3.433Zm72.6-72.659V287.325H709.615v10.223Zm-51.895-10.2H681.91v10.178h24.129Zm57.015,57.243-9.377-2.808,2.817,9.359c.562-1.389,1.023-2.439,1.411-3.515a2.485,2.485,0,0,1,1.6-1.611C760.614,345.614,761.7,345.138,763.054,344.589Z" transform="translate(-678.381 -283.758)" fill="#12263f"/>
        <path id="Trazado_612204" data-name="Trazado 612204" d="M1081.333,726.7h-3.285v-3.384h3.285Z" transform="translate(-991.431 -628.05)" fill="#12263f"/>
        <path id="Trazado_612205" data-name="Trazado 612205" d="M1109.8,726.645v-3.352h3.342v3.352Z" transform="translate(-1016.304 -628.035)" fill="#12263f"/>
        <path id="Trazado_612206" data-name="Trazado 612206" d="M730.172,407.307q-8.653,0-17.3,0c-2.1,0-2.538-.445-2.538-2.531q0-11.464,0-22.929c0-1.684.58-2.267,2.267-2.267q17.629,0,35.258,0c1.687,0,2.268.584,2.268,2.268q0,11.626,0,23.253c0,1.628-.555,2.2-2.215,2.2Q739.041,407.32,730.172,407.307Zm16.431-7.7V383.158H722.471a8.758,8.758,0,0,1-8.591,8.591v9.537c2.352-2.361,4.561-4.583,6.776-6.8,1.439-1.441,2.137-1.438,3.6.028,1.11,1.112,2.2,2.242,3.349,3.411,2.4-2.4,4.658-4.667,6.924-6.931,1.4-1.4,2.122-1.4,3.524.012C740.848,393.814,743.638,396.626,746.6,399.61Zm-1.271,4.2-9.158-9.158-5.924,5.913c.926.905,1.916,1.9,2.94,2.856a1.368,1.368,0,0,0,.829.373C737.869,403.813,741.719,403.8,745.332,403.8Zm-17.1,0-5.69-5.692-5.7,5.692h11.386Zm-14.387-15.628a5,5,0,0,0,5.05-5.032h-5.05Z" transform="translate(-703.405 -358.811)" fill="#12263f"/>
        <path id="Trazado_612207" data-name="Trazado 612207" d="M741.442,523.309H770.1c1.979,0,2.483.507,2.484,2.486s.009,3.966,0,5.948a1.73,1.73,0,0,1-1.89,1.981c-.288.016-.577.008-.865.008H713.048c-.36,0-.723.008-1.08-.027a1.634,1.634,0,0,1-1.664-1.749q-.037-3.407,0-6.814c.014-1.232.737-1.83,2.154-1.831q7.949-.008,15.9,0Zm-27.659,6.851h55.28v-3.273h-55.28Z" transform="translate(-703.371 -471.391)" fill="#12263f"/>
        <path id="Trazado_612208" data-name="Trazado 612208" d="M922.873,393.458c-3.533,0-7.066.008-10.6,0-1.8-.005-2.319-.536-2.32-2.313q0-4.7,0-9.409c0-1.538.614-2.156,2.159-2.157q10.815-.008,21.63,0c1.544,0,2.156.62,2.159,2.159q.009,4.759,0,9.517c0,1.628-.555,2.194-2.215,2.2C930.082,393.469,926.477,393.458,922.873,393.458Zm-9.387-10.327v6.741h18.882v-6.741Z" transform="translate(-859.765 -358.807)" fill="#12263f"/>
        <path id="Trazado_612209" data-name="Trazado 612209" d="M936.063,463.085h-25.8V459.7h25.8Z" transform="translate(-860.01 -421.565)" fill="#12263f"/>
        <path id="Trazado_612210" data-name="Trazado 612210" d="M936.164,491.719v3.354H910.35v-3.354Z" transform="translate(-860.077 -446.649)" fill="#12263f"/>
        <path id="Trazado_612211" data-name="Trazado 612211" d="M838.33,319.312V315.96h41.388v3.352Z" transform="translate(-803.665 -308.981)" fill="#12263f"/>
        <path id="Trazado_612212" data-name="Trazado 612212" d="M713.993,316.016v3.368h-3.322v-3.368Z" transform="translate(-703.673 -309.025)" fill="#12263f"/>
        <path id="Trazado_612213" data-name="Trazado 612213" d="M742.537,315.935h3.319V319.3h-3.319Z" transform="translate(-728.633 -308.961)" fill="#12263f"/>
        <path id="Trazado_612214" data-name="Trazado 612214" d="M777.814,319.357h-3.3v-3.386h3.3Z" transform="translate(-753.677 -308.99)" fill="#12263f"/>
      </g>
    </g>
  </g>
</svg>
