<svg xmlns="http://www.w3.org/2000/svg" width="68.633" height="89.604" viewBox="0 0 68.633 89.604">
  <g id="_41Ckdm" data-name="41Ckdm" transform="translate(618.168 1931.803)">
    <g id="Grupo_895145" data-name="Grupo 895145" transform="translate(-618.168 -1931.804)">
      <path id="Trazado_616631" data-name="Trazado 616631" d="M-611.336-1842.2a9.117,9.117,0,0,1-4.115-1.759,7.409,7.409,0,0,1-2.683-5.3c-.025-.349-.023-.7-.023-1.05q0-36.715-.011-73.431a7.7,7.7,0,0,1,2.945-6.5,7.483,7.483,0,0,1,4.73-1.546q20.611-.021,41.223.024a2.661,2.661,0,0,1,1.674.738c5.785,5.726,11.524,11.5,17.293,17.24a2.63,2.63,0,0,1,.769,2.04q-.023,15.841-.01,31.683,0,15.01,0,30.02a7.3,7.3,0,0,1-4.261,7.056,16.287,16.287,0,0,1-2.561.795Zm40.969-86.632c-.382-.017-.613-.037-.845-.037q-19.606,0-39.212,0a4.491,4.491,0,0,0-4.8,4.827q-.011,37.023,0,74.047a4.5,4.5,0,0,0,4.89,4.83q26.477.007,52.953,0a4.517,4.517,0,0,0,4.909-4.9q.009-29.978.022-59.955c0-.8-.262-.964-1-.958q-6.039.047-12.078.01c-3.055-.014-4.827-1.805-4.834-4.851-.008-3.968,0-7.936,0-11.9Zm3.031,2.478c0,3.651-.018,7.229.011,10.808.009,1.031.61,1.527,1.718,1.53q5.023.015,10.045,0a2.7,2.7,0,0,0,.49-.084Z" transform="translate(618.168 1931.803)" fill="#12263f"/>
      <path id="Trazado_616632" data-name="Trazado 616632" d="M-556.567-1915.048v1.112c0,3.968-.006,7.936,0,11.9.006,3.046,1.779,4.837,4.834,4.851q6.039.028,12.078-.01c.737-.006,1,.154,1,.958q-.035,29.978-.022,59.955a4.518,4.518,0,0,1-4.909,4.9q-26.477.006-52.953,0a4.5,4.5,0,0,1-4.89-4.83q-.011-37.023,0-74.047a4.49,4.49,0,0,1,4.8-4.827q19.606-.012,39.212,0C-557.18-1915.085-556.949-1915.065-556.567-1915.048Zm-15.529,39.99-2.018-2.124-1.82,1.73a2.882,2.882,0,0,1-.094-.365c-.184-2.419-1.2-3.356-3.632-3.357q-5.468,0-10.936,0a2.961,2.961,0,0,0-3.31,3.29q-.031,5.643,0,11.286c.012,2.161,1.152,3.266,3.32,3.271q5.6.013,11.2,0a3.013,3.013,0,0,0,3.348-3.359c.011-1.779.044-3.559-.016-5.336a2.249,2.249,0,0,1,.777-1.91C-574.187-1872.932-573.159-1874.006-572.1-1875.058Zm-3.7,20.548c-.471-2.981-1.355-3.766-4.247-3.766-3.5,0-7-.013-10.5.006-2.23.012-3.361,1.127-3.372,3.329q-.028,5.6,0,11.195c.01,2.217,1.137,3.349,3.344,3.36q5.553.027,11.107,0c2.264-.009,3.411-1.194,3.419-3.487.006-1.866-.032-3.733.026-5.6a2.119,2.119,0,0,1,.531-1.274c1.11-1.184,2.292-2.3,3.415-3.409l-2.163-2.225Zm-.153-41.736c-.339-2.865-1.19-3.817-3.375-3.834q-5.685-.042-11.37,0a2.911,2.911,0,0,0-3.213,3.205q-.039,5.685,0,11.37a2.986,2.986,0,0,0,3.324,3.294q5.6.021,11.2,0a3.059,3.059,0,0,0,3.346-3.387c.011-1.837.027-3.674-.01-5.51a1.945,1.945,0,0,1,.648-1.608c1.145-1.073,2.234-2.207,3.223-3.195l-2.151-2.214Zm26.715,11.164H-564v2.817h14.767Zm.007,11.923h-14.786v2.818h14.786Zm-14.794,11.767h14.752v-2.8h-14.752Zm0,21.01h3.692q5.156,0,10.313,0c.35,0,.819.135.822-.48,0-.778,0-1.555,0-2.372h-14.828Zm-.049-53.664c0,.4,0,.744,0,1.085,0,1.773,0,1.773,1.73,1.773h11.275c1.89,0,1.854,0,1.9-1.9.017-.787-.2-1.042-1.016-1.035-4.312.039-8.624.018-12.936.021C-563.4-1894.1-563.681-1894.068-564.064-1894.046Zm.109,44.678h12.826c1.975,0,1.943,0,1.965-2,.008-.736-.233-.935-.947-.93-3.845.03-7.691.014-11.536.014-2.55,0-2.55,0-2.4,2.563A2.923,2.923,0,0,0-563.955-1849.368Z" transform="translate(604.368 1918.019)" fill="#f6f6f6"/>
      <path id="Trazado_616633" data-name="Trazado 616633" d="M-328.394-1900.736l12.264,12.254a2.7,2.7,0,0,1-.49.084q-5.023.008-10.045,0c-1.107,0-1.709-.5-1.718-1.53C-328.412-1893.506-328.394-1897.085-328.394-1900.736Z" transform="translate(379.225 1906.185)" fill="#1565c0"/>
      <path id="Trazado_616634" data-name="Trazado 616634" d="M-536.8-1706.226c-1.062,1.052-2.09,2.126-3.184,3.129a2.249,2.249,0,0,0-.777,1.91c.06,1.777.027,3.557.016,5.336a3.012,3.012,0,0,1-3.348,3.359q-5.6.014-11.2,0c-2.168,0-3.308-1.11-3.32-3.271q-.033-5.643,0-11.286a2.961,2.961,0,0,1,3.31-3.29q5.468-.011,10.936,0c2.437,0,3.448.938,3.632,3.356a2.87,2.87,0,0,0,.094.365l1.82-1.73Zm-6.9-1.109c-.384-.021-.642-.046-.9-.046-3.383,0-6.767.02-10.15-.018-.744-.008-.933.235-.927.946q.048,5.031,0,10.062c-.006.7.165.966.92.958,3.412-.038,6.825-.015,10.237-.02.25,0,.5-.046.754-.071v-3.507l-.3-.239c-.5.6-.953,1.24-1.5,1.788a1.378,1.378,0,0,1-2.04.184c-1.553-1.481-3.033-3.038-4.375-4.4l2.017-2.156c.492.511,1.022,1.051,1.54,1.6.535.571,1.058,1.154,1.643,1.795,1.026-1.031,1.938-1.929,2.823-2.851a1,1,0,0,0,.248-.617C-543.687-1705.024-543.7-1706.129-543.7-1707.335Z" transform="translate(569.068 1749.188)" fill="#12263f"/>
      <path id="Trazado_616635" data-name="Trazado 616635" d="M-540.488-1587.45l1.564-1.867,2.163,2.225c-1.123,1.11-2.306,2.225-3.415,3.409a2.118,2.118,0,0,0-.531,1.274c-.058,1.864-.02,3.731-.026,5.6-.008,2.293-1.155,3.478-3.419,3.487q-5.554.022-11.107,0c-2.207-.01-3.333-1.143-3.344-3.36q-.025-5.6,0-11.195c.011-2.2,1.142-3.317,3.372-3.329,3.5-.019,7-.006,10.495-.006C-541.843-1591.216-540.959-1590.431-540.488-1587.45Zm-6.375,6.044c2.151-1.608,3.819-3.245,3.173-6.044a.26.26,0,0,1,0-.088c.062-.514-.141-.733-.683-.73q-5.295.022-10.59,0c-.467,0-.694.147-.693.651q.016,5.339,0,10.677c0,.491.2.663.681.661,3.559-.011,7.118,0,10.677-.025.2,0,.566-.269.574-.426.051-1.058.027-2.12.027-3.18l-.234-.114c-.412.441-.813.893-1.238,1.321-1.2,1.2-1.834,1.2-3.014.03q-1.242-1.234-2.476-2.475c-.506-.507-1.01-1.017-1.48-1.49l2.077-2.179Z" transform="translate(569.061 1650.96)" fill="#12263f"/>
      <path id="Trazado_616636" data-name="Trazado 616636" d="M-540.649-1825.791l1.616-1.876,2.151,2.214c-.99.988-2.078,2.122-3.223,3.195a1.945,1.945,0,0,0-.648,1.608c.037,1.836.021,3.673.01,5.51a3.058,3.058,0,0,1-3.346,3.387q-5.6.023-11.2,0a2.987,2.987,0,0,1-3.324-3.294q-.033-5.685,0-11.37a2.911,2.911,0,0,1,3.213-3.206q5.685-.044,11.371,0C-541.839-1829.608-540.988-1828.656-540.649-1825.791Zm-3.054-.8a6.472,6.472,0,0,0-.743-.093c-3.472-.006-6.943.012-10.415-.017-.7-.006-.814.3-.81.9.019,3.384.025,6.769,0,10.153-.006.706.187.964.931.956,3.384-.035,6.768-.014,10.152-.018.279,0,.557-.041.842-.063v-3.551l-.284-.237c-.5.593-.957,1.225-1.5,1.77-.677.675-1.432.8-2.031.223-1.54-1.5-3-3.078-4.392-4.531l2.013-2.127,3.269,3.386c.962-.966,1.888-1.887,2.8-2.824a.746.746,0,0,0,.17-.473C-543.7-1824.276-543.7-1825.41-543.7-1826.592Z" transform="translate(569.07 1847.564)" fill="#12263f"/>
      <path id="Trazado_616637" data-name="Trazado 616637" d="M-373.253-1744.018v2.817h-14.768v-2.817Z" transform="translate(428.389 1776.956)" fill="#12263f"/>
      <path id="Trazado_616638" data-name="Trazado 616638" d="M-373.3-1676.042v2.818h-14.786v-2.818Z" transform="translate(428.444 1720.903)" fill="#12263f"/>
      <path id="Trazado_616639" data-name="Trazado 616639" d="M-388.134-1622.109v-2.8h14.752v2.8Z" transform="translate(428.483 1678.737)" fill="#12263f"/>
      <path id="Trazado_616640" data-name="Trazado 616640" d="M-388.111-1502.607v-2.857h14.828c0,.817,0,1.594,0,2.372,0,.615-.471.479-.822.48q-5.156.01-10.313,0Z" transform="translate(428.464 1580.245)" fill="#12263f"/>
      <path id="Trazado_616641" data-name="Trazado 616641" d="M-388.391-1795.477c.383-.023.666-.054.949-.054,4.312,0,8.624.018,12.936-.021.817-.007,1.033.248,1.016,1.035-.041,1.9-.005,1.9-1.9,1.9h-11.275c-1.732,0-1.732,0-1.73-1.773C-388.391-1794.733-388.391-1795.074-388.391-1795.477Z" transform="translate(428.695 1819.451)" fill="#12263f"/>
      <path id="Trazado_616642" data-name="Trazado 616642" d="M-388.455-1554.161a2.919,2.919,0,0,1-.094-.348c-.148-2.563-.148-2.563,2.4-2.563,3.845,0,7.691.016,11.536-.014.714-.005.955.194.947.93-.022,1.995.01,1.995-1.965,1.995h-12.826Z" transform="translate(428.868 1622.812)" fill="#12263f"/>
      <path id="Trazado_616643" data-name="Trazado 616643" d="M-529.838-1693.5c0,1.206.013,2.311-.011,3.414a1,1,0,0,1-.248.617c-.886.923-1.8,1.821-2.823,2.851-.585-.64-1.108-1.224-1.643-1.795-.518-.552-1.048-1.093-1.539-1.6l-2.017,2.156c1.342,1.358,2.822,2.915,4.375,4.4a1.378,1.378,0,0,0,2.04-.184c.548-.548,1-1.188,1.5-1.788l.3.239v3.507c-.254.025-.5.071-.754.071-3.413,0-6.825-.018-10.237.02-.755.009-.926-.257-.92-.958q.045-5.031,0-10.062c-.007-.711.182-.954.927-.946,3.383.038,6.766.016,10.15.018C-530.48-1693.541-530.222-1693.516-529.838-1693.5Z" transform="translate(555.207 1735.349)" fill="#fffae7"/>
      <path id="Trazado_616644" data-name="Trazado 616644" d="M-532.954-1567.521l-3.2-3.407-2.077,2.179c.47.473.974.983,1.48,1.49q1.237,1.239,2.476,2.475c1.18,1.173,1.819,1.17,3.014-.03.426-.427.826-.88,1.238-1.321l.234.114c0,1.061.025,2.122-.027,3.18-.008.157-.372.425-.574.426-3.559.026-7.118.014-10.677.025-.481,0-.683-.171-.681-.661q.014-5.339,0-10.677c0-.5.226-.652.693-.651q5.295.014,10.59,0c.543,0,.745.216.683.73a.261.261,0,0,0,0,.088C-529.135-1570.765-530.8-1569.129-532.954-1567.521Z" transform="translate(555.152 1637.075)" fill="#fffae7"/>
      <path id="Trazado_616645" data-name="Trazado 616645" d="M-529.835-1812.755c0,1.182.007,2.316-.008,3.449a.746.746,0,0,1-.17.473c-.91.938-1.836,1.858-2.8,2.824l-3.269-3.386-2.013,2.127c1.4,1.453,2.853,3.035,4.392,4.531.6.582,1.354.453,2.031-.223.546-.545,1.005-1.176,1.5-1.77l.284.237v3.551c-.284.022-.563.063-.842.063-3.384,0-6.769-.017-10.152.018-.745.008-.937-.25-.931-.956.029-3.384.023-6.768,0-10.152,0-.6.11-.9.81-.9,3.472.029,6.943.012,10.415.018A6.419,6.419,0,0,1-529.835-1812.755Z" transform="translate(555.202 1833.728)" fill="#fffae7"/>
    </g>
  </g>
</svg>
