<svg xmlns="http://www.w3.org/2000/svg" width="143.319" height="138.867" viewBox="0 0 143.319 138.867">
  <g id="Grupo_894898" data-name="Grupo 894898" transform="translate(46.864 45.304)">
    <rect id="Rectángulo_49533" data-name="Rectángulo 49533" width="89.789" height="83.368" transform="translate(6.667 10.195)" fill="#ffde96"/>
    <g id="Grupo_895144" data-name="Grupo 895144" transform="translate(754.546 940.111)">
      <g id="_1hPgM0" data-name="1hPgM0" transform="translate(-801.409 -985.414)">
        <g id="Grupo_895142" data-name="Grupo 895142" transform="translate(0 0)">
          <path id="Trazado_616617" data-name="Trazado 616617" d="M-791.114-972.836c0-1.08.025-2.018-.007-2.955a2.471,2.471,0,0,1,1.187-2.295,40.733,40.733,0,0,1,15.042-6.22c10.305-2.088,20.338-1.316,29.977,3.1a35.205,35.205,0,0,1,9.652,6.554c.21.2.427.394.6.555,1.585-1.275,3.078-2.606,4.7-3.756a40.978,40.978,0,0,1,19.384-7.14,48.041,48.041,0,0,1,25.82,3.826c1.968.894,3.794,2.1,5.675,3.186a2.163,2.163,0,0,1,1.1,2.065c-.017.992,0,1.984,0,3.079h1.049q3.217,0,6.434,0c1.807,0,2.474.679,2.491,2.51,0,.265,0,.529,0,.793q0,42.085,0,84.171c0,.176,0,.353,0,.529a2.024,2.024,0,0,1-2.915,2.053c-3.688-1.282-7.363-2.6-11.046-3.9-1.3-.458-2.6-.928-3.926-1.306a1.745,1.745,0,0,0-1.271.151,28.023,28.023,0,0,1-7.324,3.4.994.994,0,0,0-.858,1.151q.042,10.62.008,21.241c-.011,3.058-1.111,5.785-4.084,6.8-5.18,1.773-10.415-.083-10.573-6.742-.167-7.018-.051-14.042-.02-21.063,0-.819-.18-1.21-1.032-1.458a25.549,25.549,0,0,1-8.5-4.354,1.043,1.043,0,0,0-1.338-.12c-.735.427-1.5.808-2.267,1.175a4.868,4.868,0,0,0-2.748,3.009,6.94,6.94,0,0,1-6.388,4.774,33.68,33.68,0,0,1-4.578.022,7.6,7.6,0,0,1-7.017-5.72,1.5,1.5,0,0,0-.61-.864c-6.612-3.5-13.56-5.759-21.141-5.575A53.533,53.533,0,0,0-782-888.9c-5.376,1.875-10.683,3.948-16.021,5.935-.247.092-.487.211-.74.283a1.988,1.988,0,0,1-2.628-1.815c-.039-.5-.017-1-.017-1.5q0-41.733,0-83.466c0-.382-.005-.764.005-1.146a2,2,0,0,1,2.246-2.219c2.321-.015,4.642-.005,6.963-.006Zm54.486,75.332c0-.475,0-.8,0-1.116q0-11.718-.01-23.435-.011-23.526,0-47.052a2.91,2.91,0,0,0-.984-2.294,32.544,32.544,0,0,0-10.508-6.8,44.326,44.326,0,0,0-23.359-2.56,39.731,39.731,0,0,0-14.723,5.078,1.547,1.547,0,0,0-.865,1.532q.034,35.509.018,71.018v1.052c.425-.176.715-.3,1.008-.416,2.236-.888,4.441-1.863,6.714-2.643a41.193,41.193,0,0,1,19.868-2.034,51.572,51.572,0,0,1,17.874,6.691C-739.972-899.555-738.385-898.561-736.628-897.5Zm54.6-32.925v-1.189q0-20.359,0-40.719c0-2.917.019-2.954-2.617-4.274a44.427,44.427,0,0,0-29.5-3.627,33.42,33.42,0,0,0-17.875,9.43,2.051,2.051,0,0,0-.565,1.277q-.024,35.3.011,70.594c0,.241.039.482.061.736a.872.872,0,0,0,.186-.045c.994-.729,1.963-1.493,2.988-2.174.505-.336.52-.639.332-1.164a27.689,27.689,0,0,1,.541-20.709c6.812-16.252,27.46-22.161,41.8-11.93C-685.085-933.087-683.637-931.751-682.027-930.429Zm-115.266,42.8c.463-.173.815-.309,1.169-.437,4.717-1.71,9.4-3.514,14.16-5.1a55,55,0,0,1,16.4-3.027c8.807-.169,16.8,2.588,24.4,6.79a2.183,2.183,0,0,1,1.132,1.867,3.607,3.607,0,0,0,3.809,3.558c1.028.017,2.056.02,3.084,0a3.6,3.6,0,0,0,3.787-3.494,2.424,2.424,0,0,1,1.217-2.012c1.558-.935,3.107-1.883,4.649-2.818l-3.617-4.893c-1.9,1.573-3.817,3.121-5.691,4.715-1.311,1.114-1.987,1.146-3.443.214-2.917-1.866-5.807-3.786-8.812-5.5-11.161-6.366-22.782-7.688-34.867-2.87-2.723,1.086-5.373,2.356-8.044,3.57a2.051,2.051,0,0,1-3.144-1.949c-.005-.235,0-.47,0-.7q0-33.924,0-67.848v-1.179h-6.179Zm119.307-81.143v.858q0,21.286.016,42.571a3.34,3.34,0,0,0,.342,1.419,28.016,28.016,0,0,1-4.675,31.988c-.17.183-.317.387-.543.665l10.7,3.776v-81.277Zm-24.77,81.559a24.045,24.045,0,0,0,24.1-23.807,24.037,24.037,0,0,0-23.865-24.215,24.031,24.031,0,0,0-24.19,24.147A24.052,24.052,0,0,0-702.756-887.214Zm-3.227,3.958v9.822c0,3.819-.011,7.638,0,11.457.009,2.239,1.008,3.221,3.206,3.222h.617a2.266,2.266,0,0,0,2.5-1.759,5.936,5.936,0,0,0,.269-1.814q.027-10.047.008-20.094c0-.3-.048-.606-.067-.836Z" transform="translate(801.409 985.414)" fill="#12263f"/>
          <path id="Trazado_616618" data-name="Trazado 616618" d="M-668.436-836.493a41.807,41.807,0,0,1,18.781,5.087,2,2,0,0,1,.962,2.751,2,2,0,0,1-2.785.845,44.186,44.186,0,0,0-10.555-3.862,29.191,29.191,0,0,0-21.643,3.45c-.253.149-.5.312-.763.439a2.019,2.019,0,0,1-2.682-.769,1.922,1.922,0,0,1,.67-2.692,70.742,70.742,0,0,1,6.711-3.276A30.062,30.062,0,0,1-668.436-836.493Z" transform="translate(707.502 862.744)" fill="#12263f"/>
          <path id="Trazado_616619" data-name="Trazado 616619" d="M-668.472-700.459a41.72,41.72,0,0,1,18.853,5.1,1.985,1.985,0,0,1,.93,2.759,1.984,1.984,0,0,1-2.794.814,45.482,45.482,0,0,0-9.526-3.62,29.35,29.35,0,0,0-22.671,3.229c-.2.119-.4.248-.607.359a2.031,2.031,0,0,1-2.783-.645,2,2,0,0,1,.721-2.823A33.291,33.291,0,0,1-668.472-700.459Z" transform="translate(707.485 750.69)" fill="#12263f"/>
          <path id="Trazado_616620" data-name="Trazado 616620" d="M-688.436-761.691c.4-.532.7-1.24,1.228-1.569a32.669,32.669,0,0,1,19.524-5.118,42.919,42.919,0,0,1,16.965,4.905,2.066,2.066,0,0,1,1.171,2.885,2.054,2.054,0,0,1-2.958.742,40.9,40.9,0,0,0-13.087-4.242,29.025,29.025,0,0,0-19.253,4.1,3.722,3.722,0,0,1-.787.382A2.232,2.232,0,0,1-688.436-761.691Z" transform="translate(708.351 806.683)" fill="#12263f"/>
          <path id="Trazado_616621" data-name="Trazado 616621" d="M-687.262-897.526a2.031,2.031,0,0,1,1.112-1.868,32.951,32.951,0,0,1,21.4-4.862,44.385,44.385,0,0,1,14.954,4.716c.1.053.208.109.31.168a2.036,2.036,0,0,1,.926,2.7,2.038,2.038,0,0,1-2.783.882c-1.121-.512-2.219-1.078-3.353-1.557a34.36,34.36,0,0,0-15.949-2.977,29.472,29.472,0,0,0-13.347,4.359C-685.539-895.024-687.231-895.848-687.262-897.526Z" transform="translate(707.385 918.748)" fill="#12263f"/>
          <path id="Trazado_616622" data-name="Trazado 616622" d="M-667.466-632.4c5.7.061,11.922,2.018,17.853,5.047a2.008,2.008,0,0,1,1.005,2.8,2.019,2.019,0,0,1-2.877.773,41.956,41.956,0,0,0-11.683-4.056A29.14,29.14,0,0,0-683.828-624a4.507,4.507,0,0,1-.861.433,1.978,1.978,0,0,1-2.3-.845,2.039,2.039,0,0,1,.244-2.446,3.516,3.516,0,0,1,.7-.533A34.16,34.16,0,0,1-667.466-632.4Z" transform="translate(707.405 694.628)" fill="#12263f"/>
          <path id="Trazado_616623" data-name="Trazado 616623" d="M-359.878-768.5a42.487,42.487,0,0,1,19.611,5.114,1.994,1.994,0,0,1,.932,2.7,2.025,2.025,0,0,1-2.857.859,44.628,44.628,0,0,0-9.27-3.559,29.407,29.407,0,0,0-23.228,3.371,2.081,2.081,0,0,1-3.075-.511A2,2,0,0,1-377-763.35a33.322,33.322,0,0,1,14.35-4.977C-361.573-768.436-360.486-768.467-359.878-768.5Z" transform="translate(452.691 806.74)" fill="#12263f"/>
          <path id="Trazado_616624" data-name="Trazado 616624" d="M-359.325-905.452a44.585,44.585,0,0,1,19.067,5.273,1.993,1.993,0,0,1,.941,2.694,2.017,2.017,0,0,1-2.853.865,44.7,44.7,0,0,0-9.613-3.64,29.3,29.3,0,0,0-22.807,3.4c-1.154.693-2.066.673-2.826-.046a2.028,2.028,0,0,1,.5-3.277,32.113,32.113,0,0,1,10.974-4.4C-363.762-904.988-361.534-905.169-359.325-905.452Z" transform="translate(452.677 919.548)" fill="#12263f"/>
          <path id="Trazado_616625" data-name="Trazado 616625" d="M-359.317-836.509a42,42,0,0,1,18.962,5.084,2,2,0,0,1,.985,2.746,2.025,2.025,0,0,1-2.865.821,43.69,43.69,0,0,0-10.906-3.916,29.365,29.365,0,0,0-21.527,3.693,3.188,3.188,0,0,1-1.637.475,1.835,1.835,0,0,1-1.725-1.519,1.879,1.879,0,0,1,.949-2.178c2.519-1.248,5.022-2.564,7.641-3.565A28.4,28.4,0,0,1-359.317-836.509Z" transform="translate(452.717 862.758)" fill="#12263f"/>
          <path id="Trazado_616626" data-name="Trazado 616626" d="M-361.329-663.45a21.144,21.144,0,0,1,21.362-21.168A21.209,21.209,0,0,1-319-663.293,21.184,21.184,0,0,1-340.463-642.3,21.187,21.187,0,0,1-361.329-663.45Zm21.158,17.1a17.148,17.148,0,0,0,17.126-17,17.162,17.162,0,0,0-17-17.219,17.106,17.106,0,0,0-17.234,17.14A17.107,17.107,0,0,0-340.171-646.345Z" transform="translate(438.905 737.641)" fill="#12263f"/>
        </g>
      </g>
      <g id="o0gPrY" transform="translate(-714.644 -922.616)">
        <g id="Grupo_895143" data-name="Grupo 895143" transform="translate(0 0)">
          <path id="Trazado_616627" data-name="Trazado 616627" d="M-194.87-592.162c-.072.462-.128.927-.219,1.385a9.969,9.969,0,0,1-1.746,3.88.65.65,0,0,1-.929.157.655.655,0,0,1-.154-.931,10.635,10.635,0,0,0,1.09-1.97,8.279,8.279,0,0,0-.251-6.844c-.237-.494-.559-.948-.842-1.42a.668.668,0,0,1,.378-1.035.64.64,0,0,1,.708.26,10.05,10.05,0,0,1,1.782,4.055c.073.4.122.807.183,1.21Z" transform="translate(217.791 604.175)" fill="#12263f" stroke="#12263f" stroke-width="1"/>
          <path id="Trazado_616628" data-name="Trazado 616628" d="M-293.269-616.554q0,4.654,0,9.307a1.974,1.974,0,0,1-1.342,2.006,1.976,1.976,0,0,1-2.023-.407q-2.671-2.229-5.342-4.457a.771.771,0,0,0-.542-.2c-1.111.009-2.222.006-3.334,0a2.128,2.128,0,0,1-1.377-.437,1.962,1.962,0,0,1-.773-1.591c-.008-2.819-.013-5.638,0-8.457a2.007,2.007,0,0,1,2.126-2.028q1.689-.008,3.378,0a.715.715,0,0,0,.5-.181q2.675-2.241,5.36-4.47a2.007,2.007,0,0,1,2.821.107,1.8,1.8,0,0,1,.533,1.245c.013.947.01,1.894.01,2.841Q-293.268-619.91-293.269-616.554Zm-1.34,0q0-4.621,0-9.242a1.214,1.214,0,0,0-.055-.438.686.686,0,0,0-1.117-.2q-2.66,2.242-5.345,4.455a.458.458,0,0,0-.177.4q.006,5.024,0,10.048a.478.478,0,0,0,.2.413q1.9,1.568,3.784,3.148c.533.444,1.062.892,1.6,1.33a.659.659,0,0,0,1.06-.236,1.2,1.2,0,0,0,.055-.438Q-294.607-611.933-294.609-616.554Zm-8.046,4.921v-9.826c-.084,0-.157-.011-.229-.011h-2.953c-.583,0-.827.245-.827.831q0,4.082,0,8.164c0,.067,0,.134,0,.2a.658.658,0,0,0,.631.637C-304.912-611.626-303.794-611.633-302.655-611.633Z" transform="translate(308.01 627.985)" fill="#12263f" stroke="#12263f" stroke-width="1"/>
          <path id="Trazado_616629" data-name="Trazado 616629" d="M-207.726-586.016a7.4,7.4,0,0,1-1.517,4.406.656.656,0,0,1-.911.179.673.673,0,0,1-.2-.925,12.5,12.5,0,0,0,.9-1.664,5.609,5.609,0,0,0-.634-5.245c-.093-.144-.2-.282-.281-.431a.66.66,0,0,1,.2-.888.645.645,0,0,1,.9.149,7.326,7.326,0,0,1,1.481,3.662C-207.758-586.521-207.744-586.268-207.726-586.016Z" transform="translate(227.974 597.397)" fill="#12263f" stroke="#12263f" stroke-width="1"/>
          <path id="Trazado_616630" data-name="Trazado 616630" d="M-219.238-577.183a4.423,4.423,0,0,1-.7,2.419.67.67,0,0,1-.94.274.657.657,0,0,1-.211-.95,3.028,3.028,0,0,0,.4-2.46,6.335,6.335,0,0,0-.435-1,.66.66,0,0,1,.053-.735.582.582,0,0,1,.671-.236.929.929,0,0,1,.445.335A4.2,4.2,0,0,1-219.238-577.183Z" transform="translate(236.793 588.534)" fill="#12263f" stroke="#12263f" stroke-width="1"/>
        </g>
      </g>
    </g>
  </g>
</svg>
