<svg xmlns="http://www.w3.org/2000/svg" width="129.012" height="127.196" viewBox="0 0 129.012 127.196">
  <g id="Grupo_894888" data-name="Grupo 894888" transform="translate(32.556 33.633)">
    <rect id="Rectángulo_49533" data-name="Rectángulo 49533" width="89.789" height="83.368" transform="translate(6.667 10.195)" fill="#ffde96"/>
    <g id="EI0LS1" transform="translate(-21.064 731.795)">
      <g id="Grupo_895140" data-name="Grupo 895140" transform="translate(-11.492 -765.428)">
        <path id="Trazado_616583" data-name="Trazado 616583" d="M98.691-695.228a2.222,2.222,0,0,0,.394.079c3.088-.235,3.558.771,3.41,3.493-.04.75.007,1.5-.011,2.255a5.664,5.664,0,0,1-5.686,5.649c-3.956.038-7.913.01-11.869.011H83.5v1.341q0,8.548,0,17.1c-.006,4.98-3.181,8.154-8.16,8.157q-12.76.008-25.519,0c-4.91,0-8.09-3.188-8.1-8.093,0-1.187-.019-2.375,0-3.562a3.987,3.987,0,0,0-2.093-3.727q-3-1.8-6-3.6c-1.882-1.137-1.891-2.688-.022-3.82,1.979-1.2,3.966-2.386,5.9-3.795H36.242c-3.4,0-6.805-.01-10.208.013a1.971,1.971,0,0,0-1.193.3c-1.1.949-2.123,1.983-3.243,3.051.37.153.768.3,1.152.48q14.442,6.7,15.156,22.6c.051,1.145.015,2.295.006,3.443-.012,1.759-.667,2.405-2.461,2.406q-12.7.006-25.4,0H-8.7c-2.241,0-2.719-.535-2.773-2.817a28.977,28.977,0,0,1,1.681-11.773A24.668,24.668,0,0,1,4.183-680.1c.212-.088.424-.178.664-.278-1.141-1.091-2.214-2.159-3.344-3.162a1.68,1.68,0,0,0-1-.188c-2.018-.016-4.036,0-6.053-.011a5.694,5.694,0,0,1-5.91-5.91q-.014-1.543,0-3.087c.013-1.722.656-2.376,2.348-2.4.43-.005.861,0,1.449,0v-1.442q0-33,0-66.009c0-2.336.506-2.838,2.859-2.838H95.845c2.338,0,2.847.509,2.847,2.853q0,32.945,0,65.889Zm-100.548.037a15.315,15.315,0,0,1,14.3-13.228c6.157-.357,14.13,3.458,15.918,13.185H41.714v-1.517q0-15.908,0-31.816c0-5.248,3.094-8.363,8.306-8.364q12.581,0,25.162,0c5.231,0,8.314,3.1,8.315,8.355q0,15.967,0,31.934v1.43h5.611v-47.32H1.778v30.212H-1.969v-1.26q0-18.876,0-37.751c0-2.156.556-2.7,2.762-2.7H90.165c2.325,0,2.829.511,2.829,2.87q0,27.3,0,54.609v1.35h1.825v-66.343H-3.773v66.352Zm39.686,17.15c1.438.869,2.695,1.6,3.927,2.378a7.612,7.612,0,0,1,3.752,6.723c.016,1.186,0,2.374,0,3.561,0,2.978,1.459,4.433,4.443,4.434q12.637,0,25.275,0c3.051,0,4.468-1.437,4.468-4.528q0-31.571,0-63.143c0-3.08-1.425-4.516-4.479-4.517q-12.578,0-25.156,0c-3.163,0-4.55,1.389-4.55,4.557q0,20.533.007,41.067a7.891,7.891,0,0,1-4.157,7.336C40.241-679.52,39.138-678.832,37.83-678.042Zm-45.424,22.71H34.051A20.937,20.937,0,0,0,13.16-678.041,20.932,20.932,0,0,0-7.594-655.331Zm9.425-37.956a11.417,11.417,0,0,0,11.343,11.444A11.434,11.434,0,0,0,24.617-693.2a11.415,11.415,0,0,0-11.347-11.44A11.411,11.411,0,0,0,1.831-693.288ZM89.1-746.452v-3.7H1.924v3.7Zm-5.551,58.9c4.505,0,8.892.022,13.277-.015a1.779,1.779,0,0,0,1.849-1.793c.059-.617.011-1.244.011-1.916H83.544Zm-56.118-.077h14.23v-3.626H28.348ZM-7.656-691.3c0,.723-.041,1.348.01,1.966a1.714,1.714,0,0,0,1.615,1.744c1.669.1,3.347.028,5.065.028l-.951-3.737Z" transform="translate(11.492 765.428)" fill="#12263f"/>
        <path id="Trazado_616584" data-name="Trazado 616584" d="M77.038-623.124c1.6-1.913,2.985-3.582,4.377-5.248,1.275-1.526,2.456-1.548,3.705-.053q4.408,5.276,8.806,10.56A2.081,2.081,0,0,1,94.5-615.5a2.142,2.142,0,0,1-2.264,1.147q-14.64-.018-29.28,0c-1.026,0-1.9-.188-2.32-1.242-.4-1.014.118-1.725.8-2.4,2.915-2.9,5.812-5.813,8.723-8.714,1.284-1.279,2.172-1.3,3.434-.025C74.733-625.591,75.824-624.4,77.038-623.124Zm11.652,4.916-5.406-6.478L77.9-618.208Zm-16.715-4.541-4.635,4.592a28.848,28.848,0,0,1,3.825.032c1.874.251,2.626-.923,3.308-2.053Z" transform="translate(-43.378 661.85)" fill="#12263f"/>
        <path id="Trazado_616585" data-name="Trazado 616585" d="M224.209-737.434H220.6v-3.694h3.609Z" transform="translate(-165.405 746.907)" fill="#12263f"/>
        <path id="Trazado_616586" data-name="Trazado 616586" d="M271.032-573.362v3.653H244.593v-3.653Z" transform="translate(-183.692 619.038)" fill="#12263f"/>
        <path id="Trazado_616587" data-name="Trazado 616587" d="M270.97-537.73h-26.4v-3.7h26.4Z" transform="translate(-183.677 594.699)" fill="#12263f"/>
        <path id="Trazado_616588" data-name="Trazado 616588" d="M270.97-505.778h-26.4v-3.7h26.4Z" transform="translate(-183.677 570.346)" fill="#12263f"/>
        <path id="Trazado_616589" data-name="Trazado 616589" d="M244.409-473.945V-477.6h26.439v3.656Z" transform="translate(-183.551 546.051)" fill="#12263f"/>
        <path id="Trazado_616590" data-name="Trazado 616590" d="M244.548-445.7h26.435v3.656H244.548Z" transform="translate(-183.657 521.736)" fill="#12263f"/>
        <path id="Trazado_616591" data-name="Trazado 616591" d="M270.992-409.964H244.563v-3.666h26.429Z" transform="translate(-183.669 497.293)" fill="#12263f"/>
        <path id="Trazado_616592" data-name="Trazado 616592" d="M244.409-378.088v-3.656h26.439v3.656Z" transform="translate(-183.551 472.99)" fill="#12263f"/>
        <path id="Trazado_616593" data-name="Trazado 616593" d="M244.4-601.75V-605.4h18.842v3.652Z" transform="translate(-183.545 643.459)" fill="#12263f"/>
      </g>
    </g>
  </g>
</svg>
