<svg xmlns="http://www.w3.org/2000/svg" width="99.203" height="99.22" viewBox="0 0 99.203 99.22">
  <g id="sHxhlA" transform="translate(1163.856 2658.322)">
    <g id="Grupo_895147" data-name="Grupo 895147" transform="translate(-1163.856 -2658.322)">
      <path id="Trazado_616673" data-name="Trazado 616673" d="M-1095.324-2540.927a16.073,16.073,0,0,0,8.2,8.058,36.647,36.647,0,0,0,4.122,1.626,9.384,9.384,0,0,0,2.642.226c3.879.022,5.772,1.9,5.773,5.766,0,.689,0,1.378,0,2.066-.013,1.532-.581,2.084-2.143,2.1h-41.636a5.531,5.531,0,0,1-1.133-.04,1.55,1.55,0,0,1-1.355-1.585,1.556,1.556,0,0,1,1.4-1.648,6.127,6.127,0,0,1,1.134-.031h40.406a14.271,14.271,0,0,0-.016-1.863,1.567,1.567,0,0,0-1.522-1.429,9.965,9.965,0,0,0-1.032-.015q-33.629,0-67.258-.029c-2.8-.006-3.111.965-2.8,3.335h23.916a6.715,6.715,0,0,1,1.031.03,1.613,1.613,0,0,1,1.4,1.661,1.6,1.6,0,0,1-1.374,1.578,4.467,4.467,0,0,1-.927.036q-12.553,0-25.105,0c-1.836,0-2.331-.494-2.335-2.315,0-.792,0-1.584,0-2.376.02-3.143,2.109-5.117,5.268-5.248a17.434,17.434,0,0,0,14.862-8.729c.2-.316.341-.663.572-1.117-.449-.021-.8-.052-1.159-.052q-9.505,0-19.01,0c-6.208,0-10.449-4.237-10.451-10.437q-.006-25.108,0-50.217c0-5.3,3.5-8.782,8.812-8.784q13.431-.006,26.862,0a4.687,4.687,0,0,1,.927.03,1.564,1.564,0,0,1,1.4,1.653,1.557,1.557,0,0,1-1.36,1.583,4.912,4.912,0,0,1-1.03.038q-13.38,0-26.759,0c-3.572,0-5.545,1.982-5.545,5.57q0,25.006,0,50.011c0,4.548,2.705,7.244,7.267,7.244q39.828,0,79.656,0c3.719,0,5.65-1.94,5.651-5.675q0-7.543,0-15.085a5.361,5.361,0,0,1,.024-.928,1.561,1.561,0,0,1,1.619-1.437,1.538,1.538,0,0,1,1.629,1.42,9.742,9.742,0,0,1,.033,1.547q0,7.388,0,14.776a8.281,8.281,0,0,1-8.705,8.688q-10.332.01-20.663,0Zm4.3,9.859a1.879,1.879,0,0,0-.254-.285,19.842,19.842,0,0,1-7.462-9,1.291,1.291,0,0,0-1-.551c-9.668-.029-19.337-.016-29.005-.04a1.1,1.1,0,0,0-1.2.812,19.076,19.076,0,0,1-6.926,8.527c-.2.141-.385.313-.656.537Z" transform="translate(1163.856 2620.299)" fill="#12263f"/>
      <path id="Trazado_616674" data-name="Trazado 616674" d="M-1006.147-2598.79a4.731,4.731,0,0,0-4.445-3.292c-1.583-.042-3.168,0-4.753-.018-1.276-.01-1.79-.454-2.008-1.729-.452-2.645-.914-5.289-1.326-7.94a1.414,1.414,0,0,0-.921-1.206c-1.186-.539-2.339-1.148-3.6-1.775-.945,1.881-1.867,3.713-2.788,5.547a10.311,10.311,0,0,0-.722,1.482c-.566,1.812-1.828,2.4-3.647,2.527-3.81.257-7.607.71-11.411,1.059a1.478,1.478,0,0,0-1.344.886,8.058,8.058,0,0,1-6.351,4.405c-1.847.268-2.584-.38-2.585-2.217q0-5.219,0-10.437c0-1.625.55-2.25,2.163-2.157a45.89,45.89,0,0,0,12.173-1.247c.722-.152.833-.569.925-1.128.4-2.444.806-4.888,1.225-7.329.263-1.534.7-1.884,2.286-1.885,3.613,0,7.225,0,10.984,0,0-1.69.011-3.328,0-4.966-.008-.817.022-1.6.843-2.071a2.01,2.01,0,0,1,2.21.318c1.379.845,2.814,1.606,4.142,2.523a4.156,4.156,0,0,0,3.2.642c2.518-.375,5.049-.667,7.576-.982,1.293-.161,2-.861,1.854-1.862-.146-.975-.932-1.451-2.2-1.28-2.285.308-4.571.608-6.846.977a2.66,2.66,0,0,1-2.292-.586q-3.356-2.749-6.78-5.414a2.454,2.454,0,0,0-1.374-.5c-3.754-.04-7.519-.2-11.258.035a86.911,86.911,0,0,0-8.964,1.391c-.224.038-.482.353-.575.6-1.119,2.922-2.2,5.858-3.314,8.782a1.173,1.173,0,0,0,.524,1.668,1.176,1.176,0,0,0,1.641-.615c1.13-1.89,2.3-3.759,3.391-5.67a2.262,2.262,0,0,1,2.27-1.264c1.375.055,2.755,0,4.132.018a1.7,1.7,0,0,1,1.909,1.909c.007.276,0,.552,0,.827-.006,1.335-.456,2.04-1.4,2.2-.877.145-1.52-.366-1.977-1.576-.1-.016-.2-.03-.3-.05a2.484,2.484,0,0,0-3.04,1.673,35.78,35.78,0,0,1-2.206,3.729,4.5,4.5,0,0,1-5.917,1.809,4.468,4.468,0,0,1-2.148-5.705c1.227-3.358,2.465-6.714,3.79-10.035a2.349,2.349,0,0,1,1.386-1.324c3.611-.693,7.249-1.248,10.88-1.848-1.169-3.126-.929-6.443-.5-9.684a7.969,7.969,0,0,1,7.783-6.714c1.135-.032,2.273-.029,3.409,0a1.64,1.64,0,0,1,1.806,1.8c.017,3.892.046,7.785-.033,11.676a12.954,12.954,0,0,1-.578,2.709,23.509,23.509,0,0,1,2.66,1.535c2.057,1.561,4.03,3.231,6.078,4.8a2.107,2.107,0,0,0,1.381.395c2.153-.24,4.295-.589,6.444-.867a4.88,4.88,0,0,1,5.507,4.008,4.777,4.777,0,0,1-3.873,5.582c-3.563.581-7.159.971-10.747,1.381a2.668,2.668,0,0,1-1.437-.434c-1.2-.664-2.362-1.4-3.73-2.218,0,1.19-.045,2.231.033,3.262.018.245.42.5.691.68,2.6,1.745,5.2,3.495,7.826,5.2a2.854,2.854,0,0,1,1.436,2.327c.336,3.6.795,7.184,1.162,10.779a1.4,1.4,0,0,0,.874,1.236,8.13,8.13,0,0,1,4.441,6.333c.286,1.893-.363,2.637-2.263,2.638q-5.218,0-10.436,0c-1.362,0-2.146-.642-2.112-1.7.032-1.023.78-1.6,2.108-1.6C-1012.225-2598.794-1009.232-2598.79-1006.147-2598.79Zm-35.931-8.652c.56-.033,1.067-.044,1.57-.095,3.184-.319,6.364-.67,9.551-.954a1.5,1.5,0,0,0,1.414-.936c1.208-2.509,2.474-4.99,3.719-7.481.977-1.954,1.474-2.114,3.466-1.12,1.476.737,2.912,1.574,4.44,2.181a3.638,3.638,0,0,1,2.492,3.383c.248,2.35.752,4.672,1.142,6.979h3.172c-.361-3.3-.714-6.512-1.065-9.725-.011-.1.018-.231-.033-.3a3.44,3.44,0,0,0-.71-.924c-1.58-1.1-3.285-2.043-4.772-3.254a9.929,9.929,0,0,0-7.508-2.286c-2.384.2-4.8.042-7.264.042-.434,2.628-.84,5.171-1.277,7.709-.316,1.838-.569,2.055-2.407,2.4-1.982.367-3.96.758-5.932,1.136Zm11.52-40.909c0,.409,0,.715,0,1.021,0,.825-.035,1.654.016,2.476a3.317,3.317,0,0,0,3.078,3.07,3.244,3.244,0,0,0,3.449-2.754,34.8,34.8,0,0,0,.027-3.812Zm-18.149,45.869c3.294-1.28,3.578-4.068,3.133-7.8h-3.133Zm24.741-52.344c-2.988-.845-5.924,1.167-6.113,3.049h6.113Z" transform="translate(1075.194 2658.322)" fill="#12263f"/>
      <path id="Trazado_616675" data-name="Trazado 616675" d="M-1039.276-2348.061q-11.26,0-22.52-.013a1.3,1.3,0,0,0-1.351.769,4.854,4.854,0,0,1-8.532.033,1.366,1.366,0,0,0-1.436-.8c-2.926.029-5.854.017-8.781.01-1.3,0-2.056-.628-2.05-1.66s.757-1.639,2.066-1.642c2.961-.007,5.923-.017,8.884.01a1.2,1.2,0,0,0,1.276-.72,4.624,4.624,0,0,1,4.281-2.578,4.59,4.59,0,0,1,4.294,2.555,1.273,1.273,0,0,0,1.367.74q22.366-.017,44.731-.008a6.754,6.754,0,0,1,1.032.021,1.592,1.592,0,0,1,1.476,1.59,1.624,1.624,0,0,1-1.5,1.678,7.744,7.744,0,0,1-.929.017Zm-28.115-3.3a1.666,1.666,0,0,0-1.678,1.589,1.666,1.666,0,0,0,1.561,1.705,1.668,1.668,0,0,0,1.731-1.64A1.664,1.664,0,0,0-1067.391-2351.363Z" transform="translate(1100.487 2417.512)" fill="#12263f"/>
      <path id="Trazado_616676" data-name="Trazado 616676" d="M-754.628-2491.653q0,6.354,0,12.709c0,1.619-.551,2.166-2.17,2.17-1.928,0-3.857.012-5.785,0-1.349-.01-1.957-.611-1.958-1.962q-.011-12.916,0-25.831c0-1.352.607-1.95,1.959-1.959q3-.021,5.992,0c1.35.009,1.956.609,1.959,1.96C-754.621-2500.264-754.628-2495.958-754.628-2491.653Zm-6.565-8.338h3.178v-3.181h-3.178Zm0,6.616h3.178v-3.186h-3.178Zm3.208,3.434h-3.19v3.172h3.19Zm-.038,9.84v-3.215h-3.141v3.215Z" transform="translate(847.204 2537.958)" fill="#12263f"/>
      <path id="Trazado_616677" data-name="Trazado 616677" d="M-866.617-2610.356q7.486,0,14.971,0c5.153.008,8.665,3.533,8.669,8.711q.011,14.354,0,28.708a3.8,3.8,0,0,1-.045.925,1.57,1.57,0,0,1-1.622,1.315,1.556,1.556,0,0,1-1.6-1.343,5.331,5.331,0,0,1-.041-1.132q0-14.147,0-28.294c0-3.635-1.968-5.584-5.63-5.584h-29.736c-.31,0-.62.012-.929-.006a1.658,1.658,0,0,1-1.717-1.678,1.653,1.653,0,0,1,1.673-1.616c.274-.019.551-.006.826-.006Z" transform="translate(942.163 2620.288)" fill="#12263f"/>
      <path id="Trazado_616678" data-name="Trazado 616678" d="M-1127-2519.215c-1.033,0-2.067.021-3.1-.006a1.653,1.653,0,0,1-1.768-1.626,1.626,1.626,0,0,1,1.728-1.661q3.2-.043,6.4,0a1.642,1.642,0,0,1,1.769,1.623,1.668,1.668,0,0,1-1.833,1.669C-1124.862-2519.2-1125.93-2519.214-1127-2519.215Z" transform="translate(1138.486 2550.638)" fill="#12263f"/>
      <path id="Trazado_616679" data-name="Trazado 616679" d="M-1126.832-2490.556c1.033,0,2.067-.02,3.1.006a1.652,1.652,0,0,1,1.771,1.624,1.633,1.633,0,0,1-1.728,1.664q-3.2.044-6.4,0a1.643,1.643,0,0,1-1.769-1.624,1.661,1.661,0,0,1,1.83-1.668C-1128.967-2490.573-1127.9-2490.556-1126.832-2490.556Z" transform="translate(1138.486 2525.289)" fill="#12263f"/>
      <path id="Trazado_616680" data-name="Trazado 616680" d="M-1126.853-2458.606c1.033,0,2.066-.019,3.1.005a1.659,1.659,0,0,1,1.79,1.6,1.659,1.659,0,0,1-1.812,1.688q-3.151.033-6.3,0a1.651,1.651,0,0,1-1.789-1.605,1.658,1.658,0,0,1,1.811-1.687C-1128.988-2458.624-1127.92-2458.606-1126.853-2458.606Z" transform="translate(1138.488 2499.953)" fill="#12263f"/>
      <path id="Trazado_616681" data-name="Trazado 616681" d="M-1127.646-2426.662c.792,0,1.585-.031,2.375.007a1.631,1.631,0,0,1,1.656,1.631,1.613,1.613,0,0,1-1.636,1.648q-2.477.062-4.957,0a1.616,1.616,0,0,1-1.655-1.63,1.623,1.623,0,0,1,1.635-1.649C-1129.369-2426.694-1128.507-2426.662-1127.646-2426.662Z" transform="translate(1138.486 2474.625)" fill="#12263f"/>
      <path id="Trazado_616682" data-name="Trazado 616682" d="M-1128.648-2391.45c-.516,0-1.034.024-1.549-.006a1.643,1.643,0,0,1-1.667-1.623,1.614,1.614,0,0,1,1.622-1.659c1.1-.044,2.2-.041,3.3,0a1.629,1.629,0,0,1,1.668,1.617,1.656,1.656,0,0,1-1.727,1.67C-1127.545-2391.428-1128.1-2391.45-1128.648-2391.45Z" transform="translate(1138.486 2449.325)" fill="#12263f"/>
      <path id="Trazado_616683" data-name="Trazado 616683" d="M-990.135-2265.084h-46.5c.271-.224.453-.4.656-.537a19.075,19.075,0,0,0,6.926-8.527,1.1,1.1,0,0,1,1.2-.812c9.668.024,19.337.01,29.005.04a1.292,1.292,0,0,1,1,.552,19.844,19.844,0,0,0,7.462,9A1.9,1.9,0,0,1-990.135-2265.084Z" transform="translate(1062.972 2354.316)" fill="#b2ebf2"/>
      <path id="Trazado_616684" data-name="Trazado 616684" d="M-1003.876-2468.391v-3.253c1.971-.379,3.949-.769,5.932-1.136,1.838-.341,2.09-.558,2.407-2.4.437-2.538.844-5.081,1.277-7.709,2.465,0,4.88.162,7.264-.042a9.928,9.928,0,0,1,7.508,2.286c1.487,1.211,3.192,2.153,4.772,3.254a3.44,3.44,0,0,1,.71.924c.051.074.021.2.033.3.352,3.213.7,6.427,1.065,9.725h-3.172c-.39-2.307-.894-4.629-1.142-6.979a3.639,3.639,0,0,0-2.492-3.384c-1.528-.606-2.964-1.444-4.44-2.181-1.992-.994-2.49-.834-3.466,1.12-1.245,2.491-2.511,4.972-3.719,7.481a1.5,1.5,0,0,1-1.414.936c-3.187.285-6.368.635-9.551.954C-1002.809-2468.435-1003.316-2468.423-1003.876-2468.391Z" transform="translate(1036.992 2519.271)" fill="#26aab7"/>
      <path id="Trazado_616685" data-name="Trazado 616685" d="M-948.263-2610.153h6.571a34.8,34.8,0,0,1-.027,3.812,3.244,3.244,0,0,1-3.449,2.754,3.317,3.317,0,0,1-3.078-3.07c-.051-.822-.014-1.65-.016-2.476C-948.264-2609.438-948.263-2609.744-948.263-2610.153Z" transform="translate(992.899 2620.124)" fill="#fffae7"/>
      <path id="Trazado_616686" data-name="Trazado 616686" d="M-1035.9-2418.436v-7.8h3.133C-1032.32-2422.5-1032.6-2419.715-1035.9-2418.436Z" transform="translate(1062.385 2474.276)" fill="#e8e8e8"/>
      <path id="Trazado_616687" data-name="Trazado 616687" d="M-939.793-2642.192v3.049h-6.113C-945.718-2641.025-942.782-2643.037-939.793-2642.192Z" transform="translate(991.021 2645.688)" fill="#fb8c00"/>
      <path id="Trazado_616688" data-name="Trazado 616688" d="M-1010.408-2338.759a1.664,1.664,0,0,1,1.614,1.654,1.668,1.668,0,0,1-1.731,1.64,1.666,1.666,0,0,1-1.561-1.705A1.666,1.666,0,0,1-1010.408-2338.759Z" transform="translate(1043.503 2404.909)" fill="#fffae7"/>
      <path id="Trazado_616689" data-name="Trazado 616689" d="M-748.34-2487.094v-3.181h3.178v3.181Z" transform="translate(834.352 2525.061)" fill="#1565c0"/>
      <path id="Trazado_616690" data-name="Trazado 616690" d="M-748.329-2455.153v-3.187h3.178v3.187Z" transform="translate(834.343 2499.736)" fill="#fb8c00"/>
      <path id="Trazado_616691" data-name="Trazado 616691" d="M-745.054-2426.357v3.172h-3.19v-3.172Z" transform="translate(834.275 2474.374)" fill="#fffae7"/>
      <path id="Trazado_616692" data-name="Trazado 616692" d="M-745.048-2391.138h-3.141v-3.215h3.141Z" transform="translate(834.232 2448.994)" fill="#dee4f0"/>
    </g>
  </g>
</svg>
