<svg id="Grupo_892268" data-name="Grupo 892268" xmlns="http://www.w3.org/2000/svg" xmlns:xlink="http://www.w3.org/1999/xlink" width="52.872" height="48.439" viewBox="0 0 52.872 48.439">
  <defs>
    <clipPath id="clip-path">
      <rect id="Rectángulo_303040" data-name="Rectángulo 303040" width="52.872" height="48.439" fill="none"/>
    </clipPath>
  </defs>
  <g id="Grupo_892267" data-name="Grupo 892267" clip-path="url(#clip-path)">
    <path id="Trazado_612062" data-name="Trazado 612062" d="M9.343,48.418l23.927,1.673c4.13.289,8.582-3.092,9.947-7.55L51.126,16.7a7.516,7.516,0,0,0-.206-5.41,5.616,5.616,0,0,0-.7-1.129q-.137-.171-.288-.331t-.314-.306h0L54.9,14.273c1.741,1.564,2.408,4.237,1.508,7.176L48.5,47.288c-1.365,4.458-5.817,7.839-9.947,7.55L14.628,53.165a5.743,5.743,0,0,1-3.5-1.42L5.847,47a5.739,5.739,0,0,0,3.5,1.419" transform="translate(-3.938 -6.416)" fill="#f0a202"/>
    <path id="Trazado_612063" data-name="Trazado 612063" d="M.4,33.406,8.308,7.567C9.672,3.108,14.126-.272,18.255.017L42.182,1.69c4.13.289,6.37,4.138,5.005,8.6l-7.909,25.84c-1.364,4.458-5.817,7.839-9.947,7.55L5.4,42c-4.128-.289-6.37-4.138-5.005-8.6" transform="translate(0 0)" fill="#f9dc5c"/>
    <path id="Trazado_612064" data-name="Trazado 612064" d="M48.9,9.572A6.9,6.9,0,0,1,50.06,16.4L42.152,42.235c-1.365,4.458-5.817,7.839-9.947,7.55L8.277,48.112a5.734,5.734,0,0,1-3.512-1.435,5.658,5.658,0,0,0,3.849,1.771l23.927,1.673c4.13.289,8.582-3.092,9.947-7.55L50.4,16.733c.9-2.929.237-5.595-1.492-7.161" transform="translate(-3.209 -6.447)" fill="#fbea9d"/>
    <path id="Trazado_612065" data-name="Trazado 612065" d="M25.569,71.151l-7.081-.466-1.261-1.6,3.822-6.872,5.82-1.132,1.261,1.6Z" transform="translate(-11.603 -41.142)" fill="#f0a202"/>
    <path id="Trazado_612066" data-name="Trazado 612066" d="M55.748,60.63l-7.081-.466-1.261-1.6L53.125,45.49l5.82-1.132,1.261,1.6Z" transform="translate(-31.93 -29.877)" fill="#f0a202"/>
    <path id="Trazado_612067" data-name="Trazado 612067" d="M85.928,49.837l-7.081-.466-1.261-1.6,7.676-19.415,5.82-1.132,1.26,1.6Z" transform="translate(-52.257 -18.338)" fill="#f0a202"/>
    <path id="Trazado_612068" data-name="Trazado 612068" d="M24.308,68.592l-7.081-.466,2.561-8.469,7.081.466Z" transform="translate(-11.603 -40.181)" fill="#fff"/>
    <path id="Trazado_612069" data-name="Trazado 612069" d="M54.488,58.072l-7.081-.466,4.457-14.675,7.081.466Z" transform="translate(-31.93 -28.915)" fill="#fff"/>
    <path id="Trazado_612070" data-name="Trazado 612070" d="M84.667,47.278l-7.081-.466L84,25.8l7.081.466Z" transform="translate(-52.257 -17.377)" fill="#fff"/>
  </g>
</svg>
