<svg id="Grupo_892316" data-name="Grupo 892316" xmlns="http://www.w3.org/2000/svg" xmlns:xlink="http://www.w3.org/1999/xlink" width="81.963" height="74.252" viewBox="0 0 81.963 74.252">
  <defs>
    <clipPath id="clip-path">
      <rect id="Rect치ngulo_303034" data-name="Rect치ngulo 303034" width="81.963" height="74.252" fill="none"/>
    </clipPath>
    <linearGradient id="linear-gradient" x1="0.5" x2="0.5" y2="1" gradientUnits="objectBoundingBox">
      <stop offset="0" stop-color="#f5f5f5"/>
      <stop offset="0.25" stop-color="#f5f5f5"/>
      <stop offset="1" stop-color="#a7b3cf"/>
    </linearGradient>
    <clipPath id="clip-path-2">
      <path id="Trazado_612056" data-name="Trazado 612056" d="M39.682,9.5,37.92,14.658l60.6,7.136,1.786-5.226c2-5.861-.89-11.138-6.46-11.787L53.394.066A9.9,9.9,0,0,0,52.248,0c-5.242,0-10.7,4.041-12.567,9.5" transform="translate(-37.92)" fill="#fb8c00"/>
    </clipPath>
  </defs>
  <g id="Grupo_892254" data-name="Grupo 892254">
    <g id="Grupo_892253" data-name="Grupo 892253" clip-path="url(#clip-path)">
      <path id="Trazado_612033" data-name="Trazado 612033" d="M6.385,74.467a7.949,7.949,0,0,0,4.835,2.275l40.454,4.715c5.57.649,11.71-3.577,13.712-9.438L79.93,29.455a9.986,9.986,0,0,0-.024-7.086,7.617,7.617,0,0,0-1.6-2.426h0l5.524,5.616c2.174,2.21,2.912,5.74,1.624,9.512L70.91,77.634c-2,5.861-8.142,10.088-13.712,9.438L16.744,82.358a8.67,8.67,0,0,1-2.4-.626q-.313-.133-.607-.29-.148-.078-.29-.162-.285-.168-.551-.357-.133-.095-.261-.195a7.38,7.38,0,0,1-.723-.645Z" transform="translate(-4.126 -12.887)" fill="#b45b11"/>
      <path id="Trazado_612034" data-name="Trazado 612034" d="M28.89.066C23.32-.584,17.181,3.641,15.178,9.5L.634,52.066c-2,5.861.889,11.14,6.459,11.789L47.547,68.57c5.57.649,11.709-3.577,13.712-9.438L75.8,16.568c2-5.861-.89-11.138-6.46-11.787Z" transform="translate(0 0)" fill="url(#linear-gradient)"/>
      <path id="Trazado_612035" data-name="Trazado 612035" d="M8.321,79.432l40.454,4.715c5.571.649,11.709-3.577,13.713-9.438L77.031,32.144a9.875,9.875,0,0,0-.154-7.377,9.717,9.717,0,0,1,.368,7.8L62.7,75.136c-2,5.861-8.142,10.087-13.712,9.438L8.535,79.859a7.694,7.694,0,0,1-6.3-4.41,7.717,7.717,0,0,0,6.091,3.983" transform="translate(-1.441 -16.004)" fill="#ffe6d8"/>
      <path id="Trazado_612036" data-name="Trazado 612036" d="M118.742,72.942l4.214.443a2.854,2.854,0,0,0,2.808-2l1.428-4.459a1.9,1.9,0,0,0-.386-1.989l.84.814a1.9,1.9,0,0,1,.386,1.989L126.6,72.2a2.853,2.853,0,0,1-2.808,2l-4.214-.443a1.774,1.774,0,0,1-.558-.149,1.57,1.57,0,0,1-.443-.3l-.84-.814a1.666,1.666,0,0,0,1,.451" transform="translate(-76.081 -41.961)" fill="#12263f"/>
      <path id="Trazado_612037" data-name="Trazado 612037" d="M120.671,62.666a2.858,2.858,0,0,0-2.808,2l-1.428,4.459a1.74,1.74,0,0,0,1.387,2.44l4.214.443a2.855,2.855,0,0,0,2.808-2l1.428-4.459a1.739,1.739,0,0,0-1.387-2.44Z" transform="translate(-75.161 -40.486)" fill="#fff"/>
      <path id="Trazado_612038" data-name="Trazado 612038" d="M82.943,68.632l4.214.443a2.854,2.854,0,0,0,2.808-2l1.428-4.459a1.9,1.9,0,0,0-.386-1.989l.84.814a1.9,1.9,0,0,1,.386,1.989L90.8,67.89a2.853,2.853,0,0,1-2.808,2l-4.214-.443a1.784,1.784,0,0,1-.558-.15,1.57,1.57,0,0,1-.443-.3l-.839-.814a1.663,1.663,0,0,0,1,.451" transform="translate(-52.948 -39.176)" fill="#12263f"/>
      <path id="Trazado_612039" data-name="Trazado 612039" d="M84.871,58.356a2.858,2.858,0,0,0-2.808,2l-1.428,4.459a1.739,1.739,0,0,0,1.387,2.44l4.214.443a2.854,2.854,0,0,0,2.808-2l1.428-4.459a1.739,1.739,0,0,0-1.387-2.44Z" transform="translate(-52.028 -37.701)" fill="#fff"/>
      <path id="Trazado_612040" data-name="Trazado 612040" d="M47.142,64.322l4.214.443a2.854,2.854,0,0,0,2.808-2l1.428-4.459a1.9,1.9,0,0,0-.386-1.989l.84.814a1.9,1.9,0,0,1,.386,1.989L55,63.58a2.853,2.853,0,0,1-2.808,2l-4.214-.443a1.774,1.774,0,0,1-.558-.149,1.57,1.57,0,0,1-.443-.3l-.84-.814a1.666,1.666,0,0,0,1,.451" transform="translate(-29.815 -36.391)" fill="#12263f"/>
      <path id="Trazado_612041" data-name="Trazado 612041" d="M49.071,54.046a2.858,2.858,0,0,0-2.808,2L44.835,60.5a1.739,1.739,0,0,0,1.387,2.44l4.214.443a2.855,2.855,0,0,0,2.808-2l1.428-4.459a1.739,1.739,0,0,0-1.387-2.44Z" transform="translate(-28.895 -34.916)" fill="#fff"/>
      <path id="Trazado_612042" data-name="Trazado 612042" d="M140.778,118.039l4.214.443a2.854,2.854,0,0,0,2.808-2l1.428-4.459a1.9,1.9,0,0,0-.386-1.989l.84.814a1.9,1.9,0,0,1,.386,1.989L148.64,117.3a2.853,2.853,0,0,1-2.808,2l-4.214-.443a1.774,1.774,0,0,1-.558-.149,1.571,1.571,0,0,1-.443-.3l-.84-.814a1.666,1.666,0,0,0,1,.451" transform="translate(-90.32 -71.101)" fill="#12263f"/>
      <path id="Trazado_612043" data-name="Trazado 612043" d="M142.707,107.763a2.858,2.858,0,0,0-2.808,2l-1.428,4.459a1.739,1.739,0,0,0,1.387,2.44l4.214.443a2.854,2.854,0,0,0,2.808-2l1.428-4.459a1.739,1.739,0,0,0-1.387-2.44Z" transform="translate(-89.4 -69.626)" fill="#fff"/>
      <path id="Trazado_612044" data-name="Trazado 612044" d="M104.979,113.73l4.214.443a2.854,2.854,0,0,0,2.808-2l1.428-4.459a1.9,1.9,0,0,0-.386-1.989l.84.814a1.9,1.9,0,0,1,.386,1.989l-1.428,4.459a2.853,2.853,0,0,1-2.808,2l-4.214-.443a1.776,1.776,0,0,1-.558-.149,1.571,1.571,0,0,1-.443-.3l-.839-.814a1.664,1.664,0,0,0,1,.451" transform="translate(-67.187 -68.317)" fill="#12263f"/>
      <path id="Trazado_612045" data-name="Trazado 612045" d="M106.907,103.453a2.858,2.858,0,0,0-2.808,2l-1.428,4.459a1.739,1.739,0,0,0,1.387,2.44l4.214.443a2.855,2.855,0,0,0,2.808-2l1.428-4.459a1.739,1.739,0,0,0-1.387-2.44Z" transform="translate(-66.267 -66.841)" fill="#fff"/>
      <path id="Trazado_612046" data-name="Trazado 612046" d="M69.179,109.42l4.214.443a2.854,2.854,0,0,0,2.808-2l1.428-4.459a1.9,1.9,0,0,0-.386-1.989l.84.814a1.9,1.9,0,0,1,.386,1.989l-1.428,4.459a2.853,2.853,0,0,1-2.808,2l-4.214-.443a1.784,1.784,0,0,1-.558-.15,1.57,1.57,0,0,1-.443-.3l-.839-.814a1.663,1.663,0,0,0,1,.451" transform="translate(-44.055 -65.532)" fill="#954114"/>
      <path id="Trazado_612047" data-name="Trazado 612047" d="M71.107,98.869a2.857,2.857,0,0,0-2.808,2l-1.428,4.459a1.739,1.739,0,0,0,1.387,2.44l4.214.443a2.854,2.854,0,0,0,2.808-2l1.428-4.459a1.739,1.739,0,0,0-1.387-2.44Z" transform="translate(-43.134 -63.879)" fill="#fb8c00"/>
      <path id="Trazado_612048" data-name="Trazado 612048" d="M33.38,105.11l4.214.443a2.854,2.854,0,0,0,2.808-2l1.428-4.459a1.9,1.9,0,0,0-.386-1.989l.84.814a1.9,1.9,0,0,1,.386,1.989l-1.428,4.459a2.853,2.853,0,0,1-2.808,2l-4.214-.443a1.774,1.774,0,0,1-.558-.149,1.57,1.57,0,0,1-.443-.3l-.839-.814a1.664,1.664,0,0,0,1,.451" transform="translate(-20.922 -62.747)" fill="#12263f"/>
      <path id="Trazado_612049" data-name="Trazado 612049" d="M35.307,94.834a2.858,2.858,0,0,0-2.808,2l-1.428,4.459a1.74,1.74,0,0,0,1.387,2.44l4.214.443a2.855,2.855,0,0,0,2.808-2l1.428-4.459a1.739,1.739,0,0,0-1.387-2.44Z" transform="translate(-20.001 -61.272)" fill="#fff"/>
      <path id="Trazado_612050" data-name="Trazado 612050" d="M127.015,158.827l4.214.443a2.854,2.854,0,0,0,2.808-2l1.428-4.459a1.9,1.9,0,0,0-.386-1.989l.84.814a1.9,1.9,0,0,1,.386,1.989l-1.428,4.459a2.853,2.853,0,0,1-2.808,2l-4.214-.443a1.773,1.773,0,0,1-.558-.149,1.577,1.577,0,0,1-.443-.3l-.839-.814a1.664,1.664,0,0,0,1,.451" transform="translate(-81.427 -97.457)" fill="#12263f"/>
      <path id="Trazado_612051" data-name="Trazado 612051" d="M128.943,148.551a2.858,2.858,0,0,0-2.808,2l-1.428,4.459a1.74,1.74,0,0,0,1.387,2.44l4.214.443a2.855,2.855,0,0,0,2.808-2l1.428-4.459a1.739,1.739,0,0,0-1.387-2.44Z" transform="translate(-80.506 -95.982)" fill="#fff"/>
      <path id="Trazado_612052" data-name="Trazado 612052" d="M91.214,154.517l4.214.443a2.854,2.854,0,0,0,2.808-2l1.428-4.459a1.9,1.9,0,0,0-.386-1.989l.84.814a1.9,1.9,0,0,1,.386,1.989l-1.428,4.459a2.853,2.853,0,0,1-2.808,2l-4.214-.443a1.784,1.784,0,0,1-.558-.15,1.571,1.571,0,0,1-.443-.3l-.84-.814a1.665,1.665,0,0,0,1,.451" transform="translate(-58.293 -94.672)" fill="#12263f"/>
      <path id="Trazado_612053" data-name="Trazado 612053" d="M93.143,144.241a2.858,2.858,0,0,0-2.808,2L88.907,150.7a1.739,1.739,0,0,0,1.387,2.44l4.214.443a2.854,2.854,0,0,0,2.808-2l1.428-4.459a1.739,1.739,0,0,0-1.387-2.44Z" transform="translate(-57.373 -93.197)" fill="#fff"/>
      <path id="Trazado_612054" data-name="Trazado 612054" d="M55.415,150.207l4.214.443a2.854,2.854,0,0,0,2.808-2l1.428-4.459a1.9,1.9,0,0,0-.386-1.989l.84.814a1.9,1.9,0,0,1,.386,1.989l-1.428,4.459a2.853,2.853,0,0,1-2.808,2l-4.214-.443a1.779,1.779,0,0,1-.558-.149,1.573,1.573,0,0,1-.443-.3l-.84-.814a1.665,1.665,0,0,0,1,.451" transform="translate(-35.161 -91.887)" fill="#12263f"/>
      <path id="Trazado_612055" data-name="Trazado 612055" d="M57.343,139.657a2.858,2.858,0,0,0-2.808,2l-1.428,4.459a1.739,1.739,0,0,0,1.387,2.44l4.214.443a2.854,2.854,0,0,0,2.808-2l1.428-4.459a1.739,1.739,0,0,0-1.387-2.44Z" transform="translate(-34.24 -90.235)" fill="#fff"/>
    </g>
  </g>
  <g id="Grupo_892256" data-name="Grupo 892256" transform="translate(13.417)">
    <g id="Grupo_892255" data-name="Grupo 892255" clip-path="url(#clip-path-2)">
      <rect id="Rect치ngulo_303035" data-name="Rect치ngulo 303035" width="64.389" height="21.794" transform="translate(0)" fill="#fb8c00"/>
    </g>
  </g>
  <g id="Grupo_892258" data-name="Grupo 892258">
    <g id="Grupo_892257" data-name="Grupo 892257" clip-path="url(#clip-path)">
      <path id="Trazado_612057" data-name="Trazado 612057" d="M209.191,34.681l1.786-5.226a9.986,9.986,0,0,0-.024-7.086,7.617,7.617,0,0,0-1.6-2.426l5.524,5.616c2.175,2.21,2.913,5.74,1.624,9.512l-1.979,5.79Z" transform="translate(-135.173 -12.887)" fill="#954108"/>
    </g>
  </g>
</svg>
