<svg xmlns="http://www.w3.org/2000/svg" width="117.626" height="123.038" viewBox="0 0 117.626 123.038">
  <g id="Grupo_894893" data-name="Grupo 894893" transform="translate(21.17 29.475)">
    <rect id="Rectángulo_49533" data-name="Rectángulo 49533" width="89.789" height="83.368" transform="translate(6.667 10.195)" fill="#ffde96"/>
    <g id="BUtFOk" transform="translate(-30.691 1389.25)">
      <g id="Grupo_895141" data-name="Grupo 895141" transform="translate(9.521 -1418.725)">
        <path id="Trazado_616594" data-name="Trazado 616594" d="M9.521-1418.714H10.8q25.428,0,50.856-.011a2.4,2.4,0,0,1,1.907.811c6.3,6.52,12.627,13.006,18.911,19.536a2.718,2.718,0,0,1,.7,1.71q.053,41.284.031,82.568c0,.322-.039.643-.063,1.022H9.521Zm70.572,102.539c0-.573,0-1.008,0-1.443q0-6.493-.005-12.987,0-32.467-.022-64.934a2.42,2.42,0,0,0-.628-1.521c-5.75-5.972-11.543-11.9-17.3-17.867a2.166,2.166,0,0,0-1.731-.7q-23.33.023-46.659.012H12.643v99.438Z" transform="translate(-9.521 1418.725)" fill="#12263f"/>
        <path id="Trazado_616595" data-name="Trazado 616595" d="M379.362-1268.737h3.108v1.085q0,28.838-.017,57.675a3.273,3.273,0,0,1-.405,1.544c-2.187,3.858-4.41,7.694-6.63,11.534a2.22,2.22,0,0,1-3.579-.054c-2.2-3.807-4.41-7.61-6.581-11.435a3.273,3.273,0,0,1-.407-1.544q-.03-28.893-.015-57.785c0-.32.034-.641.055-1.015h3.018v53.941h11.454Zm.269,57.186h-11.6a3.566,3.566,0,0,0,.754,3.141c.737,1.171,1.183,2.813,2.234,3.417s2.707.122,4.086.243a1.751,1.751,0,0,0,1.95-1.162c.51-1.049,1.211-2.006,1.716-3.058A21.394,21.394,0,0,0,379.631-1211.551Zm-6,11.506.866-1.537H372.75Z" transform="translate(-286.475 1301.815)" fill="#12263f"/>
        <path id="Trazado_616596" data-name="Trazado 616596" d="M382.474-1330.254H364.965a2.271,2.271,0,0,1-.124-.51c-.009-3.191-.019-6.381.007-9.571a2.864,2.864,0,0,1,.372-.967c.027-.063.1-.1.147-.162a6.258,6.258,0,0,1,6.306-2.713c2.208.254,4.468.023,6.7.084a2.862,2.862,0,0,1,1.436.552,6.187,6.187,0,0,1,2.711,6.293A65.993,65.993,0,0,0,382.474-1330.254Zm-3.182-7.636c.219-2.22-.584-3.136-2.617-3.136q-3.078,0-6.157,0c-2.012,0-2.857,1.07-2.445,3.135Zm-11.322,4.471h11.31v-1.208h-11.31Z" transform="translate(-286.474 1360.666)" fill="#12263f"/>
        <path id="Trazado_616597" data-name="Trazado 616597" d="M398.2-1223.778h2.932v41.848H398.2Z" transform="translate(-312.486 1266.771)" fill="#12263f"/>
        <path id="Trazado_616598" data-name="Trazado 616598" d="M401.129-1270.536v2.94h-2.994v-2.94Z" transform="translate(-312.432 1303.217)" fill="#12263f"/>
        <path id="Trazado_616599" data-name="Trazado 616599" d="M398.1-1247.338h2.942v2.968H398.1Z" transform="translate(-312.407 1285.135)" fill="#12263f"/>
        <path id="Trazado_616600" data-name="Trazado 616600" d="M141.032-1265.729h-4.247c-5.724,0-11.447-.013-17.17.024a2.161,2.161,0,0,0-1.426.542q-9.407,9.965-18.748,19.992c-.117.125-.217.267-.418.517l1.71.083v3H93.811v-6.91h2.977c.037.41.071.8.121,1.358.312-.281.555-.47.763-.693q8.618-9.2,17.208-18.419a2.893,2.893,0,0,0,.67-1.727c.08-2.08.031-4.165.031-6.312h3.062v5.381h19.293v-19.184H118.693v5.426H115.66v-8.532h25.372Z" transform="translate(-75.222 1319.313)" fill="#12263f"/>
        <path id="Trazado_616601" data-name="Trazado 616601" d="M86.225-1280.067l-1.039-1.116,2.065-1.993,4.742,4.756-4.8,4.807-1.994-2.068,1.013-1.124H70.225v11.034H44.717v-25.359H70.161v11.063Zm-19.213,11.228v-19.2h-19.2v19.2Z" transform="translate(-36.955 1319.268)" fill="#12263f"/>
        <path id="Trazado_616602" data-name="Trazado 616602" d="M67.142-1124.093h3.137v4.607H86.289l-1.015-1.18,2.081-1.809,4.625,4.619-4.669,4.664-1.878-2.047.874-.987H70.336v11.05H44.85v-25.392H61.915v3H47.921v19.286H67.142Z" transform="translate(-37.059 1194.117)" fill="#12263f"/>
        <path id="Trazado_616603" data-name="Trazado 616603" d="M85.137-1388.519v11.2H44.712v-11.2ZM82.06-1385.4H47.824v4.958H82.06Z" transform="translate(-36.951 1395.18)" fill="#12263f"/>
        <path id="Trazado_616604" data-name="Trazado 616604" d="M192.744-1105.133v-8.471h3.035v5.362h19.259v-19.206H195.851v5.4h-3.093v-8.463h25.364v25.379Z" transform="translate(-152.337 1194.073)" fill="#12263f"/>
        <path id="Trazado_616605" data-name="Trazado 616605" d="M244.263-1374.685h12.76v3.035H241.249v-16.388h3.014Z" transform="translate(-190.145 1394.805)" fill="#12263f"/>
        <path id="Trazado_616606" data-name="Trazado 616606" d="M74.148-1326.229v2.945H51.865v-2.945Z" transform="translate(-42.527 1346.628)" fill="#12263f"/>
        <path id="Trazado_616607" data-name="Trazado 616607" d="M74.11-1005.551v2.964h-22.3v-2.964Z" transform="translate(-42.486 1096.67)" fill="#12263f"/>
        <path id="Trazado_616608" data-name="Trazado 616608" d="M51.715-1163.025v-2.98H74v2.98Z" transform="translate(-42.41 1221.739)" fill="#12263f"/>
        <path id="Trazado_616609" data-name="Trazado 616609" d="M221.768-1165.958v3.043h-1.223c-6.627,0-13.255-.027-19.882.026-1.1.009-1.426-.344-1.291-1.372a13.654,13.654,0,0,0,.012-1.7Z" transform="translate(-157.481 1221.702)" fill="#12263f"/>
        <path id="Trazado_616610" data-name="Trazado 616610" d="M221.852-1005.883v3.043H199.493a17.317,17.317,0,0,1,.043-2.439c.035-.239.571-.572.883-.578,2.676-.049,5.353-.036,8.029-.036q6.05,0,12.1.009Z" transform="translate(-157.58 1096.938)" fill="#12263f"/>
        <path id="Trazado_616611" data-name="Trazado 616611" d="M121.134-1267.576v13.635h-3.056v-10.579h-2.183v-3.056Z" transform="translate(-92.436 1300.91)" fill="#12263f"/>
        <path id="Trazado_616612" data-name="Trazado 616612" d="M68.919-1264.622v-2.941H71.86v2.941Z" transform="translate(-55.82 1300.9)" fill="#12263f"/>
        <path id="Trazado_616613" data-name="Trazado 616613" d="M95.528-1267.514v2.914H92.542v-2.914Z" transform="translate(-74.233 1300.861)" fill="#12263f"/>
        <path id="Trazado_616614" data-name="Trazado 616614" d="M156.032-1367.048v-2.958h10.394v2.958Z" transform="translate(-123.721 1380.75)" fill="#12263f"/>
        <path id="Trazado_616615" data-name="Trazado 616615" d="M135.658-1367h-2.969v-2.995h2.969Z" transform="translate(-105.526 1380.742)" fill="#12263f"/>
        <path id="Trazado_616616" data-name="Trazado 616616" d="M109.464-1370.091h2.906v2.978h-2.906Z" transform="translate(-87.423 1380.816)" fill="#12263f"/>
      </g>
    </g>
  </g>
</svg>
