<svg xmlns="http://www.w3.org/2000/svg" width="130.221" height="135.928" viewBox="0 0 130.221 135.928">
  <g id="sB7gla" transform="translate(304.769 -1203.856)">
    <g id="Grupo_896430" data-name="Grupo 896430" transform="translate(-304.769 1203.856)">
      <path id="Trazado_617076" data-name="Trazado 617076" d="M-261.841,1278.762c.712.692,1.457,1.414,2.2,2.139.259.253.521.5.762.774a2.18,2.18,0,0,1,.01,3c-1.448,1.493-2.951,2.933-4.426,4.4-.532.53-1.026,1.1-1.582,1.6a10.266,10.266,0,0,1-1.758,1.376,1.844,1.844,0,0,1-2.174-.372,8.071,8.071,0,0,1-.779-.894c-.476.518-.854.963-1.266,1.375-5.469,5.475-10.911,10.977-16.429,16.4a9.711,9.711,0,0,1-10.482,2.425,9.745,9.745,0,0,1-6.916-8.538,10.008,10.008,0,0,1,3.179-8.679q7.123-7.083,14.215-14.2c1.044-1.043,2.1-2.07,3.279-3.226a6.047,6.047,0,0,1-.628-.478,2.274,2.274,0,0,1,.015-3.5q3.216-3.216,6.436-6.427a3.431,3.431,0,0,1,.82-.628,2.206,2.206,0,0,1,2.616.478c.82.8,1.625,1.617,2.433,2.431.137.138.251.3.424.5.707-.719,1.346-1.372,1.989-2.022.732-.739,1.45-1.494,2.212-2.2a.445.445,0,0,0,.078-.707,36.775,36.775,0,0,1-4.212-8.284,38.074,38.074,0,0,1-2.246-15.16,38.167,38.167,0,0,1,3.473-14.094,38.233,38.233,0,0,1,13.834-16.081,38.143,38.143,0,0,1,16.675-6.083,37.923,37.923,0,0,1,6.14-.2,37.631,37.631,0,0,1,13.743,3.146,38.229,38.229,0,0,1,18.522,17,35.087,35.087,0,0,1,3.368,8.518c2.807,11.37,1.07,22.007-5.551,31.68a37.224,37.224,0,0,1-24.6,16.01,37.715,37.715,0,0,1-27.11-4.915c-.531-.316-1.038-.673-1.571-.985a.438.438,0,0,0-.407.016c-1.418,1.4-2.821,2.811-4.225,4.222C-261.8,1278.6-261.8,1278.638-261.841,1278.762Zm60.133-38.245a32.622,32.622,0,0,0-11.377-23.391,32.964,32.964,0,0,0-26.329-8.42,33.933,33.933,0,0,0-30.184,33.921,33.932,33.932,0,0,0,34.123,33.774C-216.78,1276.358-201.657,1261.075-201.708,1240.516Zm-79.269,39.16a1.148,1.148,0,0,0-.106.088q-8.719,8.719-17.435,17.444a5.391,5.391,0,0,0-1.642,4.309,5.459,5.459,0,0,0,3.693,5.064,5.468,5.468,0,0,0,6.094-1.3c1.509-1.454,2.972-2.955,4.454-4.437q5.741-5.742,11.484-11.483c.539-.538,1.109-1.045,1.61-1.515Zm4.622-9.008-3.469,3.432,12.512,12.526,3.472-3.423Zm11.755-2.74-3.934,3.919,3.461,3.522,3.962-3.949Z" transform="translate(304.769 -1203.856)" fill="#12263f"/>
      <path id="Trazado_617077" data-name="Trazado 617077" d="M-166.319,1977.68h4.489v18.049h54.312v-44.243c-.175.16-.3.269-.422.387-2.986,2.987-5.98,5.965-8.948,8.969a3.1,3.1,0,0,1-2.374.981c-4.934-.025-9.868-.011-14.8-.011h-.562v-4.528h.534c4.647,0,9.294,0,13.941-.013a1.1,1.1,0,0,0,.7-.294q4.637-4.607,9.248-9.24c1.044-1.045,2.066-2.115,3.15-3.118a4.268,4.268,0,0,1,1.479-.9q9.98-3.371,19.979-6.685,9.543-3.181,19.088-6.356c.429-.143.857-.288,1.286-.43a2.2,2.2,0,0,1,1.991.259q6.758,4.5,13.51,9.018a2.18,2.18,0,0,1,1.051,2.156,2.187,2.187,0,0,1-1.525,1.9q-5.811,2.149-11.629,4.281a.558.558,0,0,0-.453.629q.037,17.856.047,35.712a2.289,2.289,0,0,1-1.774,2.464q-8.108,2.7-16.219,5.4-11.842,3.945-23.679,7.9a6.155,6.155,0,0,1-1.991.327q-26.818-.013-53.636-.006c-1.448,0-2.9,0-4.345,0a2.272,2.272,0,0,1-2.466-2.442q-.005-9.823,0-19.645C-166.344,1978.038-166.329,1977.875-166.319,1977.68Zm99.6-27.977c-.266.085-.435.133-.6.193q-1.635.6-3.268,1.2c-7.355,2.709-14.717,5.4-22.059,8.142a2.754,2.754,0,0,1-3.292-.756c-2-2.072-4.06-4.087-6.1-6.124-.28-.281-.569-.553-.923-.9v43.4c.223-.07.38-.116.536-.168q5.3-1.767,10.594-3.534,12.268-4.086,24.539-8.161a.662.662,0,0,0,.546-.754q-.022-11.4-.01-22.81c0-2.383.023-4.765.033-7.148C-66.717,1951.457-66.72,1950.619-66.72,1949.7Zm10.887-8.855c-.139-.075-.195-.1-.245-.133q-4.238-2.819-8.481-5.629a.75.75,0,0,0-.57-.077q-5.884,1.937-11.758,3.9-11.752,3.922-23.5,7.849c-.192.064-.381.138-.591.214a1.521,1.521,0,0,0,.11.152q3.628,3.632,7.251,7.268a.575.575,0,0,0,.72.114q6.851-2.532,13.706-5.051l20.031-7.379C-58.09,1941.684-57.021,1941.287-55.832,1940.847Z" transform="translate(178.877 -1864.367)" fill="#12263f"/>
      <path id="Trazado_617078" data-name="Trazado 617078" d="M-61.5,2555.6v4.449h-4.479V2555.6Z" transform="translate(87.601 -2433.219)" fill="#12263f"/>
      <path id="Trazado_617079" data-name="Trazado 617079" d="M34.088,2555.345h4.446v4.479H34.088Z" transform="translate(-3.41 -2432.988)" fill="#12263f"/>
      <path id="Trazado_617080" data-name="Trazado 617080" d="M134.113,2555.343h4.446v4.479h-4.446Z" transform="translate(-94.379 -2432.987)" fill="#12263f"/>
      <path id="Trazado_617081" data-name="Trazado 617081" d="M151.6,1287.093c.051,20.558-15.072,35.842-33.767,35.884a33.953,33.953,0,0,1-3.94-67.7,32.965,32.965,0,0,1,26.329,8.42A32.622,32.622,0,0,1,151.6,1287.093Zm-4.524,1.9a29.416,29.416,0,1,0-29.362,29.447A29.389,29.389,0,0,0,147.076,1289Z" transform="translate(-48.539 -1250.432)" fill="#fb8c00"/>
      <path id="Trazado_617082" data-name="Trazado 617082" d="M-234.819,2041.334l8.151,8.167c-.5.47-1.071.977-1.61,1.515q-5.747,5.736-11.484,11.483c-1.482,1.482-2.945,2.983-4.454,4.437a5.468,5.468,0,0,1-6.094,1.3,5.46,5.46,0,0,1-3.693-5.064,5.392,5.392,0,0,1,1.642-4.309q8.708-8.73,17.435-17.443A1.145,1.145,0,0,1-234.819,2041.334Z" transform="translate(258.611 -1965.513)" fill="#b2ebf2"/>
      <path id="Trazado_617083" data-name="Trazado 617083" d="M-25.773,1941.833l12.516,12.536-3.472,3.423-12.512-12.526Z" transform="translate(54.187 -1875.02)" fill="#fff"/>
      <path id="Trazado_617084" data-name="Trazado 617084" d="M99.4,1911.568l3.489,3.491-3.962,3.949-3.461-3.522Z" transform="translate(-59.234 -1847.495)" fill="#e8e8e8"/>
      <path id="Trazado_617085" data-name="Trazado 617085" d="M570.032,2146.424c0,.916,0,1.755,0,2.593-.01,2.383-.032,4.765-.033,7.148q-.006,11.405.01,22.81a.662.662,0,0,1-.546.754q-12.274,4.066-24.539,8.161-5.3,1.764-10.594,3.534c-.156.052-.313.1-.536.168v-43.4c.354.344.642.616.923.9,2.037,2.037,4.1,4.052,6.1,6.124a2.754,2.754,0,0,0,3.292.756c7.342-2.743,14.7-5.434,22.059-8.142q1.634-.6,3.268-1.2C569.6,2146.557,569.766,2146.51,570.032,2146.424Zm-24.9,23.451v11.261h4.449v-11.261Zm-2.334,15.8v-11.265h-4.451v11.265Z" transform="translate(-457.875 -2061.089)" fill="#26aab7"/>
      <path id="Trazado_617086" data-name="Trazado 617086" d="M600.791,1989.7c-1.188.439-2.258.836-3.328,1.23l-20.031,7.379q-6.854,2.524-13.706,5.051a.575.575,0,0,1-.72-.114q-3.614-3.646-7.251-7.268a1.529,1.529,0,0,1-.11-.152c.21-.076.4-.15.591-.214q11.751-3.925,23.5-7.848,5.876-1.961,11.758-3.9a.75.75,0,0,1,.57.077q4.25,2.8,8.481,5.629C600.6,1989.6,600.653,1989.623,600.791,1989.7Z" transform="translate(-477.747 -1913.217)" fill="#b2ebf2"/>
      <path id="Trazado_617087" data-name="Trazado 617087" d="M192.617,1334.677A29.416,29.416,0,1,1,163.1,1305.3,29.408,29.408,0,0,1,192.617,1334.677Zm-54.318.052a24.894,24.894,0,1,0,24.821-24.915A24.807,24.807,0,0,0,138.3,1334.729Z" transform="translate(-94.08 -1296.113)" fill="#12263f"/>
      <path id="Trazado_617088" data-name="Trazado 617088" d="M659.027,2405.452h4.449v11.26h-4.449Z" transform="translate(-571.77 -2296.666)" fill="#12263f"/>
      <path id="Trazado_617089" data-name="Trazado 617089" d="M588.529,2466.83h-4.451v-11.265h4.451Z" transform="translate(-503.606 -2342.242)" fill="#12263f"/>
      <path id="Trazado_617090" data-name="Trazado 617090" d="M183.653,1380.1a24.894,24.894,0,1,1,25.519,24.862A24.944,24.944,0,0,1,183.653,1380.1Zm4.555-.062h4.48a15.24,15.24,0,0,1,15.831-15.82v-4.479A19.645,19.645,0,0,0,188.208,1380.04Z" transform="translate(-139.434 -1341.485)" fill="#b0c0d2"/>
      <path id="Trazado_617091" data-name="Trazado 617091" d="M233.8,1425.616a19.645,19.645,0,0,1,20.311-20.3v4.48a15.24,15.24,0,0,0-15.831,15.82Z" transform="translate(-185.025 -1387.061)" fill="#12263f"/>
    </g>
  </g>
</svg>
