<svg xmlns="http://www.w3.org/2000/svg" width="87.174" height="87.207" viewBox="0 0 87.174 87.207">
  <g id="_97BmKQ" data-name="97BmKQ" transform="translate(518.934 2551.022)">
    <g id="Grupo_895146" data-name="Grupo 895146" transform="translate(-518.934 -2551.022)">
      <path id="Trazado_616646" data-name="Trazado 616646" d="M-476.739-2429.145h5.561v-15.784c0-6.584,0-6.584,6.626-6.584q14.274,0,28.547,0c3.4,0,4.236.835,4.238,4.236q.008,15.51,0,31.02c0,3.262-.867,4.142-4.116,4.151-5.77.016-11.54.082-17.308-.029a19.412,19.412,0,0,0-7.612,1.459,18.579,18.579,0,0,1-6.464,1.318c-14.46.112-28.922.063-43.382.055-5.58,0-8.368-2.708-8.268-8.255.045-2.509-.326-5.568.927-7.388,1.97-2.859,1.815-5.678,1.831-8.676.024-4.57,0-9.141.01-13.712.01-3.319.845-4.175,4.08-4.178q15.623-.012,31.245,0c3.215,0,4.078.887,4.082,4.165C-476.733-2441.356-476.739-2435.367-476.739-2429.145Zm-36.373-7.394c.962-1.321,1.6-2.2,2.245-3.083,3.386-4.624,8.621-4.636,11.931,0,2.175,3.047,4.278,6.146,6.466,9.184.4.56,1.047,1.32,1.6,1.338,3.71.119,7.425.062,11.327.062,0-6.061-.061-11.817.038-17.571.03-1.712-.529-2.147-2.181-2.136-9.889.07-19.778.032-29.667.042-.576,0-1.153.1-1.759.162Zm44.967-12.172v7.59c.969-1.356,1.585-2.351,2.332-3.236,1.582-1.873,4.474-2.145,5.914-.264,2.695,3.519,5,7.313,8.373,10.315,1.189,1.059,1.825,2.723,2.8,4.05.364.5.961,1.154,1.464,1.166,4.162.094,8.328.053,12.7.053,0-5.962-.071-11.64.041-17.315.037-1.856-.491-2.417-2.377-2.4-9.66.091-19.321.042-28.982.042Zm2.586,22.645h-36.27v5.334h36.27Zm-36.355,13.774h36.288v-5.356h-36.288Zm45.67-13.928c5.981,4.39,12.514,2.269,18.643,3.037v2.665h-8.445c.7,2.816-.834,4.193-3.581,5.414h15.05c0-3.387.052-6.662-.065-9.932-.014-.411-.913-1.128-1.408-1.134C-442.626-2426.245-449.2-2426.219-456.245-2426.219Zm-38.774-2.9c-2.37-3.38-4.342-6.562-6.728-9.394a5.4,5.4,0,0,0-4.059-1.514c-2.446.22-7.609,8.093-7.354,10.635.006.062.07.119.165.274Zm36.965-7.916c-1.125-1.688-2.234-3.365-3.356-5.033-.865-1.286-1.755-1.246-2.611,0a41.7,41.7,0,0,1-2.635,3.88c-2.408,2.78-1.526,5.937-1.547,8.9,3.19.819,5.434.254,6.831-2.75A39.185,39.185,0,0,1-458.054-2437.036Zm-4.609,24.157a43.417,43.417,0,0,1,5.289-2.143c2.665-.688,3.662-2.232,3.111-4.85-.17-.809-.236-2.055-.744-2.308-2.43-1.21-4.995-2.149-7.657-3.243Zm-47.894-13.133a4.42,4.42,0,0,0-5.6,4.62c.086,1.719-.08,3.455.063,5.167.251,3,2.538,4.514,5.541,3.74Zm5.475,13.8v-14l-2.462.11v13.886Zm45.113-16.961h8.527c-1.085-1.651-1.991-3.087-2.957-4.483-.887-1.282-1.8-1.148-2.631.084C-457.945-2432.219-458.848-2430.855-459.969-2429.175Zm8.648,8.41v3.208l3.206-1.619Z" transform="translate(518.934 2496.492)" fill="#12263f"/>
      <path id="Trazado_616647" data-name="Trazado 616647" d="M-373.87-2531.485c0,5.322.011,10.644,0,15.965-.009,2.957-.933,3.9-3.906,3.907q-15.853.027-31.706,0c-2.848-.006-3.78-.945-3.786-3.8q-.033-15.853,0-31.706c0-2.975.938-3.887,3.914-3.891q15.853-.016,31.706,0c2.806,0,3.769.975,3.78,3.786C-373.856-2541.979-373.87-2536.731-373.87-2531.485Zm-36.425.123a2.924,2.924,0,0,0,.625-.309c2.415-2.661,4.8-5.345,7.235-7.992,3.605-3.927,8.528-3.907,12.136.051,2.774,3.044,5.644,6.014,8.219,9.22,1.514,1.884,3.144,2.171,5.408,1.611,0-5.82-.061-11.575.037-17.328.029-1.705-.518-2.151-2.175-2.139-9.884.07-19.769.032-29.654.042-.579,0-1.158.1-1.83.161Zm33.473,16.791v-11.018h-33.4v11.018Zm-7.361-14.074c-3.219-3.533-6.073-6.86-9.15-9.966a4.231,4.231,0,0,0-5.957-.106c-3.143,3.129-6.039,6.507-9.3,10.072Z" transform="translate(461.04 2551.022)" fill="#12263f"/>
      <path id="Trazado_616648" data-name="Trazado 616648" d="M-473.373-2531.482c0,5.321.011,10.643,0,15.964-.009,2.957-.932,3.9-3.908,3.905q-15.851.027-31.7,0c-2.849-.006-3.781-.944-3.787-3.8q-.033-15.851,0-31.7c.005-2.972.949-3.891,3.918-3.895q15.851-.018,31.7,0c2.8,0,3.766.978,3.776,3.791C-473.359-2541.974-473.373-2536.729-473.373-2531.482Zm-36.363-16.733v19.571H-476.3c.047-.758.122-1.413.124-2.068.009-5.088-.065-10.177.043-15.263.038-1.766-.474-2.3-2.263-2.28-9.277.085-18.556.04-27.834.04Zm.006,22.627v10.947h33.406v-10.947Z" transform="translate(515.568 2551.022)" fill="#12263f"/>
      <path id="Trazado_616649" data-name="Trazado 616649" d="M-506.053-2433.178v-12c.606-.058,1.182-.161,1.759-.162,9.889-.01,19.779.027,29.667-.042,1.652-.011,2.211.424,2.181,2.136-.1,5.753-.038,11.51-.038,17.571-3.9,0-7.617.057-11.327-.062-.553-.018-1.2-.779-1.6-1.338-2.188-3.038-4.29-6.137-6.466-9.184-3.31-4.637-8.545-4.624-11.931,0C-504.452-2435.382-505.091-2434.5-506.053-2433.178Zm25.062-9.272a5.589,5.589,0,0,0-5.588,5.549,5.714,5.714,0,0,0,5.55,5.647,5.606,5.606,0,0,0,5.645-5.721A5.46,5.46,0,0,0-480.991-2442.45Z" transform="translate(511.875 2493.132)" fill="#d2e1f1"/>
      <path id="Trazado_616650" data-name="Trazado 616650" d="M-406.567-2445.359h2.26c9.661,0,19.322.048,28.982-.042,1.885-.018,2.413.544,2.377,2.4-.113,5.674-.041,11.352-.041,17.315-4.369,0-8.535.041-12.7-.053-.5-.011-1.1-.669-1.464-1.166-.973-1.327-1.609-2.991-2.8-4.05-3.37-3-5.678-6.8-8.373-10.315-1.44-1.88-4.333-1.608-5.914.265-.747.885-1.363,1.88-2.332,3.236Zm25.157,2.9a5.6,5.6,0,0,0-5.678,5.462,5.718,5.718,0,0,0,5.689,5.737,5.605,5.605,0,0,0,5.511-5.635A5.461,5.461,0,0,0-381.41-2442.464Z" transform="translate(457.356 2493.141)" fill="#b0c0d2"/>
      <path id="Trazado_616651" data-name="Trazado 616651" d="M-444.82-2395.207v5.334h-36.27v-5.334Z" transform="translate(498.195 2465.634)" fill="#f6f6f6"/>
      <path id="Trazado_616652" data-name="Trazado 616652" d="M-481.279-2371.227v-5.356h36.288v5.356Z" transform="translate(498.299 2455.428)" fill="#f6f6f6"/>
      <path id="Trazado_616653" data-name="Trazado 616653" d="M-380.238-2395.554c7.042,0,13.618-.025,20.194.051.5.006,1.394.723,1.408,1.134.117,3.269.065,6.544.065,9.932h-15.05c2.747-1.221,4.277-2.6,3.581-5.415h8.445v-2.665C-367.724-2393.285-374.257-2391.164-380.238-2395.554Z" transform="translate(442.928 2465.827)" fill="#b2ebf2"/>
      <path id="Trazado_616654" data-name="Trazado 616654" d="M-488.029-2415.208H-506c-.1-.155-.159-.211-.165-.273-.255-2.542,4.908-10.414,7.354-10.634a5.394,5.394,0,0,1,4.059,1.514C-492.371-2421.77-490.4-2418.589-488.029-2415.208Z" transform="translate(511.944 2482.581)" fill="#26aab7"/>
      <path id="Trazado_616655" data-name="Trazado 616655" d="M-396.715-2426.733a39.18,39.18,0,0,0-3.316,5c-1.4,3-3.642,3.569-6.831,2.75.02-2.962-.861-6.119,1.547-8.9a41.682,41.682,0,0,0,2.635-3.88c.856-1.25,1.746-1.291,2.611,0C-398.95-2430.1-397.84-2428.422-396.715-2426.733Z" transform="translate(457.596 2486.189)" fill="#26aab7"/>
      <path id="Trazado_616656" data-name="Trazado 616656" d="M-394.439-2381.245v-12.545c2.662,1.095,5.227,2.033,7.657,3.243.508.253.573,1.5.744,2.308.551,2.618-.446,4.162-3.111,4.85A43.455,43.455,0,0,0-394.439-2381.245Z" transform="translate(450.71 2464.858)" fill="#fffae7"/>
      <path id="Trazado_616657" data-name="Trazado 616657" d="M-507.2-2395.25v13.526c-3,.774-5.29-.737-5.541-3.74-.143-1.712.023-3.447-.063-5.166A4.42,4.42,0,0,1-507.2-2395.25Z" transform="translate(515.579 2465.73)" fill="#fffae7"/>
      <path id="Trazado_616658" data-name="Trazado 616658" d="M-491.274-2381.532h-2.462v-13.886l2.462-.11Z" transform="translate(505.125 2465.811)" fill="#fffae7"/>
      <path id="Trazado_616659" data-name="Trazado 616659" d="M-388.479-2408.617c1.122-1.68,2.024-3.044,2.94-4.4.832-1.233,1.743-1.366,2.631-.084.965,1.4,1.872,2.832,2.957,4.482Z" transform="translate(447.444 2475.934)" fill="#26aab7"/>
      <path id="Trazado_616661" data-name="Trazado 616661" d="M-406.666-2528v-16.685c.672-.062,1.251-.16,1.83-.161,9.885-.01,19.77.028,29.654-.042,1.657-.012,2.2.434,2.175,2.139-.1,5.753-.037,11.508-.037,17.328-2.264.561-3.894.273-5.408-1.611-2.575-3.205-5.445-6.176-8.219-9.22-3.607-3.958-8.53-3.978-12.136-.051-2.43,2.647-4.82,5.331-7.235,7.992A2.925,2.925,0,0,1-406.666-2528Z" transform="translate(457.41 2547.66)" fill="#b0c0d2"/>
      <path id="Trazado_616662" data-name="Trazado 616662" d="M-373.109-2483.736h-33.4v-11.017h33.4Zm-27.935-5.592h22.285v-2.523h-22.285Z" transform="translate(457.326 2520.186)" fill="#b2ebf2"/>
      <path id="Trazado_616663" data-name="Trazado 616663" d="M-378.49-2515.15H-402.9c3.264-3.566,6.16-6.943,9.3-10.073a4.231,4.231,0,0,1,5.957.106C-384.563-2522.011-381.709-2518.684-378.49-2515.15Z" transform="translate(455.347 2537.527)" fill="#26aab7"/>
      <path id="Trazado_616664" data-name="Trazado 616664" d="M-506.031-2544.859h3.5c9.278,0,18.557.046,27.834-.039,1.789-.016,2.3.515,2.263,2.28-.108,5.085-.034,10.175-.043,15.263,0,.655-.076,1.31-.124,2.068h-33.431Z" transform="translate(511.863 2547.666)" fill="#d2e1f1"/>
      <path id="Trazado_616665" data-name="Trazado 616665" d="M-506.017-2494.75h33.406v10.948h-33.406Zm30.536,2.891H-492v2.536h16.515Zm-27.92-.063.122,2.549h8.145v-2.549Z" transform="translate(511.855 2520.185)" fill="#b2ebf2"/>
      <path id="Trazado_616666" data-name="Trazado 616666" d="M-457.38-2438.892a5.46,5.46,0,0,1,5.607,5.475,5.605,5.605,0,0,1-5.645,5.721,5.714,5.714,0,0,1-5.55-5.647A5.589,5.589,0,0,1-457.38-2438.892Zm-.272,8.3a2.748,2.748,0,0,0,3.07-2.77,2.592,2.592,0,0,0-2.665-2.724,2.639,2.639,0,0,0-2.828,2.773A2.546,2.546,0,0,0-457.652-2430.589Z" transform="translate(488.264 2489.574)" fill="#12263f"/>
      <path id="Trazado_616667" data-name="Trazado 616667" d="M-357.8-2438.9a5.462,5.462,0,0,1,5.522,5.564,5.605,5.605,0,0,1-5.511,5.635,5.718,5.718,0,0,1-5.689-5.737A5.6,5.6,0,0,1-357.8-2438.9Zm2.725,5.706a2.706,2.706,0,0,0-2.733-2.9,2.532,2.532,0,0,0-2.761,2.606,2.516,2.516,0,0,0,2.471,2.876A2.7,2.7,0,0,0-355.071-2433.2Z" transform="translate(433.741 2489.58)" fill="#12263f"/>
      <path id="Trazado_616668" data-name="Trazado 616668" d="M-394.413-2485.807v-2.523h22.285v2.523Z" transform="translate(450.696 2516.667)" fill="#12263f"/>
      <path id="Trazado_616669" data-name="Trazado 616669" d="M-458.483-2488.355v2.537H-475v-2.537Z" transform="translate(494.857 2516.68)" fill="#12263f"/>
      <path id="Trazado_616670" data-name="Trazado 616670" d="M-500.229-2488.5h8.267v2.549h-8.145Z" transform="translate(508.684 2516.757)" fill="#12263f"/>
      <path id="Trazado_616671" data-name="Trazado 616671" d="M-454.145-2427.19a2.547,2.547,0,0,1-2.423-2.721,2.639,2.639,0,0,1,2.828-2.773,2.592,2.592,0,0,1,2.665,2.724A2.748,2.748,0,0,1-454.145-2427.19Z" transform="translate(484.758 2486.176)" fill="#fb8c00"/>
      <path id="Trazado_616672" data-name="Trazado 616672" d="M-351.548-2429.79a2.7,2.7,0,0,1-3.023,2.587,2.516,2.516,0,0,1-2.471-2.876,2.531,2.531,0,0,1,2.761-2.606A2.706,2.706,0,0,1-351.548-2429.79Z" transform="translate(430.219 2486.172)" fill="#fb8c00"/>
    </g>
  </g>
</svg>
