<svg id="Grupo_892555" data-name="Grupo 892555" xmlns="http://www.w3.org/2000/svg" xmlns:xlink="http://www.w3.org/1999/xlink" width="90.618" height="99.22" viewBox="0 0 90.618 99.22">
  <defs>
    <clipPath id="clip-path">
      <rect id="Rect치ngulo_303195" data-name="Rect치ngulo 303195" width="90.618" height="99.22" fill="#12263f"/>
    </clipPath>
  </defs>
  <g id="Grupo_892555-2" data-name="Grupo 892555" clip-path="url(#clip-path)">
    <path id="Trazado_612130" data-name="Trazado 612130" d="M48.232,124.719a2.64,2.64,0,0,0-.413-.2A6.859,6.859,0,0,1,42.673,118c-.07-1.871-.044-3.747-.01-5.619a2.057,2.057,0,0,1,2.253-2.216c1.061-.02,2.123,0,3.259,0V85.771c-.3-.021-.615-.036-.925-.064a2.552,2.552,0,0,1-2.494-2.379c-.127-.926-.3-1.848-.375-2.778-.045-.568-.3-.7-.8-.691a10.11,10.11,0,0,1-1.736-.091A2.238,2.238,0,0,1,39.91,77.56c-.036-2.163-.028-4.328-.006-6.492a2.51,2.51,0,0,1,1.94-2.348,14.093,14.093,0,0,0-3.425-4.4,18.48,18.48,0,0,1-6.218-11.6,18.76,18.76,0,0,1,14.317-20.6,18.424,18.424,0,0,1,12.433,1.453,1.5,1.5,0,0,1,1.023,1.669,1.345,1.345,0,0,1-1.33,1.2,3.485,3.485,0,0,1-1.361-.416,15.438,15.438,0,0,0-12.5-.265,15.67,15.67,0,0,0-5,25.782,22.511,22.511,0,0,1,5.162,6.7,1.025,1.025,0,0,0,.716.455,16.645,16.645,0,0,0,1.873.021c-.385-1.815-.742-3.533-1.114-5.248C45.951,61.3,45.45,59.14,45,56.965a3.4,3.4,0,0,1,3.531-4.372c1.421-.019,2.843-.023,4.263,0a3.378,3.378,0,0,1,3.445,4.34Q55.067,62.317,53.9,67.7c-.067.31-.1.628-.157,1.025a19.789,19.789,0,0,0,2.066-.024,1.023,1.023,0,0,0,.683-.513,21.281,21.281,0,0,1,4.976-6.48,15.675,15.675,0,0,0,1.668-21.013c-.1-.128-.21-.246-.3-.377A1.454,1.454,0,0,1,63,38.1a1.411,1.411,0,0,1,2.111.394,49.448,49.448,0,0,1,2.763,4.637,1.35,1.35,0,0,0,1.415.928q19.767-.038,39.534,0a8.912,8.912,0,0,1,3.216.493,6.605,6.605,0,0,1,4.346,6.391c.077,2.517.034,5.038.012,7.558a2.154,2.154,0,0,1-2.417,2.385c-2.422.02-4.845.006-7.267.006h-1.131v2.412c0,2.487.007,4.974,0,7.461a1.546,1.546,0,0,1-1.431,1.74,1.467,1.467,0,0,1-1.486-1.658c-.007-6.751-.037-13.5.044-20.251a17.057,17.057,0,0,1,.807-3.548H69.24V53.41H70.2q8.382,0,16.763,0c1.112,0,1.771.573,1.759,1.484-.012.871-.644,1.421-1.71,1.426-2.745.013-5.491.005-8.236.005-3.2,0-6.4.014-9.593-.012a1.082,1.082,0,0,0-1.146.742c-.944,1.887-2,3.721-3.04,5.635,1.413,0,2.944-.024,4.473.01a1.407,1.407,0,0,1,1.42,1.41,1.473,1.473,0,0,1-1.374,1.478,6.412,6.412,0,0,1-.678.009c-2.067,0-4.135.036-6.2-.019a1.626,1.626,0,0,0-1.6.8c-.473.754-.988,1.482-1.632,2.441.735.084,1.223.188,1.711.189q9.884.016,19.767.008c1.491,0,2.191.455,2.217,1.427q.041,1.53-2.228,1.532H61.628v3.358h1.111q15.213,0,30.426,0a4.958,4.958,0,0,1,1.152.082,1.443,1.443,0,0,1-.112,2.845,7.652,7.652,0,0,1-1.159.048q-15.262,0-30.523-.005A1.664,1.664,0,0,0,60.881,79a2.611,2.611,0,0,1-2.637.849c-.925-.09-1.253.284-1.306,1.157a19.967,19.967,0,0,1-.332,2.393,2.5,2.5,0,0,1-2.727,2.314c-.836.021-1.673,0-2.595,0v24.447H77.129c.323,0,.647-.01.969.013a1.442,1.442,0,0,1,1.449,1.4,1.525,1.525,0,0,1-1.38,1.493,7.486,7.486,0,0,1-.871.014H45.708c0,1.942-.126,3.785.036,5.6a3.793,3.793,0,0,0,3.976,3.127c2.39.021,4.78.005,7.17.005H92.656c-1.876-2.725-.954-5.737-1.267-8.735h-4.6c-.678,0-1.359.032-2.034-.016A1.425,1.425,0,0,1,83.4,111.58a1.347,1.347,0,0,1,1.351-1.384c2.615-.035,5.232-.047,7.847.01a1.891,1.891,0,0,1,1.752,2.062c.018,1.873-.021,3.747.018,5.62a3.973,3.973,0,0,0,2.562,3.659,4.361,4.361,0,0,0,4.714-1.08,4.568,4.568,0,0,0,1.015-3.241q-.009-19.186,0-38.372a11.236,11.236,0,0,1,.028-1.161,1.353,1.353,0,0,1,1.4-1.326,1.4,1.4,0,0,1,1.47,1.271,5.341,5.341,0,0,1,.025.967q0,19.234,0,38.468c0,4.072-1.6,6.267-5.465,7.521-.055.018-.095.082-.141.124Zm-5.4-47.891H58.516V71.735H42.828ZM113.4,57.852c0-2.43.046-4.81-.014-7.186a3.8,3.8,0,0,0-3.556-3.673,3.74,3.74,0,0,0-4.158,3.218c-.191,2.523-.046,5.072-.046,7.641Zm-62.858,10.7.183-.041c.86-4,1.7-8,2.6-11.983.185-.823-.065-1.045-.84-1.024-1.226.033-2.455.04-3.68,0-.84-.028-1.084.244-.882,1.091.471,1.972.86,3.964,1.292,5.946.437,2.006.887,4.009,1.331,6.013M47.669,82.724c1.933,0,3.763.012,5.592-.018a.7.7,0,0,0,.537-.389c.142-.772.205-1.559.3-2.363H47.251l.418,2.769" transform="translate(-25.812 -25.499)" fill="#12263f"/>
    <path id="Trazado_612131" data-name="Trazado 612131" d="M2.945,24.545a22.035,22.035,0,0,0,7.122,16.532c.165.154.337.3.49.468a1.5,1.5,0,0,1,.1,2.089,1.347,1.347,0,0,1-2.065.049,41.155,41.155,0,0,1-4.28-4.845C-5.855,24.054,2.916,3.415,20.606.372A24.881,24.881,0,0,1,46.9,13.142a7,7,0,0,1,.38.781,1.338,1.338,0,0,1-.677,1.8,1.353,1.353,0,0,1-1.817-.383,5.94,5.94,0,0,1-.493-.83C40.041,7.109,33.635,3.18,25.121,2.926,14.369,2.606,4.595,11.065,3.2,21.73c-.137,1.053-.2,2.117-.26,2.815" transform="translate(0 0)" fill="#12263f"/>
    <path id="Trazado_612132" data-name="Trazado 612132" d="M186.462,297.234c-5.517,0-11.034.007-16.551-.014a2.062,2.062,0,0,1-1.342-.336,1.74,1.74,0,0,1-.472-1.417c.14-.452.714-.809,1.165-1.11.2-.136.566-.04.856-.041h32.812c.194,0,.388-.007.581,0a1.519,1.519,0,0,1,1.6,1.472,1.471,1.471,0,0,1-1.607,1.435c-3,.016-6,.007-9,.008h-8.034" transform="translate(-135.431 -237.141)" fill="#12263f"/>
    <path id="Trazado_612133" data-name="Trazado 612133" d="M186.346,362.81q-8.227,0-16.454-.006c-.38,0-.883.051-1.114-.158a2.638,2.638,0,0,1-.924-1.415,1.227,1.227,0,0,1,1.16-1.315,7.211,7.211,0,0,1,1.06-.063q16.309,0,32.617,0c1.5,0,2.272.531,2.236,1.52-.035.965-.766,1.439-2.225,1.439H186.346" transform="translate(-135.254 -289.975)" fill="#12263f"/>
    <path id="Trazado_612134" data-name="Trazado 612134" d="M249.093,194.411c-3.356,0-6.713.01-10.069,0-1.348-.005-2.172-1.176-1.478-2.157a1.919,1.919,0,0,1,1.346-.72c6.809-.045,13.618-.037,20.428-.024a1.457,1.457,0,0,1,1.571,1.472,1.5,1.5,0,0,1-1.632,1.428c-3.388.013-6.777.005-10.165.005" transform="translate(-191.217 -154.311)" fill="#12263f"/>
    <path id="Trazado_612135" data-name="Trazado 612135" d="M179.655,330.194c-3.325,0-6.651.035-9.974-.036a2.174,2.174,0,0,1-1.477-.808,1.475,1.475,0,0,1,.084-1.395,1.963,1.963,0,0,1,1.383-.642c6.618-.04,13.236-.031,19.853-.023a1.46,1.46,0,1,1,.009,2.9c-3.293.013-6.586,0-9.878,0" transform="translate(-135.431 -263.733)" fill="#12263f"/>
    <path id="Trazado_612136" data-name="Trazado 612136" d="M269.421,395.442c-2.486,0-4.972.005-7.458-.005-.383,0-.878.059-1.124-.146a2.4,2.4,0,0,1-.968-1.365c-.023-.426.519-.939.912-1.307.192-.18.612-.158.928-.158q7.749-.012,15.5-.005a3.1,3.1,0,0,1,.483.022,1.512,1.512,0,0,1,1.381,1.491,1.477,1.477,0,0,1-1.42,1.451,6.485,6.485,0,0,1-.87.023q-3.681,0-7.361,0" transform="translate(-209.409 -316.248)" fill="#12263f"/>
    <path id="Trazado_612137" data-name="Trazado 612137" d="M175.979,395.42c-2.225,0-4.451.024-6.675-.008-1.41-.02-2.234-1.248-1.484-2.231a2,2,0,0,1,1.373-.713c4.514-.053,9.03-.045,13.544-.023a1.448,1.448,0,0,1,1.621,1.524c-.021.887-.619,1.432-1.7,1.444-2.225.024-4.45.007-6.676.007" transform="translate(-135.005 -316.227)" fill="#12263f"/>
    <path id="Trazado_612138" data-name="Trazado 612138" d="M156.794,102.178c-.145,1.187.219,2.642-1.537,2.8-1.012.09-1.357-.56-1.581-2.793-1.127-.155-2.706.248-2.783-1.631-.039-.959.637-1.282,2.808-1.476.141-1.132-.252-2.7,1.619-2.792.964-.046,1.292.636,1.477,2.778,1.13.215,2.891-.249,2.746,1.739-.117,1.606-1.589,1.245-2.749,1.378" transform="translate(-121.592 -77.585)" fill="#12263f"/>
    <path id="Trazado_612139" data-name="Trazado 612139" d="M48.968,293.435c-1.183-.1-2.634.3-2.806-1.468-.1-1.009.523-1.331,2.765-1.543.255-1.105-.284-2.9,1.708-2.782,1.684.1,1.272,1.625,1.427,2.816,1.13.13,2.72-.337,2.8,1.569.038.962-.587,1.249-2.779,1.434-.213,1.129.268,2.9-1.691,2.792-1.665-.089-1.29-1.616-1.42-2.818" transform="translate(-37.19 -231.784)" fill="#12263f"/>
    <path id="Trazado_612140" data-name="Trazado 612140" d="M298.761,327.282c1.581,0,3.161-.01,4.742,0,1.027.009,1.693.607,1.678,1.464a1.52,1.52,0,0,1-1.718,1.436q-4.742.013-9.484,0c-1.037,0-1.7-.571-1.723-1.427-.022-.886.66-1.468,1.762-1.475,1.581-.009,3.161,0,4.742,0" transform="translate(-235.507 -263.729)" fill="#12263f"/>
    <path id="Trazado_612141" data-name="Trazado 612141" d="M306.691,227.048c-1.255,0-2.511.015-3.765,0-1.1-.017-1.76-.609-1.747-1.511.013-.866.639-1.428,1.7-1.436q3.91-.029,7.82,0a1.512,1.512,0,0,1,1.666,1.486,1.562,1.562,0,0,1-1.719,1.457c-1.319.022-2.639.005-3.959.005" transform="translate(-242.696 -180.57)" fill="#12263f"/>
    <rect id="Rect치ngulo_303194" data-name="Rect치ngulo 303194" width="15.688" height="5.093" transform="translate(17.016 46.236)" fill="#b2ebf2"/>
    <path id="Trazado_612142" data-name="Trazado 612142" d="M418.593,121.522h-7.775c0-2.568-.145-5.117.046-7.641a3.74,3.74,0,0,1,4.158-3.218,3.8,3.8,0,0,1,3.556,3.673c.061,2.376.014,4.755.014,7.186" transform="translate(-331.004 -89.168)" fill="#26aab7"/>
    <path id="Trazado_612143" data-name="Trazado 612143" d="M116.2,167.583c-.444-2-.894-4.007-1.331-6.013-.432-1.982-.82-3.974-1.291-5.946-.2-.846.042-1.119.882-1.091,1.225.041,2.454.035,3.68,0,.775-.021,1.024.2.84,1.024-.895,3.988-1.736,7.988-2.6,11.983l-.183.041" transform="translate(-91.472 -124.524)" fill="#fb8c00"/>
    <path id="Trazado_612144" data-name="Trazado 612144" d="M110.827,283.212l-.418-2.769h6.847c-.094.8-.157,1.591-.3,2.363a.7.7,0,0,1-.537.389c-1.829.029-3.659.018-5.592.018" transform="translate(-88.97 -225.987)" fill="#e8e8e8"/>
  </g>
</svg>
