<svg xmlns="http://www.w3.org/2000/svg" width="144.088" height="127.277" viewBox="0 0 144.088 127.277">
  <g id="Grupo_892585" data-name="Grupo 892585" transform="translate(47.632 33.714)">
    <rect id="Rectángulo_49533" data-name="Rectángulo 49533" width="89.789" height="83.368" transform="translate(6.667 10.195)" fill="#ffde96"/>
    <g id="emmf59" transform="translate(500.966 353.425)">
      <g id="Grupo_892598" data-name="Grupo 892598" transform="translate(-548.597 -387.139)">
        <path id="Trazado_612190" data-name="Trazado 612190" d="M-458.2-337.155h26.754v19.144h-26.771v7.664h26.746v19.229h-26.721v7.707h15.073c0,2.676.325,5.268-.071,7.746a9.213,9.213,0,0,1-9.278,7.64q-38.483.014-76.965,0a9.516,9.516,0,0,1-9.539-9.659q-.012-40.824.021-81.648a1.757,1.757,0,0,0-1.33-1.968,13.383,13.383,0,0,1-8.029-15.234,13.451,13.451,0,0,1,13.112-10.6q44.066-.02,88.131.014a3.347,3.347,0,0,1,1.664.479q6.537,4.02,13.027,8.118c3.968,2.5,3.965,7.142-.015,9.661q-6.534,4.136-13.125,8.185a3.17,3.17,0,0,1-1.565.409c-3.678.034-7.356.018-11.12.018Zm-76.942-23.035v1.39q0,40.167,0,80.335c0,.36-.011.722.013,1.08a5.769,5.769,0,0,0,7.269,5.294,5.809,5.809,0,0,0,4.244-5.607c.037-1.866.007-3.733.007-5.73h61.427v-7.666h-3.833V-298.8h-11.479v-13.442a8.223,8.223,0,0,0-3.809,6.211c-.1,1.193-.033,2.4-.044,3.6a11.513,11.513,0,0,1-14.513,10.96,11.181,11.181,0,0,1-8.477-11.264,11.786,11.786,0,0,0-4.229-10c-6.135-5.51-8.321-12.665-7.033-20.76,1.62-10.182,10.855-18.463,20.966-19.027,11.044-.616,20.8,6.023,23.8,16.311.629,2.155.868,4.424,1.29,6.659h3.591v-7.675h3.764v-22.96Zm49.9,53.713c.227-.94.383-1.809.648-2.644a13.665,13.665,0,0,1,4.3-5.939,18.558,18.558,0,0,0,6.272-17.927,19.245,19.245,0,0,0-21.337-15.56c-10.606,1.313-18.54,12.1-16.379,22.568a19.786,19.786,0,0,0,6.894,11.481,11.927,11.927,0,0,1,3.964,6.287c.147.568.239,1.15.352,1.7h3.657c-.383-5.768-.762-11.455-1.145-17.229-.918,0-1.713.007-2.509,0a5.723,5.723,0,0,1-5.783-5.532,5.741,5.741,0,0,1,5.329-5.98c3.52-.161,6.208,2.083,6.431,5.359.051.748.142,1.493.215,2.239h2.949c.074-.832.152-1.588.208-2.344.234-3.187,2.938-5.407,6.407-5.254a5.742,5.742,0,0,1,5.349,5.845,5.723,5.723,0,0,1-5.652,5.667c-.863.013-1.725,0-2.647,0l-1.135,17.264Zm-36.437,34.623h1.2q33.739,0,67.478,0c4.3,0,6.979-3.369,6.1-7.6H-519.8A10.8,10.8,0,0,1-521.682-271.855Zm72.019-101.867a4,4,0,0,0-3.721-1.942q-35.284.1-70.568.046h-1.491v3.852h1.525q35.1,0,70.208.037C-451.956-371.725-450.587-372.04-449.663-373.722Zm-.281-9.5h-75.494v3.767h60.372c4.082,0,8.165.013,12.247-.02a1.61,1.61,0,0,0,1.2-.451C-451-380.933-450.53-382.035-449.944-383.219Zm.025,19.083c-.5-.995-1-1.852-1.358-2.768A1.533,1.533,0,0,0-453-367.953q-35.6.038-71.2.021h-1.23v3.8ZM-462.041-333.3v11.388h26.751V-333.3Zm0,26.9v11.388h26.757v-11.388Zm-67.377-76.89c-2.133,0-4.133-.082-6.125.017a9.577,9.577,0,0,0-8.973,7.642,9.578,9.578,0,0,0,5.552,10.712c3.093,1.339,6.34.689,9.547.83Zm63.412,65.336v-7.713c-1.167,0-2.2.035-3.239-.012-.689-.032-.874.243-1.1.894-.857,2.433-1.872,4.809-2.8,7.217a5.374,5.374,0,0,0-.484,1.787c-.043,4-.022,8-.022,12v1.119h7.715v-7.673h3.762v-7.617Zm20.041-47c4-2.5,7.869-4.891,11.713-7.329,1.248-.791,1.283-2.02.065-2.794-3.875-2.463-7.783-4.874-11.77-7.361-.66,1.306-1.262,2.56-1.927,3.78a.928.928,0,0,0,.223,1.325c1.246,1.161,2.443,2.375,3.763,3.669l-4.357,4.133Zm-39.268,62.408H-500.5a7.7,7.7,0,0,0,7.569,7.621A7.693,7.693,0,0,0-485.236-302.538Zm-8.887-21.2c.375,5.6.742,11.07,1.108,16.54l.3-.01c.363-5.469.727-10.939,1.1-16.53h-2.506Zm-4.28-3.839a18.383,18.383,0,0,0-.014-2.076,1.993,1.993,0,0,0-2.183-1.76,2.019,2.019,0,0,0-1.863,1.856,1.982,1.982,0,0,0,1.984,1.973C-499.812-327.545-499.141-327.58-498.4-327.58Zm11.063,0c.7,0,1.372.031,2.037-.007a1.986,1.986,0,0,0,2.028-1.931,2.016,2.016,0,0,0-1.94-1.9,1.983,1.983,0,0,0-2.115,1.837C-487.392-328.962-487.34-328.328-487.34-327.579Z" transform="translate(548.597 387.139)" fill="#12263f"/>
        <path id="Trazado_612191" data-name="Trazado 612191" d="M-457.337-83.334v3.685h-19.092v-3.685Z" transform="translate(493.793 156.433)" fill="#12263f"/>
        <path id="Trazado_612192" data-name="Trazado 612192" d="M-457.332-51.387V-47.7h-19.092v-3.683Z" transform="translate(493.79 132.172)" fill="#12263f"/>
        <path id="Trazado_612193" data-name="Trazado 612193" d="M-476.448-15.854V-19.54h19.092v3.686Z" transform="translate(493.808 107.988)" fill="#12263f"/>
        <path id="Trazado_612194" data-name="Trazado 612194" d="M-476.393,12.376h3.678v3.7h-3.678Z" transform="translate(493.766 83.751)" fill="#12263f"/>
        <path id="Trazado_612195" data-name="Trazado 612195" d="M-440.652,12.448v3.664h-3.727V12.448Z" transform="translate(469.455 83.697)" fill="#12263f"/>
        <path id="Trazado_612196" data-name="Trazado 612196" d="M-412.372,12.247h3.642v3.727h-3.642Z" transform="translate(445.149 83.849)" fill="#12263f"/>
        <path id="Trazado_612197" data-name="Trazado 612197" d="M-169.166-143.491h-3.664v-3.727h3.664Z" transform="translate(263.244 204.945)" fill="#12263f"/>
        <path id="Trazado_612198" data-name="Trazado 612198" d="M-140.9-147.381h3.67v3.727h-3.67Z" transform="translate(238.996 205.069)" fill="#12263f"/>
        <path id="Trazado_612199" data-name="Trazado 612199" d="M-105.3-143.554h-3.684v-3.7h3.684Z" transform="translate(214.762 204.977)" fill="#12263f"/>
        <path id="Trazado_612200" data-name="Trazado 612200" d="M-169.2-31.712h-3.642v-3.727h3.642Z" transform="translate(263.256 120.062)" fill="#12263f"/>
        <path id="Trazado_612201" data-name="Trazado 612201" d="M-141.065-31.737v-3.686h3.707v3.686Z" transform="translate(239.122 120.05)" fill="#12263f"/>
        <path id="Trazado_612202" data-name="Trazado 612202" d="M-105.321-31.712h-3.642v-3.727h3.642Z" transform="translate(214.744 120.062)" fill="#12263f"/>
      </g>
    </g>
  </g>
</svg>
